# Blender 4.2.2 LTS
# www.blender.org
o Teal
v -0.224177 3.124087 0.283515
v -0.221925 3.139254 0.283830
v -0.226273 3.153881 0.282794
v -0.269307 3.170010 0.276847
v -0.291185 3.155358 0.276803
v -0.296124 3.135628 0.276396
v -0.284681 3.111504 0.275877
v -0.259468 3.102652 0.275662
v -0.239531 3.108491 0.276448
v -0.243183 3.167694 0.277005
v 0.160040 3.160625 0.282483
v 0.137991 3.123721 0.281736
v 0.126623 3.193525 0.277114
v 0.148383 3.179028 0.276547
v 0.147402 3.135575 0.275876
v 0.116341 3.124262 0.275675
v 0.093373 3.137872 0.275987
v 0.095561 3.182210 0.276913
v -0.099295 3.076897 0.368064
v -0.081715 3.016905 0.334297
v -0.097595 3.076112 0.344547
v -0.081381 3.020740 0.314054
v -0.062859 3.005465 0.327839
v -0.066406 3.077932 0.369698
v -0.033594 3.080557 0.368063
v -0.045223 3.018938 0.334297
v -0.035208 3.079587 0.344547
v -0.063624 3.021081 0.313706
v -0.045929 3.022715 0.314054
v -0.224177 3.124087 0.283515
v -0.221925 3.139254 0.283830
v -0.226273 3.153881 0.282794
v -0.290368 3.198531 0.287146
v -0.312912 3.183486 0.287095
v -0.328783 3.146515 0.286102
v -0.330246 3.119111 0.286454
v -0.317282 3.094934 0.285245
v -0.297083 3.076764 0.284841
v -0.271413 3.067751 0.284622
v -0.243849 3.067910 0.285280
v -0.218721 3.079956 0.285503
v -0.201214 3.101400 0.285244
v -0.191348 3.140805 0.286058
v -0.206214 3.178013 0.286618
v -0.225206 3.197069 0.287277
v -0.250876 3.206082 0.287495
v -0.269307 3.170010 0.276847
v -0.291185 3.155358 0.276803
v -0.296124 3.135628 0.276396
v -0.284681 3.111504 0.275877
v -0.259468 3.102652 0.275662
v -0.239531 3.108491 0.276448
v -0.243183 3.167694 0.277005
v 0.160040 3.160625 0.282483
v 0.137991 3.123721 0.281736
v 0.083337 3.163885 0.282641
v 0.131782 3.227400 0.287494
v 0.146217 3.227013 0.292071
v 0.168454 3.210303 0.287093
v 0.187521 3.189658 0.289745
v 0.192665 3.162151 0.286744
v 0.190480 3.133713 0.290064
v 0.163130 3.102402 0.284839
v 0.152828 3.091947 0.289234
v 0.124996 3.087089 0.285250
v 0.085575 3.098082 0.284839
v 0.059693 3.128618 0.285272
v 0.051717 3.154346 0.286058
v 0.057136 3.180853 0.286369
v 0.079898 3.214067 0.287276
v 0.104549 3.225883 0.287494
v 0.126623 3.193525 0.277114
v 0.148383 3.179028 0.276547
v 0.147402 3.135575 0.275876
v 0.116341 3.124262 0.275675
v 0.093373 3.137872 0.275987
v 0.095561 3.182210 0.276913
v 0.096979 3.086044 0.330073
v -0.264504 3.205572 0.352736
v 0.125191 3.083122 0.314088
v -0.271828 3.062837 0.307901
v 0.084030 3.091508 0.338806
v 0.103973 3.224260 0.359020
v -0.257468 3.061804 0.314089
v 0.146378 3.223727 0.340274
v 0.118154 3.226890 0.352735
v 0.072525 3.099480 0.346351
v 0.110877 3.083204 0.321839
v -0.243240 3.063476 0.321840
v -0.211672 3.185821 0.370236
v 0.062907 3.109596 0.353247
v 0.159332 3.218151 0.333177
v -0.194644 3.162772 0.372926
v -0.280174 3.203298 0.346068
v 0.055550 3.121429 0.359801
v -0.229694 3.067845 0.330074
v -0.285769 3.066540 0.303463
v 0.078168 3.211285 0.367458
v 0.050735 3.134522 0.365764
v 0.170842 3.210091 0.326922
v -0.329993 3.159054 0.317019
v -0.304606 3.192304 0.333178
v -0.206685 3.083926 0.346352
v 0.180463 3.199872 0.321543
v -0.315266 3.183010 0.326924
v -0.198108 3.095055 0.353248
v 0.049361 3.162609 0.372735
v -0.191946 3.107641 0.359802
v -0.188435 3.121198 0.365765
v 0.058989 3.189650 0.372081
v -0.327302 3.104074 0.301661
v 0.192650 3.174645 0.313445
v -0.187711 3.135207 0.370905
v -0.310291 3.081367 0.299350
v -0.334220 3.131334 0.308164
v 0.194737 3.160803 0.308162
v -0.236202 3.200801 0.363858
v 0.175817 3.108448 0.299348
v 0.139372 3.085745 0.307900
vn 0.4498 0.0142 0.8930
vn 0.5433 -0.4579 0.7037
vn 0.5108 -0.6383 0.5759
vn -0.7841 0.2443 0.5705
vn -0.1938 0.7300 0.6554
vn -0.6276 -0.5879 0.5104
vn -0.0548 0.9829 0.1758
vn -0.0937 0.9801 0.1748
vn -0.0932 0.9797 0.1775
vn -0.0547 0.9835 0.1723
vn -0.0153 0.9840 0.1773
vn -0.0154 0.9846 0.1743
vn 0.0810 -0.9961 0.0349
vn 0.0809 -0.9961 0.0349
vn 0.0302 -0.9989 0.0349
vn 0.0301 -0.9989 0.0349
vn 0.0556 -0.9978 0.0350
vn 0.0649 0.9171 0.3934
vn 0.6275 0.3715 0.6842
vn 0.9666 0.2485 0.0622
vn -0.9864 0.1524 0.0621
vn 0.6055 0.4685 0.6434
vn -0.5085 -0.6775 0.5314
vn -0.8757 0.0937 0.4737
vn -0.5911 0.2887 0.7531
vn -0.3805 0.5101 0.7714
vn 0.1353 0.4790 0.8673
vn -0.5764 -0.6172 0.5355
vn 0.4381 0.7304 0.5241
vn 0.2240 -0.7876 0.5741
vn 0.0609 -0.4882 0.8706
vn 0.0273 -0.4901 0.8712
vn -0.0064 -0.4918 0.8707
vn -0.0065 -0.4918 0.8707
vn -0.8675 -0.2492 0.4305
vn -0.3263 0.5463 0.7715
vn 0.9764 0.1255 0.1756
vn 0.0225 -0.1789 0.9836
vn 0.7573 0.3445 0.5548
vn 0.5127 0.8529 0.0981
vn 0.8756 0.4727 0.0989
vn 0.4381 0.0949 0.8939
vn 0.0381 -0.2337 0.9716
vn -0.0418 -0.9971 0.0632
vn 0.2013 0.4668 0.8612
vn -0.1482 0.9689 0.1980
vn 0.2327 0.1134 0.9659
vn -0.5787 -0.8003 0.1572
vn -0.0842 0.1139 0.9899
vn 0.9295 0.2321 0.2866
vn -0.3028 0.6443 0.7023
vn -0.4735 0.2195 0.8530
vn -0.8044 -0.1472 0.5756
vn -0.3791 -0.3932 0.8377
vn 0.1357 -0.5992 0.7890
vn 0.4449 -0.4111 0.7957
vn 0.7714 -0.3452 0.5347
vn 0.9310 0.0865 0.3547
vn 0.1261 -0.5215 0.8439
vn 0.4625 0.5363 0.7060
vn -0.0406 -0.2383 0.9704
vn -0.3270 -0.3092 0.8930
vn -0.2644 0.3401 0.9025
vn -0.6812 0.6789 0.2738
vn 0.3314 0.9308 -0.1543
vn 0.9579 -0.2787 0.0695
vn 0.9899 0.0459 0.1341
vn 0.6032 0.7680 0.2154
vn -0.9924 -0.0016 0.1232
vn 0.7950 -0.1087 0.5968
vn 0.4374 0.6612 0.6095
vn 0.0860 -0.8402 0.5354
vn -0.6900 -0.1193 0.7139
vn -0.6153 -0.2671 0.7416
vn 0.0533 -0.6345 0.7711
vn -0.4686 0.6584 0.5890
vn 0.1325 -0.1488 0.9799
vn 0.8194 0.2087 0.5339
vn 0.0302 -0.9972 -0.0679
vn -0.2805 -0.9568 -0.0764
vn 0.3376 -0.9368 -0.0916
vn -0.6286 -0.7632 -0.1498
vn 0.5791 -0.8131 -0.0592
vn 0.7296 -0.6820 -0.0506
vn 0.8131 -0.5704 0.1163
vn 0.8942 -0.4360 -0.1013
vn 0.9994 0.0340 -0.0034
vn 0.9619 0.2435 0.1242
vn 0.9564 0.2921 0.0019
vn 0.7643 0.6442 0.0307
vn 0.4508 0.8916 0.0439
vn 0.1187 0.9907 0.0663
vn -0.0828 0.9943 0.0672
vn -0.2776 0.9585 0.0653
vn -0.4592 0.8863 0.0606
vn -0.6515 0.7576 0.0403
vn -0.8704 0.4911 0.0355
vn -0.9489 0.3148 0.0232
vn -0.9918 0.1272 0.0124
vn -0.9884 -0.1406 -0.0567
vn -0.9063 -0.4219 -0.0261
vn 0.0808 -0.9944 -0.0679
vn -0.0076 -0.9990 0.0437
vn 0.2742 -0.9594 -0.0660
vn -0.2695 -0.9584 -0.0940
vn 0.4853 -0.8721 -0.0625
vn 0.6864 -0.7207 0.0972
vn 0.7700 -0.6304 -0.0981
vn -0.4360 -0.8999 -0.0103
vn -0.4875 -0.8713 -0.0558
vn -0.6528 -0.7559 -0.0495
vn -0.7915 -0.6098 -0.0400
vn -0.9333 -0.3556 -0.0503
vn -0.9979 0.0622 -0.0165
vn -0.8632 0.3274 -0.3844
vn -0.0279 0.9973 0.0676
vn -0.8472 0.5124 -0.1401
vn 0.1702 0.9832 0.0653
vn 0.3607 0.9306 0.0618
vn 0.5680 0.8217 0.0462
vn 0.6873 0.7249 0.0455
vn 0.8161 0.5767 0.0363
vn 0.9129 0.4076 0.0239
vn 0.9746 0.2234 0.0121
vn 0.9951 -0.0898 -0.0419
vt 0.862459 0.227631
vt 0.862459 0.272369
vt 0.851390 0.291997
vt 0.864662 0.250000
vt 0.857634 0.228590
vt 0.845338 0.313703
vt 0.588101 0.750000
vt 0.587119 0.758318
vt 0.562500 0.764186
vt 0.562500 0.750000
vt 0.750000 0.135338
vt 0.728590 0.142366
vt 0.813703 0.154662
vt 0.791997 0.148611
vt 0.728590 0.357635
vt 0.658752 0.310970
vt 0.642366 0.271410
vt 0.658752 0.189030
vt 0.708003 0.148611
vt 0.841248 0.310970
vt 0.810970 0.158752
vt 0.648611 0.208003
vt 0.648611 0.291997
vt 0.706121 0.355934
vt 0.686297 0.345338
vt 0.888859 0.277621
vt 0.957024 0.335752
vt 0.793716 0.469776
vt 0.777621 0.388859
vt 0.588072 0.088072
vt 0.542975 0.164248
vt 0.705324 0.025400
vt 0.664248 0.457025
vt 0.794676 0.474600
vt 0.705325 0.474601
vt 0.662365 0.038431
vt 0.750000 0.020999
vt 0.835752 0.042976
vt 0.563683 0.374493
vt 0.625507 0.063683
vt 0.957024 0.164248
vt 0.969776 0.293716
vt 0.888859 0.222379
vt 0.828657 0.132281
vt 0.722379 0.111141
vt 0.649888 0.149888
vt 0.611141 0.222379
vt 0.608420 0.250000
vt 0.632281 0.328658
vt 0.695820 0.380803
vt 0.828658 0.367719
vt 0.874493 0.436317
vt 0.706284 0.030224
vt 0.877226 0.059593
vt 0.794676 0.025399
vt 0.542976 0.335753
vt 0.525399 0.205324
vt 0.520999 0.250000
vt 0.837635 0.038431
vt 0.911928 0.088072
vt 0.538431 0.337635
vt 0.626746 0.274517
vt 0.626760 0.274514
vt 0.624331 0.250000
vt 0.632281 0.171343
vt 0.867719 0.171343
vt 0.874493 0.063683
vt 0.750000 0.391580
vt 0.000000 0.516502
vt 0.000000 0.723297
vt 0.031250 0.744864
vt 1.000000 0.723297
vt 1.000000 0.516502
vt 0.968750 0.516502
vt 0.968750 0.702676
vt 0.125000 0.516502
vt 0.093750 0.516502
vt 0.125000 0.784601
vt 0.937500 0.681135
vt 0.906250 0.516502
vt 0.906250 0.657383
vt 0.875000 0.636672
vt 0.875000 0.516502
vt 0.843750 0.516502
vt 0.843750 0.619092
vt 0.812500 0.516502
vt 0.750000 0.516502
vt 0.750000 0.576308
vt 0.781250 0.593328
vt 0.718750 0.516502
vt 0.718750 0.563738
vt 0.687500 0.516502
vt 0.687500 0.556102
vt 0.656250 0.516502
vt 0.656250 0.553693
vt 0.625000 0.516502
vt 0.593750 0.516502
vt 0.593750 0.553207
vt 0.625000 0.549909
vt 0.562500 0.516502
vt 0.531250 0.516502
vt 0.531250 0.580553
vt 0.562500 0.565094
vt 0.500000 0.516502
vt 0.500000 0.601789
vt 0.468750 0.516502
vt 0.468750 0.628160
vt 0.437500 0.516502
vt 0.437500 0.655988
vt 0.406250 0.516502
vt 0.406250 0.685327
vt 0.375000 0.516502
vt 0.375000 0.710446
vt 0.343750 0.516502
vt 0.343750 0.733201
vt 0.312500 0.516502
vt 0.312500 0.754682
vt 0.281250 0.516502
vt 0.281250 0.774062
vt 0.250000 0.516502
vt 0.250000 0.790598
vt 0.218750 0.795829
vt 0.218750 0.516502
vt 0.187500 0.516502
vt 0.187500 0.795492
vt 0.156250 0.516502
vt 0.156250 0.791701
vt 0.062500 0.516502
vt 0.062500 0.761685
vt 0.093750 0.774466
vt 0.031250 0.516502
vt 0.125000 0.784602
vt 0.937500 0.681136
vt 0.937500 0.516502
vt 0.812500 0.604544
vt 0.781250 0.593329
vt 0.781250 0.516502
vt 0.718750 0.563739
vt 0.625000 0.549910
vt 0.531250 0.580554
vt 0.398910 0.692728
vt 0.281250 0.774063
vt 0.961569 0.337635
vt 0.911928 0.411928
vt 0.835752 0.457024
vt 0.622774 0.440407
vt 0.559593 0.377226
vt 0.837635 0.461569
vt 0.961569 0.162365
vt 0.974600 0.205324
s 1
f 7/1/1 5/3/3 6/2/2
f 11/4/4 14/6/6 15/5/5
f 28/7/7 22/8/12 20/8/11 23/7/10 26/8/9 29/8/8
f 25/9/13 24/10/17 19/9/16 21/9/15 27/9/14
f 12/11/18 15/13/5 16/12/19
f 20/8/20 22/8/20 21/9/20 19/9/20
f 26/8/21 25/9/21 27/9/21 29/8/21
f 8/14/22 9/19/27 1/18/26 2/17/25 3/16/24 4/15/23 5/3/3 7/5/1
f 13/15/28 18/23/30 17/22/29 16/12/19 15/21/5 14/20/6
f 27/9/31 21/9/34 22/8/33 28/7/32 29/8/31
f 3/16/24 10/25/35 4/24/23
f 48/26/36 47/29/39 33/28/38 35/27/37
f 66/30/40 65/32/42 67/31/41
f 45/33/43 46/35/44 33/34/38
f 41/36/45 39/38/47 40/37/46
f 44/39/48 45/33/43 33/28/38 47/29/39 53/50/58 32/49/57 31/48/56 30/47/55 52/46/54 51/45/53 50/44/52 49/43/51 48/26/36 35/42/37 37/41/50 39/38/47 41/40/45 42/31/49
f 54/26/59 61/42/63 60/27/62 59/52/61 73/51/60
f 65/53/42 64/55/65 63/54/64
f 69/56/66 68/58/67 67/57/41
f 39/59/47 37/41/50 38/60/68
f 44/61/48 42/31/49 43/57/69
f 56/62/70 76/64/72 77/63/71
f 76/65/72 56/48/70 77/49/71 72/68/78 73/51/60 59/52/61 71/33/77 69/56/66 67/31/41 65/53/42 63/67/64 62/41/76 61/42/63 54/26/59 74/66/75 55/44/74 75/45/73
f 46/69/44 117/71/80 79/70/79
f 79/72/79 94/75/81 33/74/38 46/73/44
f 44/76/48 90/78/82 45/77/43
f 94/79/81 102/81/83 33/80/38
f 105/82/84 34/83/85 33/80/38 102/81/83
f 105/82/84 101/85/86 34/84/85
f 101/85/86 35/86/37 34/84/85
f 35/87/37 101/89/86 115/88/87
f 35/87/37 115/88/87 111/91/89 36/90/88
f 111/91/89 37/92/50 36/90/88
f 111/93/89 114/95/90 37/94/50
f 37/94/50 114/95/90 38/96/68
f 38/97/68 114/99/90 97/98/91
f 38/97/68 97/98/91 39/100/47
f 39/101/47 97/103/91 81/102/92
f 40/104/46 39/101/47 81/102/92 84/105/93
f 84/105/93 89/107/94 40/106/46
f 89/107/94 96/109/95 41/108/45 40/106/46
f 96/109/95 103/111/96 41/110/45
f 103/111/96 42/112/49 41/110/45
f 103/113/96 106/115/97 42/114/49
f 106/115/97 108/117/98 42/116/49
f 108/117/98 109/119/99 43/118/69 42/116/49
f 109/119/99 113/121/100 43/120/69
f 113/122/100 93/125/101 44/124/48 43/123/69
f 93/125/101 90/127/82 44/126/48
f 45/128/43 90/130/82 117/129/80
f 45/128/43 117/129/80 46/131/44
f 86/70/102 83/71/104 71/131/77 57/69/103
f 85/75/105 86/72/102 57/73/103
f 98/130/106 110/132/108 70/76/107
f 85/133/105 57/74/103 58/134/109
f 92/81/110 85/133/105 58/134/109 59/80/61
f 100/82/111 92/81/110 59/80/61
f 104/85/112 100/82/111 59/83/61 60/84/62
f 112/135/113 104/85/112 60/84/62
f 112/136/113 60/86/62 61/137/63
f 116/88/114 112/136/113 61/137/63
f 62/92/76 116/138/114 61/90/63
f 118/139/115 62/94/76 63/96/64
f 64/100/65 118/98/115 63/97/64
f 80/105/116 119/140/117 64/101/65 65/104/42
f 88/107/118 80/105/116 65/104/42
f 78/109/119 88/107/118 65/106/42 66/108/40
f 82/111/120 78/109/119 66/108/40
f 87/113/121 82/141/120 66/110/40
f 91/115/122 87/113/121 66/112/40 67/114/41
f 95/117/123 91/115/122 67/114/41
f 99/142/124 95/117/123 67/116/41
f 107/121/125 99/142/124 67/118/41 68/120/67
f 107/122/125 68/120/67 69/123/66
f 110/125/108 107/122/125 69/123/66
f 110/132/108 69/126/66 70/76/107
f 98/129/106 70/77/107 71/128/77
f 83/71/104 98/129/106 71/128/77
f 35/143/37 33/145/38 34/144/85
f 70/146/107 69/147/66 71/33/77
f 57/34/103 71/35/77 59/52/61 58/148/109
f 35/42/37 36/150/88 37/149/50
