# Blender 4.2.2 LTS
# www.blender.org
o Teal
v -0.259896 3.116584 0.283515
v -0.258063 3.131814 0.283830
v -0.262811 3.146299 0.282794
v -0.306271 3.161073 0.276848
v -0.327736 3.145743 0.276803
v -0.332130 3.125867 0.276396
v -0.320028 3.102112 0.275877
v -0.294582 3.094053 0.275662
v -0.274814 3.100513 0.276449
v -0.280093 3.159576 0.277006
v 0.123150 3.165137 0.282482
v 0.102126 3.127558 0.281735
v 0.088842 3.196976 0.277113
v 0.110992 3.183167 0.276547
v 0.111206 3.139702 0.275875
v 0.080470 3.127420 0.275675
v 0.057138 3.140306 0.275987
v 0.058105 3.184693 0.276913
v -0.133769 3.073324 0.368064
v -0.114547 3.013908 0.334297
v -0.132049 3.072592 0.344547
v -0.114319 3.017753 0.314054
v -0.095384 3.003064 0.327839
v -0.100923 3.075389 0.369698
v -0.068198 3.079040 0.368063
v -0.078126 3.017083 0.334297
v -0.069785 3.078020 0.344547
v -0.096578 3.018650 0.313706
v -0.078937 3.020837 0.314054
v -0.259896 3.116584 0.283515
v -0.258063 3.131814 0.283830
v -0.262811 3.146299 0.282794
v -0.328107 3.188923 0.287147
v -0.350227 3.173178 0.287095
v -0.365074 3.135727 0.286102
v -0.365783 3.108289 0.286454
v -0.352159 3.084528 0.285245
v -0.331469 3.066998 0.284841
v -0.305562 3.058793 0.284622
v -0.278014 3.059815 0.285281
v -0.253228 3.072642 0.285503
v -0.236319 3.094625 0.285245
v -0.227541 3.134322 0.286059
v -0.243424 3.171049 0.286618
v -0.262933 3.189502 0.287277
v -0.288840 3.197707 0.287496
v -0.306271 3.161073 0.276848
v -0.327736 3.145743 0.276803
v -0.332130 3.125867 0.276396
v -0.320028 3.102112 0.275877
v -0.294582 3.094053 0.275662
v -0.274814 3.100513 0.276449
v -0.280093 3.159576 0.277006
v 0.123150 3.165137 0.282482
v 0.102126 3.127558 0.281735
v 0.046390 3.165993 0.282641
v 0.093067 3.230998 0.287494
v 0.107506 3.231063 0.292070
v 0.130194 3.215056 0.287093
v 0.149820 3.195017 0.289744
v 0.155719 3.167684 0.286743
v 0.154317 3.139189 0.290064
v 0.127840 3.107036 0.284839
v 0.117830 3.096262 0.289233
v 0.090145 3.090534 0.285250
v 0.050438 3.100289 0.284839
v 0.023726 3.130001 0.285272
v 0.015047 3.155468 0.286057
v 0.019734 3.182134 0.286369
v 0.041573 3.216046 0.287275
v 0.065888 3.228629 0.287494
v 0.088842 3.196976 0.277113
v 0.110992 3.183167 0.276547
v 0.111206 3.139702 0.275875
v 0.080470 3.127420 0.275675
v 0.057138 3.140306 0.275987
v 0.058105 3.184693 0.276913
v 0.062168 3.088613 0.330073
v -0.302448 3.196771 0.352737
v 0.090448 3.086575 0.314088
v -0.305842 3.053868 0.307901
v 0.049075 3.093670 0.338806
v 0.065357 3.226988 0.359020
v -0.291459 3.053285 0.314089
v 0.107758 3.227783 0.340274
v 0.079460 3.230062 0.352735
v 0.037355 3.101278 0.346351
v 0.076139 3.086210 0.321839
v -0.277284 3.055402 0.321840
v -0.249095 3.178682 0.370236
v 0.027463 3.111089 0.353247
v 0.120860 3.222615 0.333177
v -0.231440 3.156177 0.372926
v -0.318048 3.194007 0.346069
v 0.019784 3.122685 0.359801
v -0.263864 3.060193 0.330075
v -0.319878 3.057133 0.303463
v 0.039920 3.213211 0.367458
v 0.014611 3.135623 0.365764
v 0.132586 3.214920 0.326922
v -0.366629 3.148222 0.317019
v -0.342167 3.182253 0.333179
v -0.241306 3.076987 0.346352
v 0.142485 3.205006 0.321542
v -0.352567 3.172629 0.326924
v -0.233040 3.088381 0.353248
v 0.012464 3.163654 0.372735
v -0.227226 3.101154 0.359802
v -0.224089 3.114815 0.365765
v 0.021345 3.190985 0.372080
v -0.362426 3.093350 0.301661
v 0.155360 3.180171 0.313445
v -0.223752 3.128840 0.370905
v -0.344798 3.071186 0.299350
v -0.370091 3.120382 0.308164
v 0.157828 3.166400 0.308162
v -0.274026 3.192888 0.363859
v 0.140355 3.113476 0.299348
v 0.104551 3.089641 0.307899
vn 0.4492 0.0281 0.8930
vn 0.5560 -0.4424 0.7036
vn 0.5289 -0.6233 0.5760
vn -0.7908 0.2221 0.5704
vn -0.2145 0.7241 0.6555
vn -0.6101 -0.6060 0.5105
vn -0.0855 0.9807 0.1757
vn -0.1243 0.9768 0.1747
vn -0.1236 0.9763 0.1775
vn -0.0854 0.9814 0.1721
vn -0.0458 0.9831 0.1772
vn -0.0462 0.9836 0.1742
vn 0.1122 -0.9931 0.0349
vn 0.1121 -0.9931 0.0349
vn 0.0615 -0.9975 0.0349
vn 0.0614 -0.9975 0.0349
vn 0.0868 -0.9956 0.0350
vn 0.0373 0.9187 0.3933
vn 0.6157 0.3909 0.6842
vn 0.9594 0.2752 0.0623
vn -0.9902 0.1251 0.0621
vn 0.5907 0.4872 0.6432
vn -0.4878 -0.6924 0.5316
vn -0.8781 0.0682 0.4736
vn -0.5988 0.2722 0.7532
vn -0.3945 0.4993 0.7714
vn 0.1212 0.4830 0.8672
vn -0.5572 -0.6346 0.5355
vn 0.4174 0.7424 0.5241
vn 0.2461 -0.7810 0.5741
vn 0.0762 -0.4863 0.8705
vn 0.0761 -0.4862 0.8705
vn 0.0426 -0.4891 0.8712
vn 0.0090 -0.4918 0.8707
vn 0.0089 -0.4918 0.8707
vn -0.8594 -0.2761 0.4303
vn -0.3417 0.5362 0.7718
vn 0.9725 0.1531 0.1756
vn 0.0289 -0.1773 0.9837
vn 0.7463 0.3676 0.5550
vn 0.4872 0.8678 0.0981
vn 0.8614 0.4982 0.0991
vn 0.4348 0.1085 0.8940
vn 0.0445 -0.2324 0.9716
vn -0.0108 -0.9979 0.0632
vn 0.1876 0.4727 0.8610
vn -0.1782 0.9639 0.1979
vn 0.2290 0.1206 0.9659
vn -0.5560 -0.8162 0.1570
vn -0.0871 0.1117 0.9899
vn 0.9224 0.2584 0.2871
vn -0.3207 0.6356 0.7022
vn -0.4796 0.2058 0.8530
vn -0.7994 -0.1721 0.5756
vn -0.3669 -0.4047 0.8376
vn 0.1529 -0.5950 0.7891
vn 0.4560 -0.3987 0.7957
vn 0.7809 -0.3232 0.5346
vn 0.9279 0.1146 0.3549
vn 0.1411 -0.5176 0.8439
vn 0.4466 0.5499 0.7058
vn -0.0336 -0.2395 0.9703
vn -0.3182 -0.3187 0.8929
vn -0.2752 0.3347 0.9012
vn -0.7009 0.6588 0.2734
vn 0.3031 0.9403 -0.1547
vn 0.9653 -0.2518 0.0694
vn 0.9883 0.0733 0.1340
vn 0.5798 0.7857 0.2157
vn -0.9920 -0.0292 0.1232
vn 0.7978 -0.0860 0.5968
vn 0.4171 0.6740 0.6097
vn 0.1110 -0.8374 0.5353
vn -0.6861 -0.1404 0.7139
vn -0.6067 -0.2861 0.7417
vn 0.0716 -0.6329 0.7709
vn -0.4867 0.6450 0.5891
vn 0.1369 -0.1444 0.9800
vn 0.8127 0.2334 0.5339
vn 0.0614 -0.9958 -0.0680
vn -0.2510 -0.9650 -0.0764
vn 0.3665 -0.9259 -0.0917
vn -0.6058 -0.7814 -0.1498
vn 0.6035 -0.7952 -0.0593
vn 0.7493 -0.6603 -0.0508
vn 0.8294 -0.5464 0.1162
vn 0.9061 -0.4107 -0.1015
vn 0.9981 0.0616 -0.0034
vn 0.9548 0.2699 0.1243
vn 0.9477 0.3191 0.0022
vn 0.7448 0.6666 0.0312
vn 0.4230 0.9050 0.0442
vn 0.0877 0.9939 0.0664
vn -0.1138 0.9912 0.0672
vn -0.3069 0.9495 0.0651
vn -0.4857 0.8720 0.0604
vn -0.6732 0.7384 0.0400
vn -0.8839 0.4663 0.0353
vn -0.9573 0.2883 0.0231
vn -0.9949 0.0997 0.0124
vn -0.9842 -0.1680 -0.0567
vn -0.8939 -0.4475 -0.0261
vn 0.1119 -0.9914 -0.0679
vn 0.0237 -0.9988 0.0439
vn 0.3036 -0.9505 -0.0660
vn -0.2397 -0.9663 -0.0940
vn 0.5109 -0.8573 -0.0625
vn 0.7078 -0.6997 0.0973
vn 0.7876 -0.6083 -0.0982
vn -0.4080 -0.9129 -0.0103
vn -0.4610 -0.8857 -0.0558
vn -0.6300 -0.7750 -0.0494
vn -0.7735 -0.6325 -0.0400
vn -0.9230 -0.3816 -0.0504
vn -0.9993 0.0346 -0.0165
vn -0.8723 0.3017 -0.3849
vn -0.0591 0.9960 0.0675
vn -0.8627 0.4858 -0.1404
vn 0.1395 0.9881 0.0654
vn 0.3319 0.9413 0.0619
vn 0.5430 0.8385 0.0464
vn 0.6657 0.7448 0.0458
vn 0.7992 0.5999 0.0366
vn 0.9010 0.4331 0.0240
vn 0.9681 0.2504 0.0122
vn 0.9972 -0.0621 -0.0419
vt 0.862459 0.227631
vt 0.862459 0.272369
vt 0.851390 0.291997
vt 0.864662 0.250000
vt 0.857634 0.228590
vt 0.845338 0.313703
vt 0.588101 0.750000
vt 0.587119 0.758318
vt 0.562500 0.764186
vt 0.562500 0.750000
vt 0.750000 0.135338
vt 0.728590 0.142366
vt 0.813703 0.154662
vt 0.791997 0.148611
vt 0.728590 0.357635
vt 0.658752 0.310970
vt 0.642366 0.271410
vt 0.658752 0.189030
vt 0.708003 0.148611
vt 0.841248 0.310970
vt 0.810970 0.158752
vt 0.648611 0.208003
vt 0.648611 0.291997
vt 0.706121 0.355934
vt 0.686297 0.345338
vt 0.888859 0.277621
vt 0.957024 0.335752
vt 0.793716 0.469776
vt 0.777621 0.388859
vt 0.588072 0.088072
vt 0.542975 0.164248
vt 0.705324 0.025400
vt 0.664248 0.457025
vt 0.794676 0.474600
vt 0.705325 0.474601
vt 0.662365 0.038431
vt 0.750000 0.020999
vt 0.835752 0.042976
vt 0.563683 0.374493
vt 0.625507 0.063683
vt 0.957024 0.164248
vt 0.969776 0.293716
vt 0.888859 0.222379
vt 0.828657 0.132281
vt 0.722379 0.111141
vt 0.649888 0.149888
vt 0.611141 0.222379
vt 0.608420 0.250000
vt 0.632281 0.328658
vt 0.695820 0.380803
vt 0.828658 0.367719
vt 0.874493 0.436317
vt 0.706284 0.030224
vt 0.877226 0.059593
vt 0.794676 0.025399
vt 0.542976 0.335753
vt 0.525399 0.205324
vt 0.520999 0.250000
vt 0.837635 0.038431
vt 0.911928 0.088072
vt 0.538431 0.337635
vt 0.626746 0.274517
vt 0.626760 0.274514
vt 0.624331 0.250000
vt 0.632281 0.171343
vt 0.867719 0.171343
vt 0.874493 0.063683
vt 0.750000 0.391580
vt 0.000000 0.516502
vt 0.000000 0.723297
vt 0.031250 0.744864
vt 1.000000 0.723297
vt 1.000000 0.516502
vt 0.968750 0.516502
vt 0.968750 0.702676
vt 0.125000 0.516502
vt 0.093750 0.516502
vt 0.125000 0.784601
vt 0.937500 0.681135
vt 0.906250 0.516502
vt 0.906250 0.657383
vt 0.875000 0.636672
vt 0.875000 0.516502
vt 0.843750 0.516502
vt 0.843750 0.619092
vt 0.812500 0.516502
vt 0.750000 0.516502
vt 0.750000 0.576308
vt 0.781250 0.593328
vt 0.718750 0.516502
vt 0.718750 0.563738
vt 0.687500 0.516502
vt 0.687500 0.556102
vt 0.656250 0.516502
vt 0.656250 0.553693
vt 0.625000 0.516502
vt 0.593750 0.516502
vt 0.593750 0.553207
vt 0.625000 0.549909
vt 0.562500 0.516502
vt 0.531250 0.516502
vt 0.531250 0.580553
vt 0.562500 0.565094
vt 0.500000 0.516502
vt 0.500000 0.601789
vt 0.468750 0.516502
vt 0.468750 0.628160
vt 0.437500 0.516502
vt 0.437500 0.655988
vt 0.406250 0.516502
vt 0.406250 0.685327
vt 0.375000 0.516502
vt 0.375000 0.710446
vt 0.343750 0.516502
vt 0.343750 0.733201
vt 0.312500 0.516502
vt 0.312500 0.754682
vt 0.281250 0.516502
vt 0.281250 0.774062
vt 0.250000 0.516502
vt 0.250000 0.790598
vt 0.218750 0.795829
vt 0.218750 0.516502
vt 0.187500 0.516502
vt 0.187500 0.795492
vt 0.156250 0.516502
vt 0.156250 0.791701
vt 0.062500 0.516502
vt 0.062500 0.761685
vt 0.093750 0.774466
vt 0.031250 0.516502
vt 0.125000 0.784602
vt 0.937500 0.681136
vt 0.937500 0.516502
vt 0.812500 0.604544
vt 0.781250 0.593329
vt 0.781250 0.516502
vt 0.718750 0.563739
vt 0.625000 0.549910
vt 0.531250 0.580554
vt 0.398910 0.692728
vt 0.281250 0.774063
vt 0.961569 0.337635
vt 0.911928 0.411928
vt 0.835752 0.457024
vt 0.622774 0.440407
vt 0.559593 0.377226
vt 0.837635 0.461569
vt 0.961569 0.162365
vt 0.974600 0.205324
s 1
f 7/1/1 5/3/3 6/2/2
f 11/4/4 14/6/6 15/5/5
f 28/7/7 22/8/12 20/8/11 23/7/10 26/8/9 29/8/8
f 25/9/13 24/10/17 19/9/16 21/9/15 27/9/14
f 12/11/18 15/13/5 16/12/19
f 20/8/20 22/8/20 21/9/20 19/9/20
f 26/8/21 25/9/21 27/9/21 29/8/21
f 8/14/22 9/19/27 1/18/26 2/17/25 3/16/24 4/15/23 5/3/3 7/5/1
f 13/15/28 18/23/30 17/22/29 16/12/19 15/21/5 14/20/6
f 27/9/31 21/9/35 22/8/34 28/7/33 29/8/32
f 3/16/24 10/25/36 4/24/23
f 48/26/37 47/29/40 33/28/39 35/27/38
f 66/30/41 65/32/43 67/31/42
f 45/33/44 46/35/45 33/34/39
f 41/36/46 39/38/48 40/37/47
f 44/39/49 45/33/44 33/28/39 47/29/40 53/50/59 32/49/58 31/48/57 30/47/56 52/46/55 51/45/54 50/44/53 49/43/52 48/26/37 35/42/38 37/41/51 39/38/48 41/40/46 42/31/50
f 54/26/60 61/42/64 60/27/63 59/52/62 73/51/61
f 65/53/43 64/55/66 63/54/65
f 69/56/67 68/58/68 67/57/42
f 39/59/48 37/41/51 38/60/69
f 44/61/49 42/31/50 43/57/70
f 56/62/71 76/64/73 77/63/72
f 76/65/73 56/48/71 77/49/72 72/68/79 73/51/61 59/52/62 71/33/78 69/56/67 67/31/42 65/53/43 63/67/65 62/41/77 61/42/64 54/26/60 74/66/76 55/44/75 75/45/74
f 46/69/45 117/71/81 79/70/80
f 79/72/80 94/75/82 33/74/39 46/73/45
f 44/76/49 90/78/83 45/77/44
f 94/79/82 102/81/84 33/80/39
f 105/82/85 34/83/86 33/80/39 102/81/84
f 105/82/85 101/85/87 34/84/86
f 101/85/87 35/86/38 34/84/86
f 35/87/38 101/89/87 115/88/88
f 35/87/38 115/88/88 111/91/90 36/90/89
f 111/91/90 37/92/51 36/90/89
f 111/93/90 114/95/91 37/94/51
f 37/94/51 114/95/91 38/96/69
f 38/97/69 114/99/91 97/98/92
f 38/97/69 97/98/92 39/100/48
f 39/101/48 97/103/92 81/102/93
f 40/104/47 39/101/48 81/102/93 84/105/94
f 84/105/94 89/107/95 40/106/47
f 89/107/95 96/109/96 41/108/46 40/106/47
f 96/109/96 103/111/97 41/110/46
f 103/111/97 42/112/50 41/110/46
f 103/113/97 106/115/98 42/114/50
f 106/115/98 108/117/99 42/116/50
f 108/117/99 109/119/100 43/118/70 42/116/50
f 109/119/100 113/121/101 43/120/70
f 113/122/101 93/125/102 44/124/49 43/123/70
f 93/125/102 90/127/83 44/126/49
f 45/128/44 90/130/83 117/129/81
f 45/128/44 117/129/81 46/131/45
f 86/70/103 83/71/105 71/131/78 57/69/104
f 85/75/106 86/72/103 57/73/104
f 98/130/107 110/132/109 70/76/108
f 85/133/106 57/74/104 58/134/110
f 92/81/111 85/133/106 58/134/110 59/80/62
f 100/82/112 92/81/111 59/80/62
f 104/85/113 100/82/112 59/83/62 60/84/63
f 112/135/114 104/85/113 60/84/63
f 112/136/114 60/86/63 61/137/64
f 116/88/115 112/136/114 61/137/64
f 62/92/77 116/138/115 61/90/64
f 118/139/116 62/94/77 63/96/65
f 64/100/66 118/98/116 63/97/65
f 80/105/117 119/140/118 64/101/66 65/104/43
f 88/107/119 80/105/117 65/104/43
f 78/109/120 88/107/119 65/106/43 66/108/41
f 82/111/121 78/109/120 66/108/41
f 87/113/122 82/141/121 66/110/41
f 91/115/123 87/113/122 66/112/41 67/114/42
f 95/117/124 91/115/123 67/114/42
f 99/142/125 95/117/124 67/116/42
f 107/121/126 99/142/125 67/118/42 68/120/68
f 107/122/126 68/120/68 69/123/67
f 110/125/109 107/122/126 69/123/67
f 110/132/109 69/126/67 70/76/108
f 98/129/107 70/77/108 71/128/78
f 83/71/105 98/129/107 71/128/78
f 35/143/38 33/145/39 34/144/86
f 70/146/108 69/147/67 71/33/78
f 57/34/104 71/35/78 59/52/62 58/148/110
f 35/42/38 36/150/89 37/149/51
