# Blender 4.2.2 LTS
# www.blender.org
o Teal
v -0.319282 3.101503 0.283516
v -0.318153 3.116811 0.283831
v -0.323564 3.131030 0.282794
v -0.367652 3.143504 0.276848
v -0.388384 3.127066 0.276804
v -0.391856 3.106984 0.276397
v -0.378673 3.083892 0.275878
v -0.352886 3.077179 0.275663
v -0.333441 3.084669 0.276449
v -0.341437 3.143383 0.277006
v 0.061061 3.170105 0.282482
v 0.041796 3.131468 0.281735
v 0.025326 3.200104 0.277113
v 0.048086 3.187475 0.276547
v 0.050305 3.144074 0.275875
v 0.020172 3.130193 0.275674
v -0.003726 3.141839 0.275986
v -0.004807 3.186223 0.276913
v -0.191312 3.064917 0.368064
v -0.169372 3.006582 0.334297
v -0.189560 3.064276 0.344548
v -0.169322 3.010433 0.314055
v -0.149733 2.996757 0.327839
v -0.158600 3.068703 0.369698
v -0.126084 3.074068 0.368063
v -0.133142 3.011665 0.334297
v -0.127621 3.072966 0.344547
v -0.151645 3.012261 0.313706
v -0.134125 3.015371 0.314054
v -0.319282 3.101503 0.283516
v -0.318153 3.116811 0.283831
v -0.323564 3.131030 0.282794
v -0.390746 3.170174 0.287147
v -0.412114 3.153287 0.287096
v -0.425215 3.115102 0.286103
v -0.424658 3.087659 0.286455
v -0.409954 3.064643 0.285246
v -0.388481 3.048220 0.284842
v -0.362227 3.041385 0.284623
v -0.334760 3.043852 0.285281
v -0.310595 3.057965 0.285504
v -0.294721 3.080809 0.285245
v -0.287784 3.120919 0.286059
v -0.305342 3.156767 0.286619
v -0.325677 3.174174 0.287277
v -0.351932 3.181009 0.287496
v -0.367652 3.143504 0.276848
v -0.388384 3.127066 0.276804
v -0.391856 3.106984 0.276397
v -0.378673 3.083892 0.275878
v -0.352886 3.077179 0.275663
v -0.333441 3.084669 0.276449
v -0.341437 3.143383 0.277006
v 0.061061 3.170105 0.282482
v 0.041796 3.131468 0.281735
v -0.015645 3.166930 0.282640
v 0.027978 3.234307 0.287494
v 0.042396 3.235130 0.292070
v 0.065794 3.220333 0.287092
v 0.086321 3.201349 0.289744
v 0.093474 3.174358 0.286743
v 0.093387 3.145824 0.290063
v 0.068425 3.112320 0.284838
v 0.058924 3.101034 0.289233
v 0.031536 3.093860 0.285250
v -0.008572 3.101518 0.284839
v -0.036622 3.129792 0.285272
v -0.046465 3.154773 0.286057
v -0.043014 3.181653 0.286369
v -0.022765 3.216670 0.287275
v 0.000940 3.230514 0.287494
v 0.025326 3.200104 0.277113
v 0.048086 3.187475 0.276547
v 0.050305 3.144074 0.275875
v 0.020172 3.130193 0.275674
v -0.003726 3.141839 0.275986
v -0.004807 3.186223 0.276913
v 0.003683 3.090472 0.330073
v -0.365480 3.179359 0.352737
v 0.032022 3.089922 0.314087
v -0.362279 3.036451 0.307902
v -0.009628 3.094836 0.338806
v 0.000487 3.228847 0.359020
v -0.347887 3.036624 0.314090
v 0.042799 3.231868 0.340273
v 0.014430 3.232657 0.352735
v -0.021684 3.101820 0.346350
v 0.017747 3.088805 0.321838
v -0.333826 3.039483 0.321841
v -0.311357 3.164093 0.370236
v -0.032016 3.111099 0.353246
v 0.056124 3.227393 0.333176
v -0.292685 3.142542 0.372927
v -0.380933 3.175781 0.346069
v -0.040222 3.122279 0.359800
v -0.320643 3.044972 0.330075
v -0.376449 3.038976 0.303464
v -0.024285 3.213752 0.367457
v -0.045985 3.134929 0.365763
v 0.068191 3.220323 0.326922
v -0.427344 3.127501 0.317020
v -0.404481 3.162774 0.333180
v -0.298888 3.062931 0.346353
v 0.078534 3.210941 0.321542
v -0.414425 3.152616 0.326925
v -0.291156 3.074744 0.353248
v -0.049421 3.162813 0.372735
v -0.285939 3.087807 0.359802
v -0.283436 3.101617 0.365765
v -0.041812 3.190578 0.372080
v -0.420616 3.072916 0.301662
v 0.092539 3.186812 0.313444
v -0.283746 3.115643 0.370905
v -0.401987 3.051703 0.299351
v -0.429518 3.099512 0.308165
v 0.095639 3.173187 0.308161
v -0.336913 3.176973 0.363859
v 0.080628 3.119410 0.299347
v 0.045967 3.093724 0.307899
vn 0.4473 0.0514 0.8929
vn 0.5764 -0.4156 0.7036
vn 0.5582 -0.5972 0.5760
vn -0.8004 0.1845 0.5703
vn -0.2487 0.7130 0.6556
vn -0.5795 -0.6352 0.5107
vn -0.1368 0.9750 0.1754
vn -0.1752 0.9690 0.1743
vn -0.1742 0.9686 0.1774
vn -0.1367 0.9756 0.1716
vn -0.0969 0.9795 0.1768
vn -0.0975 0.9799 0.1739
vn 0.1641 -0.9858 0.0349
vn 0.1640 -0.9859 0.0349
vn 0.1137 -0.9929 0.0349
vn 0.1136 -0.9929 0.0349
vn 0.1388 -0.9897 0.0350
vn -0.0088 0.9195 0.3929
vn 0.5945 0.4226 0.6841
vn 0.9454 0.3197 0.0624
vn -0.9949 0.0792 0.0620
vn 0.5646 0.5174 0.6430
vn -0.4522 -0.7160 0.5319
vn -0.8805 0.0250 0.4735
vn -0.6107 0.2440 0.7533
vn -0.4172 0.4802 0.7716
vn 0.0974 0.4888 0.8669
vn -0.5238 -0.6624 0.5355
vn 0.3818 0.7613 0.5240
vn 0.2826 -0.7685 0.5740
vn 0.1015 -0.4820 0.8703
vn 0.1015 -0.4819 0.8703
vn 0.0683 -0.4865 0.8710
vn 0.0347 -0.4908 0.8706
vn 0.0346 -0.4908 0.8706
vn -0.8440 -0.3204 0.4301
vn -0.3667 0.5185 0.7724
vn 0.9641 0.1990 0.1756
vn 0.0393 -0.1743 0.9839
vn 0.7261 0.4055 0.5552
vn 0.4432 0.8910 0.0980
vn 0.8357 0.5401 0.0995
vn 0.4285 0.1310 0.8940
vn 0.0554 -0.2299 0.9716
vn 0.0411 -0.9972 0.0632
vn 0.1644 0.4818 0.8607
vn -0.2282 0.9533 0.1977
vn 0.2222 0.1324 0.9660
vn -0.5168 -0.8416 0.1567
vn -0.0919 0.1078 0.9899
vn 0.9087 0.3022 0.2881
vn -0.3500 0.6200 0.7022
vn -0.4891 0.1823 0.8530
vn -0.7894 -0.2134 0.5756
vn -0.3458 -0.4231 0.8375
vn 0.1813 -0.5868 0.7892
vn 0.4739 -0.3771 0.7957
vn 0.7954 -0.2857 0.5345
vn 0.9207 0.1615 0.3552
vn 0.1659 -0.5101 0.8439
vn 0.4189 0.5716 0.7055
vn -0.0217 -0.2411 0.9703
vn -0.3028 -0.3341 0.8926
vn -0.2931 0.3249 0.8992
vn -0.7324 0.6239 0.2727
vn 0.2551 0.9543 -0.1555
vn 0.9760 -0.2065 0.0691
vn 0.9838 0.1189 0.1339
vn 0.5392 0.8139 0.2162
vn -0.9895 -0.0753 0.1233
vn 0.8010 -0.0481 0.5967
vn 0.3824 0.6941 0.6100
vn 0.1528 -0.8309 0.5351
vn -0.6779 -0.1755 0.7139
vn -0.5908 -0.3174 0.7418
vn 0.1020 -0.6290 0.7707
vn -0.5161 0.6215 0.5894
vn 0.1438 -0.1367 0.9801
vn 0.7998 0.2745 0.5339
vn 0.1134 -0.9912 -0.0680
vn -0.2009 -0.9766 -0.0764
vn 0.4140 -0.9056 -0.0918
vn -0.5662 -0.8105 -0.1497
vn 0.6430 -0.7636 -0.0595
vn 0.7808 -0.6227 -0.0510
vn 0.8551 -0.5053 0.1160
vn 0.9244 -0.3676 -0.1016
vn 0.9942 0.1078 -0.0033
vn 0.9413 0.3137 0.1245
vn 0.9315 0.3638 0.0027
vn 0.7105 0.7030 0.0319
vn 0.3755 0.9257 0.0446
vn 0.0356 0.9972 0.0664
vn -0.1654 0.9839 0.0671
vn -0.3553 0.9325 0.0647
vn -0.5289 0.8466 0.0601
vn -0.7082 0.7049 0.0396
vn -0.9050 0.4239 0.0351
vn -0.9697 0.2434 0.0229
vn -0.9985 0.0536 0.0123
vn -0.9753 -0.2137 -0.0566
vn -0.8715 -0.4897 -0.0260
vn 0.1636 -0.9842 -0.0679
vn 0.0760 -0.9961 0.0442
vn 0.3521 -0.9336 -0.0660
vn -0.1891 -0.9775 -0.0940
vn 0.5527 -0.8310 -0.0626
vn 0.7421 -0.6632 0.0974
vn 0.8156 -0.5702 -0.0983
vn -0.3600 -0.9329 -0.0102
vn -0.4153 -0.9080 -0.0559
vn -0.5902 -0.8057 -0.0493
vn -0.7417 -0.6695 -0.0399
vn -0.9040 -0.4245 -0.0505
vn -0.9998 -0.0118 -0.0164
vn -0.8858 0.2582 -0.3856
vn -0.1111 0.9915 0.0675
vn -0.8867 0.4402 -0.1412
vn 0.0878 0.9940 0.0657
vn 0.2828 0.9572 0.0622
vn 0.4997 0.8649 0.0467
vn 0.6280 0.7768 0.0463
vn 0.7692 0.6379 0.0369
vn 0.8795 0.4752 0.0243
vn 0.9553 0.2952 0.0123
vn 0.9990 -0.0156 -0.0419
vt 0.862459 0.227631
vt 0.862459 0.272369
vt 0.851390 0.291997
vt 0.864662 0.250000
vt 0.857634 0.228590
vt 0.845338 0.313703
vt 0.588101 0.750000
vt 0.587119 0.758318
vt 0.562500 0.764186
vt 0.562500 0.750000
vt 0.750000 0.135338
vt 0.728590 0.142366
vt 0.813703 0.154662
vt 0.791997 0.148611
vt 0.728590 0.357635
vt 0.658752 0.310970
vt 0.642366 0.271410
vt 0.658752 0.189030
vt 0.708003 0.148611
vt 0.841248 0.310970
vt 0.810970 0.158752
vt 0.648611 0.208003
vt 0.648611 0.291997
vt 0.706121 0.355934
vt 0.686297 0.345338
vt 0.888859 0.277621
vt 0.957024 0.335752
vt 0.793716 0.469776
vt 0.777621 0.388859
vt 0.588072 0.088072
vt 0.542975 0.164248
vt 0.705324 0.025400
vt 0.664248 0.457025
vt 0.794676 0.474600
vt 0.705325 0.474601
vt 0.662365 0.038431
vt 0.750000 0.020999
vt 0.835752 0.042976
vt 0.563683 0.374493
vt 0.625507 0.063683
vt 0.957024 0.164248
vt 0.969776 0.293716
vt 0.888859 0.222379
vt 0.828657 0.132281
vt 0.722379 0.111141
vt 0.649888 0.149888
vt 0.611141 0.222379
vt 0.608420 0.250000
vt 0.632281 0.328658
vt 0.695820 0.380803
vt 0.828658 0.367719
vt 0.874493 0.436317
vt 0.706284 0.030224
vt 0.877226 0.059593
vt 0.794676 0.025399
vt 0.542976 0.335753
vt 0.525399 0.205324
vt 0.520999 0.250000
vt 0.837635 0.038431
vt 0.911928 0.088072
vt 0.538431 0.337635
vt 0.626746 0.274517
vt 0.626760 0.274514
vt 0.624331 0.250000
vt 0.632281 0.171343
vt 0.867719 0.171343
vt 0.874493 0.063683
vt 0.750000 0.391580
vt 0.000000 0.516502
vt 0.000000 0.723297
vt 0.031250 0.744864
vt 1.000000 0.723297
vt 1.000000 0.516502
vt 0.968750 0.516502
vt 0.968750 0.702676
vt 0.125000 0.516502
vt 0.093750 0.516502
vt 0.125000 0.784601
vt 0.937500 0.681135
vt 0.906250 0.516502
vt 0.906250 0.657383
vt 0.875000 0.636672
vt 0.875000 0.516502
vt 0.843750 0.516502
vt 0.843750 0.619092
vt 0.812500 0.516502
vt 0.750000 0.516502
vt 0.750000 0.576308
vt 0.781250 0.593328
vt 0.718750 0.516502
vt 0.718750 0.563738
vt 0.687500 0.516502
vt 0.687500 0.556102
vt 0.656250 0.516502
vt 0.656250 0.553693
vt 0.625000 0.516502
vt 0.593750 0.516502
vt 0.593750 0.553207
vt 0.625000 0.549909
vt 0.562500 0.516502
vt 0.531250 0.516502
vt 0.531250 0.580553
vt 0.562500 0.565094
vt 0.500000 0.516502
vt 0.500000 0.601789
vt 0.468750 0.516502
vt 0.468750 0.628160
vt 0.437500 0.516502
vt 0.437500 0.655988
vt 0.406250 0.516502
vt 0.406250 0.685327
vt 0.375000 0.516502
vt 0.375000 0.710446
vt 0.343750 0.516502
vt 0.343750 0.733201
vt 0.312500 0.516502
vt 0.312500 0.754682
vt 0.281250 0.516502
vt 0.281250 0.774062
vt 0.250000 0.516502
vt 0.250000 0.790598
vt 0.218750 0.795829
vt 0.218750 0.516502
vt 0.187500 0.516502
vt 0.187500 0.795492
vt 0.156250 0.516502
vt 0.156250 0.791701
vt 0.062500 0.516502
vt 0.062500 0.761685
vt 0.093750 0.774466
vt 0.031250 0.516502
vt 0.125000 0.784602
vt 0.937500 0.681136
vt 0.937500 0.516502
vt 0.812500 0.604544
vt 0.781250 0.593329
vt 0.781250 0.516502
vt 0.718750 0.563739
vt 0.625000 0.549910
vt 0.531250 0.580554
vt 0.398910 0.692728
vt 0.281250 0.774063
vt 0.961569 0.337635
vt 0.911928 0.411928
vt 0.835752 0.457024
vt 0.622774 0.440407
vt 0.559593 0.377226
vt 0.837635 0.461569
vt 0.961569 0.162365
vt 0.974600 0.205324
s 1
f 7/1/1 5/3/3 6/2/2
f 11/4/4 14/6/6 15/5/5
f 28/7/7 22/8/12 20/8/11 23/7/10 26/8/9 29/8/8
f 25/9/13 24/10/17 19/9/16 21/9/15 27/9/14
f 12/11/18 15/13/5 16/12/19
f 20/8/20 22/8/20 21/9/20 19/9/20
f 26/8/21 25/9/21 27/9/21 29/8/21
f 8/14/22 9/19/27 1/18/26 2/17/25 3/16/24 4/15/23 5/3/3 7/5/1
f 13/15/28 18/23/30 17/22/29 16/12/19 15/21/5 14/20/6
f 27/9/31 21/9/35 22/8/34 28/7/33 29/8/32
f 3/16/24 10/25/36 4/24/23
f 48/26/37 47/29/40 33/28/39 35/27/38
f 66/30/41 65/32/43 67/31/42
f 45/33/44 46/35/45 33/34/39
f 41/36/46 39/38/48 40/37/47
f 44/39/49 45/33/44 33/28/39 47/29/40 53/50/59 32/49/58 31/48/57 30/47/56 52/46/55 51/45/54 50/44/53 49/43/52 48/26/37 35/42/38 37/41/51 39/38/48 41/40/46 42/31/50
f 54/26/60 61/42/64 60/27/63 59/52/62 73/51/61
f 65/53/43 64/55/66 63/54/65
f 69/56/67 68/58/68 67/57/42
f 39/59/48 37/41/51 38/60/69
f 44/61/49 42/31/50 43/57/70
f 56/62/71 76/64/73 77/63/72
f 76/65/73 56/48/71 77/49/72 72/68/79 73/51/61 59/52/62 71/33/78 69/56/67 67/31/42 65/53/43 63/67/65 62/41/77 61/42/64 54/26/60 74/66/76 55/44/75 75/45/74
f 46/69/45 117/71/81 79/70/80
f 79/72/80 94/75/82 33/74/39 46/73/45
f 44/76/49 90/78/83 45/77/44
f 94/79/82 102/81/84 33/80/39
f 105/82/85 34/83/86 33/80/39 102/81/84
f 105/82/85 101/85/87 34/84/86
f 101/85/87 35/86/38 34/84/86
f 35/87/38 101/89/87 115/88/88
f 35/87/38 115/88/88 111/91/90 36/90/89
f 111/91/90 37/92/51 36/90/89
f 111/93/90 114/95/91 37/94/51
f 37/94/51 114/95/91 38/96/69
f 38/97/69 114/99/91 97/98/92
f 38/97/69 97/98/92 39/100/48
f 39/101/48 97/103/92 81/102/93
f 40/104/47 39/101/48 81/102/93 84/105/94
f 84/105/94 89/107/95 40/106/47
f 89/107/95 96/109/96 41/108/46 40/106/47
f 96/109/96 103/111/97 41/110/46
f 103/111/97 42/112/50 41/110/46
f 103/113/97 106/115/98 42/114/50
f 106/115/98 108/117/99 42/116/50
f 108/117/99 109/119/100 43/118/70 42/116/50
f 109/119/100 113/121/101 43/120/70
f 113/122/101 93/125/102 44/124/49 43/123/70
f 93/125/102 90/127/83 44/126/49
f 45/128/44 90/130/83 117/129/81
f 45/128/44 117/129/81 46/131/45
f 86/70/103 83/71/105 71/131/78 57/69/104
f 85/75/106 86/72/103 57/73/104
f 98/130/107 110/132/109 70/76/108
f 85/133/106 57/74/104 58/134/110
f 92/81/111 85/133/106 58/134/110 59/80/62
f 100/82/112 92/81/111 59/80/62
f 104/85/113 100/82/112 59/83/62 60/84/63
f 112/135/114 104/85/113 60/84/63
f 112/136/114 60/86/63 61/137/64
f 116/88/115 112/136/114 61/137/64
f 62/92/77 116/138/115 61/90/64
f 118/139/116 62/94/77 63/96/65
f 64/100/66 118/98/116 63/97/65
f 80/105/117 119/140/118 64/101/66 65/104/43
f 88/107/119 80/105/117 65/104/43
f 78/109/120 88/107/119 65/106/43 66/108/41
f 82/111/121 78/109/120 66/108/41
f 87/113/122 82/141/121 66/110/41
f 91/115/123 87/113/122 66/112/41 67/114/42
f 95/117/124 91/115/123 67/114/42
f 99/142/125 95/117/124 67/116/42
f 107/121/126 99/142/125 67/118/42 68/120/68
f 107/122/126 68/120/68 69/123/67
f 110/125/109 107/122/126 69/123/67
f 110/132/109 69/126/67 70/76/108
f 98/129/107 70/77/108 71/128/78
f 83/71/105 98/129/107 71/128/78
f 35/143/38 33/145/39 34/144/86
f 70/146/108 69/147/67 71/33/78
f 57/34/104 71/35/78 59/52/62 58/148/110
f 35/42/38 36/150/89 37/149/51
