# Blender 4.2.2 LTS
# www.blender.org
o Teal
v -0.294119 3.108296 0.283516
v -0.292691 3.123575 0.283831
v -0.297821 3.137912 0.282794
v -0.341655 3.151368 0.276848
v -0.362705 3.135396 0.276804
v -0.366570 3.115395 0.276396
v -0.353843 3.092015 0.275878
v -0.328194 3.084727 0.275663
v -0.308605 3.091782 0.276449
v -0.315448 3.150662 0.277006
v 0.087486 3.168391 0.282482
v 0.067467 3.130193 0.281735
v 0.052348 3.199182 0.277113
v 0.074855 3.186047 0.276547
v 0.076222 3.142606 0.275875
v 0.045823 3.129402 0.275674
v 0.022159 3.141578 0.275986
v 0.021948 3.185977 0.276913
v -0.166895 3.068861 0.368064
v -0.146105 3.010049 0.334297
v -0.165156 3.068181 0.344547
v -0.145979 3.013898 0.314055
v -0.126662 2.999787 0.327839
v -0.134117 3.071916 0.369698
v -0.101502 3.076554 0.368063
v -0.109783 3.014322 0.334297
v -0.103061 3.075486 0.344547
v -0.128269 3.015330 0.313706
v -0.110693 3.018049 0.314054
v -0.294119 3.108296 0.283516
v -0.292691 3.123575 0.283831
v -0.297821 3.137912 0.282794
v -0.364221 3.178547 0.287147
v -0.385915 3.162141 0.287095
v -0.399763 3.124257 0.286102
v -0.399744 3.096808 0.286455
v -0.385495 3.073468 0.285246
v -0.364349 3.056570 0.284841
v -0.338234 3.049150 0.284622
v -0.310725 3.051003 0.285281
v -0.286289 3.064573 0.285504
v -0.269969 3.087058 0.285245
v -0.262247 3.127004 0.286059
v -0.279098 3.163237 0.286618
v -0.299088 3.181094 0.287277
v -0.325203 3.188513 0.287496
v -0.341655 3.151368 0.276848
v -0.362705 3.135396 0.276804
v -0.366570 3.115395 0.276396
v -0.353843 3.092015 0.275878
v -0.328194 3.084727 0.275663
v -0.308605 3.091782 0.276449
v -0.315448 3.150662 0.277006
v 0.087486 3.168391 0.282482
v 0.067467 3.130193 0.281735
v 0.010734 3.166930 0.282640
v 0.055669 3.233318 0.287494
v 0.070101 3.233819 0.292070
v 0.093203 3.218503 0.287093
v 0.113353 3.199064 0.289744
v 0.119975 3.171920 0.286743
v 0.119329 3.143394 0.290064
v 0.093715 3.110455 0.284838
v 0.083995 3.099384 0.289233
v 0.056472 3.092823 0.285250
v 0.016523 3.101374 0.284839
v -0.010966 3.130269 0.285272
v -0.020318 3.155464 0.286057
v -0.016340 3.182260 0.286369
v 0.004591 3.216817 0.287275
v 0.028563 3.230129 0.287494
v 0.052348 3.199182 0.277113
v 0.074855 3.186047 0.276547
v 0.076222 3.142606 0.275875
v 0.045823 3.129402 0.275674
v 0.022159 3.141578 0.275986
v 0.021948 3.185977 0.276913
v 0.028558 3.090057 0.330073
v -0.338780 3.187167 0.352737
v 0.056881 3.088874 0.314087
v -0.338383 3.044218 0.307902
v 0.015336 3.094717 0.338806
v 0.028077 3.228473 0.359020
v -0.323991 3.044070 0.314090
v 0.070439 3.230548 0.340273
v 0.042092 3.231971 0.352735
v 0.003419 3.101969 0.346351
v 0.042587 3.088077 0.321838
v -0.309877 3.046614 0.321841
v -0.284968 3.170695 0.370236
v -0.006729 3.111476 0.353247
v 0.083673 3.225777 0.333176
v -0.266724 3.148732 0.372927
v -0.354300 3.183933 0.346069
v -0.014713 3.122837 0.359801
v -0.296589 3.051808 0.330075
v -0.352501 3.047059 0.303463
v 0.003015 3.213934 0.367457
v -0.020226 3.135613 0.365764
v 0.095599 3.218439 0.326922
v -0.401648 3.136700 0.317019
v -0.378098 3.171456 0.333179
v -0.274487 3.069276 0.346352
v 0.105756 3.208828 0.321542
v -0.388239 3.161522 0.326925
v -0.266525 3.080914 0.353248
v -0.023116 3.163568 0.372735
v -0.261053 3.093858 0.359802
v -0.258280 3.107609 0.365765
v -0.014964 3.191156 0.372080
v -0.395992 3.081977 0.301661
v 0.119285 3.184392 0.313445
v -0.258314 3.121639 0.370905
v -0.377783 3.060353 0.299351
v -0.404371 3.108767 0.308165
v 0.122116 3.170701 0.308162
v -0.310266 3.184143 0.363859
v 0.106055 3.117270 0.299348
v 0.070897 3.092364 0.307899
vn 0.4483 0.0415 0.8929
vn 0.5679 -0.4271 0.7036
vn 0.5459 -0.6085 0.5760
vn -0.7965 0.2006 0.5703
vn -0.2343 0.7179 0.6555
vn -0.5927 -0.6229 0.5106
vn -0.1150 0.9777 0.1755
vn -0.1536 0.9726 0.1745
vn -0.1527 0.9722 0.1775
vn -0.1150 0.9784 0.1718
vn -0.0752 0.9813 0.1770
vn -0.0757 0.9818 0.1740
vn 0.1421 -0.9892 0.0349
vn 0.1419 -0.9893 0.0349
vn 0.0915 -0.9952 0.0349
vn 0.0914 -0.9952 0.0349
vn 0.1168 -0.9925 0.0350
vn 0.0108 0.9194 0.3931
vn 0.6037 0.4092 0.6842
vn 0.9516 0.3009 0.0623
vn -0.9932 0.0988 0.0620
vn 0.5759 0.5048 0.6431
vn -0.4674 -0.7062 0.5318
vn -0.8797 0.0434 0.4735
vn -0.6058 0.2561 0.7533
vn -0.4077 0.4884 0.7715
vn 0.1075 0.4865 0.8670
vn -0.5382 -0.6508 0.5355
vn 0.3970 0.7535 0.5240
vn 0.2671 -0.7740 0.5740
vn 0.0908 -0.4840 0.8704
vn 0.0907 -0.4839 0.8704
vn 0.0574 -0.4878 0.8711
vn 0.0238 -0.4914 0.8706
vn 0.0237 -0.4913 0.8706
vn -0.8508 -0.3017 0.4302
vn -0.3562 0.5262 0.7722
vn 0.9679 0.1796 0.1756
vn 0.0350 -0.1756 0.9838
vn 0.7349 0.3895 0.5551
vn 0.4621 0.8814 0.0980
vn 0.8469 0.5224 0.0994
vn 0.4313 0.1215 0.8940
vn 0.0507 -0.2310 0.9716
vn 0.0190 -0.9978 0.0632
vn 0.1743 0.4781 0.8608
vn -0.2070 0.9581 0.1978
vn 0.2252 0.1275 0.9659
vn -0.5336 -0.8310 0.1568
vn -0.0899 0.1095 0.9899
vn 0.9148 0.2837 0.2877
vn -0.3376 0.6268 0.7022
vn -0.4852 0.1924 0.8530
vn -0.7939 -0.1959 0.5756
vn -0.3549 -0.4154 0.8375
vn 0.1693 -0.5904 0.7891
vn 0.4664 -0.3864 0.7957
vn 0.7894 -0.3018 0.5345
vn 0.9241 0.1415 0.3550
vn 0.1554 -0.5134 0.8439
vn 0.4308 0.5625 0.7057
vn -0.0268 -0.2405 0.9703
vn -0.3094 -0.3276 0.8927
vn -0.2855 0.3292 0.9000
vn -0.7193 0.6389 0.2730
vn 0.2755 0.9487 -0.1551
vn 0.9717 -0.2258 0.0692
vn 0.9860 0.0996 0.1339
vn 0.5567 0.8022 0.2160
vn -0.9908 -0.0557 0.1232
vn 0.7999 -0.0642 0.5967
vn 0.3972 0.6858 0.6099
vn 0.1350 -0.8339 0.5352
vn -0.6816 -0.1606 0.7139
vn -0.5977 -0.3042 0.7417
vn 0.0891 -0.6308 0.7708
vn -0.5038 0.6316 0.5893
vn 0.1410 -0.1400 0.9801
vn 0.8055 0.2571 0.5339
vn 0.0913 -0.9935 -0.0680
vn -0.2223 -0.9720 -0.0764
vn 0.3940 -0.9145 -0.0918
vn -0.5833 -0.7984 -0.1497
vn 0.6264 -0.7772 -0.0594
vn 0.7677 -0.6388 -0.0509
vn 0.8445 -0.5229 0.1160
vn 0.9169 -0.3860 -0.1016
vn 0.9961 0.0882 -0.0033
vn 0.9473 0.2951 0.1244
vn 0.9387 0.3448 0.0025
vn 0.7253 0.6877 0.0316
vn 0.3959 0.9172 0.0444
vn 0.0578 0.9961 0.0664
vn -0.1435 0.9874 0.0671
vn -0.3349 0.9400 0.0649
vn -0.5107 0.8576 0.0602
vn -0.6935 0.7193 0.0398
vn -0.8963 0.4420 0.0352
vn -0.9646 0.2625 0.0230
vn -0.9972 0.0732 0.0123
vn -0.9793 -0.1943 -0.0566
vn -0.8813 -0.4719 -0.0260
vn 0.1417 -0.9876 -0.0679
vn 0.0538 -0.9976 0.0441
vn 0.3316 -0.9411 -0.0660
vn -0.2107 -0.9730 -0.0940
vn 0.5351 -0.8424 -0.0626
vn 0.7278 -0.6789 0.0973
vn 0.8039 -0.5865 -0.0982
vn -0.3805 -0.9247 -0.0102
vn -0.4349 -0.8987 -0.0558
vn -0.6073 -0.7929 -0.0493
vn -0.7555 -0.6539 -0.0399
vn -0.9123 -0.4063 -0.0504
vn -0.9998 0.0079 -0.0164
vn -0.8803 0.2767 -0.3853
vn -0.0890 0.9937 0.0675
vn -0.8768 0.4597 -0.1408
vn 0.1098 0.9918 0.0656
vn 0.3038 0.9507 0.0621
vn 0.5183 0.8539 0.0466
vn 0.6443 0.7634 0.0461
vn 0.7822 0.6219 0.0368
vn 0.8889 0.4574 0.0241
vn 0.9610 0.2762 0.0122
vn 0.9985 -0.0354 -0.0419
vt 0.862459 0.227631
vt 0.862459 0.272369
vt 0.851390 0.291997
vt 0.864662 0.250000
vt 0.857634 0.228590
vt 0.845338 0.313703
vt 0.588101 0.750000
vt 0.587119 0.758318
vt 0.562500 0.764186
vt 0.562500 0.750000
vt 0.750000 0.135338
vt 0.728590 0.142366
vt 0.813703 0.154662
vt 0.791997 0.148611
vt 0.728590 0.357635
vt 0.658752 0.310970
vt 0.642366 0.271410
vt 0.658752 0.189030
vt 0.708003 0.148611
vt 0.841248 0.310970
vt 0.810970 0.158752
vt 0.648611 0.208003
vt 0.648611 0.291997
vt 0.706121 0.355934
vt 0.686297 0.345338
vt 0.888859 0.277621
vt 0.957024 0.335752
vt 0.793716 0.469776
vt 0.777621 0.388859
vt 0.588072 0.088072
vt 0.542975 0.164248
vt 0.705324 0.025400
vt 0.664248 0.457025
vt 0.794676 0.474600
vt 0.705325 0.474601
vt 0.662365 0.038431
vt 0.750000 0.020999
vt 0.835752 0.042976
vt 0.563683 0.374493
vt 0.625507 0.063683
vt 0.957024 0.164248
vt 0.969776 0.293716
vt 0.888859 0.222379
vt 0.828657 0.132281
vt 0.722379 0.111141
vt 0.649888 0.149888
vt 0.611141 0.222379
vt 0.608420 0.250000
vt 0.632281 0.328658
vt 0.695820 0.380803
vt 0.828658 0.367719
vt 0.874493 0.436317
vt 0.706284 0.030224
vt 0.877226 0.059593
vt 0.794676 0.025399
vt 0.542976 0.335753
vt 0.525399 0.205324
vt 0.520999 0.250000
vt 0.837635 0.038431
vt 0.911928 0.088072
vt 0.538431 0.337635
vt 0.626746 0.274517
vt 0.626760 0.274514
vt 0.624331 0.250000
vt 0.632281 0.171343
vt 0.867719 0.171343
vt 0.874493 0.063683
vt 0.750000 0.391580
vt 0.000000 0.516502
vt 0.000000 0.723297
vt 0.031250 0.744864
vt 1.000000 0.723297
vt 1.000000 0.516502
vt 0.968750 0.516502
vt 0.968750 0.702676
vt 0.125000 0.516502
vt 0.093750 0.516502
vt 0.125000 0.784601
vt 0.937500 0.681135
vt 0.906250 0.516502
vt 0.906250 0.657383
vt 0.875000 0.636672
vt 0.875000 0.516502
vt 0.843750 0.516502
vt 0.843750 0.619092
vt 0.812500 0.516502
vt 0.750000 0.516502
vt 0.750000 0.576308
vt 0.781250 0.593328
vt 0.718750 0.516502
vt 0.718750 0.563738
vt 0.687500 0.516502
vt 0.687500 0.556102
vt 0.656250 0.516502
vt 0.656250 0.553693
vt 0.625000 0.516502
vt 0.593750 0.516502
vt 0.593750 0.553207
vt 0.625000 0.549909
vt 0.562500 0.516502
vt 0.531250 0.516502
vt 0.531250 0.580553
vt 0.562500 0.565094
vt 0.500000 0.516502
vt 0.500000 0.601789
vt 0.468750 0.516502
vt 0.468750 0.628160
vt 0.437500 0.516502
vt 0.437500 0.655988
vt 0.406250 0.516502
vt 0.406250 0.685327
vt 0.375000 0.516502
vt 0.375000 0.710446
vt 0.343750 0.516502
vt 0.343750 0.733201
vt 0.312500 0.516502
vt 0.312500 0.754682
vt 0.281250 0.516502
vt 0.281250 0.774062
vt 0.250000 0.516502
vt 0.250000 0.790598
vt 0.218750 0.795829
vt 0.218750 0.516502
vt 0.187500 0.516502
vt 0.187500 0.795492
vt 0.156250 0.516502
vt 0.156250 0.791701
vt 0.062500 0.516502
vt 0.062500 0.761685
vt 0.093750 0.774466
vt 0.031250 0.516502
vt 0.125000 0.784602
vt 0.937500 0.681136
vt 0.937500 0.516502
vt 0.812500 0.604544
vt 0.781250 0.593329
vt 0.781250 0.516502
vt 0.718750 0.563739
vt 0.625000 0.549910
vt 0.531250 0.580554
vt 0.398910 0.692728
vt 0.281250 0.774063
vt 0.961569 0.337635
vt 0.911928 0.411928
vt 0.835752 0.457024
vt 0.622774 0.440407
vt 0.559593 0.377226
vt 0.837635 0.461569
vt 0.961569 0.162365
vt 0.974600 0.205324
s 1
f 7/1/1 5/3/3 6/2/2
f 11/4/4 14/6/6 15/5/5
f 28/7/7 22/8/12 20/8/11 23/7/10 26/8/9 29/8/8
f 25/9/13 24/10/17 19/9/16 21/9/15 27/9/14
f 12/11/18 15/13/5 16/12/19
f 20/8/20 22/8/20 21/9/20 19/9/20
f 26/8/21 25/9/21 27/9/21 29/8/21
f 8/14/22 9/19/27 1/18/26 2/17/25 3/16/24 4/15/23 5/3/3 7/5/1
f 13/15/28 18/23/30 17/22/29 16/12/19 15/21/5 14/20/6
f 27/9/31 21/9/35 22/8/34 28/7/33 29/8/32
f 3/16/24 10/25/36 4/24/23
f 48/26/37 47/29/40 33/28/39 35/27/38
f 66/30/41 65/32/43 67/31/42
f 45/33/44 46/35/45 33/34/39
f 41/36/46 39/38/48 40/37/47
f 44/39/49 45/33/44 33/28/39 47/29/40 53/50/59 32/49/58 31/48/57 30/47/56 52/46/55 51/45/54 50/44/53 49/43/52 48/26/37 35/42/38 37/41/51 39/38/48 41/40/46 42/31/50
f 54/26/60 61/42/64 60/27/63 59/52/62 73/51/61
f 65/53/43 64/55/66 63/54/65
f 69/56/67 68/58/68 67/57/42
f 39/59/48 37/41/51 38/60/69
f 44/61/49 42/31/50 43/57/70
f 56/62/71 76/64/73 77/63/72
f 76/65/73 56/48/71 77/49/72 72/68/79 73/51/61 59/52/62 71/33/78 69/56/67 67/31/42 65/53/43 63/67/65 62/41/77 61/42/64 54/26/60 74/66/76 55/44/75 75/45/74
f 46/69/45 117/71/81 79/70/80
f 79/72/80 94/75/82 33/74/39 46/73/45
f 44/76/49 90/78/83 45/77/44
f 94/79/82 102/81/84 33/80/39
f 105/82/85 34/83/86 33/80/39 102/81/84
f 105/82/85 101/85/87 34/84/86
f 101/85/87 35/86/38 34/84/86
f 35/87/38 101/89/87 115/88/88
f 35/87/38 115/88/88 111/91/90 36/90/89
f 111/91/90 37/92/51 36/90/89
f 111/93/90 114/95/91 37/94/51
f 37/94/51 114/95/91 38/96/69
f 38/97/69 114/99/91 97/98/92
f 38/97/69 97/98/92 39/100/48
f 39/101/48 97/103/92 81/102/93
f 40/104/47 39/101/48 81/102/93 84/105/94
f 84/105/94 89/107/95 40/106/47
f 89/107/95 96/109/96 41/108/46 40/106/47
f 96/109/96 103/111/97 41/110/46
f 103/111/97 42/112/50 41/110/46
f 103/113/97 106/115/98 42/114/50
f 106/115/98 108/117/99 42/116/50
f 108/117/99 109/119/100 43/118/70 42/116/50
f 109/119/100 113/121/101 43/120/70
f 113/122/101 93/125/102 44/124/49 43/123/70
f 93/125/102 90/127/83 44/126/49
f 45/128/44 90/130/83 117/129/81
f 45/128/44 117/129/81 46/131/45
f 86/70/103 83/71/105 71/131/78 57/69/104
f 85/75/106 86/72/103 57/73/104
f 98/130/107 110/132/109 70/76/108
f 85/133/106 57/74/104 58/134/110
f 92/81/111 85/133/106 58/134/110 59/80/62
f 100/82/112 92/81/111 59/80/62
f 104/85/113 100/82/112 59/83/62 60/84/63
f 112/135/114 104/85/113 60/84/63
f 112/136/114 60/86/63 61/137/64
f 116/88/115 112/136/114 61/137/64
f 62/92/77 116/138/115 61/90/64
f 118/139/116 62/94/77 63/96/65
f 64/100/66 118/98/116 63/97/65
f 80/105/117 119/140/118 64/101/66 65/104/43
f 88/107/119 80/105/117 65/104/43
f 78/109/120 88/107/119 65/106/43 66/108/41
f 82/111/121 78/109/120 66/108/41
f 87/113/122 82/141/121 66/110/41
f 91/115/123 87/113/122 66/112/41 67/114/42
f 95/117/124 91/115/123 67/114/42
f 99/142/125 95/117/124 67/116/42
f 107/121/126 99/142/125 67/118/42 68/120/68
f 107/122/126 68/120/68 69/123/67
f 110/125/109 107/122/126 69/123/67
f 110/132/109 69/126/67 70/76/108
f 98/129/107 70/77/108 71/128/78
f 83/71/105 98/129/107 71/128/78
f 35/143/38 33/145/39 34/144/86
f 70/146/108 69/147/67 71/33/78
f 57/34/104 71/35/78 59/52/62 58/148/110
f 35/42/38 36/150/89 37/149/51
