# Blender 4.2.2 LTS
# www.blender.org
o teal
v 0.155300 3.127689 0.292147
v 0.152310 3.142703 0.292561
v 0.155937 3.157573 0.291623
v 0.217762 3.205631 0.296293
v 0.241011 3.191863 0.296150
v 0.258667 3.155849 0.294919
v 0.261468 3.128558 0.295092
v 0.249703 3.103721 0.293719
v 0.230420 3.084462 0.293188
v 0.205225 3.074039 0.292900
v 0.177691 3.072649 0.293550
v 0.152008 3.083275 0.293843
v 0.133477 3.103721 0.293719
v 0.121698 3.142503 0.294789
v 0.134725 3.180473 0.295599
v 0.152760 3.200544 0.296390
v 0.177955 3.210967 0.296677
v 0.198124 3.176200 0.285799
v 0.220688 3.162788 0.285666
v 0.226585 3.143370 0.285130
v 0.216336 3.118654 0.284449
v 0.191590 3.108417 0.284166
v 0.171395 3.113122 0.284984
v 0.172148 3.172431 0.285932
v -0.230180 3.142823 0.291216
v -0.206358 3.107214 0.290234
v -0.153741 3.150342 0.291423
v -0.205225 3.210967 0.296677
v -0.219621 3.209680 0.301245
v -0.241011 3.191863 0.296150
v -0.259043 3.170130 0.298658
v -0.262836 3.142441 0.295475
v -0.259263 3.114093 0.298609
v -0.230420 3.084462 0.293188
v -0.219621 3.074500 0.297516
v -0.191590 3.071282 0.293512
v -0.152760 3.084462 0.293188
v -0.128405 3.116385 0.293831
v -0.121698 3.142503 0.294789
v -0.128405 3.168664 0.295273
v -0.152760 3.200544 0.296390
v -0.177955 3.210967 0.296677
v -0.198417 3.177650 0.286076
v -0.219439 3.161976 0.285406
v -0.216335 3.118654 0.284449
v -0.184763 3.109089 0.284185
v -0.162492 3.123951 0.284595
v -0.166844 3.168084 0.285812
v -0.163559 3.070836 0.338335
v 0.191590 3.209816 0.361915
v -0.191590 3.066691 0.322321
v 0.205880 3.068654 0.316145
v -0.150895 3.076825 0.347108
v -0.177300 3.207843 0.368187
v 0.191590 3.066691 0.322321
v -0.219621 3.205354 0.349424
v -0.191590 3.209816 0.361915
v -0.139795 3.085264 0.354709
v -0.177300 3.067404 0.330077
v 0.177300 3.067404 0.330077
v 0.139795 3.186778 0.379264
v -0.130685 3.095752 0.361674
v -0.232285 3.199218 0.342286
v 0.123917 3.162757 0.381796
v 0.207349 3.208560 0.355238
v -0.123916 3.107836 0.368308
v 0.163559 3.070836 0.338335
v 0.219621 3.073223 0.311737
v -0.150895 3.196142 0.376548
v -0.119748 3.121052 0.374359
v -0.243385 3.190664 0.335974
v 0.259263 3.167774 0.325917
v 0.232285 3.199218 0.342286
v 0.139795 3.085264 0.354709
v -0.252494 3.180040 0.330524
v 0.243385 3.190664 0.335974
v 0.130686 3.095752 0.361674
v -0.119748 3.149024 0.381515
v 0.123917 3.107836 0.368308
v 0.119748 3.121052 0.374359
v -0.130685 3.175505 0.381035
v 0.259263 3.113053 0.310197
v -0.263431 3.154344 0.322257
v 0.118341 3.134889 0.379591
v 0.243385 3.089481 0.307731
v 0.264839 3.140519 0.316882
v -0.264839 3.140519 0.316882
v 0.163559 3.203238 0.372994
v -0.243385 3.089481 0.307731
v -0.205880 3.068654 0.316145
v 0.155300 3.127689 0.292147
v 0.152310 3.142703 0.292561
v 0.155937 3.157573 0.291623
v 0.198124 3.176200 0.285799
v 0.220688 3.162788 0.285666
v 0.226585 3.143370 0.285130
v 0.216336 3.118654 0.284449
v 0.191590 3.108417 0.284166
v 0.171395 3.113122 0.284984
v 0.172148 3.172431 0.285932
v -0.230180 3.142823 0.291216
v -0.206358 3.107214 0.290234
v -0.198417 3.177650 0.286076
v -0.219439 3.161976 0.285406
v -0.216335 3.118654 0.284449
v -0.184763 3.109089 0.284185
v -0.162492 3.123951 0.284595
v -0.166844 3.168084 0.285812
v 0.032895 3.071805 0.376334
v 0.018271 3.011645 0.342168
v 0.031236 3.071431 0.352813
v 0.017750 3.015892 0.321952
v -0.000000 2.999312 0.335628
v -0.000000 3.070974 0.377963
v -0.032895 3.071805 0.376334
v -0.018271 3.011645 0.342168
v -0.031236 3.071431 0.352813
v -0.000000 3.015252 0.321599
v -0.017750 3.015892 0.321952
vn 0.2974 0.5572 0.7753
vn -0.9817 0.0739 0.1752
vn -0.0118 -0.1974 0.9803
vn -0.7752 0.2987 0.5567
vn -0.5577 0.8232 0.1067
vn -0.8990 0.4257 0.1028
vn -0.4425 0.0557 0.8950
vn -0.0238 -0.2493 0.9681
vn 0.0957 -0.9941 0.0519
vn -0.2289 0.4439 0.8663
vn 0.0932 0.9733 0.2097
vn -0.2385 0.0858 0.9673
vn 0.6173 -0.7723 0.1500
vn 0.0750 0.1076 0.9914
vn -0.9397 0.1814 0.2898
vn 0.2704 0.6538 0.7067
vn 0.4617 0.2376 0.8546
vn 0.8112 -0.1067 0.5749
vn 0.4003 -0.3767 0.8354
vn -0.1031 -0.6112 0.7847
vn -0.4242 -0.4378 0.7927
vn -0.7526 -0.3874 0.5324
vn -0.9346 0.0323 0.3543
vn -0.0981 -0.5333 0.8402
vn -0.4901 0.5061 0.7097
vn 0.0578 -0.2469 0.9673
vn 0.3446 -0.2996 0.8897
vn 0.2448 0.3401 0.9080
vn 0.6444 0.7100 0.2840
vn -0.3819 0.9131 -0.1431
vn -0.9424 -0.3280 0.0653
vn -0.9910 -0.0047 0.1339
vn -0.6433 0.7319 0.2245
vn 0.9914 0.0451 0.1229
vn -0.7887 -0.1513 0.5958
vn -0.4726 0.6328 0.6133
vn -0.0417 -0.8469 0.5301
vn 0.6956 -0.0860 0.7133
vn 0.6299 -0.2354 0.7402
vn -0.0222 -0.6411 0.7671
vn 0.4344 0.6773 0.5938
vn -0.1239 -0.1719 0.9773
vn -0.8294 0.1610 0.5349
vn 0.0250 -0.9957 -0.0892
vn 0.3321 -0.9383 -0.0958
vn -0.2854 -0.9518 -0.1122
vn 0.6673 -0.7264 -0.1646
vn -0.5342 -0.8418 -0.0775
vn -0.6931 -0.7178 -0.0662
vn -0.7863 -0.6080 0.1095
vn -0.8712 -0.4783 -0.1106
vn -0.9999 -0.0143 -0.0043
vn -0.9720 0.1984 0.1258
vn -0.9695 0.2450 0.0078
vn -0.7964 0.6032 0.0434
vn -0.4983 0.8648 0.0618
vn -0.1732 0.9811 0.0867
vn 0.0274 0.9957 0.0881
vn 0.2240 0.9708 0.0860
vn 0.4103 0.9085 0.0799
vn 0.6104 0.7901 0.0564
vn 0.8438 0.5346 0.0469
vn 0.9316 0.3621 0.0308
vn 0.9842 0.1765 0.0164
vn 0.9942 -0.0895 -0.0590
vn 0.9267 -0.3743 -0.0343
vn -0.0255 -0.9957 -0.0892
vn 0.0638 -0.9975 0.0306
vn -0.2213 -0.9714 -0.0866
vn 0.3219 -0.9399 -0.1141
vn -0.4388 -0.8950 -0.0799
vn -0.6505 -0.7543 0.0884
vn -0.7373 -0.6665 -0.1101
vn 0.4855 -0.8740 -0.0227
vn 0.5330 -0.8430 -0.0732
vn 0.6919 -0.7191 -0.0653
vn 0.8220 -0.5671 -0.0527
vn 0.9498 -0.3078 -0.0554
vn 0.9935 0.1124 -0.0158
vn 0.8464 0.3788 -0.3743
vn -0.0273 0.9957 0.0886
vn 0.8179 0.5613 -0.1264
vn -0.2235 0.9710 0.0851
vn -0.4101 0.9085 0.0805
vn -0.6101 0.7898 0.0627
vn -0.7232 0.6881 0.0590
vn -0.8437 0.5347 0.0473
vn -0.9316 0.3621 0.0311
vn -0.9843 0.1758 0.0158
vn -0.9897 -0.1361 -0.0449
vn -0.4497 -0.0163 0.8930
vn -0.5197 -0.4890 0.7005
vn -0.4773 -0.6675 0.5714
vn 0.7702 0.2802 0.5729
vn 0.1560 0.7345 0.6604
vn 0.6576 -0.5576 0.5066
vn -0.0000 0.9812 0.1932
vn 0.0393 0.9806 0.1919
vn 0.0391 0.9800 0.1954
vn -0.0000 0.9820 0.1886
vn -0.0390 0.9799 0.1954
vn -0.0393 0.9807 0.1914
vn -0.0255 -0.9996 0.0134
vn -0.0254 -0.9996 0.0134
vn 0.0254 -0.9996 0.0134
vn 0.0255 -0.9996 0.0134
vn -0.0000 -0.9999 0.0135
vn -0.1136 0.9080 0.4034
vn -0.6481 0.3295 0.6865
vn -0.9775 0.2001 0.0664
vn 0.9775 0.2001 0.0664
vn -0.6306 0.4295 0.6465
vn 0.5444 -0.6528 0.5268
vn 0.8693 0.1373 0.4749
vn 0.5763 0.3126 0.7551
vn 0.3543 0.5238 0.7747
vn -0.1617 0.4641 0.8709
vn 0.6093 -0.5883 0.5317
vn -0.4740 0.7040 0.5288
vn -0.1843 -0.8015 0.5688
vn -0.0337 -0.4994 0.8657
vn -0.0336 -0.4994 0.8657
vn -0.0000 -0.4996 0.8663
vn 0.0336 -0.4994 0.8657
vn 0.0337 -0.4994 0.8657
vn 0.8801 -0.2045 0.4284
vt 0.888859 0.277621
vt 0.957024 0.335752
vt 0.793716 0.469776
vt 0.777621 0.388859
vt 0.588072 0.088072
vt 0.542975 0.164248
vt 0.705324 0.025400
vt 0.664248 0.457025
vt 0.794676 0.474600
vt 0.705325 0.474601
vt 0.662365 0.038431
vt 0.750000 0.020999
vt 0.835752 0.042976
vt 0.563683 0.374493
vt 0.625507 0.063683
vt 0.957024 0.164248
vt 0.969776 0.293716
vt 0.888859 0.222379
vt 0.828657 0.132281
vt 0.722379 0.111141
vt 0.649888 0.149888
vt 0.611141 0.222379
vt 0.608420 0.250000
vt 0.632281 0.328658
vt 0.695820 0.380803
vt 0.828658 0.367719
vt 0.874493 0.436317
vt 0.706284 0.030224
vt 0.877226 0.059593
vt 0.794676 0.025399
vt 0.542976 0.335753
vt 0.525399 0.205324
vt 0.520999 0.250000
vt 0.837635 0.038431
vt 0.911928 0.088072
vt 0.538431 0.337635
vt 0.626746 0.274517
vt 0.626760 0.274514
vt 0.624331 0.250000
vt 0.632281 0.171343
vt 0.867719 0.171343
vt 0.874493 0.063683
vt 0.750000 0.391580
vt 0.000000 0.516502
vt 0.000000 0.723297
vt 0.031250 0.744864
vt 1.000000 0.723297
vt 1.000000 0.516502
vt 0.968750 0.516502
vt 0.968750 0.702676
vt 0.125000 0.516502
vt 0.093750 0.516502
vt 0.125000 0.784601
vt 0.937500 0.681135
vt 0.906250 0.516502
vt 0.906250 0.657383
vt 0.875000 0.636672
vt 0.875000 0.516502
vt 0.843750 0.516502
vt 0.843750 0.619092
vt 0.812500 0.516502
vt 0.750000 0.516502
vt 0.750000 0.576308
vt 0.781250 0.593328
vt 0.718750 0.516502
vt 0.718750 0.563738
vt 0.687500 0.516502
vt 0.687500 0.556102
vt 0.656250 0.516502
vt 0.656250 0.553693
vt 0.625000 0.516502
vt 0.593750 0.516502
vt 0.593750 0.553207
vt 0.625000 0.549909
vt 0.562500 0.516502
vt 0.531250 0.516502
vt 0.531250 0.580553
vt 0.562500 0.565094
vt 0.500000 0.516502
vt 0.500000 0.601789
vt 0.468750 0.516502
vt 0.468750 0.628160
vt 0.437500 0.516502
vt 0.437500 0.655988
vt 0.406250 0.516502
vt 0.406250 0.685327
vt 0.375000 0.516502
vt 0.375000 0.710446
vt 0.343750 0.516502
vt 0.343750 0.733201
vt 0.312500 0.516502
vt 0.312500 0.754682
vt 0.281250 0.516502
vt 0.281250 0.774062
vt 0.250000 0.516502
vt 0.250000 0.790598
vt 0.218750 0.795829
vt 0.218750 0.516502
vt 0.187500 0.516502
vt 0.187500 0.795492
vt 0.156250 0.516502
vt 0.156250 0.791701
vt 0.062500 0.516502
vt 0.062500 0.761685
vt 0.093750 0.774466
vt 0.031250 0.516502
vt 0.125000 0.784602
vt 0.937500 0.681136
vt 0.937500 0.516502
vt 0.812500 0.604544
vt 0.781250 0.593329
vt 0.781250 0.516502
vt 0.718750 0.563739
vt 0.625000 0.549910
vt 0.531250 0.580554
vt 0.398910 0.692728
vt 0.281250 0.774063
vt 0.961569 0.337635
vt 0.911928 0.411928
vt 0.835752 0.457024
vt 0.622774 0.440407
vt 0.559593 0.377226
vt 0.837635 0.461569
vt 0.961569 0.162365
vt 0.974600 0.205324
vt 0.862459 0.227631
vt 0.862459 0.272369
vt 0.851390 0.291997
vt 0.864662 0.250000
vt 0.857634 0.228590
vt 0.845338 0.313703
vt 0.588101 0.750000
vt 0.587119 0.758318
vt 0.562500 0.764186
vt 0.562500 0.750000
vt 0.750000 0.135338
vt 0.728590 0.142366
vt 0.813703 0.154662
vt 0.791997 0.148611
vt 0.728590 0.357635
vt 0.658752 0.310970
vt 0.642366 0.271410
vt 0.658752 0.189030
vt 0.708003 0.148611
vt 0.841248 0.310970
vt 0.810970 0.158752
vt 0.648611 0.208003
vt 0.648611 0.291997
vt 0.706121 0.355934
vt 0.686297 0.345338
s 1
f 19/1/1 6/2/2 4/3/3 18/4/4
f 37/5/5 38/6/6 36/7/7
f 16/8/8 4/9/3 17/10/9
f 12/11/10 11/12/11 10/13/12
f 15/14/13 13/6/14 12/15/10 10/13/12 8/16/15 6/17/2 19/1/1 20/18/16 21/19/17 22/20/18 23/21/19 1/22/20 2/23/21 3/24/22 24/25/23 18/4/4 4/3/3 16/8/8
f 25/1/24 44/26/25 30/27/26 31/2/27 32/17/28
f 36/28/7 34/29/29 35/30/30
f 40/31/31 38/32/6 39/33/32
f 10/34/12 9/35/33 8/16/15
f 15/36/13 14/32/34 13/6/14
f 27/37/35 48/38/36 47/39/37
f 47/40/37 46/20/38 26/19/39 45/41/40 25/1/24 32/17/28 33/16/41 34/42/29 36/28/7 38/6/6 40/31/31 42/8/42 30/27/26 44/26/25 43/43/43 48/24/36 27/23/35
f 17/44/9 50/45/44 88/46/45
f 50/47/44 17/48/9 4/49/3 65/50/46
f 15/51/13 16/52/8 61/53/47
f 65/54/46 4/55/3 73/56/48
f 76/57/49 73/56/48 4/55/3 5/58/50
f 76/57/49 5/59/50 72/60/51
f 72/60/51 5/59/50 6/61/2
f 6/62/2 86/63/52 72/64/51
f 6/62/2 7/65/53 82/66/54 86/63/52
f 82/66/54 7/65/53 8/67/15
f 82/68/54 8/69/15 85/70/55
f 8/69/15 9/71/33 85/70/55
f 9/72/33 68/73/56 85/74/55
f 9/72/33 10/75/12 68/73/56
f 10/76/12 52/77/57 68/78/56
f 11/79/11 55/80/58 52/77/57 10/76/12
f 55/80/58 11/81/11 60/82/59
f 60/82/59 11/81/11 12/83/10 67/84/60
f 67/84/60 12/85/10 74/86/61
f 74/86/61 12/85/10 13/87/14
f 74/88/61 13/89/14 77/90/62
f 77/90/62 13/91/14 79/92/63
f 79/92/63 13/91/14 14/93/34 80/94/64
f 80/94/64 14/95/34 84/96/65
f 84/97/65 14/98/34 15/99/13 64/100/66
f 64/100/66 15/101/13 61/102/47
f 16/103/8 88/104/45 61/105/47
f 16/103/8 17/106/9 88/104/45
f 57/45/67 28/44/68 42/106/42 54/46/69
f 56/50/70 28/48/68 57/47/67
f 69/105/71 41/51/72 81/107/73
f 56/108/70 29/109/74 28/49/68
f 63/56/75 30/55/26 29/109/74 56/108/70
f 71/57/76 30/55/26 63/56/75
f 75/60/77 31/59/27 30/58/26 71/57/76
f 83/110/78 31/59/27 75/60/77
f 83/111/78 32/112/28 31/61/27
f 87/63/79 32/112/28 83/111/78
f 33/67/41 32/65/28 87/113/79
f 89/114/80 34/71/29 33/69/41
f 35/75/30 34/72/29 89/73/80
f 51/80/81 36/79/7 35/76/30 90/115/82
f 59/82/83 36/79/7 51/80/81
f 49/84/84 37/83/5 36/81/7 59/82/83
f 53/86/85 37/83/5 49/84/84
f 58/88/86 37/85/5 53/116/85
f 62/90/87 38/89/6 37/87/5 58/88/86
f 66/92/88 38/89/6 62/90/87
f 70/117/89 38/91/6 66/92/88
f 78/96/90 39/95/32 38/93/6 70/117/89
f 78/97/90 40/98/31 39/95/32
f 81/100/73 40/98/31 78/97/90
f 81/107/73 41/51/72 40/101/31
f 69/104/71 42/103/42 41/52/72
f 54/46/69 42/103/42 69/104/71
f 6/118/2 5/119/50 4/120/3
f 41/121/72 42/8/42 40/122/31
f 28/9/68 29/123/74 30/27/26 42/10/42
f 6/17/2 8/124/15 7/125/53
f 97/126/91 96/127/92 95/128/93
f 101/129/94 105/130/95 104/131/96
f 118/132/97 119/133/98 116/133/99 113/132/100 110/133/101 112/133/102
f 115/134/103 117/134/104 111/134/105 109/134/106 114/135/107
f 102/136/108 106/137/109 105/138/95
f 110/133/110 109/134/110 111/134/110 112/133/110
f 116/133/111 119/133/111 117/134/111 115/134/111
f 98/139/112 97/130/91 95/128/93 94/140/113 93/141/114 92/142/115 91/143/116 99/144/117
f 103/140/118 104/145/96 105/146/95 106/137/109 107/147/119 108/148/120
f 117/134/121 119/133/122 118/132/123 112/133/124 111/134/125
f 93/141/114 94/149/113 100/150/126
