# Blender 4.2.2 LTS
# www.blender.org
o teal
v 0.155300 3.139437 0.277411
v 0.152310 3.154462 0.277656
v 0.155937 3.169296 0.276551
v 0.217762 3.217514 0.280679
v 0.241011 3.203743 0.280692
v 0.258667 3.167693 0.279866
v 0.261468 3.140414 0.280345
v 0.249703 3.115531 0.279251
v 0.230420 3.096256 0.278936
v 0.205225 3.085824 0.278766
v 0.177691 3.084460 0.279431
v 0.152008 3.095094 0.279605
v 0.133477 3.115531 0.279251
v 0.121698 3.154344 0.279885
v 0.134725 3.192336 0.280268
v 0.152760 3.212432 0.280834
v 0.177955 3.222863 0.281004
v 0.198124 3.187706 0.270518
v 0.220688 3.174291 0.270537
v 0.226585 3.154857 0.270219
v 0.216336 3.130122 0.269815
v 0.191590 3.119877 0.269648
v 0.171395 3.124610 0.270413
v 0.172148 3.183942 0.270694
v -0.230180 3.154534 0.276310
v -0.206358 3.118896 0.275728
v -0.153741 3.162059 0.276432
v -0.205225 3.222863 0.281004
v -0.219621 3.221744 0.285586
v -0.241011 3.203743 0.280692
v -0.259043 3.182107 0.283444
v -0.262836 3.154307 0.280572
v -0.259263 3.126080 0.284023
v -0.230420 3.096256 0.278936
v -0.219621 3.086455 0.283376
v -0.191590 3.083091 0.279409
v -0.152760 3.096256 0.278936
v -0.128405 3.128196 0.279221
v -0.121698 3.154344 0.279885
v -0.128405 3.180517 0.280075
v -0.152760 3.212432 0.280834
v -0.177955 3.222863 0.281004
v -0.198417 3.189166 0.270779
v -0.219439 3.173470 0.270286
v -0.216335 3.130122 0.269815
v -0.184763 3.120549 0.269659
v -0.162492 3.135423 0.269902
v -0.166844 3.179592 0.270623
v -0.163559 3.084284 0.324228
v 0.191590 3.224098 0.346241
v -0.191590 3.079555 0.308264
v 0.205880 3.081292 0.302067
v -0.150895 3.090593 0.332931
v -0.177300 3.222355 0.352535
v 0.191590 3.079555 0.308264
v -0.219621 3.219181 0.333803
v -0.191590 3.224098 0.346241
v -0.139795 3.099308 0.340436
v -0.177300 3.080551 0.316010
v 0.177300 3.080551 0.316010
v 0.139795 3.201699 0.363845
v -0.130685 3.110049 0.347282
v -0.232285 3.212784 0.326735
v 0.123917 3.177776 0.366647
v 0.207349 3.222598 0.339580
v -0.123916 3.122374 0.353779
v 0.163559 3.084284 0.324228
v 0.219621 3.085699 0.297608
v -0.150895 3.210962 0.361025
v -0.119748 3.135807 0.359680
v -0.243385 3.204002 0.320521
v 0.259263 3.180748 0.310723
v 0.232285 3.212784 0.326735
v 0.139795 3.099308 0.340436
v -0.252494 3.193180 0.315191
v 0.243385 3.204002 0.320521
v 0.130686 3.110049 0.347282
v -0.119748 3.164036 0.366521
v 0.123917 3.122374 0.353779
v 0.119748 3.135807 0.359680
v -0.130685 3.190494 0.365743
v 0.259263 3.125463 0.295621
v -0.263431 3.167187 0.307214
v 0.118341 3.149833 0.364755
v 0.243385 3.101807 0.293420
v 0.264839 3.153169 0.301996
v -0.264839 3.153169 0.301996
v 0.163559 3.217927 0.357392
v -0.243385 3.101807 0.293420
v -0.205880 3.081292 0.302067
v 0.155300 3.139437 0.277411
v 0.152310 3.154462 0.277656
v 0.155937 3.169296 0.276551
v 0.198124 3.187706 0.270518
v 0.220688 3.174291 0.270537
v 0.226585 3.154857 0.270219
v 0.216336 3.130122 0.269815
v 0.191590 3.119877 0.269648
v 0.171395 3.124610 0.270413
v 0.172148 3.183942 0.270694
v -0.230180 3.154534 0.276310
v -0.206358 3.118896 0.275728
v -0.198417 3.189166 0.270779
v -0.219439 3.173470 0.270286
v -0.216335 3.130122 0.269815
v -0.184763 3.120549 0.269659
v -0.162492 3.135423 0.269902
v -0.166844 3.179592 0.270623
v 0.032895 3.086643 0.362208
v 0.018271 3.025246 0.328725
v 0.031236 3.085409 0.338696
v 0.017750 3.028752 0.308465
v -0.000000 3.012676 0.322325
v -0.000000 3.085872 0.363846
v -0.032895 3.086643 0.362208
v -0.018271 3.025246 0.328725
v -0.031236 3.085409 0.338696
v -0.000000 3.028100 0.308120
v -0.017750 3.028752 0.308465
vn 0.2986 0.5671 0.7676
vn -0.9814 0.0774 0.1757
vn -0.0096 -0.1699 0.9854
vn -0.7751 0.3053 0.5532
vn -0.5560 0.8260 0.0922
vn -0.8990 0.4274 0.0954
vn -0.4431 0.0810 0.8928
vn -0.0289 -0.2258 0.9738
vn 0.0971 -0.9927 0.0712
vn -0.2227 0.4631 0.8579
vn 0.0951 0.9772 0.1899
vn -0.2387 0.1104 0.9648
vn 0.6182 -0.7690 0.1628
vn 0.0816 0.1249 0.9888
vn -0.9407 0.1877 0.2826
vn 0.2705 0.6617 0.6993
vn 0.4616 0.2473 0.8519
vn 0.8112 -0.1002 0.5761
vn 0.3998 -0.3681 0.8394
vn -0.1059 -0.6016 0.7917
vn -0.4242 -0.4288 0.7976
vn -0.7533 -0.3804 0.5364
vn -0.9343 0.0399 0.3543
vn -0.0998 -0.5232 0.8464
vn -0.4893 0.5150 0.7038
vn 0.0494 -0.2276 0.9725
vn 0.3400 -0.2865 0.8957
vn 0.2451 0.3546 0.9023
vn 0.6448 0.7159 0.2679
vn -0.3810 0.9104 -0.1611
vn -0.9431 -0.3244 0.0731
vn -0.9909 -0.0014 0.1343
vn -0.6431 0.7369 0.2082
vn 0.9912 0.0490 0.1232
vn -0.7880 -0.1470 0.5978
vn -0.4726 0.6396 0.6062
vn -0.0414 -0.8410 0.5394
vn 0.6955 -0.0788 0.7142
vn 0.6289 -0.2308 0.7424
vn -0.0194 -0.6323 0.7745
vn 0.4363 0.6835 0.5852
vn -0.1244 -0.1453 0.9815
vn -0.8295 0.1668 0.5331
vn 0.0252 -0.9983 -0.0529
vn 0.3320 -0.9412 -0.0627
vn -0.2854 -0.9553 -0.0769
vn 0.6676 -0.7313 -0.1395
vn -0.5341 -0.8442 -0.0459
vn -0.6924 -0.7205 -0.0392
vn -0.7793 -0.6148 0.1215
vn -0.8712 -0.4817 -0.0944
vn -0.9999 -0.0157 -0.0026
vn -0.9732 0.1945 0.1229
vn -0.9700 0.2431 -0.0029
vn -0.7975 0.6029 0.0205
vn -0.4991 0.8660 0.0303
vn -0.1735 0.9835 0.0516
vn 0.0275 0.9982 0.0524
vn 0.2249 0.9730 0.0511
vn 0.4113 0.9103 0.0474
vn 0.6119 0.7903 0.0299
vn 0.8449 0.5343 0.0278
vn 0.9323 0.3611 0.0182
vn 0.9845 0.1752 0.0097
vn 0.9941 -0.0932 -0.0551
vn 0.9260 -0.3769 -0.0204
vn -0.0254 -0.9983 -0.0528
vn 0.0626 -0.9967 0.0520
vn -0.2211 -0.9739 -0.0514
vn 0.3215 -0.9435 -0.0798
vn -0.4382 -0.8975 -0.0500
vn -0.6437 -0.7583 0.1032
vn -0.7369 -0.6701 -0.0895
vn 0.4843 -0.8749 -0.0017
vn 0.5335 -0.8447 -0.0434
vn 0.6916 -0.7212 -0.0387
vn 0.8215 -0.5693 -0.0312
vn 0.9497 -0.3098 -0.0466
vn 0.9938 0.1101 -0.0170
vn 0.8440 0.3681 -0.3900
vn -0.0275 0.9982 0.0527
vn 0.8174 0.5566 -0.1486
vn -0.2246 0.9731 0.0506
vn -0.4112 0.9103 0.0479
vn -0.6115 0.7905 0.0340
vn -0.7247 0.6882 0.0350
vn -0.8448 0.5343 0.0280
vn -0.9323 0.3612 0.0184
vn -0.9846 0.1747 0.0093
vn -0.9892 -0.1407 -0.0397
vn -0.4498 -0.0064 0.8931
vn -0.5197 -0.4812 0.7060
vn -0.4774 -0.6610 0.5789
vn 0.7712 0.2851 0.5692
vn 0.1567 0.7422 0.6516
vn 0.6569 -0.5527 0.5128
vn -0.0000 0.9865 0.1635
vn 0.0391 0.9859 0.1627
vn 0.0390 0.9856 0.1647
vn -0.0000 0.9870 0.1609
vn -0.0390 0.9856 0.1648
vn -0.0391 0.9860 0.1622
vn -0.0255 -0.9984 0.0500
vn -0.0254 -0.9984 0.0500
vn 0.0254 -0.9984 0.0500
vn 0.0255 -0.9984 0.0500
vn -0.0000 -0.9987 0.0501
vn -0.1141 0.9152 0.3866
vn -0.6464 0.3410 0.6825
vn -0.9778 0.2009 0.0591
vn 0.9778 0.2009 0.0591
vn -0.6303 0.4373 0.6415
vn 0.5443 -0.6469 0.5341
vn 0.8698 0.1396 0.4732
vn 0.5764 0.3209 0.7515
vn 0.3550 0.5318 0.7688
vn -0.1593 0.4754 0.8652
vn 0.6093 -0.5823 0.5382
vn -0.4740 0.7099 0.5208
vn -0.1844 -0.7951 0.5778
vn -0.0338 -0.4846 0.8741
vn -0.0337 -0.4846 0.8741
vn -0.0000 -0.4847 0.8747
vn 0.0337 -0.4846 0.8741
vn 0.0338 -0.4846 0.8741
vn 0.8795 -0.1986 0.4324
vt 0.888859 0.277621
vt 0.957024 0.335752
vt 0.793716 0.469776
vt 0.777621 0.388859
vt 0.588072 0.088072
vt 0.542975 0.164248
vt 0.705324 0.025400
vt 0.664248 0.457025
vt 0.794676 0.474600
vt 0.705325 0.474601
vt 0.662365 0.038431
vt 0.750000 0.020999
vt 0.835752 0.042976
vt 0.563683 0.374493
vt 0.625507 0.063683
vt 0.957024 0.164248
vt 0.969776 0.293716
vt 0.888859 0.222379
vt 0.828657 0.132281
vt 0.722379 0.111141
vt 0.649888 0.149888
vt 0.611141 0.222379
vt 0.608420 0.250000
vt 0.632281 0.328658
vt 0.695820 0.380803
vt 0.828658 0.367719
vt 0.874493 0.436317
vt 0.706284 0.030224
vt 0.877226 0.059593
vt 0.794676 0.025399
vt 0.542976 0.335753
vt 0.525399 0.205324
vt 0.520999 0.250000
vt 0.837635 0.038431
vt 0.911928 0.088072
vt 0.538431 0.337635
vt 0.626746 0.274517
vt 0.626760 0.274514
vt 0.624331 0.250000
vt 0.632281 0.171343
vt 0.867719 0.171343
vt 0.874493 0.063683
vt 0.750000 0.391580
vt 0.000000 0.516502
vt 0.000000 0.723297
vt 0.031250 0.744864
vt 1.000000 0.723297
vt 1.000000 0.516502
vt 0.968750 0.516502
vt 0.968750 0.702676
vt 0.125000 0.516502
vt 0.093750 0.516502
vt 0.125000 0.784601
vt 0.937500 0.681135
vt 0.906250 0.516502
vt 0.906250 0.657383
vt 0.875000 0.636672
vt 0.875000 0.516502
vt 0.843750 0.516502
vt 0.843750 0.619092
vt 0.812500 0.516502
vt 0.750000 0.516502
vt 0.750000 0.576308
vt 0.781250 0.593328
vt 0.718750 0.516502
vt 0.718750 0.563738
vt 0.687500 0.516502
vt 0.687500 0.556102
vt 0.656250 0.516502
vt 0.656250 0.553693
vt 0.625000 0.516502
vt 0.593750 0.516502
vt 0.593750 0.553207
vt 0.625000 0.549909
vt 0.562500 0.516502
vt 0.531250 0.516502
vt 0.531250 0.580553
vt 0.562500 0.565094
vt 0.500000 0.516502
vt 0.500000 0.601789
vt 0.468750 0.516502
vt 0.468750 0.628160
vt 0.437500 0.516502
vt 0.437500 0.655988
vt 0.406250 0.516502
vt 0.406250 0.685327
vt 0.375000 0.516502
vt 0.375000 0.710446
vt 0.343750 0.516502
vt 0.343750 0.733201
vt 0.312500 0.516502
vt 0.312500 0.754682
vt 0.281250 0.516502
vt 0.281250 0.774062
vt 0.250000 0.516502
vt 0.250000 0.790598
vt 0.218750 0.795829
vt 0.218750 0.516502
vt 0.187500 0.516502
vt 0.187500 0.795492
vt 0.156250 0.516502
vt 0.156250 0.791701
vt 0.062500 0.516502
vt 0.062500 0.761685
vt 0.093750 0.774466
vt 0.031250 0.516502
vt 0.125000 0.784602
vt 0.937500 0.681136
vt 0.937500 0.516502
vt 0.812500 0.604544
vt 0.781250 0.593329
vt 0.781250 0.516502
vt 0.718750 0.563739
vt 0.625000 0.549910
vt 0.531250 0.580554
vt 0.398910 0.692728
vt 0.281250 0.774063
vt 0.961569 0.337635
vt 0.911928 0.411928
vt 0.835752 0.457024
vt 0.622774 0.440407
vt 0.559593 0.377226
vt 0.837635 0.461569
vt 0.961569 0.162365
vt 0.974600 0.205324
vt 0.862459 0.227631
vt 0.862459 0.272369
vt 0.851390 0.291997
vt 0.864662 0.250000
vt 0.857634 0.228590
vt 0.845338 0.313703
vt 0.588101 0.750000
vt 0.587119 0.758318
vt 0.562500 0.764186
vt 0.562500 0.750000
vt 0.750000 0.135338
vt 0.728590 0.142366
vt 0.813703 0.154662
vt 0.791997 0.148611
vt 0.728590 0.357635
vt 0.658752 0.310970
vt 0.642366 0.271410
vt 0.658752 0.189030
vt 0.708003 0.148611
vt 0.841248 0.310970
vt 0.810970 0.158752
vt 0.648611 0.208003
vt 0.648611 0.291997
vt 0.706121 0.355934
vt 0.686297 0.345338
s 1
f 19/1/1 6/2/2 4/3/3 18/4/4
f 37/5/5 38/6/6 36/7/7
f 16/8/8 4/9/3 17/10/9
f 12/11/10 11/12/11 10/13/12
f 15/14/13 13/6/14 12/15/10 10/13/12 8/16/15 6/17/2 19/1/1 20/18/16 21/19/17 22/20/18 23/21/19 1/22/20 2/23/21 3/24/22 24/25/23 18/4/4 4/3/3 16/8/8
f 25/1/24 44/26/25 30/27/26 31/2/27 32/17/28
f 36/28/7 34/29/29 35/30/30
f 40/31/31 38/32/6 39/33/32
f 10/34/12 9/35/33 8/16/15
f 15/36/13 14/32/34 13/6/14
f 27/37/35 48/38/36 47/39/37
f 47/40/37 46/20/38 26/19/39 45/41/40 25/1/24 32/17/28 33/16/41 34/42/29 36/28/7 38/6/6 40/31/31 42/8/42 30/27/26 44/26/25 43/43/43 48/24/36 27/23/35
f 17/44/9 50/45/44 88/46/45
f 50/47/44 17/48/9 4/49/3 65/50/46
f 15/51/13 16/52/8 61/53/47
f 65/54/46 4/55/3 73/56/48
f 76/57/49 73/56/48 4/55/3 5/58/50
f 76/57/49 5/59/50 72/60/51
f 72/60/51 5/59/50 6/61/2
f 6/62/2 86/63/52 72/64/51
f 6/62/2 7/65/53 82/66/54 86/63/52
f 82/66/54 7/65/53 8/67/15
f 82/68/54 8/69/15 85/70/55
f 8/69/15 9/71/33 85/70/55
f 9/72/33 68/73/56 85/74/55
f 9/72/33 10/75/12 68/73/56
f 10/76/12 52/77/57 68/78/56
f 11/79/11 55/80/58 52/77/57 10/76/12
f 55/80/58 11/81/11 60/82/59
f 60/82/59 11/81/11 12/83/10 67/84/60
f 67/84/60 12/85/10 74/86/61
f 74/86/61 12/85/10 13/87/14
f 74/88/61 13/89/14 77/90/62
f 77/90/62 13/91/14 79/92/63
f 79/92/63 13/91/14 14/93/34 80/94/64
f 80/94/64 14/95/34 84/96/65
f 84/97/65 14/98/34 15/99/13 64/100/66
f 64/100/66 15/101/13 61/102/47
f 16/103/8 88/104/45 61/105/47
f 16/103/8 17/106/9 88/104/45
f 57/45/67 28/44/68 42/106/42 54/46/69
f 56/50/70 28/48/68 57/47/67
f 69/105/71 41/51/72 81/107/73
f 56/108/70 29/109/74 28/49/68
f 63/56/75 30/55/26 29/109/74 56/108/70
f 71/57/76 30/55/26 63/56/75
f 75/60/77 31/59/27 30/58/26 71/57/76
f 83/110/78 31/59/27 75/60/77
f 83/111/78 32/112/28 31/61/27
f 87/63/79 32/112/28 83/111/78
f 33/67/41 32/65/28 87/113/79
f 89/114/80 34/71/29 33/69/41
f 35/75/30 34/72/29 89/73/80
f 51/80/81 36/79/7 35/76/30 90/115/82
f 59/82/83 36/79/7 51/80/81
f 49/84/84 37/83/5 36/81/7 59/82/83
f 53/86/85 37/83/5 49/84/84
f 58/88/86 37/85/5 53/116/85
f 62/90/87 38/89/6 37/87/5 58/88/86
f 66/92/88 38/89/6 62/90/87
f 70/117/89 38/91/6 66/92/88
f 78/96/90 39/95/32 38/93/6 70/117/89
f 78/97/90 40/98/31 39/95/32
f 81/100/73 40/98/31 78/97/90
f 81/107/73 41/51/72 40/101/31
f 69/104/71 42/103/42 41/52/72
f 54/46/69 42/103/42 69/104/71
f 6/118/2 5/119/50 4/120/3
f 41/121/72 42/8/42 40/122/31
f 28/9/68 29/123/74 30/27/26 42/10/42
f 6/17/2 8/124/15 7/125/53
f 97/126/91 96/127/92 95/128/93
f 101/129/94 105/130/95 104/131/96
f 118/132/97 119/133/98 116/133/99 113/132/100 110/133/101 112/133/102
f 115/134/103 117/134/104 111/134/105 109/134/106 114/135/107
f 102/136/108 106/137/109 105/138/95
f 110/133/110 109/134/110 111/134/110 112/133/110
f 116/133/111 119/133/111 117/134/111 115/134/111
f 98/139/112 97/130/91 95/128/93 94/140/113 93/141/114 92/142/115 91/143/116 99/144/117
f 103/140/118 104/145/96 105/146/95 106/137/109 107/147/119 108/148/120
f 117/134/121 119/133/122 118/132/123 112/133/124 111/134/125
f 93/141/114 94/149/113 100/150/126
