# Blender 4.2.2 LTS
# www.blender.org
o teal
v 0.155300 3.140859 0.275571
v 0.152310 3.155885 0.275795
v 0.155937 3.170714 0.274669
v 0.217762 3.218951 0.278731
v 0.241011 3.205180 0.278762
v 0.258667 3.169126 0.277987
v 0.261468 3.141849 0.278504
v 0.249703 3.116961 0.277445
v 0.230420 3.097685 0.277157
v 0.205225 3.087253 0.277001
v 0.177691 3.085891 0.277668
v 0.152008 3.096526 0.277827
v 0.133477 3.116961 0.277445
v 0.121698 3.155777 0.278024
v 0.134725 3.193771 0.278355
v 0.152760 3.213869 0.278892
v 0.177955 3.224301 0.279047
v 0.198124 3.189096 0.268611
v 0.220688 3.175682 0.268648
v 0.226585 3.156247 0.268358
v 0.216336 3.131510 0.267988
v 0.191590 3.121264 0.267835
v 0.171395 3.126001 0.268593
v 0.172148 3.185333 0.268792
v -0.230180 3.155951 0.274449
v -0.206358 3.120311 0.273916
v -0.153741 3.163476 0.274561
v -0.205225 3.224301 0.279047
v -0.219621 3.223202 0.283631
v -0.241011 3.205180 0.278762
v -0.259043 3.183556 0.281544
v -0.262836 3.155744 0.278711
v -0.259263 3.127532 0.282202
v -0.230420 3.097685 0.277157
v -0.219621 3.087904 0.281610
v -0.191590 3.084523 0.277648
v -0.152760 3.097685 0.277157
v -0.128405 3.129626 0.277397
v -0.121698 3.155777 0.278024
v -0.128405 3.181952 0.278178
v -0.152760 3.213869 0.278892
v -0.177955 3.224301 0.279047
v -0.198417 3.190557 0.268870
v -0.219439 3.174860 0.268399
v -0.216335 3.131510 0.267988
v -0.184763 3.121936 0.267845
v -0.162492 3.136811 0.268068
v -0.166844 3.180983 0.268727
v -0.163559 3.085919 0.322465
v 0.191590 3.225832 0.344283
v -0.191590 3.081117 0.306507
v 0.205880 3.082826 0.300308
v -0.150895 3.092268 0.331160
v -0.177300 3.224118 0.350579
v 0.191590 3.081117 0.306507
v -0.219621 3.220859 0.331851
v -0.191590 3.225832 0.344283
v -0.139795 3.101017 0.338652
v -0.177300 3.082148 0.314252
v 0.177300 3.082148 0.314252
v 0.139795 3.203513 0.361918
v -0.130685 3.111789 0.345483
v -0.232285 3.214430 0.324793
v 0.123917 3.179604 0.364753
v 0.207349 3.224303 0.337624
v -0.123916 3.124143 0.351963
v 0.163559 3.085919 0.322465
v 0.219621 3.087213 0.295843
v -0.150895 3.212764 0.359085
v -0.119748 3.137603 0.357845
v -0.243385 3.205619 0.318591
v 0.259263 3.182322 0.308826
v 0.232285 3.214430 0.324793
v 0.139795 3.101017 0.338652
v -0.252494 3.194774 0.313276
v 0.243385 3.205619 0.318591
v 0.130686 3.111789 0.345483
v -0.119748 3.165863 0.364646
v 0.123917 3.124143 0.351963
v 0.119748 3.137603 0.357845
v -0.130685 3.192317 0.363832
v 0.259263 3.126968 0.293801
v -0.263431 3.168745 0.305336
v 0.118341 3.151652 0.362900
v 0.243385 3.103302 0.291633
v 0.264839 3.154702 0.300137
v -0.264839 3.154702 0.300137
v 0.163559 3.219712 0.355443
v -0.243385 3.103302 0.291633
v -0.205880 3.082826 0.300308
v 0.155300 3.140859 0.275571
v 0.152310 3.155885 0.275795
v 0.155937 3.170714 0.274669
v 0.198124 3.189096 0.268611
v 0.220688 3.175682 0.268648
v 0.226585 3.156247 0.268358
v 0.216336 3.131510 0.267988
v 0.191590 3.121264 0.267835
v 0.171395 3.126001 0.268593
v 0.172148 3.185333 0.268792
v -0.230180 3.155951 0.274449
v -0.206358 3.120311 0.273916
v -0.198417 3.190557 0.268870
v -0.219439 3.174860 0.268399
v -0.216335 3.131510 0.267988
v -0.184763 3.121936 0.267845
v -0.162492 3.136811 0.268068
v -0.166844 3.180983 0.268727
v 0.032895 3.088451 0.360441
v 0.018271 3.026902 0.327044
v 0.031236 3.087110 0.336932
v 0.017750 3.030316 0.306780
v -0.000000 3.014302 0.320662
v -0.000000 3.087687 0.362080
v -0.032895 3.088451 0.360441
v -0.018271 3.026902 0.327044
v -0.031236 3.087110 0.336932
v -0.000000 3.029661 0.306435
v -0.017750 3.030316 0.306780
vn 0.2987 0.5683 0.7667
vn -0.9814 0.0779 0.1757
vn -0.0094 -0.1665 0.9860
vn -0.7751 0.3061 0.5528
vn -0.5558 0.8264 0.0904
vn -0.8990 0.4276 0.0945
vn -0.4431 0.0842 0.8925
vn -0.0295 -0.2229 0.9744
vn 0.0973 -0.9925 0.0736
vn -0.2219 0.4654 0.8568
vn 0.0953 0.9776 0.1875
vn -0.2387 0.1135 0.9644
vn 0.6183 -0.7686 0.1643
vn 0.0824 0.1270 0.9885
vn -0.9408 0.1885 0.2817
vn 0.2705 0.6627 0.6983
vn 0.4616 0.2485 0.8516
vn 0.8112 -0.0994 0.5763
vn 0.3997 -0.3671 0.8399
vn -0.1062 -0.6004 0.7926
vn -0.4243 -0.4276 0.7982
vn -0.7534 -0.3796 0.5369
vn -0.9342 0.0409 0.3543
vn -0.1000 -0.5219 0.8471
vn -0.4892 0.5161 0.7031
vn 0.0483 -0.2252 0.9731
vn 0.3394 -0.2848 0.8965
vn 0.2451 0.3564 0.9016
vn 0.6448 0.7166 0.2659
vn -0.3809 0.9101 -0.1633
vn -0.9432 -0.3240 0.0740
vn -0.9909 -0.0010 0.1343
vn -0.6431 0.7375 0.2061
vn 0.9911 0.0495 0.1232
vn -0.7879 -0.1465 0.5981
vn -0.4726 0.6405 0.6053
vn -0.0413 -0.8403 0.5406
vn 0.6955 -0.0779 0.7143
vn 0.6288 -0.2302 0.7427
vn -0.0191 -0.6312 0.7754
vn 0.4365 0.6843 0.5841
vn -0.1245 -0.1420 0.9820
vn -0.8295 0.1675 0.5329
vn 0.0252 -0.9985 -0.0483
vn 0.3319 -0.9415 -0.0585
vn -0.2854 -0.9557 -0.0725
vn 0.6677 -0.7319 -0.1364
vn -0.5341 -0.8444 -0.0420
vn -0.6923 -0.7208 -0.0359
vn -0.7784 -0.6156 0.1230
vn -0.8712 -0.4821 -0.0924
vn -0.9999 -0.0159 -0.0024
vn -0.9733 0.1940 0.1225
vn -0.9701 0.2428 -0.0042
vn -0.7976 0.6029 0.0176
vn -0.4992 0.8661 0.0263
vn -0.1735 0.9837 0.0473
vn 0.0275 0.9985 0.0480
vn 0.2250 0.9732 0.0468
vn 0.4114 0.9104 0.0434
vn 0.6121 0.7903 0.0266
vn 0.8450 0.5342 0.0254
vn 0.9324 0.3610 0.0166
vn 0.9845 0.1750 0.0089
vn 0.9941 -0.0937 -0.0547
vn 0.9259 -0.3772 -0.0187
vn -0.0254 -0.9985 -0.0483
vn 0.0624 -0.9966 0.0546
vn -0.2211 -0.9741 -0.0470
vn 0.3214 -0.9439 -0.0755
vn -0.4381 -0.8977 -0.0463
vn -0.6428 -0.7588 0.1051
vn -0.7368 -0.6705 -0.0870
vn 0.4842 -0.8750 0.0009
vn 0.5335 -0.8449 -0.0397
vn 0.6916 -0.7214 -0.0354
vn 0.8215 -0.5695 -0.0286
vn 0.9496 -0.3101 -0.0455
vn 0.9938 0.1098 -0.0172
vn 0.8437 0.3668 -0.3920
vn -0.0275 0.9985 0.0482
vn 0.8173 0.5559 -0.1514
vn -0.2247 0.9733 0.0463
vn -0.4113 0.9104 0.0438
vn -0.6116 0.7906 0.0304
vn -0.7249 0.6882 0.0320
vn -0.8450 0.5342 0.0256
vn -0.9324 0.3610 0.0168
vn -0.9846 0.1746 0.0085
vn -0.9892 -0.1413 -0.0391
vn -0.4498 -0.0051 0.8931
vn -0.5197 -0.4802 0.7066
vn -0.4775 -0.6602 0.5798
vn 0.7713 0.2857 0.5687
vn 0.1568 0.7431 0.6505
vn 0.6568 -0.5521 0.5136
vn -0.0000 0.9871 0.1598
vn 0.0391 0.9865 0.1591
vn 0.0390 0.9862 0.1609
vn -0.0000 0.9875 0.1574
vn -0.0390 0.9862 0.1609
vn -0.0391 0.9866 0.1585
vn -0.0255 -0.9982 0.0545
vn -0.0254 -0.9982 0.0545
vn 0.0254 -0.9982 0.0545
vn 0.0255 -0.9982 0.0545
vn -0.0000 -0.9985 0.0546
vn -0.1141 0.9160 0.3845
vn -0.6462 0.3424 0.6820
vn -0.9779 0.2010 0.0582
vn 0.9779 0.2010 0.0582
vn -0.6302 0.4382 0.6409
vn 0.5443 -0.6461 0.5350
vn 0.8699 0.1399 0.4729
vn 0.5764 0.3219 0.7511
vn 0.3551 0.5328 0.7681
vn -0.1590 0.4768 0.8645
vn 0.6093 -0.5816 0.5391
vn -0.4740 0.7107 0.5199
vn -0.1844 -0.7943 0.5789
vn -0.0338 -0.4827 0.8751
vn -0.0337 -0.4827 0.8751
vn -0.0000 -0.4829 0.8757
vn 0.0337 -0.4827 0.8751
vn 0.0338 -0.4827 0.8751
vn 0.8795 -0.1978 0.4329
vt 0.888859 0.277621
vt 0.957024 0.335752
vt 0.793716 0.469776
vt 0.777621 0.388859
vt 0.588072 0.088072
vt 0.542975 0.164248
vt 0.705324 0.025400
vt 0.664248 0.457025
vt 0.794676 0.474600
vt 0.705325 0.474601
vt 0.662365 0.038431
vt 0.750000 0.020999
vt 0.835752 0.042976
vt 0.563683 0.374493
vt 0.625507 0.063683
vt 0.957024 0.164248
vt 0.969776 0.293716
vt 0.888859 0.222379
vt 0.828657 0.132281
vt 0.722379 0.111141
vt 0.649888 0.149888
vt 0.611141 0.222379
vt 0.608420 0.250000
vt 0.632281 0.328658
vt 0.695820 0.380803
vt 0.828658 0.367719
vt 0.874493 0.436317
vt 0.706284 0.030224
vt 0.877226 0.059593
vt 0.794676 0.025399
vt 0.542976 0.335753
vt 0.525399 0.205324
vt 0.520999 0.250000
vt 0.837635 0.038431
vt 0.911928 0.088072
vt 0.538431 0.337635
vt 0.626746 0.274517
vt 0.626760 0.274514
vt 0.624331 0.250000
vt 0.632281 0.171343
vt 0.867719 0.171343
vt 0.874493 0.063683
vt 0.750000 0.391580
vt 0.000000 0.516502
vt 0.000000 0.723297
vt 0.031250 0.744864
vt 1.000000 0.723297
vt 1.000000 0.516502
vt 0.968750 0.516502
vt 0.968750 0.702676
vt 0.125000 0.516502
vt 0.093750 0.516502
vt 0.125000 0.784601
vt 0.937500 0.681135
vt 0.906250 0.516502
vt 0.906250 0.657383
vt 0.875000 0.636672
vt 0.875000 0.516502
vt 0.843750 0.516502
vt 0.843750 0.619092
vt 0.812500 0.516502
vt 0.750000 0.516502
vt 0.750000 0.576308
vt 0.781250 0.593328
vt 0.718750 0.516502
vt 0.718750 0.563738
vt 0.687500 0.516502
vt 0.687500 0.556102
vt 0.656250 0.516502
vt 0.656250 0.553693
vt 0.625000 0.516502
vt 0.593750 0.516502
vt 0.593750 0.553207
vt 0.625000 0.549909
vt 0.562500 0.516502
vt 0.531250 0.516502
vt 0.531250 0.580553
vt 0.562500 0.565094
vt 0.500000 0.516502
vt 0.500000 0.601789
vt 0.468750 0.516502
vt 0.468750 0.628160
vt 0.437500 0.516502
vt 0.437500 0.655988
vt 0.406250 0.516502
vt 0.406250 0.685327
vt 0.375000 0.516502
vt 0.375000 0.710446
vt 0.343750 0.516502
vt 0.343750 0.733201
vt 0.312500 0.516502
vt 0.312500 0.754682
vt 0.281250 0.516502
vt 0.281250 0.774062
vt 0.250000 0.516502
vt 0.250000 0.790598
vt 0.218750 0.795829
vt 0.218750 0.516502
vt 0.187500 0.516502
vt 0.187500 0.795492
vt 0.156250 0.516502
vt 0.156250 0.791701
vt 0.062500 0.516502
vt 0.062500 0.761685
vt 0.093750 0.774466
vt 0.031250 0.516502
vt 0.125000 0.784602
vt 0.937500 0.681136
vt 0.937500 0.516502
vt 0.812500 0.604544
vt 0.781250 0.593329
vt 0.781250 0.516502
vt 0.718750 0.563739
vt 0.625000 0.549910
vt 0.531250 0.580554
vt 0.398910 0.692728
vt 0.281250 0.774063
vt 0.961569 0.337635
vt 0.911928 0.411928
vt 0.835752 0.457024
vt 0.622774 0.440407
vt 0.559593 0.377226
vt 0.837635 0.461569
vt 0.961569 0.162365
vt 0.974600 0.205324
vt 0.862459 0.227631
vt 0.862459 0.272369
vt 0.851390 0.291997
vt 0.864662 0.250000
vt 0.857634 0.228590
vt 0.845338 0.313703
vt 0.588101 0.750000
vt 0.587119 0.758318
vt 0.562500 0.764186
vt 0.562500 0.750000
vt 0.750000 0.135338
vt 0.728590 0.142366
vt 0.813703 0.154662
vt 0.791997 0.148611
vt 0.728590 0.357635
vt 0.658752 0.310970
vt 0.642366 0.271410
vt 0.658752 0.189030
vt 0.708003 0.148611
vt 0.841248 0.310970
vt 0.810970 0.158752
vt 0.648611 0.208003
vt 0.648611 0.291997
vt 0.706121 0.355934
vt 0.686297 0.345338
s 1
f 19/1/1 6/2/2 4/3/3 18/4/4
f 37/5/5 38/6/6 36/7/7
f 16/8/8 4/9/3 17/10/9
f 12/11/10 11/12/11 10/13/12
f 15/14/13 13/6/14 12/15/10 10/13/12 8/16/15 6/17/2 19/1/1 20/18/16 21/19/17 22/20/18 23/21/19 1/22/20 2/23/21 3/24/22 24/25/23 18/4/4 4/3/3 16/8/8
f 25/1/24 44/26/25 30/27/26 31/2/27 32/17/28
f 36/28/7 34/29/29 35/30/30
f 40/31/31 38/32/6 39/33/32
f 10/34/12 9/35/33 8/16/15
f 15/36/13 14/32/34 13/6/14
f 27/37/35 48/38/36 47/39/37
f 47/40/37 46/20/38 26/19/39 45/41/40 25/1/24 32/17/28 33/16/41 34/42/29 36/28/7 38/6/6 40/31/31 42/8/42 30/27/26 44/26/25 43/43/43 48/24/36 27/23/35
f 17/44/9 50/45/44 88/46/45
f 50/47/44 17/48/9 4/49/3 65/50/46
f 15/51/13 16/52/8 61/53/47
f 65/54/46 4/55/3 73/56/48
f 76/57/49 73/56/48 4/55/3 5/58/50
f 76/57/49 5/59/50 72/60/51
f 72/60/51 5/59/50 6/61/2
f 6/62/2 86/63/52 72/64/51
f 6/62/2 7/65/53 82/66/54 86/63/52
f 82/66/54 7/65/53 8/67/15
f 82/68/54 8/69/15 85/70/55
f 8/69/15 9/71/33 85/70/55
f 9/72/33 68/73/56 85/74/55
f 9/72/33 10/75/12 68/73/56
f 10/76/12 52/77/57 68/78/56
f 11/79/11 55/80/58 52/77/57 10/76/12
f 55/80/58 11/81/11 60/82/59
f 60/82/59 11/81/11 12/83/10 67/84/60
f 67/84/60 12/85/10 74/86/61
f 74/86/61 12/85/10 13/87/14
f 74/88/61 13/89/14 77/90/62
f 77/90/62 13/91/14 79/92/63
f 79/92/63 13/91/14 14/93/34 80/94/64
f 80/94/64 14/95/34 84/96/65
f 84/97/65 14/98/34 15/99/13 64/100/66
f 64/100/66 15/101/13 61/102/47
f 16/103/8 88/104/45 61/105/47
f 16/103/8 17/106/9 88/104/45
f 57/45/67 28/44/68 42/106/42 54/46/69
f 56/50/70 28/48/68 57/47/67
f 69/105/71 41/51/72 81/107/73
f 56/108/70 29/109/74 28/49/68
f 63/56/75 30/55/26 29/109/74 56/108/70
f 71/57/76 30/55/26 63/56/75
f 75/60/77 31/59/27 30/58/26 71/57/76
f 83/110/78 31/59/27 75/60/77
f 83/111/78 32/112/28 31/61/27
f 87/63/79 32/112/28 83/111/78
f 33/67/41 32/65/28 87/113/79
f 89/114/80 34/71/29 33/69/41
f 35/75/30 34/72/29 89/73/80
f 51/80/81 36/79/7 35/76/30 90/115/82
f 59/82/83 36/79/7 51/80/81
f 49/84/84 37/83/5 36/81/7 59/82/83
f 53/86/85 37/83/5 49/84/84
f 58/88/86 37/85/5 53/116/85
f 62/90/87 38/89/6 37/87/5 58/88/86
f 66/92/88 38/89/6 62/90/87
f 70/117/89 38/91/6 66/92/88
f 78/96/90 39/95/32 38/93/6 70/117/89
f 78/97/90 40/98/31 39/95/32
f 81/100/73 40/98/31 78/97/90
f 81/107/73 41/51/72 40/101/31
f 69/104/71 42/103/42 41/52/72
f 54/46/69 42/103/42 69/104/71
f 6/118/2 5/119/50 4/120/3
f 41/121/72 42/8/42 40/122/31
f 28/9/68 29/123/74 30/27/26 42/10/42
f 6/17/2 8/124/15 7/125/53
f 97/126/91 96/127/92 95/128/93
f 101/129/94 105/130/95 104/131/96
f 118/132/97 119/133/98 116/133/99 113/132/100 110/133/101 112/133/102
f 115/134/103 117/134/104 111/134/105 109/134/106 114/135/107
f 102/136/108 106/137/109 105/138/95
f 110/133/110 109/134/110 111/134/110 112/133/110
f 116/133/111 119/133/111 117/134/111 115/134/111
f 98/139/112 97/130/91 95/128/93 94/140/113 93/141/114 92/142/115 91/143/116 99/144/117
f 103/140/118 104/145/96 105/146/95 106/137/109 107/147/119 108/148/120
f 117/134/121 119/133/122 118/132/123 112/133/124 111/134/125
f 93/141/114 94/149/113 100/150/126
