# Blender 4.2.2 LTS
# www.blender.org
o teal
v 0.155300 3.119968 0.301415
v 0.152310 3.134970 0.301936
v 0.155937 3.149862 0.301104
v 0.217762 3.197807 0.306115
v 0.241011 3.184043 0.305875
v 0.258667 3.148062 0.304388
v 0.261468 3.120769 0.304366
v 0.249703 3.095965 0.302816
v 0.230420 3.076720 0.302148
v 0.205225 3.066304 0.301786
v 0.177691 3.064900 0.302426
v 0.152008 3.075519 0.302795
v 0.133477 3.095965 0.302816
v 0.121698 3.134719 0.304162
v 0.134725 3.172667 0.305242
v 0.152760 3.192718 0.306176
v 0.177955 3.203134 0.306538
v 0.198124 3.168622 0.295413
v 0.220688 3.155214 0.295185
v 0.226585 3.135810 0.294511
v 0.216336 3.111112 0.293653
v 0.191590 3.100883 0.293298
v 0.171395 3.105568 0.294149
v 0.172148 3.164850 0.295519
v -0.230180 3.135122 0.300592
v -0.206358 3.099539 0.299356
v -0.153741 3.142636 0.300853
v -0.205225 3.203134 0.306538
v -0.219621 3.201741 0.311096
v -0.241011 3.184043 0.305875
v -0.259043 3.162254 0.308228
v -0.262836 3.134641 0.304848
v -0.259263 3.106223 0.307779
v -0.230420 3.076720 0.302148
v -0.219621 3.066659 0.306406
v -0.191590 3.063534 0.302378
v -0.152760 3.076720 0.302148
v -0.128405 3.108625 0.303018
v -0.121698 3.134719 0.304162
v -0.128405 3.160866 0.304833
v -0.152760 3.192718 0.306176
v -0.177955 3.203134 0.306538
v -0.198417 3.170066 0.295701
v -0.219439 3.154408 0.294919
v -0.216335 3.111112 0.293653
v -0.184763 3.101554 0.293321
v -0.162492 3.116405 0.293837
v -0.166844 3.160506 0.295369
v -0.163559 3.062049 0.347195
v 0.191590 3.200471 0.371762
v -0.191590 3.058276 0.331152
v 0.205880 3.060382 0.324991
v -0.150895 3.067834 0.356009
v -0.177300 3.198353 0.378020
v 0.191590 3.058276 0.331152
v -0.219621 3.196299 0.359240
v -0.191590 3.200471 0.371762
v -0.139795 3.076096 0.363670
v -0.177300 3.058808 0.338913
v 0.177300 3.058808 0.338913
v 0.139795 3.177033 0.388945
v -0.130685 3.086423 0.370709
v -0.232285 3.190329 0.352059
v 0.123917 3.152956 0.391307
v 0.207349 3.199370 0.365077
v -0.123916 3.098352 0.377429
v 0.163559 3.062049 0.347195
v 0.219621 3.065053 0.320616
v -0.150895 3.186459 0.386297
v -0.119748 3.111425 0.383573
v -0.243385 3.181922 0.345687
v 0.259263 3.159267 0.335468
v 0.232285 3.190329 0.352059
v 0.139795 3.076096 0.363670
v -0.252494 3.171425 0.340162
v 0.243385 3.181922 0.345687
v 0.130686 3.086423 0.370709
v -0.119748 3.139230 0.390928
v 0.123917 3.098352 0.377429
v 0.119748 3.111425 0.383573
v -0.130685 3.165720 0.390637
v 0.259263 3.104914 0.319360
v -0.263431 3.145923 0.331712
v 0.118341 3.125141 0.388903
v 0.243385 3.081402 0.316726
v 0.264839 3.132224 0.326240
v -0.264839 3.132224 0.326240
v 0.163559 3.193637 0.382794
v -0.243385 3.081402 0.316726
v -0.205880 3.060382 0.324991
v 0.155300 3.119968 0.301415
v 0.152310 3.134970 0.301936
v 0.155937 3.149862 0.301104
v 0.198124 3.168622 0.295413
v 0.220688 3.155214 0.295185
v 0.226585 3.135810 0.294511
v 0.216336 3.111112 0.293653
v 0.191590 3.100883 0.293298
v 0.171395 3.105568 0.294149
v 0.172148 3.164850 0.295519
v -0.230180 3.135122 0.300592
v -0.206358 3.099539 0.299356
v -0.198417 3.170066 0.295701
v -0.219439 3.154408 0.294919
v -0.216335 3.111112 0.293653
v -0.184763 3.101554 0.293321
v -0.162492 3.116405 0.293837
v -0.166844 3.160506 0.295369
v 0.032895 3.062138 0.385197
v 0.018271 3.002775 0.350606
v 0.031236 3.062309 0.361676
v 0.017750 3.007489 0.330422
v -0.000000 2.990593 0.343979
v -0.000000 3.061269 0.386820
v -0.032895 3.062138 0.385197
v -0.018271 3.002775 0.350606
v -0.031236 3.062309 0.361676
v -0.000000 3.006857 0.330064
v -0.017750 3.007489 0.330422
vn 0.2965 0.5508 0.7802
vn -0.9820 0.0717 0.1749
vn -0.0131 -0.2148 0.9766
vn -0.7752 0.2945 0.5588
vn -0.5586 0.8213 0.1158
vn -0.8990 0.4246 0.1074
vn -0.4422 0.0397 0.8960
vn -0.0206 -0.2641 0.9643
vn 0.0948 -0.9947 0.0396
vn -0.2329 0.4317 0.8714
vn 0.0919 0.9707 0.2222
vn -0.2384 0.0703 0.9686
vn 0.6167 -0.7743 0.1418
vn 0.0709 0.0966 0.9928
vn -0.9391 0.1774 0.2944
vn 0.2704 0.6488 0.7113
vn 0.4617 0.2314 0.8563
vn 0.8112 -0.1109 0.5742
vn 0.4006 -0.3821 0.8328
vn -0.1013 -0.6172 0.7802
vn -0.4241 -0.4435 0.7896
vn -0.7522 -0.3918 0.5298
vn -0.9347 0.0275 0.3543
vn -0.0970 -0.5397 0.8363
vn -0.4906 0.5005 0.7133
vn 0.0631 -0.2590 0.9638
vn 0.3475 -0.3079 0.8857
vn 0.2446 0.3310 0.9114
vn 0.6442 0.7061 0.2940
vn -0.3826 0.9145 -0.1317
vn -0.9420 -0.3302 0.0602
vn -0.9910 -0.0068 0.1336
vn -0.6434 0.7287 0.2347
vn 0.9915 0.0426 0.1225
vn -0.7892 -0.1541 0.5945
vn -0.4727 0.6285 0.6178
vn -0.0420 -0.8506 0.5242
vn 0.6956 -0.0906 0.7127
vn 0.6304 -0.2382 0.7388
vn -0.0239 -0.6467 0.7624
vn 0.4331 0.6733 0.5992
vn -0.1235 -0.1886 0.9742
vn -0.8294 0.1574 0.5361
vn 0.0249 -0.9934 -0.1122
vn 0.3321 -0.9360 -0.1167
vn -0.2853 -0.9489 -0.1345
vn 0.6670 -0.7229 -0.1803
vn -0.5340 -0.8398 -0.0975
vn -0.6935 -0.7157 -0.0832
vn -0.7907 -0.6036 0.1021
vn -0.8711 -0.4759 -0.1207
vn -0.9999 -0.0134 -0.0054
vn -0.9713 0.2007 0.1277
vn -0.9691 0.2461 0.0146
vn -0.7956 0.6031 0.0577
vn -0.4977 0.8635 0.0815
vn -0.1730 0.9789 0.1086
vn 0.0274 0.9935 0.1105
vn 0.2233 0.9687 0.1080
vn 0.4095 0.9068 0.1004
vn 0.6092 0.7896 0.0732
vn 0.8430 0.5347 0.0591
vn 0.9311 0.3626 0.0388
vn 0.9840 0.1772 0.0207
vn 0.9943 -0.0872 -0.0613
vn 0.9270 -0.3726 -0.0431
vn -0.0256 -0.9934 -0.1121
vn 0.0646 -0.9978 0.0171
vn -0.2212 -0.9691 -0.1089
vn 0.3220 -0.9370 -0.1357
vn -0.4391 -0.8930 -0.0987
vn -0.6547 -0.7518 0.0791
vn -0.7375 -0.6640 -0.1230
vn 0.4862 -0.8731 -0.0359
vn 0.5325 -0.8414 -0.0921
vn 0.6918 -0.7174 -0.0821
vn 0.8221 -0.5654 -0.0662
vn 0.9499 -0.3065 -0.0610
vn 0.9934 0.1138 -0.0150
vn 0.8478 0.3854 -0.3644
vn -0.0272 0.9934 0.1111
vn 0.8182 0.5638 -0.1123
vn -0.2226 0.9690 0.1068
vn -0.4092 0.9068 0.1010
vn -0.6091 0.7890 0.0808
vn -0.7221 0.6878 0.0741
vn -0.8430 0.5347 0.0594
vn -0.9311 0.3627 0.0392
vn -0.9841 0.1764 0.0200
vn -0.9899 -0.1331 -0.0481
vn -0.4497 -0.0226 0.8929
vn -0.5198 -0.4939 0.6970
vn -0.4772 -0.6717 0.5667
vn 0.7697 0.2770 0.5752
vn 0.1555 0.7296 0.6659
vn 0.6580 -0.5607 0.5026
vn -0.0000 0.9774 0.2116
vn 0.0394 0.9769 0.2099
vn 0.0391 0.9760 0.2144
vn -0.0000 0.9786 0.2057
vn -0.0390 0.9760 0.2144
vn -0.0394 0.9770 0.2094
vn -0.0255 -0.9996 -0.0097
vn -0.0254 -0.9996 -0.0097
vn 0.0254 -0.9996 -0.0097
vn 0.0255 -0.9996 -0.0097
vn -0.0000 -1.0000 -0.0096
vn -0.1133 0.9033 0.4138
vn -0.6492 0.3222 0.6890
vn -0.9773 0.1996 0.0711
vn 0.9773 0.1996 0.0711
vn -0.6308 0.4245 0.6496
vn 0.5444 -0.6565 0.5221
vn 0.8690 0.1357 0.4759
vn 0.5763 0.3072 0.7573
vn 0.3538 0.5187 0.7783
vn -0.1633 0.4569 0.8744
vn 0.6093 -0.5921 0.5274
vn -0.4740 0.7003 0.5338
vn -0.1842 -0.8056 0.5631
vn -0.0337 -0.5089 0.8601
vn -0.0336 -0.5089 0.8602
vn -0.0000 -0.5090 0.8607
vn 0.0336 -0.5089 0.8602
vn 0.0337 -0.5089 0.8601
vn 0.8805 -0.2082 0.4259
vt 0.888859 0.277621
vt 0.957024 0.335752
vt 0.793716 0.469776
vt 0.777621 0.388859
vt 0.588072 0.088072
vt 0.542975 0.164248
vt 0.705324 0.025400
vt 0.664248 0.457025
vt 0.794676 0.474600
vt 0.705325 0.474601
vt 0.662365 0.038431
vt 0.750000 0.020999
vt 0.835752 0.042976
vt 0.563683 0.374493
vt 0.625507 0.063683
vt 0.957024 0.164248
vt 0.969776 0.293716
vt 0.888859 0.222379
vt 0.828657 0.132281
vt 0.722379 0.111141
vt 0.649888 0.149888
vt 0.611141 0.222379
vt 0.608420 0.250000
vt 0.632281 0.328658
vt 0.695820 0.380803
vt 0.828658 0.367719
vt 0.874493 0.436317
vt 0.706284 0.030224
vt 0.877226 0.059593
vt 0.794676 0.025399
vt 0.542976 0.335753
vt 0.525399 0.205324
vt 0.520999 0.250000
vt 0.837635 0.038431
vt 0.911928 0.088072
vt 0.538431 0.337635
vt 0.626746 0.274517
vt 0.626760 0.274514
vt 0.624331 0.250000
vt 0.632281 0.171343
vt 0.867719 0.171343
vt 0.874493 0.063683
vt 0.750000 0.391580
vt 0.000000 0.516502
vt 0.000000 0.723297
vt 0.031250 0.744864
vt 1.000000 0.723297
vt 1.000000 0.516502
vt 0.968750 0.516502
vt 0.968750 0.702676
vt 0.125000 0.516502
vt 0.093750 0.516502
vt 0.125000 0.784601
vt 0.937500 0.681135
vt 0.906250 0.516502
vt 0.906250 0.657383
vt 0.875000 0.636672
vt 0.875000 0.516502
vt 0.843750 0.516502
vt 0.843750 0.619092
vt 0.812500 0.516502
vt 0.750000 0.516502
vt 0.750000 0.576308
vt 0.781250 0.593328
vt 0.718750 0.516502
vt 0.718750 0.563738
vt 0.687500 0.516502
vt 0.687500 0.556102
vt 0.656250 0.516502
vt 0.656250 0.553693
vt 0.625000 0.516502
vt 0.593750 0.516502
vt 0.593750 0.553207
vt 0.625000 0.549909
vt 0.562500 0.516502
vt 0.531250 0.516502
vt 0.531250 0.580553
vt 0.562500 0.565094
vt 0.500000 0.516502
vt 0.500000 0.601789
vt 0.468750 0.516502
vt 0.468750 0.628160
vt 0.437500 0.516502
vt 0.437500 0.655988
vt 0.406250 0.516502
vt 0.406250 0.685327
vt 0.375000 0.516502
vt 0.375000 0.710446
vt 0.343750 0.516502
vt 0.343750 0.733201
vt 0.312500 0.516502
vt 0.312500 0.754682
vt 0.281250 0.516502
vt 0.281250 0.774062
vt 0.250000 0.516502
vt 0.250000 0.790598
vt 0.218750 0.795829
vt 0.218750 0.516502
vt 0.187500 0.516502
vt 0.187500 0.795492
vt 0.156250 0.516502
vt 0.156250 0.791701
vt 0.062500 0.516502
vt 0.062500 0.761685
vt 0.093750 0.774466
vt 0.031250 0.516502
vt 0.125000 0.784602
vt 0.937500 0.681136
vt 0.937500 0.516502
vt 0.812500 0.604544
vt 0.781250 0.593329
vt 0.781250 0.516502
vt 0.718750 0.563739
vt 0.625000 0.549910
vt 0.531250 0.580554
vt 0.398910 0.692728
vt 0.281250 0.774063
vt 0.961569 0.337635
vt 0.911928 0.411928
vt 0.835752 0.457024
vt 0.622774 0.440407
vt 0.559593 0.377226
vt 0.837635 0.461569
vt 0.961569 0.162365
vt 0.974600 0.205324
vt 0.862459 0.227631
vt 0.862459 0.272369
vt 0.851390 0.291997
vt 0.864662 0.250000
vt 0.857634 0.228590
vt 0.845338 0.313703
vt 0.588101 0.750000
vt 0.587119 0.758318
vt 0.562500 0.764186
vt 0.562500 0.750000
vt 0.750000 0.135338
vt 0.728590 0.142366
vt 0.813703 0.154662
vt 0.791997 0.148611
vt 0.728590 0.357635
vt 0.658752 0.310970
vt 0.642366 0.271410
vt 0.658752 0.189030
vt 0.708003 0.148611
vt 0.841248 0.310970
vt 0.810970 0.158752
vt 0.648611 0.208003
vt 0.648611 0.291997
vt 0.706121 0.355934
vt 0.686297 0.345338
s 1
f 19/1/1 6/2/2 4/3/3 18/4/4
f 37/5/5 38/6/6 36/7/7
f 16/8/8 4/9/3 17/10/9
f 12/11/10 11/12/11 10/13/12
f 15/14/13 13/6/14 12/15/10 10/13/12 8/16/15 6/17/2 19/1/1 20/18/16 21/19/17 22/20/18 23/21/19 1/22/20 2/23/21 3/24/22 24/25/23 18/4/4 4/3/3 16/8/8
f 25/1/24 44/26/25 30/27/26 31/2/27 32/17/28
f 36/28/7 34/29/29 35/30/30
f 40/31/31 38/32/6 39/33/32
f 10/34/12 9/35/33 8/16/15
f 15/36/13 14/32/34 13/6/14
f 27/37/35 48/38/36 47/39/37
f 47/40/37 46/20/38 26/19/39 45/41/40 25/1/24 32/17/28 33/16/41 34/42/29 36/28/7 38/6/6 40/31/31 42/8/42 30/27/26 44/26/25 43/43/43 48/24/36 27/23/35
f 17/44/9 50/45/44 88/46/45
f 50/47/44 17/48/9 4/49/3 65/50/46
f 15/51/13 16/52/8 61/53/47
f 65/54/46 4/55/3 73/56/48
f 76/57/49 73/56/48 4/55/3 5/58/50
f 76/57/49 5/59/50 72/60/51
f 72/60/51 5/59/50 6/61/2
f 6/62/2 86/63/52 72/64/51
f 6/62/2 7/65/53 82/66/54 86/63/52
f 82/66/54 7/65/53 8/67/15
f 82/68/54 8/69/15 85/70/55
f 8/69/15 9/71/33 85/70/55
f 9/72/33 68/73/56 85/74/55
f 9/72/33 10/75/12 68/73/56
f 10/76/12 52/77/57 68/78/56
f 11/79/11 55/80/58 52/77/57 10/76/12
f 55/80/58 11/81/11 60/82/59
f 60/82/59 11/81/11 12/83/10 67/84/60
f 67/84/60 12/85/10 74/86/61
f 74/86/61 12/85/10 13/87/14
f 74/88/61 13/89/14 77/90/62
f 77/90/62 13/91/14 79/92/63
f 79/92/63 13/91/14 14/93/34 80/94/64
f 80/94/64 14/95/34 84/96/65
f 84/97/65 14/98/34 15/99/13 64/100/66
f 64/100/66 15/101/13 61/102/47
f 16/103/8 88/104/45 61/105/47
f 16/103/8 17/106/9 88/104/45
f 57/45/67 28/44/68 42/106/42 54/46/69
f 56/50/70 28/48/68 57/47/67
f 69/105/71 41/51/72 81/107/73
f 56/108/70 29/109/74 28/49/68
f 63/56/75 30/55/26 29/109/74 56/108/70
f 71/57/76 30/55/26 63/56/75
f 75/60/77 31/59/27 30/58/26 71/57/76
f 83/110/78 31/59/27 75/60/77
f 83/111/78 32/112/28 31/61/27
f 87/63/79 32/112/28 83/111/78
f 33/67/41 32/65/28 87/113/79
f 89/114/80 34/71/29 33/69/41
f 35/75/30 34/72/29 89/73/80
f 51/80/81 36/79/7 35/76/30 90/115/82
f 59/82/83 36/79/7 51/80/81
f 49/84/84 37/83/5 36/81/7 59/82/83
f 53/86/85 37/83/5 49/84/84
f 58/88/86 37/85/5 53/116/85
f 62/90/87 38/89/6 37/87/5 58/88/86
f 66/92/88 38/89/6 62/90/87
f 70/117/89 38/91/6 66/92/88
f 78/96/90 39/95/32 38/93/6 70/117/89
f 78/97/90 40/98/31 39/95/32
f 81/100/73 40/98/31 78/97/90
f 81/107/73 41/51/72 40/101/31
f 69/104/71 42/103/42 41/52/72
f 54/46/69 42/103/42 69/104/71
f 6/118/2 5/119/50 4/120/3
f 41/121/72 42/8/42 40/122/31
f 28/9/68 29/123/74 30/27/26 42/10/42
f 6/17/2 8/124/15 7/125/53
f 97/126/91 96/127/92 95/128/93
f 101/129/94 105/130/95 104/131/96
f 118/132/97 119/133/98 116/133/99 113/132/100 110/133/101 112/133/102
f 115/134/103 117/134/104 111/134/105 109/134/106 114/135/107
f 102/136/108 106/137/109 105/138/95
f 110/133/110 109/134/110 111/134/110 112/133/110
f 116/133/111 119/133/111 117/134/111 115/134/111
f 98/139/112 97/130/91 95/128/93 94/140/113 93/141/114 92/142/115 91/143/116 99/144/117
f 103/140/118 104/145/96 105/146/95 106/137/109 107/147/119 108/148/120
f 117/134/121 119/133/122 118/132/123 112/133/124 111/134/125
f 93/141/114 94/149/113 100/150/126
