# Blender 4.2.2 LTS
# www.blender.org
o teal
v 0.155300 3.131557 0.287384
v 0.152310 3.146575 0.287743
v 0.155937 3.161434 0.286751
v 0.217762 3.209546 0.291245
v 0.241011 3.195776 0.291153
v 0.258667 3.159750 0.290054
v 0.261468 3.132461 0.290325
v 0.249703 3.107608 0.289043
v 0.230420 3.088343 0.288582
v 0.205225 3.077916 0.288332
v 0.177691 3.076535 0.288987
v 0.152008 3.087164 0.289241
v 0.133477 3.107608 0.289043
v 0.121698 3.146401 0.289971
v 0.134725 3.184381 0.290643
v 0.152760 3.204460 0.291361
v 0.177955 3.214887 0.291610
v 0.198124 3.179992 0.280859
v 0.220688 3.166578 0.280775
v 0.226585 3.147154 0.280310
v 0.216336 3.122431 0.279719
v 0.191590 3.112191 0.279474
v 0.171395 3.116905 0.280274
v 0.172148 3.176224 0.281006
v -0.230180 3.146680 0.286398
v -0.206358 3.111060 0.285545
v -0.153741 3.154201 0.286578
v -0.205225 3.214887 0.291610
v -0.219621 3.213654 0.296183
v -0.241011 3.195776 0.291153
v -0.259043 3.174074 0.293741
v -0.262836 3.146348 0.290658
v -0.259263 3.118038 0.293895
v -0.230420 3.088343 0.288582
v -0.219621 3.078433 0.292947
v -0.191590 3.075167 0.288954
v -0.152760 3.088343 0.288582
v -0.128405 3.120272 0.289109
v -0.121698 3.146401 0.289971
v -0.128405 3.172568 0.290360
v -0.152760 3.204460 0.291361
v -0.177955 3.214887 0.291610
v -0.198417 3.181445 0.281131
v -0.219439 3.165763 0.280518
v -0.216335 3.122431 0.279719
v -0.184763 3.112863 0.279490
v -0.162492 3.127729 0.279845
v -0.166844 3.171876 0.280902
v -0.163559 3.075252 0.333778
v 0.191590 3.214509 0.356851
v -0.191590 3.070918 0.317779
v 0.205880 3.072808 0.311597
v -0.150895 3.081346 0.342529
v -0.177300 3.212610 0.363131
v 0.191590 3.070918 0.317779
v -0.219621 3.209900 0.344376
v -0.191590 3.214509 0.356851
v -0.139795 3.089875 0.350099
v -0.177300 3.071723 0.325533
v 0.177300 3.071723 0.325533
v 0.139795 3.191677 0.374283
v -0.130685 3.100446 0.357026
v -0.232285 3.203679 0.337261
v 0.123917 3.167687 0.376903
v 0.207349 3.213174 0.350179
v -0.123916 3.112608 0.363616
v 0.163559 3.075252 0.333778
v 0.219621 3.077325 0.307172
v -0.150895 3.201009 0.371534
v -0.119748 3.125894 0.369618
v -0.243385 3.195050 0.330981
v 0.259263 3.172041 0.321007
v 0.232285 3.203679 0.337261
v 0.139795 3.089875 0.350099
v -0.252494 3.184362 0.325569
v 0.243385 3.195050 0.330981
v 0.130686 3.100446 0.357026
v -0.119748 3.153951 0.376673
v 0.123917 3.112608 0.363616
v 0.119748 3.125894 0.369618
v -0.130685 3.180426 0.376096
v 0.259263 3.117135 0.305487
v -0.263431 3.158569 0.317396
v 0.118341 3.139794 0.374799
v 0.243385 3.093535 0.303106
v 0.264839 3.144680 0.312072
v -0.264839 3.144680 0.312072
v 0.163559 3.208063 0.367954
v -0.243385 3.093535 0.303106
v -0.205880 3.072808 0.311597
v 0.155300 3.131557 0.287384
v 0.152310 3.146575 0.287743
v 0.155937 3.161434 0.286751
v 0.198124 3.179992 0.280859
v 0.220688 3.166578 0.280775
v 0.226585 3.147154 0.280310
v 0.216336 3.122431 0.279719
v 0.191590 3.112191 0.279474
v 0.171395 3.116905 0.280274
v 0.172148 3.176224 0.281006
v -0.230180 3.146680 0.286398
v -0.206358 3.111060 0.285545
v -0.198417 3.181445 0.281131
v -0.219439 3.165763 0.280518
v -0.216335 3.122431 0.279719
v -0.184763 3.112863 0.279490
v -0.162492 3.127729 0.279845
v -0.166844 3.171876 0.280902
v 0.032895 3.076673 0.371772
v 0.018271 3.016109 0.337826
v 0.031236 3.076020 0.348254
v 0.017750 3.020115 0.317595
v -0.000000 3.003698 0.331332
v -0.000000 3.075861 0.373404
v -0.032895 3.076673 0.371772
v -0.018271 3.016109 0.337826
v -0.031236 3.076020 0.348254
v -0.000000 3.019471 0.317245
v -0.017750 3.020115 0.317595
vn 0.2978 0.5604 0.7728
vn -0.9816 0.0751 0.1754
vn -0.0111 -0.1885 0.9820
vn -0.7752 0.3008 0.5555
vn -0.5572 0.8241 0.1020
vn -0.8990 0.4263 0.1004
vn -0.4427 0.0639 0.8944
vn -0.0254 -0.2417 0.9700
vn 0.0962 -0.9937 0.0581
vn -0.2269 0.4502 0.8636
vn 0.0938 0.9746 0.2033
vn -0.2386 0.0938 0.9666
vn 0.6176 -0.7712 0.1542
vn 0.0771 0.1132 0.9906
vn -0.9401 0.1835 0.2875
vn 0.2705 0.6564 0.7043
vn 0.4617 0.2408 0.8538
vn 0.8112 -0.1046 0.5753
vn 0.4001 -0.3739 0.8367
vn -0.1040 -0.6081 0.7870
vn -0.4242 -0.4349 0.7943
vn -0.7529 -0.3852 0.5337
vn -0.9345 0.0348 0.3543
vn -0.0987 -0.5300 0.8422
vn -0.4899 0.5090 0.7078
vn 0.0551 -0.2406 0.9691
vn 0.3431 -0.2953 0.8917
vn 0.2449 0.3448 0.9062
vn 0.6446 0.7119 0.2788
vn -0.3816 0.9123 -0.1489
vn -0.9426 -0.3268 0.0678
vn -0.9910 -0.0036 0.1341
vn -0.6433 0.7336 0.2192
vn 0.9913 0.0463 0.1230
vn -0.7885 -0.1499 0.5965
vn -0.4726 0.6350 0.6110
vn -0.0416 -0.8450 0.5331
vn 0.6955 -0.0836 0.7136
vn 0.6296 -0.2339 0.7409
vn -0.0213 -0.6383 0.7695
vn 0.4350 0.6793 0.5910
vn -0.1241 -0.1633 0.9787
vn -0.8294 0.1629 0.5343
vn 0.0251 -0.9967 -0.0775
vn 0.3321 -0.9394 -0.0851
vn -0.2854 -0.9531 -0.1008
vn 0.6675 -0.7280 -0.1565
vn -0.5342 -0.8427 -0.0673
vn -0.6929 -0.7187 -0.0574
vn -0.7841 -0.6102 0.1134
vn -0.8713 -0.4794 -0.1053
vn -0.9999 -0.0147 -0.0038
vn -0.9724 0.1972 0.1248
vn -0.9697 0.2444 0.0043
vn -0.7968 0.6032 0.0360
vn -0.4986 0.8653 0.0516
vn -0.1733 0.9820 0.0754
vn 0.0275 0.9967 0.0766
vn 0.2243 0.9716 0.0747
vn 0.4106 0.9092 0.0694
vn 0.6109 0.7903 0.0478
vn 0.8442 0.5345 0.0407
vn 0.9319 0.3618 0.0267
vn 0.9843 0.1760 0.0142
vn 0.9942 -0.0907 -0.0577
vn 0.9265 -0.3752 -0.0298
vn -0.0255 -0.9967 -0.0774
vn 0.0634 -0.9973 0.0376
vn -0.2212 -0.9723 -0.0752
vn 0.3218 -0.9412 -0.1030
vn -0.4386 -0.8959 -0.0702
vn -0.6484 -0.7556 0.0932
vn -0.7372 -0.6677 -0.1034
vn 0.4851 -0.8743 -0.0159
vn 0.5332 -0.8436 -0.0636
vn 0.6918 -0.7198 -0.0567
vn 0.8219 -0.5679 -0.0457
vn 0.9498 -0.3085 -0.0526
vn 0.9936 0.1116 -0.0162
vn 0.8457 0.3754 -0.3794
vn -0.0274 0.9967 0.0770
vn 0.8177 0.5599 -0.1337
vn -0.2239 0.9718 0.0740
vn -0.4105 0.9092 0.0700
vn -0.6106 0.7901 0.0534
vn -0.7237 0.6882 0.0512
vn -0.8441 0.5346 0.0410
vn -0.9318 0.3619 0.0270
vn -0.9844 0.1755 0.0137
vn -0.9895 -0.1376 -0.0433
vn -0.4498 -0.0131 0.8931
vn -0.5197 -0.4865 0.7023
vn -0.4774 -0.6654 0.5739
vn 0.7705 0.2818 0.5717
vn 0.1563 0.7370 0.6576
vn 0.6574 -0.5560 0.5086
vn -0.0000 0.9830 0.1837
vn 0.0393 0.9824 0.1825
vn 0.0390 0.9819 0.1855
vn -0.0000 0.9837 0.1797
vn -0.0390 0.9819 0.1856
vn -0.0393 0.9825 0.1820
vn -0.0255 -0.9994 0.0253
vn -0.0254 -0.9994 0.0253
vn 0.0254 -0.9994 0.0253
vn 0.0255 -0.9994 0.0253
vn -0.0000 -0.9997 0.0254
vn -0.1137 0.9103 0.3980
vn -0.6476 0.3332 0.6853
vn -0.9776 0.2004 0.0641
vn 0.9776 0.2004 0.0641
vn -0.6305 0.4320 0.6449
vn 0.5443 -0.6509 0.5292
vn 0.8695 0.1380 0.4743
vn 0.5763 0.3153 0.7540
vn 0.3545 0.5264 0.7728
vn -0.1609 0.4678 0.8691
vn 0.6093 -0.5864 0.5338
vn -0.4740 0.7060 0.5262
vn -0.1843 -0.7995 0.5718
vn -0.0338 -0.4946 0.8685
vn -0.0336 -0.4946 0.8685
vn -0.0000 -0.4947 0.8690
vn 0.0336 -0.4946 0.8685
vn 0.0338 -0.4946 0.8685
vn 0.8799 -0.2026 0.4297
vt 0.888859 0.277621
vt 0.957024 0.335752
vt 0.793716 0.469776
vt 0.777621 0.388859
vt 0.588072 0.088072
vt 0.542975 0.164248
vt 0.705324 0.025400
vt 0.664248 0.457025
vt 0.794676 0.474600
vt 0.705325 0.474601
vt 0.662365 0.038431
vt 0.750000 0.020999
vt 0.835752 0.042976
vt 0.563683 0.374493
vt 0.625507 0.063683
vt 0.957024 0.164248
vt 0.969776 0.293716
vt 0.888859 0.222379
vt 0.828657 0.132281
vt 0.722379 0.111141
vt 0.649888 0.149888
vt 0.611141 0.222379
vt 0.608420 0.250000
vt 0.632281 0.328658
vt 0.695820 0.380803
vt 0.828658 0.367719
vt 0.874493 0.436317
vt 0.706284 0.030224
vt 0.877226 0.059593
vt 0.794676 0.025399
vt 0.542976 0.335753
vt 0.525399 0.205324
vt 0.520999 0.250000
vt 0.837635 0.038431
vt 0.911928 0.088072
vt 0.538431 0.337635
vt 0.626746 0.274517
vt 0.626760 0.274514
vt 0.624331 0.250000
vt 0.632281 0.171343
vt 0.867719 0.171343
vt 0.874493 0.063683
vt 0.750000 0.391580
vt 0.000000 0.516502
vt 0.000000 0.723297
vt 0.031250 0.744864
vt 1.000000 0.723297
vt 1.000000 0.516502
vt 0.968750 0.516502
vt 0.968750 0.702676
vt 0.125000 0.516502
vt 0.093750 0.516502
vt 0.125000 0.784601
vt 0.937500 0.681135
vt 0.906250 0.516502
vt 0.906250 0.657383
vt 0.875000 0.636672
vt 0.875000 0.516502
vt 0.843750 0.516502
vt 0.843750 0.619092
vt 0.812500 0.516502
vt 0.750000 0.516502
vt 0.750000 0.576308
vt 0.781250 0.593328
vt 0.718750 0.516502
vt 0.718750 0.563738
vt 0.687500 0.516502
vt 0.687500 0.556102
vt 0.656250 0.516502
vt 0.656250 0.553693
vt 0.625000 0.516502
vt 0.593750 0.516502
vt 0.593750 0.553207
vt 0.625000 0.549909
vt 0.562500 0.516502
vt 0.531250 0.516502
vt 0.531250 0.580553
vt 0.562500 0.565094
vt 0.500000 0.516502
vt 0.500000 0.601789
vt 0.468750 0.516502
vt 0.468750 0.628160
vt 0.437500 0.516502
vt 0.437500 0.655988
vt 0.406250 0.516502
vt 0.406250 0.685327
vt 0.375000 0.516502
vt 0.375000 0.710446
vt 0.343750 0.516502
vt 0.343750 0.733201
vt 0.312500 0.516502
vt 0.312500 0.754682
vt 0.281250 0.516502
vt 0.281250 0.774062
vt 0.250000 0.516502
vt 0.250000 0.790598
vt 0.218750 0.795829
vt 0.218750 0.516502
vt 0.187500 0.516502
vt 0.187500 0.795492
vt 0.156250 0.516502
vt 0.156250 0.791701
vt 0.062500 0.516502
vt 0.062500 0.761685
vt 0.093750 0.774466
vt 0.031250 0.516502
vt 0.125000 0.784602
vt 0.937500 0.681136
vt 0.937500 0.516502
vt 0.812500 0.604544
vt 0.781250 0.593329
vt 0.781250 0.516502
vt 0.718750 0.563739
vt 0.625000 0.549910
vt 0.531250 0.580554
vt 0.398910 0.692728
vt 0.281250 0.774063
vt 0.961569 0.337635
vt 0.911928 0.411928
vt 0.835752 0.457024
vt 0.622774 0.440407
vt 0.559593 0.377226
vt 0.837635 0.461569
vt 0.961569 0.162365
vt 0.974600 0.205324
vt 0.862459 0.227631
vt 0.862459 0.272369
vt 0.851390 0.291997
vt 0.864662 0.250000
vt 0.857634 0.228590
vt 0.845338 0.313703
vt 0.588101 0.750000
vt 0.587119 0.758318
vt 0.562500 0.764186
vt 0.562500 0.750000
vt 0.750000 0.135338
vt 0.728590 0.142366
vt 0.813703 0.154662
vt 0.791997 0.148611
vt 0.728590 0.357635
vt 0.658752 0.310970
vt 0.642366 0.271410
vt 0.658752 0.189030
vt 0.708003 0.148611
vt 0.841248 0.310970
vt 0.810970 0.158752
vt 0.648611 0.208003
vt 0.648611 0.291997
vt 0.706121 0.355934
vt 0.686297 0.345338
s 1
f 19/1/1 6/2/2 4/3/3 18/4/4
f 37/5/5 38/6/6 36/7/7
f 16/8/8 4/9/3 17/10/9
f 12/11/10 11/12/11 10/13/12
f 15/14/13 13/6/14 12/15/10 10/13/12 8/16/15 6/17/2 19/1/1 20/18/16 21/19/17 22/20/18 23/21/19 1/22/20 2/23/21 3/24/22 24/25/23 18/4/4 4/3/3 16/8/8
f 25/1/24 44/26/25 30/27/26 31/2/27 32/17/28
f 36/28/7 34/29/29 35/30/30
f 40/31/31 38/32/6 39/33/32
f 10/34/12 9/35/33 8/16/15
f 15/36/13 14/32/34 13/6/14
f 27/37/35 48/38/36 47/39/37
f 47/40/37 46/20/38 26/19/39 45/41/40 25/1/24 32/17/28 33/16/41 34/42/29 36/28/7 38/6/6 40/31/31 42/8/42 30/27/26 44/26/25 43/43/43 48/24/36 27/23/35
f 17/44/9 50/45/44 88/46/45
f 50/47/44 17/48/9 4/49/3 65/50/46
f 15/51/13 16/52/8 61/53/47
f 65/54/46 4/55/3 73/56/48
f 76/57/49 73/56/48 4/55/3 5/58/50
f 76/57/49 5/59/50 72/60/51
f 72/60/51 5/59/50 6/61/2
f 6/62/2 86/63/52 72/64/51
f 6/62/2 7/65/53 82/66/54 86/63/52
f 82/66/54 7/65/53 8/67/15
f 82/68/54 8/69/15 85/70/55
f 8/69/15 9/71/33 85/70/55
f 9/72/33 68/73/56 85/74/55
f 9/72/33 10/75/12 68/73/56
f 10/76/12 52/77/57 68/78/56
f 11/79/11 55/80/58 52/77/57 10/76/12
f 55/80/58 11/81/11 60/82/59
f 60/82/59 11/81/11 12/83/10 67/84/60
f 67/84/60 12/85/10 74/86/61
f 74/86/61 12/85/10 13/87/14
f 74/88/61 13/89/14 77/90/62
f 77/90/62 13/91/14 79/92/63
f 79/92/63 13/91/14 14/93/34 80/94/64
f 80/94/64 14/95/34 84/96/65
f 84/97/65 14/98/34 15/99/13 64/100/66
f 64/100/66 15/101/13 61/102/47
f 16/103/8 88/104/45 61/105/47
f 16/103/8 17/106/9 88/104/45
f 57/45/67 28/44/68 42/106/42 54/46/69
f 56/50/70 28/48/68 57/47/67
f 69/105/71 41/51/72 81/107/73
f 56/108/70 29/109/74 28/49/68
f 63/56/75 30/55/26 29/109/74 56/108/70
f 71/57/76 30/55/26 63/56/75
f 75/60/77 31/59/27 30/58/26 71/57/76
f 83/110/78 31/59/27 75/60/77
f 83/111/78 32/112/28 31/61/27
f 87/63/79 32/112/28 83/111/78
f 33/67/41 32/65/28 87/113/79
f 89/114/80 34/71/29 33/69/41
f 35/75/30 34/72/29 89/73/80
f 51/80/81 36/79/7 35/76/30 90/115/82
f 59/82/83 36/79/7 51/80/81
f 49/84/84 37/83/5 36/81/7 59/82/83
f 53/86/85 37/83/5 49/84/84
f 58/88/86 37/85/5 53/116/85
f 62/90/87 38/89/6 37/87/5 58/88/86
f 66/92/88 38/89/6 62/90/87
f 70/117/89 38/91/6 66/92/88
f 78/96/90 39/95/32 38/93/6 70/117/89
f 78/97/90 40/98/31 39/95/32
f 81/100/73 40/98/31 78/97/90
f 81/107/73 41/51/72 40/101/31
f 69/104/71 42/103/42 41/52/72
f 54/46/69 42/103/42 69/104/71
f 6/118/2 5/119/50 4/120/3
f 41/121/72 42/8/42 40/122/31
f 28/9/68 29/123/74 30/27/26 42/10/42
f 6/17/2 8/124/15 7/125/53
f 97/126/91 96/127/92 95/128/93
f 101/129/94 105/130/95 104/131/96
f 118/132/97 119/133/98 116/133/99 113/132/100 110/133/101 112/133/102
f 115/134/103 117/134/104 111/134/105 109/134/106 114/135/107
f 102/136/108 106/137/109 105/138/95
f 110/133/110 109/134/110 111/134/110 112/133/110
f 116/133/111 119/133/111 117/134/111 115/134/111
f 98/139/112 97/130/91 95/128/93 94/140/113 93/141/114 92/142/115 91/143/116 99/144/117
f 103/140/118 104/145/96 105/146/95 106/137/109 107/147/119 108/148/120
f 117/134/121 119/133/122 118/132/123 112/133/124 111/134/125
f 93/141/114 94/149/113 100/150/126
