# Blender 4.2.2 LTS
# www.blender.org
o teal
v 0.155300 3.100900 0.323062
v 0.152310 3.115867 0.323835
v 0.155937 3.130797 0.323253
v 0.217762 3.178447 0.329067
v 0.241011 3.164702 0.328596
v 0.258667 3.128819 0.326505
v 0.261468 3.101539 0.326025
v 0.249703 3.076832 0.324059
v 0.230420 3.057632 0.323068
v 0.205225 3.047241 0.322531
v 0.177691 3.045803 0.323147
v 0.152008 3.056396 0.323694
v 0.133477 3.076832 0.324059
v 0.121698 3.115494 0.326055
v 0.134725 3.153366 0.327772
v 0.152760 3.173357 0.329043
v 0.177955 3.183748 0.329579
v 0.198124 3.149860 0.317880
v 0.220688 3.136471 0.317426
v 0.226585 3.117112 0.316427
v 0.216336 3.092473 0.315155
v 0.191590 3.082268 0.314628
v 0.171395 3.086904 0.315557
v 0.172148 3.146084 0.317923
v -0.230180 3.116093 0.322493
v -0.206358 3.080594 0.320661
v -0.153741 3.123589 0.322880
v -0.205225 3.183748 0.329579
v -0.219621 3.182106 0.334112
v -0.241011 3.164702 0.328596
v -0.259043 3.142795 0.330582
v -0.262836 3.115379 0.326739
v -0.259263 3.086814 0.329192
v -0.230420 3.057632 0.323068
v -0.219621 3.047343 0.327154
v -0.191590 3.044440 0.323076
v -0.152760 3.057632 0.323068
v -0.128405 3.089475 0.324474
v -0.121698 3.115494 0.326055
v -0.128405 3.141593 0.327165
v -0.152760 3.173357 0.329043
v -0.177955 3.183748 0.329579
v -0.198417 3.151288 0.318191
v -0.219439 3.135680 0.317147
v -0.216335 3.092473 0.315155
v -0.184763 3.082937 0.314662
v -0.162492 3.097754 0.315427
v -0.166844 3.141751 0.317699
v -0.163559 3.040505 0.367847
v 0.191590 3.177520 0.394729
v -0.191590 3.037611 0.351749
v 0.205880 3.040053 0.345626
v -0.150895 3.045806 0.376755
v -0.177300 3.175061 0.400948
v 0.191590 3.037611 0.351749
v -0.219621 3.174035 0.382142
v -0.191590 3.177520 0.394729
v -0.139795 3.053645 0.384551
v -0.177300 3.037719 0.359515
v 0.177300 3.037719 0.359515
v 0.139795 3.153153 0.411510
v -0.130685 3.063582 0.391760
v -0.232285 3.168460 0.374864
v 0.123917 3.128958 0.413466
v 0.207349 3.176785 0.388028
v -0.123916 3.075138 0.398677
v 0.163559 3.040505 0.367847
v 0.219621 3.044960 0.341331
v -0.150895 3.162720 0.409021
v -0.119748 3.087870 0.405038
v -0.243385 3.160405 0.368354
v 0.259263 3.138319 0.357759
v 0.232285 3.168460 0.374864
v 0.139795 3.053645 0.384551
v -0.252494 3.150215 0.362655
v 0.243385 3.160405 0.368354
v 0.130686 3.063582 0.391760
v -0.119748 3.115259 0.412857
v 0.123917 3.075138 0.398677
v 0.119748 3.087870 0.405038
v -0.130685 3.141753 0.413011
v 0.259263 3.084873 0.340745
v -0.263431 3.125187 0.353781
v 0.118341 3.101288 0.410596
v 0.243385 3.061515 0.337717
v 0.264839 3.111793 0.348081
v -0.264839 3.111793 0.348081
v 0.163559 3.170086 0.405641
v -0.243385 3.061515 0.337717
v -0.205880 3.040053 0.345626
v 0.155300 3.100900 0.323062
v 0.152310 3.115867 0.323835
v 0.155937 3.130797 0.323253
v 0.198124 3.149860 0.317880
v 0.220688 3.136471 0.317426
v 0.226585 3.117112 0.316427
v 0.216336 3.092473 0.315155
v 0.191590 3.082268 0.314628
v 0.171395 3.086904 0.315557
v 0.172148 3.146084 0.317923
v -0.230180 3.116093 0.322493
v -0.206358 3.080594 0.320661
v -0.198417 3.151288 0.318191
v -0.219439 3.135680 0.317147
v -0.216335 3.092473 0.315155
v -0.184763 3.082937 0.314662
v -0.162492 3.097754 0.315427
v -0.166844 3.141751 0.317699
v 0.032895 3.038516 0.405833
v 0.018271 2.981071 0.370261
v 0.031236 3.039973 0.382326
v 0.017750 2.986887 0.350165
v -0.000000 2.969258 0.363432
v -0.000000 3.037559 0.407441
v -0.032895 3.038516 0.405833
v -0.018271 2.981071 0.370261
v -0.031236 3.039973 0.382326
v -0.000000 2.986275 0.349797
v -0.017750 2.986887 0.350165
vn 0.2944 0.5355 0.7915
vn -0.9825 0.0663 0.1738
vn -0.0157 -0.2556 0.9667
vn -0.7753 0.2845 0.5638
vn -0.5606 0.8167 0.1371
vn -0.8989 0.4220 0.1179
vn -0.4415 0.0021 0.8972
vn -0.0135 -0.2987 0.9543
vn 0.0925 -0.9957 0.0107
vn -0.2425 0.4028 0.8826
vn 0.0890 0.9638 0.2512
vn -0.2380 0.0340 0.9707
vn 0.6152 -0.7788 0.1223
vn 0.0611 0.0708 0.9956
vn -0.9375 0.1681 0.3048
vn 0.2702 0.6368 0.7221
vn 0.4619 0.2167 0.8601
vn 0.8112 -0.1207 0.5722
vn 0.4013 -0.3946 0.8266
vn -0.0969 -0.6313 0.7694
vn -0.4239 -0.4568 0.7820
vn -0.7513 -0.4020 0.5235
vn -0.9351 0.0165 0.3541
vn -0.0942 -0.5547 0.8267
vn -0.4914 0.4872 0.7219
vn 0.0757 -0.2874 0.9548
vn 0.3543 -0.3274 0.8759
vn 0.2442 0.3092 0.9191
vn 0.6434 0.6966 0.3174
vn -0.3847 0.9170 -0.1054
vn -0.9409 -0.3352 0.0481
vn -0.9911 -0.0117 0.1324
vn -0.6433 0.7207 0.2585
vn 0.9919 0.0370 0.1213
vn -0.7903 -0.1609 0.5912
vn -0.4728 0.6179 0.6282
vn -0.0429 -0.8591 0.5101
vn 0.6956 -0.1017 0.7112
vn 0.6318 -0.2451 0.7353
vn -0.0277 -0.6595 0.7512
vn 0.4299 0.6639 0.6119
vn -0.1225 -0.2277 0.9660
vn -0.8293 0.1490 0.5387
vn 0.0245 -0.9858 -0.1660
vn 0.3315 -0.9288 -0.1655
vn -0.2849 -0.9402 -0.1867
vn 0.6656 -0.7140 -0.2170
vn -0.5332 -0.8336 -0.1443
vn -0.6937 -0.7097 -0.1230
vn -0.8006 -0.5930 0.0853
vn -0.8707 -0.4700 -0.1447
vn -0.9999 -0.0112 -0.0079
vn -0.9696 0.2057 0.1322
vn -0.9682 0.2483 0.0305
vn -0.7933 0.6019 0.0912
vn -0.4959 0.8590 0.1273
vn -0.1724 0.9720 0.1596
vn 0.0272 0.9863 0.1624
vn 0.2214 0.9621 0.1591
vn 0.4071 0.9013 0.1482
vn 0.6060 0.7875 0.1127
vn 0.8408 0.5342 0.0876
vn 0.9298 0.3635 0.0577
vn 0.9834 0.1788 0.0309
vn 0.9945 -0.0816 -0.0664
vn 0.9275 -0.3683 -0.0635
vn -0.0257 -0.9858 -0.1658
vn 0.0666 -0.9977 -0.0150
vn -0.2209 -0.9619 -0.1610
vn 0.3218 -0.9283 -0.1862
vn -0.4391 -0.8870 -0.1427
vn -0.6637 -0.7458 0.0575
vn -0.7376 -0.6576 -0.1532
vn 0.4875 -0.8705 -0.0673
vn 0.5308 -0.8364 -0.1365
vn 0.6913 -0.7123 -0.1216
vn 0.8221 -0.5608 -0.0978
vn 0.9500 -0.3033 -0.0742
vn 0.9930 0.1171 -0.0127
vn 0.8505 0.4004 -0.3409
vn -0.0270 0.9862 0.1635
vn 0.8190 0.5683 -0.0787
vn -0.2202 0.9627 0.1571
vn -0.4066 0.9014 0.1488
vn -0.6062 0.7858 0.1230
vn -0.7191 0.6862 0.1097
vn -0.8408 0.5342 0.0879
vn -0.9297 0.3636 0.0583
vn -0.9836 0.1778 0.0298
vn -0.9905 -0.1260 -0.0550
vn -0.4495 -0.0374 0.8925
vn -0.5200 -0.5054 0.6886
vn -0.4769 -0.6814 0.5553
vn 0.7685 0.2693 0.5804
vn 0.1542 0.7179 0.6789
vn 0.6588 -0.5682 0.4931
vn -0.0000 0.9673 0.2535
vn 0.0396 0.9671 0.2511
vn 0.0390 0.9654 0.2578
vn -0.0000 0.9696 0.2448
vn -0.0390 0.9654 0.2579
vn -0.0396 0.9673 0.2506
vn -0.0255 -0.9976 -0.0642
vn -0.0254 -0.9976 -0.0642
vn 0.0254 -0.9976 -0.0642
vn 0.0255 -0.9976 -0.0642
vn -0.0000 -0.9979 -0.0641
vn -0.1126 0.8921 0.4375
vn -0.6516 0.3050 0.6946
vn -0.9767 0.1982 0.0819
vn 0.9767 0.1982 0.0819
vn -0.6312 0.4125 0.6568
vn 0.5447 -0.6651 0.5109
vn 0.8682 0.1317 0.4784
vn 0.5763 0.2946 0.7623
vn 0.3525 0.5065 0.7869
vn -0.1670 0.4395 0.8826
vn 0.6094 -0.6008 0.5174
vn -0.4740 0.6912 0.5455
vn -0.1841 -0.8150 0.5494
vn -0.0337 -0.5316 0.8463
vn -0.0336 -0.5316 0.8463
vn -0.0000 -0.5317 0.8469
vn 0.0336 -0.5316 0.8463
vn 0.0337 -0.5316 0.8463
vn 0.8813 -0.2167 0.4200
vt 0.888859 0.277621
vt 0.957024 0.335752
vt 0.793716 0.469776
vt 0.777621 0.388859
vt 0.588072 0.088072
vt 0.542975 0.164248
vt 0.705324 0.025400
vt 0.664248 0.457025
vt 0.794676 0.474600
vt 0.705325 0.474601
vt 0.662365 0.038431
vt 0.750000 0.020999
vt 0.835752 0.042976
vt 0.563683 0.374493
vt 0.625507 0.063683
vt 0.957024 0.164248
vt 0.969776 0.293716
vt 0.888859 0.222379
vt 0.828657 0.132281
vt 0.722379 0.111141
vt 0.649888 0.149888
vt 0.611141 0.222379
vt 0.608420 0.250000
vt 0.632281 0.328658
vt 0.695820 0.380803
vt 0.828658 0.367719
vt 0.874493 0.436317
vt 0.706284 0.030224
vt 0.877226 0.059593
vt 0.794676 0.025399
vt 0.542976 0.335753
vt 0.525399 0.205324
vt 0.520999 0.250000
vt 0.837635 0.038431
vt 0.911928 0.088072
vt 0.538431 0.337635
vt 0.626746 0.274517
vt 0.626760 0.274514
vt 0.624331 0.250000
vt 0.632281 0.171343
vt 0.867719 0.171343
vt 0.874493 0.063683
vt 0.750000 0.391580
vt 0.000000 0.516502
vt 0.000000 0.723297
vt 0.031250 0.744864
vt 1.000000 0.723297
vt 1.000000 0.516502
vt 0.968750 0.516502
vt 0.968750 0.702676
vt 0.125000 0.516502
vt 0.093750 0.516502
vt 0.125000 0.784601
vt 0.937500 0.681135
vt 0.906250 0.516502
vt 0.906250 0.657383
vt 0.875000 0.636672
vt 0.875000 0.516502
vt 0.843750 0.516502
vt 0.843750 0.619092
vt 0.812500 0.516502
vt 0.750000 0.516502
vt 0.750000 0.576308
vt 0.781250 0.593328
vt 0.718750 0.516502
vt 0.718750 0.563738
vt 0.687500 0.516502
vt 0.687500 0.556102
vt 0.656250 0.516502
vt 0.656250 0.553693
vt 0.625000 0.516502
vt 0.593750 0.516502
vt 0.593750 0.553207
vt 0.625000 0.549909
vt 0.562500 0.516502
vt 0.531250 0.516502
vt 0.531250 0.580553
vt 0.562500 0.565094
vt 0.500000 0.516502
vt 0.500000 0.601789
vt 0.468750 0.516502
vt 0.468750 0.628160
vt 0.437500 0.516502
vt 0.437500 0.655988
vt 0.406250 0.516502
vt 0.406250 0.685327
vt 0.375000 0.516502
vt 0.375000 0.710446
vt 0.343750 0.516502
vt 0.343750 0.733201
vt 0.312500 0.516502
vt 0.312500 0.754682
vt 0.281250 0.516502
vt 0.281250 0.774062
vt 0.250000 0.516502
vt 0.250000 0.790598
vt 0.218750 0.795829
vt 0.218750 0.516502
vt 0.187500 0.516502
vt 0.187500 0.795492
vt 0.156250 0.516502
vt 0.156250 0.791701
vt 0.062500 0.516502
vt 0.062500 0.761685
vt 0.093750 0.774466
vt 0.031250 0.516502
vt 0.125000 0.784602
vt 0.937500 0.681136
vt 0.937500 0.516502
vt 0.812500 0.604544
vt 0.781250 0.593329
vt 0.781250 0.516502
vt 0.718750 0.563739
vt 0.625000 0.549910
vt 0.531250 0.580554
vt 0.398910 0.692728
vt 0.281250 0.774063
vt 0.961569 0.337635
vt 0.911928 0.411928
vt 0.835752 0.457024
vt 0.622774 0.440407
vt 0.559593 0.377226
vt 0.837635 0.461569
vt 0.961569 0.162365
vt 0.974600 0.205324
vt 0.862459 0.227631
vt 0.862459 0.272369
vt 0.851390 0.291997
vt 0.864662 0.250000
vt 0.857634 0.228590
vt 0.845338 0.313703
vt 0.588101 0.750000
vt 0.587119 0.758318
vt 0.562500 0.764186
vt 0.562500 0.750000
vt 0.750000 0.135338
vt 0.728590 0.142366
vt 0.813703 0.154662
vt 0.791997 0.148611
vt 0.728590 0.357635
vt 0.658752 0.310970
vt 0.642366 0.271410
vt 0.658752 0.189030
vt 0.708003 0.148611
vt 0.841248 0.310970
vt 0.810970 0.158752
vt 0.648611 0.208003
vt 0.648611 0.291997
vt 0.706121 0.355934
vt 0.686297 0.345338
s 1
f 19/1/1 6/2/2 4/3/3 18/4/4
f 37/5/5 38/6/6 36/7/7
f 16/8/8 4/9/3 17/10/9
f 12/11/10 11/12/11 10/13/12
f 15/14/13 13/6/14 12/15/10 10/13/12 8/16/15 6/17/2 19/1/1 20/18/16 21/19/17 22/20/18 23/21/19 1/22/20 2/23/21 3/24/22 24/25/23 18/4/4 4/3/3 16/8/8
f 25/1/24 44/26/25 30/27/26 31/2/27 32/17/28
f 36/28/7 34/29/29 35/30/30
f 40/31/31 38/32/6 39/33/32
f 10/34/12 9/35/33 8/16/15
f 15/36/13 14/32/34 13/6/14
f 27/37/35 48/38/36 47/39/37
f 47/40/37 46/20/38 26/19/39 45/41/40 25/1/24 32/17/28 33/16/41 34/42/29 36/28/7 38/6/6 40/31/31 42/8/42 30/27/26 44/26/25 43/43/43 48/24/36 27/23/35
f 17/44/9 50/45/44 88/46/45
f 50/47/44 17/48/9 4/49/3 65/50/46
f 15/51/13 16/52/8 61/53/47
f 65/54/46 4/55/3 73/56/48
f 76/57/49 73/56/48 4/55/3 5/58/50
f 76/57/49 5/59/50 72/60/51
f 72/60/51 5/59/50 6/61/2
f 6/62/2 86/63/52 72/64/51
f 6/62/2 7/65/53 82/66/54 86/63/52
f 82/66/54 7/65/53 8/67/15
f 82/68/54 8/69/15 85/70/55
f 8/69/15 9/71/33 85/70/55
f 9/72/33 68/73/56 85/74/55
f 9/72/33 10/75/12 68/73/56
f 10/76/12 52/77/57 68/78/56
f 11/79/11 55/80/58 52/77/57 10/76/12
f 55/80/58 11/81/11 60/82/59
f 60/82/59 11/81/11 12/83/10 67/84/60
f 67/84/60 12/85/10 74/86/61
f 74/86/61 12/85/10 13/87/14
f 74/88/61 13/89/14 77/90/62
f 77/90/62 13/91/14 79/92/63
f 79/92/63 13/91/14 14/93/34 80/94/64
f 80/94/64 14/95/34 84/96/65
f 84/97/65 14/98/34 15/99/13 64/100/66
f 64/100/66 15/101/13 61/102/47
f 16/103/8 88/104/45 61/105/47
f 16/103/8 17/106/9 88/104/45
f 57/45/67 28/44/68 42/106/42 54/46/69
f 56/50/70 28/48/68 57/47/67
f 69/105/71 41/51/72 81/107/73
f 56/108/70 29/109/74 28/49/68
f 63/56/75 30/55/26 29/109/74 56/108/70
f 71/57/76 30/55/26 63/56/75
f 75/60/77 31/59/27 30/58/26 71/57/76
f 83/110/78 31/59/27 75/60/77
f 83/111/78 32/112/28 31/61/27
f 87/63/79 32/112/28 83/111/78
f 33/67/41 32/65/28 87/113/79
f 89/114/80 34/71/29 33/69/41
f 35/75/30 34/72/29 89/73/80
f 51/80/81 36/79/7 35/76/30 90/115/82
f 59/82/83 36/79/7 51/80/81
f 49/84/84 37/83/5 36/81/7 59/82/83
f 53/86/85 37/83/5 49/84/84
f 58/88/86 37/85/5 53/116/85
f 62/90/87 38/89/6 37/87/5 58/88/86
f 66/92/88 38/89/6 62/90/87
f 70/117/89 38/91/6 66/92/88
f 78/96/90 39/95/32 38/93/6 70/117/89
f 78/97/90 40/98/31 39/95/32
f 81/100/73 40/98/31 78/97/90
f 81/107/73 41/51/72 40/101/31
f 69/104/71 42/103/42 41/52/72
f 54/46/69 42/103/42 69/104/71
f 6/118/2 5/119/50 4/120/3
f 41/121/72 42/8/42 40/122/31
f 28/9/68 29/123/74 30/27/26 42/10/42
f 6/17/2 8/124/15 7/125/53
f 97/126/91 96/127/92 95/128/93
f 101/129/94 105/130/95 104/131/96
f 118/132/97 119/133/98 116/133/99 113/132/100 110/133/101 112/133/102
f 115/134/103 117/134/104 111/134/105 109/134/106 114/135/107
f 102/136/108 106/137/109 105/138/95
f 110/133/110 109/134/110 111/134/110 112/133/110
f 116/133/111 119/133/111 117/134/111 115/134/111
f 98/139/112 97/130/91 95/128/93 94/140/113 93/141/114 92/142/115 91/143/116 99/144/117
f 103/140/118 104/145/96 105/146/95 106/137/109 107/147/119 108/148/120
f 117/134/121 119/133/122 118/132/123 112/133/124 111/134/125
f 93/141/114 94/149/113 100/150/126
