# Blender 4.2.2 LTS
# www.blender.org
o teal
v 0.155300 3.123779 0.296880
v 0.152310 3.138787 0.297349
v 0.155937 3.153668 0.296464
v 0.217762 3.201670 0.301308
v 0.241011 3.187904 0.301116
v 0.258667 3.151906 0.299755
v 0.261468 3.124613 0.299828
v 0.249703 3.099792 0.298365
v 0.230420 3.080540 0.297764
v 0.205225 3.070120 0.297438
v 0.177691 3.068724 0.298083
v 0.152008 3.079346 0.298414
v 0.133477 3.099792 0.298365
v 0.121698 3.138561 0.299575
v 0.134725 3.176520 0.300523
v 0.152760 3.196582 0.301387
v 0.177955 3.207001 0.301712
v 0.198124 3.172364 0.290708
v 0.220688 3.158953 0.290527
v 0.226585 3.139542 0.289921
v 0.216336 3.114835 0.289149
v 0.191590 3.104602 0.288830
v 0.171395 3.109296 0.289664
v 0.172148 3.168593 0.290828
v -0.230180 3.138924 0.296004
v -0.206358 3.103327 0.294892
v -0.153741 3.146440 0.296239
v -0.205225 3.207001 0.301712
v -0.219621 3.205660 0.306276
v -0.241011 3.187904 0.301116
v -0.259043 3.166142 0.303545
v -0.262836 3.138491 0.300261
v -0.259263 3.110107 0.303292
v -0.230420 3.080540 0.297764
v -0.219621 3.070527 0.302056
v -0.191590 3.067357 0.298040
v -0.152760 3.080540 0.297764
v -0.128405 3.112454 0.298523
v -0.121698 3.138561 0.299575
v -0.128405 3.164715 0.300155
v -0.152760 3.196582 0.301387
v -0.177955 3.207001 0.301712
v -0.198417 3.173811 0.290991
v -0.219439 3.158145 0.290264
v -0.216335 3.114835 0.289149
v -0.184763 3.105273 0.288851
v -0.162492 3.120130 0.289314
v -0.166844 3.164248 0.290692
v -0.163559 3.066381 0.342861
v 0.191590 3.205079 0.366945
v -0.191590 3.062426 0.326832
v 0.205880 3.064462 0.320664
v -0.150895 3.072266 0.351655
v -0.177300 3.203032 0.373210
v 0.191590 3.062426 0.326832
v -0.219621 3.200766 0.354437
v -0.191590 3.205079 0.366945
v -0.139795 3.080615 0.359286
v -0.177300 3.063046 0.334590
v 0.177300 3.063046 0.334590
v 0.139795 3.181837 0.384209
v -0.130685 3.091021 0.366290
v -0.232285 3.194713 0.347277
v 0.123917 3.157787 0.386654
v 0.207349 3.203902 0.360263
v -0.123916 3.103027 0.372968
v 0.163559 3.066381 0.342861
v 0.219621 3.069083 0.316272
v -0.150895 3.191233 0.381528
v -0.119748 3.116170 0.379066
v -0.243385 3.186234 0.340935
v 0.259263 3.163464 0.330795
v 0.232285 3.194713 0.347277
v 0.139795 3.080615 0.359286
v -0.252494 3.175675 0.335446
v 0.243385 3.186234 0.340935
v 0.130686 3.091021 0.366290
v -0.119748 3.144058 0.386324
v 0.123917 3.103027 0.372968
v 0.119748 3.116170 0.379066
v -0.130685 3.170543 0.385940
v 0.259263 3.108929 0.314877
v -0.263431 3.150078 0.327086
v 0.118341 3.129945 0.384348
v 0.243385 3.085388 0.312325
v 0.264839 3.136316 0.321661
v -0.264839 3.136316 0.321661
v 0.163559 3.198371 0.378000
v -0.243385 3.085388 0.312325
v -0.205880 3.064462 0.320664
v 0.155300 3.123779 0.296880
v 0.152310 3.138787 0.297349
v 0.155937 3.153668 0.296464
v 0.198124 3.172364 0.290708
v 0.220688 3.158953 0.290527
v 0.226585 3.139542 0.289921
v 0.216336 3.114835 0.289149
v 0.191590 3.104602 0.288830
v 0.171395 3.109296 0.289664
v 0.172148 3.168593 0.290828
v -0.230180 3.138924 0.296004
v -0.206358 3.103327 0.294892
v -0.198417 3.173811 0.290991
v -0.219439 3.158145 0.290264
v -0.216335 3.114835 0.289149
v -0.184763 3.105273 0.288851
v -0.162492 3.120130 0.289314
v -0.166844 3.164248 0.290692
v 0.032895 3.066901 0.380862
v 0.018271 3.007147 0.346479
v 0.031236 3.066805 0.357341
v 0.017750 3.011631 0.326278
v -0.000000 2.994890 0.339894
v -0.000000 3.066051 0.382488
v -0.032895 3.066901 0.380862
v -0.018271 3.007147 0.346479
v -0.031236 3.066805 0.357341
v -0.000000 3.010996 0.325923
v -0.017750 3.011631 0.326278
vn 0.2969 0.5540 0.7778
vn -0.9819 0.0728 0.1751
vn -0.0124 -0.2063 0.9784
vn -0.7752 0.2965 0.5578
vn -0.5582 0.8222 0.1113
vn -0.8990 0.4251 0.1051
vn -0.4424 0.0475 0.8956
vn -0.0222 -0.2568 0.9662
vn 0.0952 -0.9944 0.0456
vn -0.2310 0.4377 0.8689
vn 0.0925 0.9720 0.2161
vn -0.2385 0.0779 0.9680
vn 0.6170 -0.7733 0.1458
vn 0.0729 0.1020 0.9921
vn -0.9394 0.1794 0.2921
vn 0.2704 0.6513 0.7090
vn 0.4617 0.2345 0.8555
vn 0.8112 -0.1089 0.5746
vn 0.4004 -0.3794 0.8341
vn -0.1022 -0.6143 0.7825
vn -0.4241 -0.4407 0.7912
vn -0.7524 -0.3897 0.5311
vn -0.9346 0.0298 0.3543
vn -0.0975 -0.5365 0.8382
vn -0.4904 0.5032 0.7115
vn 0.0605 -0.2531 0.9656
vn 0.3460 -0.3038 0.8877
vn 0.2447 0.3355 0.9097
vn 0.6443 0.7080 0.2891
vn -0.3822 0.9138 -0.1373
vn -0.9422 -0.3291 0.0627
vn -0.9910 -0.0058 0.1338
vn -0.6434 0.7303 0.2297
vn 0.9915 0.0438 0.1227
vn -0.7890 -0.1528 0.5951
vn -0.4726 0.6306 0.6156
vn -0.0419 -0.8488 0.5271
vn 0.6956 -0.0883 0.7130
vn 0.6302 -0.2368 0.7395
vn -0.0231 -0.6440 0.7647
vn 0.4337 0.6753 0.5965
vn -0.1237 -0.1804 0.9758
vn -0.8294 0.1592 0.5355
vn 0.0249 -0.9946 -0.1010
vn 0.3321 -0.9372 -0.1065
vn -0.2854 -0.9504 -0.1236
vn 0.6672 -0.7246 -0.1726
vn -0.5341 -0.8408 -0.0877
vn -0.6933 -0.7167 -0.0748
vn -0.7886 -0.6058 0.1057
vn -0.8712 -0.4771 -0.1157
vn -0.9999 -0.0138 -0.0049
vn -0.9716 0.1996 0.1267
vn -0.9693 0.2455 0.0113
vn -0.7960 0.6032 0.0507
vn -0.4980 0.8642 0.0719
vn -0.1731 0.9800 0.0979
vn 0.0274 0.9947 0.0995
vn 0.2237 0.9698 0.0972
vn 0.4099 0.9077 0.0904
vn 0.6098 0.7899 0.0649
vn 0.8434 0.5347 0.0531
vn 0.9314 0.3624 0.0349
vn 0.9841 0.1768 0.0186
vn 0.9943 -0.0883 -0.0601
vn 0.9268 -0.3735 -0.0388
vn -0.0255 -0.9946 -0.1009
vn 0.0642 -0.9977 0.0237
vn -0.2213 -0.9703 -0.0980
vn 0.3219 -0.9385 -0.1251
vn -0.4390 -0.8940 -0.0895
vn -0.6527 -0.7530 0.0837
vn -0.7374 -0.6653 -0.1167
vn 0.4858 -0.8736 -0.0294
vn 0.5327 -0.8422 -0.0829
vn 0.6919 -0.7182 -0.0739
vn 0.8221 -0.5663 -0.0596
vn 0.9499 -0.3072 -0.0583
vn 0.9935 0.1131 -0.0154
vn 0.8471 0.3822 -0.3693
vn -0.0273 0.9946 0.1001
vn 0.8181 0.5626 -0.1192
vn -0.2230 0.9701 0.0962
vn -0.4096 0.9077 0.0910
vn -0.6096 0.7894 0.0719
vn -0.7227 0.6880 0.0667
vn -0.8434 0.5347 0.0534
vn -0.9313 0.3624 0.0352
vn -0.9842 0.1761 0.0179
vn -0.9898 -0.1346 -0.0465
vn -0.4497 -0.0195 0.8930
vn -0.5198 -0.4915 0.6987
vn -0.4773 -0.6696 0.5690
vn 0.7699 0.2786 0.5741
vn 0.1558 0.7320 0.6632
vn 0.6578 -0.5592 0.5045
vn -0.0000 0.9793 0.2026
vn 0.0394 0.9788 0.2011
vn 0.0391 0.9780 0.2051
vn -0.0000 0.9803 0.1974
vn -0.0390 0.9780 0.2051
vn -0.0394 0.9789 0.2006
vn -0.0255 -0.9997 0.0016
vn -0.0254 -0.9997 0.0016
vn 0.0254 -0.9997 0.0016
vn 0.0255 -0.9997 0.0016
vn -0.0000 -1.0000 0.0017
vn -0.1134 0.9056 0.4087
vn -0.6487 0.3258 0.6878
vn -0.9774 0.1999 0.0688
vn 0.9774 0.1999 0.0688
vn -0.6307 0.4269 0.6481
vn 0.5444 -0.6547 0.5244
vn 0.8691 0.1365 0.4754
vn 0.5763 0.3099 0.7562
vn 0.3540 0.5212 0.7765
vn -0.1625 0.4604 0.8727
vn 0.6093 -0.5902 0.5295
vn -0.4740 0.7021 0.5314
vn -0.1843 -0.8036 0.5659
vn -0.0337 -0.5043 0.8629
vn -0.0336 -0.5043 0.8629
vn -0.0000 -0.5044 0.8635
vn 0.0336 -0.5043 0.8629
vn 0.0337 -0.5043 0.8629
vn 0.8803 -0.2064 0.4271
vt 0.888859 0.277621
vt 0.957024 0.335752
vt 0.793716 0.469776
vt 0.777621 0.388859
vt 0.588072 0.088072
vt 0.542975 0.164248
vt 0.705324 0.025400
vt 0.664248 0.457025
vt 0.794676 0.474600
vt 0.705325 0.474601
vt 0.662365 0.038431
vt 0.750000 0.020999
vt 0.835752 0.042976
vt 0.563683 0.374493
vt 0.625507 0.063683
vt 0.957024 0.164248
vt 0.969776 0.293716
vt 0.888859 0.222379
vt 0.828657 0.132281
vt 0.722379 0.111141
vt 0.649888 0.149888
vt 0.611141 0.222379
vt 0.608420 0.250000
vt 0.632281 0.328658
vt 0.695820 0.380803
vt 0.828658 0.367719
vt 0.874493 0.436317
vt 0.706284 0.030224
vt 0.877226 0.059593
vt 0.794676 0.025399
vt 0.542976 0.335753
vt 0.525399 0.205324
vt 0.520999 0.250000
vt 0.837635 0.038431
vt 0.911928 0.088072
vt 0.538431 0.337635
vt 0.626746 0.274517
vt 0.626760 0.274514
vt 0.624331 0.250000
vt 0.632281 0.171343
vt 0.867719 0.171343
vt 0.874493 0.063683
vt 0.750000 0.391580
vt 0.000000 0.516502
vt 0.000000 0.723297
vt 0.031250 0.744864
vt 1.000000 0.723297
vt 1.000000 0.516502
vt 0.968750 0.516502
vt 0.968750 0.702676
vt 0.125000 0.516502
vt 0.093750 0.516502
vt 0.125000 0.784601
vt 0.937500 0.681135
vt 0.906250 0.516502
vt 0.906250 0.657383
vt 0.875000 0.636672
vt 0.875000 0.516502
vt 0.843750 0.516502
vt 0.843750 0.619092
vt 0.812500 0.516502
vt 0.750000 0.516502
vt 0.750000 0.576308
vt 0.781250 0.593328
vt 0.718750 0.516502
vt 0.718750 0.563738
vt 0.687500 0.516502
vt 0.687500 0.556102
vt 0.656250 0.516502
vt 0.656250 0.553693
vt 0.625000 0.516502
vt 0.593750 0.516502
vt 0.593750 0.553207
vt 0.625000 0.549909
vt 0.562500 0.516502
vt 0.531250 0.516502
vt 0.531250 0.580553
vt 0.562500 0.565094
vt 0.500000 0.516502
vt 0.500000 0.601789
vt 0.468750 0.516502
vt 0.468750 0.628160
vt 0.437500 0.516502
vt 0.437500 0.655988
vt 0.406250 0.516502
vt 0.406250 0.685327
vt 0.375000 0.516502
vt 0.375000 0.710446
vt 0.343750 0.516502
vt 0.343750 0.733201
vt 0.312500 0.516502
vt 0.312500 0.754682
vt 0.281250 0.516502
vt 0.281250 0.774062
vt 0.250000 0.516502
vt 0.250000 0.790598
vt 0.218750 0.795829
vt 0.218750 0.516502
vt 0.187500 0.516502
vt 0.187500 0.795492
vt 0.156250 0.516502
vt 0.156250 0.791701
vt 0.062500 0.516502
vt 0.062500 0.761685
vt 0.093750 0.774466
vt 0.031250 0.516502
vt 0.125000 0.784602
vt 0.937500 0.681136
vt 0.937500 0.516502
vt 0.812500 0.604544
vt 0.781250 0.593329
vt 0.781250 0.516502
vt 0.718750 0.563739
vt 0.625000 0.549910
vt 0.531250 0.580554
vt 0.398910 0.692728
vt 0.281250 0.774063
vt 0.961569 0.337635
vt 0.911928 0.411928
vt 0.835752 0.457024
vt 0.622774 0.440407
vt 0.559593 0.377226
vt 0.837635 0.461569
vt 0.961569 0.162365
vt 0.974600 0.205324
vt 0.862459 0.227631
vt 0.862459 0.272369
vt 0.851390 0.291997
vt 0.864662 0.250000
vt 0.857634 0.228590
vt 0.845338 0.313703
vt 0.588101 0.750000
vt 0.587119 0.758318
vt 0.562500 0.764186
vt 0.562500 0.750000
vt 0.750000 0.135338
vt 0.728590 0.142366
vt 0.813703 0.154662
vt 0.791997 0.148611
vt 0.728590 0.357635
vt 0.658752 0.310970
vt 0.642366 0.271410
vt 0.658752 0.189030
vt 0.708003 0.148611
vt 0.841248 0.310970
vt 0.810970 0.158752
vt 0.648611 0.208003
vt 0.648611 0.291997
vt 0.706121 0.355934
vt 0.686297 0.345338
s 1
f 19/1/1 6/2/2 4/3/3 18/4/4
f 37/5/5 38/6/6 36/7/7
f 16/8/8 4/9/3 17/10/9
f 12/11/10 11/12/11 10/13/12
f 15/14/13 13/6/14 12/15/10 10/13/12 8/16/15 6/17/2 19/1/1 20/18/16 21/19/17 22/20/18 23/21/19 1/22/20 2/23/21 3/24/22 24/25/23 18/4/4 4/3/3 16/8/8
f 25/1/24 44/26/25 30/27/26 31/2/27 32/17/28
f 36/28/7 34/29/29 35/30/30
f 40/31/31 38/32/6 39/33/32
f 10/34/12 9/35/33 8/16/15
f 15/36/13 14/32/34 13/6/14
f 27/37/35 48/38/36 47/39/37
f 47/40/37 46/20/38 26/19/39 45/41/40 25/1/24 32/17/28 33/16/41 34/42/29 36/28/7 38/6/6 40/31/31 42/8/42 30/27/26 44/26/25 43/43/43 48/24/36 27/23/35
f 17/44/9 50/45/44 88/46/45
f 50/47/44 17/48/9 4/49/3 65/50/46
f 15/51/13 16/52/8 61/53/47
f 65/54/46 4/55/3 73/56/48
f 76/57/49 73/56/48 4/55/3 5/58/50
f 76/57/49 5/59/50 72/60/51
f 72/60/51 5/59/50 6/61/2
f 6/62/2 86/63/52 72/64/51
f 6/62/2 7/65/53 82/66/54 86/63/52
f 82/66/54 7/65/53 8/67/15
f 82/68/54 8/69/15 85/70/55
f 8/69/15 9/71/33 85/70/55
f 9/72/33 68/73/56 85/74/55
f 9/72/33 10/75/12 68/73/56
f 10/76/12 52/77/57 68/78/56
f 11/79/11 55/80/58 52/77/57 10/76/12
f 55/80/58 11/81/11 60/82/59
f 60/82/59 11/81/11 12/83/10 67/84/60
f 67/84/60 12/85/10 74/86/61
f 74/86/61 12/85/10 13/87/14
f 74/88/61 13/89/14 77/90/62
f 77/90/62 13/91/14 79/92/63
f 79/92/63 13/91/14 14/93/34 80/94/64
f 80/94/64 14/95/34 84/96/65
f 84/97/65 14/98/34 15/99/13 64/100/66
f 64/100/66 15/101/13 61/102/47
f 16/103/8 88/104/45 61/105/47
f 16/103/8 17/106/9 88/104/45
f 57/45/67 28/44/68 42/106/42 54/46/69
f 56/50/70 28/48/68 57/47/67
f 69/105/71 41/51/72 81/107/73
f 56/108/70 29/109/74 28/49/68
f 63/56/75 30/55/26 29/109/74 56/108/70
f 71/57/76 30/55/26 63/56/75
f 75/60/77 31/59/27 30/58/26 71/57/76
f 83/110/78 31/59/27 75/60/77
f 83/111/78 32/112/28 31/61/27
f 87/63/79 32/112/28 83/111/78
f 33/67/41 32/65/28 87/113/79
f 89/114/80 34/71/29 33/69/41
f 35/75/30 34/72/29 89/73/80
f 51/80/81 36/79/7 35/76/30 90/115/82
f 59/82/83 36/79/7 51/80/81
f 49/84/84 37/83/5 36/81/7 59/82/83
f 53/86/85 37/83/5 49/84/84
f 58/88/86 37/85/5 53/116/85
f 62/90/87 38/89/6 37/87/5 58/88/86
f 66/92/88 38/89/6 62/90/87
f 70/117/89 38/91/6 66/92/88
f 78/96/90 39/95/32 38/93/6 70/117/89
f 78/97/90 40/98/31 39/95/32
f 81/100/73 40/98/31 78/97/90
f 81/107/73 41/51/72 40/101/31
f 69/104/71 42/103/42 41/52/72
f 54/46/69 42/103/42 69/104/71
f 6/118/2 5/119/50 4/120/3
f 41/121/72 42/8/42 40/122/31
f 28/9/68 29/123/74 30/27/26 42/10/42
f 6/17/2 8/124/15 7/125/53
f 97/126/91 96/127/92 95/128/93
f 101/129/94 105/130/95 104/131/96
f 118/132/97 119/133/98 116/133/99 113/132/100 110/133/101 112/133/102
f 115/134/103 117/134/104 111/134/105 109/134/106 114/135/107
f 102/136/108 106/137/109 105/138/95
f 110/133/110 109/134/110 111/134/110 112/133/110
f 116/133/111 119/133/111 117/134/111 115/134/111
f 98/139/112 97/130/91 95/128/93 94/140/113 93/141/114 92/142/115 91/143/116 99/144/117
f 103/140/118 104/145/96 105/146/95 106/137/109 107/147/119 108/148/120
f 117/134/121 119/133/122 118/132/123 112/133/124 111/134/125
f 93/141/114 94/149/113 100/150/126
