# Blender 4.2.2 LTS
# www.blender.org
o teal
v 0.155300 3.105449 0.318047
v 0.152310 3.120425 0.318761
v 0.155937 3.135348 0.318120
v 0.217762 3.183070 0.323748
v 0.241011 3.169320 0.323331
v 0.258667 3.133410 0.321380
v 0.261468 3.106126 0.321007
v 0.249703 3.081394 0.319138
v 0.230420 3.062182 0.318222
v 0.205225 3.051784 0.317726
v 0.177691 3.050354 0.318347
v 0.152008 3.060954 0.318853
v 0.133477 3.081394 0.319138
v 0.121698 3.120080 0.320983
v 0.134725 3.157973 0.322552
v 0.152760 3.177980 0.323744
v 0.177955 3.188377 0.324239
v 0.198124 3.154341 0.312673
v 0.220688 3.140947 0.312272
v 0.226585 3.121576 0.311348
v 0.216336 3.096921 0.310172
v 0.191590 3.086709 0.309686
v 0.171395 3.091357 0.310597
v 0.172148 3.150566 0.312731
v -0.230180 3.120634 0.317419
v -0.206358 3.085112 0.315725
v -0.153741 3.128134 0.317776
v -0.205225 3.188377 0.324239
v -0.219621 3.186794 0.328779
v -0.241011 3.169320 0.323331
v -0.259043 3.147438 0.325403
v -0.262836 3.119974 0.321667
v -0.259263 3.091441 0.324232
v -0.230420 3.062182 0.318222
v -0.219621 3.051945 0.322349
v -0.191590 3.048990 0.318282
v -0.152760 3.062182 0.318222
v -0.128405 3.094042 0.319503
v -0.121698 3.120080 0.320983
v -0.128405 3.146193 0.321990
v -0.152760 3.177980 0.323744
v -0.177955 3.188377 0.324239
v -0.198417 3.155773 0.312979
v -0.219439 3.140152 0.311996
v -0.216335 3.096921 0.310172
v -0.184763 3.087379 0.309717
v -0.162492 3.102205 0.310424
v -0.166844 3.146230 0.312524
v -0.163559 3.045625 0.363067
v 0.191590 3.182980 0.389412
v -0.191590 3.042526 0.346981
v 0.205880 3.044890 0.340848
v -0.150895 3.051040 0.371954
v -0.177300 3.180600 0.395641
v 0.191590 3.042526 0.346981
v -0.219621 3.179335 0.376839
v -0.191590 3.182980 0.389412
v -0.139795 3.058979 0.379719
v -0.177300 3.042733 0.354746
v 0.177300 3.042733 0.354746
v 0.139795 3.158827 0.406288
v -0.130685 3.069007 0.386890
v -0.232285 3.173666 0.369583
v 0.123917 3.134658 0.408339
v 0.207349 3.182160 0.382714
v -0.123916 3.080651 0.393761
v 0.163559 3.045625 0.363067
v 0.219621 3.049743 0.336534
v -0.150895 3.168362 0.403762
v -0.119748 3.093463 0.400072
v -0.243385 3.165529 0.363105
v 0.259263 3.143309 0.352596
v 0.232285 3.173666 0.369583
v 0.139795 3.058979 0.379719
v -0.252494 3.155267 0.357445
v 0.243385 3.165529 0.363105
v 0.130686 3.069007 0.386890
v -0.119748 3.120952 0.407783
v 0.123917 3.080651 0.393761
v 0.119748 3.093463 0.400072
v -0.130685 3.147447 0.407833
v 0.259263 3.089647 0.335792
v -0.263431 3.130126 0.348670
v 0.118341 3.106951 0.405577
v 0.243385 3.066252 0.332856
v 0.264839 3.116660 0.343022
v -0.264839 3.116660 0.343022
v 0.163559 3.175685 0.400352
v -0.243385 3.066252 0.332856
v -0.205880 3.044890 0.340848
v 0.155300 3.105449 0.318047
v 0.152310 3.120425 0.318761
v 0.155937 3.135348 0.318120
v 0.198124 3.154341 0.312673
v 0.220688 3.140947 0.312272
v 0.226585 3.121576 0.311348
v 0.216336 3.096921 0.310172
v 0.191590 3.086709 0.309686
v 0.171395 3.091357 0.310597
v 0.172148 3.150566 0.312731
v -0.230180 3.120634 0.317419
v -0.206358 3.085112 0.315725
v -0.198417 3.155773 0.312979
v -0.219439 3.140152 0.311996
v -0.216335 3.096921 0.310172
v -0.184763 3.087379 0.309717
v -0.162492 3.102205 0.310424
v -0.166844 3.146230 0.312524
v 0.032895 3.044121 0.401060
v 0.018271 2.986224 0.365714
v 0.031236 3.045278 0.377548
v 0.017750 2.991784 0.345596
v -0.000000 2.974324 0.358931
v -0.000000 3.043184 0.402672
v -0.032895 3.044121 0.401060
v -0.018271 2.986224 0.365714
v -0.031236 3.045278 0.377548
v -0.000000 2.991167 0.345230
v -0.017750 2.991784 0.345596
vn 0.2949 0.5391 0.7889
vn -0.9824 0.0676 0.1741
vn -0.0151 -0.2461 0.9691
vn -0.7753 0.2868 0.5627
vn -0.5602 0.8178 0.1321
vn -0.8989 0.4226 0.1154
vn -0.4417 0.0109 0.8971
vn -0.0151 -0.2907 0.9567
vn 0.0931 -0.9955 0.0175
vn -0.2402 0.4096 0.8801
vn 0.0897 0.9655 0.2445
vn -0.2381 0.0424 0.9703
vn 0.6156 -0.7778 0.1269
vn 0.0634 0.0768 0.9950
vn -0.9379 0.1702 0.3024
vn 0.2703 0.6396 0.7196
vn 0.4618 0.2202 0.8592
vn 0.8112 -0.1184 0.5727
vn 0.4011 -0.3917 0.8281
vn -0.0979 -0.6281 0.7720
vn -0.4240 -0.4537 0.7838
vn -0.7515 -0.3996 0.5250
vn -0.9350 0.0190 0.3542
vn -0.0949 -0.5512 0.8289
vn -0.4913 0.4903 0.7199
vn 0.0728 -0.2808 0.9570
vn 0.3527 -0.3229 0.8783
vn 0.2443 0.3143 0.9173
vn 0.6436 0.6989 0.3120
vn -0.3841 0.9165 -0.1115
vn -0.9412 -0.3340 0.0509
vn -0.9911 -0.0106 0.1328
vn -0.6433 0.7226 0.2530
vn 0.9918 0.0383 0.1216
vn -0.7901 -0.1593 0.5920
vn -0.4728 0.6204 0.6258
vn -0.0427 -0.8571 0.5134
vn 0.6956 -0.0991 0.7115
vn 0.6315 -0.2435 0.7361
vn -0.0268 -0.6566 0.7538
vn 0.4307 0.6661 0.6089
vn -0.1228 -0.2187 0.9680
vn -0.8293 0.1509 0.5381
vn 0.0246 -0.9878 -0.1535
vn 0.3317 -0.9307 -0.1542
vn -0.2850 -0.9425 -0.1746
vn 0.6660 -0.7162 -0.2085
vn -0.5335 -0.8352 -0.1334
vn -0.6937 -0.7112 -0.1138
vn -0.7984 -0.5955 0.0891
vn -0.8709 -0.4715 -0.1391
vn -0.9999 -0.0117 -0.0073
vn -0.9700 0.2046 0.1311
vn -0.9684 0.2478 0.0268
vn -0.7939 0.6023 0.0834
vn -0.4964 0.8602 0.1168
vn -0.1726 0.9738 0.1478
vn 0.0272 0.9882 0.1504
vn 0.2219 0.9639 0.1473
vn 0.4077 0.9028 0.1371
vn 0.6068 0.7881 0.1035
vn 0.8414 0.5344 0.0810
vn 0.9301 0.3633 0.0533
vn 0.9835 0.1785 0.0285
vn 0.9944 -0.0829 -0.0652
vn 0.9274 -0.3694 -0.0587
vn -0.0257 -0.9878 -0.1534
vn 0.0661 -0.9978 -0.0075
vn -0.2210 -0.9638 -0.1489
vn 0.3219 -0.9306 -0.1745
vn -0.4391 -0.8886 -0.1325
vn -0.6617 -0.7472 0.0625
vn -0.7376 -0.6592 -0.1462
vn 0.4872 -0.8712 -0.0600
vn 0.5312 -0.8378 -0.1262
vn 0.6915 -0.7136 -0.1125
vn 0.8222 -0.5620 -0.0905
vn 0.9500 -0.3041 -0.0712
vn 0.9931 0.1164 -0.0132
vn 0.8499 0.3970 -0.3464
vn -0.0270 0.9881 0.1514
vn 0.8188 0.5675 -0.0865
vn -0.2208 0.9644 0.1454
vn -0.4073 0.9029 0.1377
vn -0.6069 0.7866 0.1132
vn -0.7198 0.6867 0.1014
vn -0.8413 0.5344 0.0813
vn -0.9301 0.3634 0.0538
vn -0.9837 0.1775 0.0275
vn -0.9904 -0.1277 -0.0535
vn -0.4496 -0.0340 0.8926
vn -0.5199 -0.5028 0.6906
vn -0.4770 -0.6791 0.5579
vn 0.7687 0.2711 0.5792
vn 0.1545 0.7206 0.6759
vn 0.6587 -0.5664 0.4953
vn -0.0000 0.9698 0.2440
vn 0.0396 0.9695 0.2417
vn 0.0390 0.9680 0.2479
vn -0.0000 0.9718 0.2359
vn -0.0390 0.9680 0.2480
vn -0.0396 0.9697 0.2412
vn -0.0255 -0.9983 -0.0516
vn -0.0254 -0.9983 -0.0516
vn 0.0254 -0.9983 -0.0516
vn 0.0255 -0.9983 -0.0516
vn -0.0000 -0.9987 -0.0515
vn -0.1128 0.8948 0.4321
vn -0.6510 0.3090 0.6933
vn -0.9769 0.1986 0.0794
vn 0.9769 0.1986 0.0794
vn -0.6311 0.4153 0.6551
vn 0.5446 -0.6631 0.5135
vn 0.8684 0.1326 0.4778
vn 0.5763 0.2975 0.7611
vn 0.3528 0.5094 0.7849
vn -0.1661 0.4436 0.8807
vn 0.6094 -0.5988 0.5197
vn -0.4740 0.6933 0.5428
vn -0.1841 -0.8128 0.5526
vn -0.0337 -0.5263 0.8496
vn -0.0336 -0.5263 0.8496
vn -0.0000 -0.5264 0.8503
vn 0.0336 -0.5263 0.8496
vn 0.0337 -0.5263 0.8496
vn 0.8811 -0.2147 0.4214
vt 0.888859 0.277621
vt 0.957024 0.335752
vt 0.793716 0.469776
vt 0.777621 0.388859
vt 0.588072 0.088072
vt 0.542975 0.164248
vt 0.705324 0.025400
vt 0.664248 0.457025
vt 0.794676 0.474600
vt 0.705325 0.474601
vt 0.662365 0.038431
vt 0.750000 0.020999
vt 0.835752 0.042976
vt 0.563683 0.374493
vt 0.625507 0.063683
vt 0.957024 0.164248
vt 0.969776 0.293716
vt 0.888859 0.222379
vt 0.828657 0.132281
vt 0.722379 0.111141
vt 0.649888 0.149888
vt 0.611141 0.222379
vt 0.608420 0.250000
vt 0.632281 0.328658
vt 0.695820 0.380803
vt 0.828658 0.367719
vt 0.874493 0.436317
vt 0.706284 0.030224
vt 0.877226 0.059593
vt 0.794676 0.025399
vt 0.542976 0.335753
vt 0.525399 0.205324
vt 0.520999 0.250000
vt 0.837635 0.038431
vt 0.911928 0.088072
vt 0.538431 0.337635
vt 0.626746 0.274517
vt 0.626760 0.274514
vt 0.624331 0.250000
vt 0.632281 0.171343
vt 0.867719 0.171343
vt 0.874493 0.063683
vt 0.750000 0.391580
vt 0.000000 0.516502
vt 0.000000 0.723297
vt 0.031250 0.744864
vt 1.000000 0.723297
vt 1.000000 0.516502
vt 0.968750 0.516502
vt 0.968750 0.702676
vt 0.125000 0.516502
vt 0.093750 0.516502
vt 0.125000 0.784601
vt 0.937500 0.681135
vt 0.906250 0.516502
vt 0.906250 0.657383
vt 0.875000 0.636672
vt 0.875000 0.516502
vt 0.843750 0.516502
vt 0.843750 0.619092
vt 0.812500 0.516502
vt 0.750000 0.516502
vt 0.750000 0.576308
vt 0.781250 0.593328
vt 0.718750 0.516502
vt 0.718750 0.563738
vt 0.687500 0.516502
vt 0.687500 0.556102
vt 0.656250 0.516502
vt 0.656250 0.553693
vt 0.625000 0.516502
vt 0.593750 0.516502
vt 0.593750 0.553207
vt 0.625000 0.549909
vt 0.562500 0.516502
vt 0.531250 0.516502
vt 0.531250 0.580553
vt 0.562500 0.565094
vt 0.500000 0.516502
vt 0.500000 0.601789
vt 0.468750 0.516502
vt 0.468750 0.628160
vt 0.437500 0.516502
vt 0.437500 0.655988
vt 0.406250 0.516502
vt 0.406250 0.685327
vt 0.375000 0.516502
vt 0.375000 0.710446
vt 0.343750 0.516502
vt 0.343750 0.733201
vt 0.312500 0.516502
vt 0.312500 0.754682
vt 0.281250 0.516502
vt 0.281250 0.774062
vt 0.250000 0.516502
vt 0.250000 0.790598
vt 0.218750 0.795829
vt 0.218750 0.516502
vt 0.187500 0.516502
vt 0.187500 0.795492
vt 0.156250 0.516502
vt 0.156250 0.791701
vt 0.062500 0.516502
vt 0.062500 0.761685
vt 0.093750 0.774466
vt 0.031250 0.516502
vt 0.125000 0.784602
vt 0.937500 0.681136
vt 0.937500 0.516502
vt 0.812500 0.604544
vt 0.781250 0.593329
vt 0.781250 0.516502
vt 0.718750 0.563739
vt 0.625000 0.549910
vt 0.531250 0.580554
vt 0.398910 0.692728
vt 0.281250 0.774063
vt 0.961569 0.337635
vt 0.911928 0.411928
vt 0.835752 0.457024
vt 0.622774 0.440407
vt 0.559593 0.377226
vt 0.837635 0.461569
vt 0.961569 0.162365
vt 0.974600 0.205324
vt 0.862459 0.227631
vt 0.862459 0.272369
vt 0.851390 0.291997
vt 0.864662 0.250000
vt 0.857634 0.228590
vt 0.845338 0.313703
vt 0.588101 0.750000
vt 0.587119 0.758318
vt 0.562500 0.764186
vt 0.562500 0.750000
vt 0.750000 0.135338
vt 0.728590 0.142366
vt 0.813703 0.154662
vt 0.791997 0.148611
vt 0.728590 0.357635
vt 0.658752 0.310970
vt 0.642366 0.271410
vt 0.658752 0.189030
vt 0.708003 0.148611
vt 0.841248 0.310970
vt 0.810970 0.158752
vt 0.648611 0.208003
vt 0.648611 0.291997
vt 0.706121 0.355934
vt 0.686297 0.345338
s 1
f 19/1/1 6/2/2 4/3/3 18/4/4
f 37/5/5 38/6/6 36/7/7
f 16/8/8 4/9/3 17/10/9
f 12/11/10 11/12/11 10/13/12
f 15/14/13 13/6/14 12/15/10 10/13/12 8/16/15 6/17/2 19/1/1 20/18/16 21/19/17 22/20/18 23/21/19 1/22/20 2/23/21 3/24/22 24/25/23 18/4/4 4/3/3 16/8/8
f 25/1/24 44/26/25 30/27/26 31/2/27 32/17/28
f 36/28/7 34/29/29 35/30/30
f 40/31/31 38/32/6 39/33/32
f 10/34/12 9/35/33 8/16/15
f 15/36/13 14/32/34 13/6/14
f 27/37/35 48/38/36 47/39/37
f 47/40/37 46/20/38 26/19/39 45/41/40 25/1/24 32/17/28 33/16/41 34/42/29 36/28/7 38/6/6 40/31/31 42/8/42 30/27/26 44/26/25 43/43/43 48/24/36 27/23/35
f 17/44/9 50/45/44 88/46/45
f 50/47/44 17/48/9 4/49/3 65/50/46
f 15/51/13 16/52/8 61/53/47
f 65/54/46 4/55/3 73/56/48
f 76/57/49 73/56/48 4/55/3 5/58/50
f 76/57/49 5/59/50 72/60/51
f 72/60/51 5/59/50 6/61/2
f 6/62/2 86/63/52 72/64/51
f 6/62/2 7/65/53 82/66/54 86/63/52
f 82/66/54 7/65/53 8/67/15
f 82/68/54 8/69/15 85/70/55
f 8/69/15 9/71/33 85/70/55
f 9/72/33 68/73/56 85/74/55
f 9/72/33 10/75/12 68/73/56
f 10/76/12 52/77/57 68/78/56
f 11/79/11 55/80/58 52/77/57 10/76/12
f 55/80/58 11/81/11 60/82/59
f 60/82/59 11/81/11 12/83/10 67/84/60
f 67/84/60 12/85/10 74/86/61
f 74/86/61 12/85/10 13/87/14
f 74/88/61 13/89/14 77/90/62
f 77/90/62 13/91/14 79/92/63
f 79/92/63 13/91/14 14/93/34 80/94/64
f 80/94/64 14/95/34 84/96/65
f 84/97/65 14/98/34 15/99/13 64/100/66
f 64/100/66 15/101/13 61/102/47
f 16/103/8 88/104/45 61/105/47
f 16/103/8 17/106/9 88/104/45
f 57/45/67 28/44/68 42/106/42 54/46/69
f 56/50/70 28/48/68 57/47/67
f 69/105/71 41/51/72 81/107/73
f 56/108/70 29/109/74 28/49/68
f 63/56/75 30/55/26 29/109/74 56/108/70
f 71/57/76 30/55/26 63/56/75
f 75/60/77 31/59/27 30/58/26 71/57/76
f 83/110/78 31/59/27 75/60/77
f 83/111/78 32/112/28 31/61/27
f 87/63/79 32/112/28 83/111/78
f 33/67/41 32/65/28 87/113/79
f 89/114/80 34/71/29 33/69/41
f 35/75/30 34/72/29 89/73/80
f 51/80/81 36/79/7 35/76/30 90/115/82
f 59/82/83 36/79/7 51/80/81
f 49/84/84 37/83/5 36/81/7 59/82/83
f 53/86/85 37/83/5 49/84/84
f 58/88/86 37/85/5 53/116/85
f 62/90/87 38/89/6 37/87/5 58/88/86
f 66/92/88 38/89/6 62/90/87
f 70/117/89 38/91/6 66/92/88
f 78/96/90 39/95/32 38/93/6 70/117/89
f 78/97/90 40/98/31 39/95/32
f 81/100/73 40/98/31 78/97/90
f 81/107/73 41/51/72 40/101/31
f 69/104/71 42/103/42 41/52/72
f 54/46/69 42/103/42 69/104/71
f 6/118/2 5/119/50 4/120/3
f 41/121/72 42/8/42 40/122/31
f 28/9/68 29/123/74 30/27/26 42/10/42
f 6/17/2 8/124/15 7/125/53
f 97/126/91 96/127/92 95/128/93
f 101/129/94 105/130/95 104/131/96
f 118/132/97 119/133/98 116/133/99 113/132/100 110/133/101 112/133/102
f 115/134/103 117/134/104 111/134/105 109/134/106 114/135/107
f 102/136/108 106/137/109 105/138/95
f 110/133/110 109/134/110 111/134/110 112/133/110
f 116/133/111 119/133/111 117/134/111 115/134/111
f 98/139/112 97/130/91 95/128/93 94/140/113 93/141/114 92/142/115 91/143/116 99/144/117
f 103/140/118 104/145/96 105/146/95 106/137/109 107/147/119 108/148/120
f 117/134/121 119/133/122 118/132/123 112/133/124 111/134/125
f 93/141/114 94/149/113 100/150/126
