# Blender 4.2.2 LTS
# www.blender.org
o teal
v 0.155300 3.108510 0.314621
v 0.152310 3.123492 0.315296
v 0.155937 3.138409 0.314615
v 0.217762 3.186179 0.320116
v 0.241011 3.172426 0.319735
v 0.258667 3.136500 0.317881
v 0.261468 3.109212 0.317580
v 0.249703 3.084464 0.315777
v 0.230420 3.065244 0.314912
v 0.205225 3.054842 0.314444
v 0.177691 3.053418 0.315069
v 0.152008 3.064022 0.315546
v 0.133477 3.084464 0.315777
v 0.121698 3.123167 0.317518
v 0.134725 3.161073 0.318986
v 0.152760 3.181089 0.320125
v 0.177955 3.191491 0.320593
v 0.198124 3.157355 0.309117
v 0.220688 3.143957 0.308752
v 0.226585 3.124578 0.307880
v 0.216336 3.099914 0.306770
v 0.191590 3.089697 0.306310
v 0.171395 3.094353 0.307209
v 0.172148 3.153580 0.309185
v -0.230180 3.123689 0.313953
v -0.206358 3.088153 0.312354
v -0.153741 3.131192 0.314291
v -0.205225 3.191491 0.320593
v -0.219621 3.189947 0.325137
v -0.241011 3.172426 0.319735
v -0.259043 3.150562 0.321865
v -0.262836 3.123066 0.318203
v -0.259263 3.094556 0.320844
v -0.230420 3.065245 0.314912
v -0.219621 3.055043 0.319066
v -0.191590 3.052053 0.315008
v -0.152760 3.065245 0.314912
v -0.128405 3.097115 0.316108
v -0.121698 3.123167 0.317518
v -0.128405 3.149287 0.318456
v -0.152760 3.181089 0.320125
v -0.177955 3.191491 0.320593
v -0.198417 3.158789 0.309420
v -0.219439 3.143160 0.308479
v -0.216335 3.099914 0.306770
v -0.184763 3.090368 0.306341
v -0.162492 3.105199 0.307008
v -0.166844 3.149242 0.308990
v -0.163559 3.049077 0.359801
v 0.191590 3.186659 0.385779
v -0.191590 3.045839 0.343723
v 0.205880 3.048149 0.337584
v -0.150895 3.054569 0.368673
v -0.177300 3.184333 0.392014
v 0.191590 3.045839 0.343723
v -0.219621 3.182905 0.373216
v -0.191590 3.186659 0.385779
v -0.139795 3.062575 0.376417
v -0.177300 3.046113 0.351488
v 0.177300 3.046113 0.351488
v 0.139795 3.162653 0.402720
v -0.130685 3.072665 0.383561
v -0.232285 3.177174 0.365976
v 0.123917 3.138501 0.404835
v 0.207349 3.185781 0.379084
v -0.123916 3.084369 0.390401
v 0.163559 3.049077 0.359801
v 0.219621 3.052965 0.333257
v -0.150895 3.172166 0.400168
v -0.119748 3.097236 0.396678
v -0.243385 3.168981 0.359519
v 0.259263 3.146669 0.349070
v 0.232285 3.177174 0.365976
v 0.139795 3.062575 0.376417
v -0.252494 3.158669 0.353887
v 0.243385 3.168981 0.359519
v 0.130686 3.072665 0.383561
v -0.119748 3.124791 0.404316
v 0.123917 3.084369 0.390401
v 0.119748 3.097236 0.396678
v -0.130685 3.151286 0.404295
v 0.259263 3.092862 0.332409
v -0.263431 3.133453 0.345178
v 0.118341 3.110771 0.402147
v 0.243385 3.069441 0.329535
v 0.264839 3.119937 0.339567
v -0.264839 3.119937 0.339567
v 0.163559 3.179460 0.396739
v -0.243385 3.069441 0.329535
v -0.205880 3.048150 0.337584
v 0.155300 3.108510 0.314621
v 0.152310 3.123492 0.315296
v 0.155937 3.138409 0.314615
v 0.198124 3.157355 0.309117
v 0.220688 3.143957 0.308752
v 0.226585 3.124578 0.307880
v 0.216336 3.099914 0.306770
v 0.191590 3.089697 0.306310
v 0.171395 3.094353 0.307209
v 0.172148 3.153580 0.309185
v -0.230180 3.123689 0.313953
v -0.206358 3.088153 0.312354
v -0.198417 3.158789 0.309420
v -0.219439 3.143160 0.308479
v -0.216335 3.099914 0.306770
v -0.184763 3.090368 0.306341
v -0.162492 3.105199 0.307008
v -0.166844 3.149242 0.308990
v 0.032895 3.047903 0.397798
v 0.018271 2.989700 0.362606
v 0.031236 3.048856 0.374282
v 0.017750 2.995085 0.342473
v -0.000000 2.977741 0.355855
v -0.000000 3.046980 0.399412
v -0.032895 3.047903 0.397798
v -0.018271 2.989700 0.362606
v -0.031236 3.048856 0.374282
v -0.000000 2.994465 0.342109
v -0.017750 2.995085 0.342473
vn 0.2953 0.5416 0.7871
vn -0.9823 0.0684 0.1743
vn -0.0147 -0.2397 0.9707
vn -0.7753 0.2884 0.5619
vn -0.5599 0.8185 0.1288
vn -0.8989 0.4230 0.1138
vn -0.4418 0.0168 0.8970
vn -0.0162 -0.2852 0.9583
vn 0.0934 -0.9954 0.0220
vn -0.2387 0.4142 0.8783
vn 0.0902 0.9666 0.2399
vn -0.2382 0.0482 0.9700
vn 0.6158 -0.7771 0.1300
vn 0.0649 0.0809 0.9946
vn -0.9381 0.1717 0.3007
vn 0.2703 0.6415 0.7179
vn 0.4618 0.2225 0.8586
vn 0.8112 -0.1169 0.5730
vn 0.4010 -0.3897 0.8291
vn -0.0987 -0.6258 0.7737
vn -0.4240 -0.4516 0.7850
vn -0.7516 -0.3980 0.5260
vn -0.9349 0.0208 0.3542
vn -0.0953 -0.5488 0.8305
vn -0.4911 0.4924 0.7186
vn 0.0708 -0.2763 0.9584
vn 0.3516 -0.3198 0.8798
vn 0.2444 0.3177 0.9161
vn 0.6437 0.7004 0.3083
vn -0.3838 0.9162 -0.1156
vn -0.9414 -0.3333 0.0529
vn -0.9911 -0.0098 0.1330
vn -0.6434 0.7238 0.2493
vn 0.9918 0.0392 0.1219
vn -0.7899 -0.1582 0.5925
vn -0.4728 0.6221 0.6241
vn -0.0425 -0.8558 0.5156
vn 0.6956 -0.0973 0.7118
vn 0.6313 -0.2424 0.7367
vn -0.0262 -0.6545 0.7556
vn 0.4312 0.6676 0.6069
vn -0.1229 -0.2125 0.9694
vn -0.8293 0.1523 0.5377
vn 0.0247 -0.9891 -0.1450
vn 0.3318 -0.9319 -0.1465
vn -0.2851 -0.9440 -0.1663
vn 0.6662 -0.7177 -0.2027
vn -0.5336 -0.8363 -0.1260
vn -0.6937 -0.7122 -0.1075
vn -0.7968 -0.5972 0.0918
vn -0.8709 -0.4724 -0.1353
vn -0.9999 -0.0121 -0.0069
vn -0.9703 0.2038 0.1304
vn -0.9686 0.2475 0.0243
vn -0.7943 0.6025 0.0782
vn -0.4967 0.8610 0.1095
vn -0.1727 0.9750 0.1398
vn 0.0273 0.9895 0.1422
vn 0.2222 0.9650 0.1392
vn 0.4081 0.9037 0.1296
vn 0.6073 0.7885 0.0972
vn 0.8417 0.5345 0.0764
vn 0.9304 0.3632 0.0503
vn 0.9836 0.1782 0.0269
vn 0.9944 -0.0838 -0.0644
vn 0.9273 -0.3701 -0.0555
vn -0.0257 -0.9891 -0.1449
vn 0.0658 -0.9978 -0.0024
vn -0.2211 -0.9651 -0.1407
vn 0.3219 -0.9320 -0.1665
vn -0.4392 -0.8896 -0.1255
vn -0.6603 -0.7481 0.0659
vn -0.7376 -0.6602 -0.1414
vn 0.4870 -0.8717 -0.0550
vn 0.5315 -0.8386 -0.1192
vn 0.6916 -0.7144 -0.1062
vn 0.8222 -0.5628 -0.0855
vn 0.9500 -0.3046 -0.0691
vn 0.9932 0.1158 -0.0136
vn 0.8495 0.3946 -0.3501
vn -0.0271 0.9893 0.1432
vn 0.8187 0.5668 -0.0919
vn -0.2212 0.9655 0.1375
vn -0.4077 0.9038 0.1302
vn -0.6074 0.7872 0.1066
vn -0.7203 0.6870 0.0958
vn -0.8417 0.5345 0.0768
vn -0.9303 0.3633 0.0508
vn -0.9838 0.1773 0.0260
vn -0.9903 -0.1288 -0.0524
vn -0.4496 -0.0316 0.8927
vn -0.5199 -0.5010 0.6919
vn -0.4770 -0.6776 0.5598
vn 0.7689 0.2724 0.5784
vn 0.1548 0.7225 0.6738
vn 0.6585 -0.5652 0.4968
vn -0.0000 0.9714 0.2373
vn 0.0395 0.9711 0.2352
vn 0.0391 0.9697 0.2410
vn -0.0000 0.9733 0.2297
vn -0.0390 0.9697 0.2411
vn -0.0395 0.9713 0.2347
vn -0.0255 -0.9988 -0.0429
vn -0.0254 -0.9988 -0.0429
vn 0.0254 -0.9988 -0.0429
vn 0.0255 -0.9988 -0.0429
vn -0.0000 -0.9991 -0.0428
vn -0.1129 0.8965 0.4283
vn -0.6507 0.3117 0.6924
vn -0.9770 0.1988 0.0777
vn 0.9770 0.1988 0.0777
vn -0.6310 0.4172 0.6540
vn 0.5446 -0.6618 0.5153
vn 0.8685 0.1333 0.4774
vn 0.5763 0.2995 0.7604
vn 0.3530 0.5113 0.7835
vn -0.1655 0.4464 0.8794
vn 0.6094 -0.5974 0.5213
vn -0.4740 0.6948 0.5410
vn -0.1842 -0.8113 0.5548
vn -0.0337 -0.5227 0.8518
vn -0.0336 -0.5227 0.8519
vn -0.0000 -0.5228 0.8525
vn 0.0336 -0.5227 0.8519
vn 0.0337 -0.5227 0.8518
vn 0.8810 -0.2133 0.4223
vt 0.888859 0.277621
vt 0.957024 0.335752
vt 0.793716 0.469776
vt 0.777621 0.388859
vt 0.588072 0.088072
vt 0.542975 0.164248
vt 0.705324 0.025400
vt 0.664248 0.457025
vt 0.794676 0.474600
vt 0.705325 0.474601
vt 0.662365 0.038431
vt 0.750000 0.020999
vt 0.835752 0.042976
vt 0.563683 0.374493
vt 0.625507 0.063683
vt 0.957024 0.164248
vt 0.969776 0.293716
vt 0.888859 0.222379
vt 0.828657 0.132281
vt 0.722379 0.111141
vt 0.649888 0.149888
vt 0.611141 0.222379
vt 0.608420 0.250000
vt 0.632281 0.328658
vt 0.695820 0.380803
vt 0.828658 0.367719
vt 0.874493 0.436317
vt 0.706284 0.030224
vt 0.877226 0.059593
vt 0.794676 0.025399
vt 0.542976 0.335753
vt 0.525399 0.205324
vt 0.520999 0.250000
vt 0.837635 0.038431
vt 0.911928 0.088072
vt 0.538431 0.337635
vt 0.626746 0.274517
vt 0.626760 0.274514
vt 0.624331 0.250000
vt 0.632281 0.171343
vt 0.867719 0.171343
vt 0.874493 0.063683
vt 0.750000 0.391580
vt 0.000000 0.516502
vt 0.000000 0.723297
vt 0.031250 0.744864
vt 1.000000 0.723297
vt 1.000000 0.516502
vt 0.968750 0.516502
vt 0.968750 0.702676
vt 0.125000 0.516502
vt 0.093750 0.516502
vt 0.125000 0.784601
vt 0.937500 0.681135
vt 0.906250 0.516502
vt 0.906250 0.657383
vt 0.875000 0.636672
vt 0.875000 0.516502
vt 0.843750 0.516502
vt 0.843750 0.619092
vt 0.812500 0.516502
vt 0.750000 0.516502
vt 0.750000 0.576308
vt 0.781250 0.593328
vt 0.718750 0.516502
vt 0.718750 0.563738
vt 0.687500 0.516502
vt 0.687500 0.556102
vt 0.656250 0.516502
vt 0.656250 0.553693
vt 0.625000 0.516502
vt 0.593750 0.516502
vt 0.593750 0.553207
vt 0.625000 0.549909
vt 0.562500 0.516502
vt 0.531250 0.516502
vt 0.531250 0.580553
vt 0.562500 0.565094
vt 0.500000 0.516502
vt 0.500000 0.601789
vt 0.468750 0.516502
vt 0.468750 0.628160
vt 0.437500 0.516502
vt 0.437500 0.655988
vt 0.406250 0.516502
vt 0.406250 0.685327
vt 0.375000 0.516502
vt 0.375000 0.710446
vt 0.343750 0.516502
vt 0.343750 0.733201
vt 0.312500 0.516502
vt 0.312500 0.754682
vt 0.281250 0.516502
vt 0.281250 0.774062
vt 0.250000 0.516502
vt 0.250000 0.790598
vt 0.218750 0.795829
vt 0.218750 0.516502
vt 0.187500 0.516502
vt 0.187500 0.795492
vt 0.156250 0.516502
vt 0.156250 0.791701
vt 0.062500 0.516502
vt 0.062500 0.761685
vt 0.093750 0.774466
vt 0.031250 0.516502
vt 0.125000 0.784602
vt 0.937500 0.681136
vt 0.937500 0.516502
vt 0.812500 0.604544
vt 0.781250 0.593329
vt 0.781250 0.516502
vt 0.718750 0.563739
vt 0.625000 0.549910
vt 0.531250 0.580554
vt 0.398910 0.692728
vt 0.281250 0.774063
vt 0.961569 0.337635
vt 0.911928 0.411928
vt 0.835752 0.457024
vt 0.622774 0.440407
vt 0.559593 0.377226
vt 0.837635 0.461569
vt 0.961569 0.162365
vt 0.974600 0.205324
vt 0.862459 0.227631
vt 0.862459 0.272369
vt 0.851390 0.291997
vt 0.864662 0.250000
vt 0.857634 0.228590
vt 0.845338 0.313703
vt 0.588101 0.750000
vt 0.587119 0.758318
vt 0.562500 0.764186
vt 0.562500 0.750000
vt 0.750000 0.135338
vt 0.728590 0.142366
vt 0.813703 0.154662
vt 0.791997 0.148611
vt 0.728590 0.357635
vt 0.658752 0.310970
vt 0.642366 0.271410
vt 0.658752 0.189030
vt 0.708003 0.148611
vt 0.841248 0.310970
vt 0.810970 0.158752
vt 0.648611 0.208003
vt 0.648611 0.291997
vt 0.706121 0.355934
vt 0.686297 0.345338
s 1
f 19/1/1 6/2/2 4/3/3 18/4/4
f 37/5/5 38/6/6 36/7/7
f 16/8/8 4/9/3 17/10/9
f 12/11/10 11/12/11 10/13/12
f 15/14/13 13/6/14 12/15/10 10/13/12 8/16/15 6/17/2 19/1/1 20/18/16 21/19/17 22/20/18 23/21/19 1/22/20 2/23/21 3/24/22 24/25/23 18/4/4 4/3/3 16/8/8
f 25/1/24 44/26/25 30/27/26 31/2/27 32/17/28
f 36/28/7 34/29/29 35/30/30
f 40/31/31 38/32/6 39/33/32
f 10/34/12 9/35/33 8/16/15
f 15/36/13 14/32/34 13/6/14
f 27/37/35 48/38/36 47/39/37
f 47/40/37 46/20/38 26/19/39 45/41/40 25/1/24 32/17/28 33/16/41 34/42/29 36/28/7 38/6/6 40/31/31 42/8/42 30/27/26 44/26/25 43/43/43 48/24/36 27/23/35
f 17/44/9 50/45/44 88/46/45
f 50/47/44 17/48/9 4/49/3 65/50/46
f 15/51/13 16/52/8 61/53/47
f 65/54/46 4/55/3 73/56/48
f 76/57/49 73/56/48 4/55/3 5/58/50
f 76/57/49 5/59/50 72/60/51
f 72/60/51 5/59/50 6/61/2
f 6/62/2 86/63/52 72/64/51
f 6/62/2 7/65/53 82/66/54 86/63/52
f 82/66/54 7/65/53 8/67/15
f 82/68/54 8/69/15 85/70/55
f 8/69/15 9/71/33 85/70/55
f 9/72/33 68/73/56 85/74/55
f 9/72/33 10/75/12 68/73/56
f 10/76/12 52/77/57 68/78/56
f 11/79/11 55/80/58 52/77/57 10/76/12
f 55/80/58 11/81/11 60/82/59
f 60/82/59 11/81/11 12/83/10 67/84/60
f 67/84/60 12/85/10 74/86/61
f 74/86/61 12/85/10 13/87/14
f 74/88/61 13/89/14 77/90/62
f 77/90/62 13/91/14 79/92/63
f 79/92/63 13/91/14 14/93/34 80/94/64
f 80/94/64 14/95/34 84/96/65
f 84/97/65 14/98/34 15/99/13 64/100/66
f 64/100/66 15/101/13 61/102/47
f 16/103/8 88/104/45 61/105/47
f 16/103/8 17/106/9 88/104/45
f 57/45/67 28/44/68 42/106/42 54/46/69
f 56/50/70 28/48/68 57/47/67
f 69/105/71 41/51/72 81/107/73
f 56/108/70 29/109/74 28/49/68
f 63/56/75 30/55/26 29/109/74 56/108/70
f 71/57/76 30/55/26 63/56/75
f 75/60/77 31/59/27 30/58/26 71/57/76
f 83/110/78 31/59/27 75/60/77
f 83/111/78 32/112/28 31/61/27
f 87/63/79 32/112/28 83/111/78
f 33/67/41 32/65/28 87/113/79
f 89/114/80 34/71/29 33/69/41
f 35/75/30 34/72/29 89/73/80
f 51/80/81 36/79/7 35/76/30 90/115/82
f 59/82/83 36/79/7 51/80/81
f 49/84/84 37/83/5 36/81/7 59/82/83
f 53/86/85 37/83/5 49/84/84
f 58/88/86 37/85/5 53/116/85
f 62/90/87 38/89/6 37/87/5 58/88/86
f 66/92/88 38/89/6 62/90/87
f 70/117/89 38/91/6 66/92/88
f 78/96/90 39/95/32 38/93/6 70/117/89
f 78/97/90 40/98/31 39/95/32
f 81/100/73 40/98/31 78/97/90
f 81/107/73 41/51/72 40/101/31
f 69/104/71 42/103/42 41/52/72
f 54/46/69 42/103/42 69/104/71
f 6/118/2 5/119/50 4/120/3
f 41/121/72 42/8/42 40/122/31
f 28/9/68 29/123/74 30/27/26 42/10/42
f 6/17/2 8/124/15 7/125/53
f 97/126/91 96/127/92 95/128/93
f 101/129/94 105/130/95 104/131/96
f 118/132/97 119/133/98 116/133/99 113/132/100 110/133/101 112/133/102
f 115/134/103 117/134/104 111/134/105 109/134/106 114/135/107
f 102/136/108 106/137/109 105/138/95
f 110/133/110 109/134/110 111/134/110 112/133/110
f 116/133/111 119/133/111 117/134/111 115/134/111
f 98/139/112 97/130/91 95/128/93 94/140/113 93/141/114 92/142/115 91/143/116 99/144/117
f 103/140/118 104/145/96 105/146/95 106/137/109 107/147/119 108/148/120
f 117/134/121 119/133/122 118/132/123 112/133/124 111/134/125
f 93/141/114 94/149/113 100/150/126
