# Blender 4.2.2 LTS
# www.blender.org
o teal
v 0.155300 3.137332 0.280112
v 0.152310 3.152355 0.280388
v 0.155937 3.167196 0.279313
v 0.217762 3.215387 0.283541
v 0.241011 3.201616 0.283525
v 0.258667 3.165571 0.282625
v 0.261468 3.138289 0.283048
v 0.249703 3.113414 0.281904
v 0.230420 3.094141 0.281549
v 0.205225 3.083711 0.281358
v 0.177691 3.082341 0.282020
v 0.152008 3.092975 0.282215
v 0.133477 3.113414 0.281904
v 0.121698 3.152222 0.282617
v 0.134725 3.190211 0.283078
v 0.152760 3.210303 0.283685
v 0.177955 3.220733 0.283877
v 0.198124 3.185646 0.273319
v 0.220688 3.172232 0.273310
v 0.226585 3.152800 0.272952
v 0.216336 3.128068 0.272498
v 0.191590 3.117824 0.272309
v 0.171395 3.122552 0.273084
v 0.172148 3.181881 0.273487
v -0.230180 3.152436 0.279042
v -0.206358 3.116802 0.278387
v -0.153741 3.159960 0.279180
v -0.205225 3.220733 0.283877
v -0.219621 3.219583 0.288456
v -0.241011 3.201616 0.283525
v -0.259043 3.179961 0.286233
v -0.262836 3.152181 0.283304
v -0.259263 3.123931 0.286698
v -0.230420 3.094141 0.281549
v -0.219621 3.084310 0.285969
v -0.191590 3.080973 0.281995
v -0.152760 3.094141 0.281549
v -0.128405 3.126079 0.281899
v -0.121698 3.152222 0.282617
v -0.128405 3.178394 0.282861
v -0.152760 3.210303 0.283685
v -0.177955 3.220733 0.283877
v -0.198417 3.187105 0.273583
v -0.219439 3.171412 0.273057
v -0.216335 3.128068 0.272498
v -0.184763 3.118496 0.272322
v -0.162492 3.133368 0.272595
v -0.166844 3.177532 0.273407
v -0.163559 3.081866 0.326816
v 0.191590 3.221532 0.349116
v -0.191590 3.077244 0.310842
v 0.205880 3.079022 0.304649
v -0.150895 3.088118 0.335532
v -0.177300 3.219747 0.355406
v 0.191590 3.077244 0.310842
v -0.219621 3.216698 0.336667
v -0.191590 3.221532 0.349116
v -0.139795 3.096782 0.343055
v -0.177300 3.078188 0.318591
v 0.177300 3.078188 0.318591
v 0.139795 3.199016 0.366674
v -0.130685 3.107477 0.349923
v -0.232285 3.210349 0.329587
v 0.123917 3.175074 0.369427
v 0.207349 3.220077 0.342452
v -0.123916 3.119758 0.356445
v 0.163559 3.081866 0.326816
v 0.219621 3.083459 0.300199
v -0.150895 3.208297 0.363873
v -0.119748 3.133152 0.362373
v -0.243385 3.201608 0.323355
v 0.259263 3.178420 0.313509
v 0.232285 3.210349 0.329587
v 0.139795 3.096782 0.343055
v -0.252494 3.190822 0.318003
v 0.243385 3.201608 0.323355
v 0.130686 3.107477 0.349923
v -0.119748 3.161335 0.369272
v 0.123917 3.119758 0.356445
v 0.119748 3.133152 0.362373
v -0.130685 3.187798 0.368549
v 0.259263 3.123237 0.298294
v -0.263431 3.164883 0.309973
v 0.118341 3.147144 0.367477
v 0.243385 3.099595 0.296044
v 0.264839 3.150899 0.304726
v -0.264839 3.150899 0.304726
v 0.163559 3.215287 0.360254
v -0.243385 3.099595 0.296044
v -0.205880 3.079022 0.304649
v 0.155300 3.137332 0.280112
v 0.152310 3.152355 0.280388
v 0.155937 3.167196 0.279313
v 0.198124 3.185646 0.273319
v 0.220688 3.172232 0.273310
v 0.226585 3.152800 0.272952
v 0.216336 3.128068 0.272498
v 0.191590 3.117824 0.272309
v 0.171395 3.122552 0.273084
v 0.172148 3.181881 0.273487
v -0.230180 3.152436 0.279042
v -0.206358 3.116802 0.278387
v -0.198417 3.187105 0.273583
v -0.219439 3.171412 0.273057
v -0.216335 3.128068 0.272498
v -0.184763 3.118496 0.272322
v -0.162492 3.133368 0.272595
v -0.166844 3.177532 0.273407
v 0.032895 3.083972 0.364800
v 0.018271 3.022799 0.331192
v 0.031236 3.082894 0.341286
v 0.017750 3.026440 0.310940
v -0.000000 3.010272 0.324766
v -0.000000 3.083189 0.366437
v -0.032895 3.083972 0.364800
v -0.018271 3.022799 0.331192
v -0.031236 3.082894 0.341286
v -0.000000 3.025790 0.310592
v -0.017750 3.026440 0.310940
vn 0.2983 0.5653 0.7690
vn -0.9815 0.0768 0.1756
vn -0.0101 -0.1749 0.9845
vn -0.7751 0.3041 0.5538
vn -0.5564 0.8255 0.0948
vn -0.8990 0.4271 0.0968
vn -0.4430 0.0764 0.8933
vn -0.0279 -0.2301 0.9728
vn 0.0969 -0.9930 0.0677
vn -0.2238 0.4596 0.8595
vn 0.0947 0.9765 0.1936
vn -0.2387 0.1059 0.9653
vn 0.6180 -0.7696 0.1604
vn 0.0804 0.1217 0.9893
vn -0.9405 0.1865 0.2839
vn 0.2705 0.6603 0.7006
vn 0.4617 0.2455 0.8524
vn 0.8112 -0.1014 0.5759
vn 0.3999 -0.3697 0.8387
vn -0.1054 -0.6034 0.7905
vn -0.4242 -0.4304 0.7967
vn -0.7532 -0.3817 0.5357
vn -0.9343 0.0385 0.3543
vn -0.0995 -0.5250 0.8453
vn -0.4895 0.5133 0.7049
vn 0.0509 -0.2311 0.9716
vn 0.3408 -0.2889 0.8946
vn 0.2450 0.3519 0.9034
vn 0.6447 0.7148 0.2708
vn -0.3811 0.9110 -0.1577
vn -0.9430 -0.3251 0.0717
vn -0.9910 -0.0020 0.1342
vn -0.6432 0.7360 0.2112
vn 0.9912 0.0483 0.1232
vn -0.7882 -0.1478 0.5975
vn -0.4726 0.6384 0.6075
vn -0.0414 -0.8421 0.5377
vn 0.6955 -0.0801 0.7141
vn 0.6291 -0.2316 0.7420
vn -0.0199 -0.6339 0.7731
vn 0.4359 0.6824 0.5868
vn -0.1243 -0.1502 0.9808
vn -0.8295 0.1657 0.5334
vn 0.0251 -0.9979 -0.0595
vn 0.3320 -0.9408 -0.0687
vn -0.2854 -0.9548 -0.0833
vn 0.6676 -0.7304 -0.1441
vn -0.5342 -0.8438 -0.0517
vn -0.6925 -0.7200 -0.0441
vn -0.7806 -0.6136 0.1193
vn -0.8713 -0.4811 -0.0974
vn -0.9999 -0.0155 -0.0029
vn -0.9730 0.1952 0.1234
vn -0.9699 0.2434 -0.0009
vn -0.7973 0.6030 0.0247
vn -0.4990 0.8659 0.0361
vn -0.1734 0.9831 0.0581
vn 0.0275 0.9979 0.0590
vn 0.2248 0.9727 0.0575
vn 0.4111 0.9100 0.0534
vn 0.6117 0.7904 0.0347
vn 0.8447 0.5344 0.0313
vn 0.9322 0.3613 0.0205
vn 0.9844 0.1754 0.0109
vn 0.9941 -0.0926 -0.0559
vn 0.9262 -0.3764 -0.0230
vn -0.0254 -0.9979 -0.0595
vn 0.0628 -0.9969 0.0481
vn -0.2212 -0.9735 -0.0578
vn 0.3216 -0.9430 -0.0861
vn -0.4383 -0.8971 -0.0555
vn -0.6450 -0.7576 0.1005
vn -0.7370 -0.6695 -0.0933
vn 0.4845 -0.8747 -0.0056
vn 0.5334 -0.8444 -0.0488
vn 0.6917 -0.7209 -0.0436
vn 0.8216 -0.5689 -0.0352
vn 0.9497 -0.3095 -0.0482
vn 0.9937 0.1105 -0.0168
vn 0.8445 0.3701 -0.3872
vn -0.0274 0.9979 0.0593
vn 0.8175 0.5575 -0.1446
vn -0.2244 0.9728 0.0570
vn -0.4110 0.9100 0.0539
vn -0.6113 0.7905 0.0392
vn -0.7244 0.6882 0.0394
vn -0.8446 0.5344 0.0315
vn -0.9322 0.3614 0.0207
vn -0.9845 0.1749 0.0105
vn -0.9893 -0.1399 -0.0407
vn -0.4498 -0.0082 0.8931
vn -0.5197 -0.4826 0.7050
vn -0.4774 -0.6622 0.5776
vn 0.7710 0.2842 0.5699
vn 0.1566 0.7408 0.6532
vn 0.6571 -0.5536 0.5117
vn -0.0000 0.9856 0.1690
vn 0.0392 0.9850 0.1681
vn 0.0390 0.9846 0.1704
vn -0.0000 0.9861 0.1660
vn -0.0390 0.9846 0.1704
vn -0.0392 0.9851 0.1676
vn -0.0255 -0.9987 0.0433
vn -0.0254 -0.9987 0.0433
vn 0.0254 -0.9987 0.0433
vn 0.0255 -0.9987 0.0433
vn -0.0000 -0.9991 0.0434
vn -0.1140 0.9139 0.3897
vn -0.6467 0.3389 0.6833
vn -0.9778 0.2008 0.0605
vn 0.9778 0.2008 0.0605
vn -0.6303 0.4359 0.6424
vn 0.5443 -0.6480 0.5328
vn 0.8697 0.1392 0.4735
vn 0.5764 0.3194 0.7522
vn 0.3549 0.5304 0.7699
vn -0.1597 0.4733 0.8663
vn 0.6093 -0.5834 0.5370
vn -0.4740 0.7089 0.5223
vn -0.1843 -0.7963 0.5762
vn -0.0338 -0.4873 0.8726
vn -0.0337 -0.4873 0.8726
vn -0.0000 -0.4874 0.8732
vn 0.0337 -0.4873 0.8726
vn 0.0338 -0.4873 0.8726
vn 0.8797 -0.1997 0.4317
vt 0.888859 0.277621
vt 0.957024 0.335752
vt 0.793716 0.469776
vt 0.777621 0.388859
vt 0.588072 0.088072
vt 0.542975 0.164248
vt 0.705324 0.025400
vt 0.664248 0.457025
vt 0.794676 0.474600
vt 0.705325 0.474601
vt 0.662365 0.038431
vt 0.750000 0.020999
vt 0.835752 0.042976
vt 0.563683 0.374493
vt 0.625507 0.063683
vt 0.957024 0.164248
vt 0.969776 0.293716
vt 0.888859 0.222379
vt 0.828657 0.132281
vt 0.722379 0.111141
vt 0.649888 0.149888
vt 0.611141 0.222379
vt 0.608420 0.250000
vt 0.632281 0.328658
vt 0.695820 0.380803
vt 0.828658 0.367719
vt 0.874493 0.436317
vt 0.706284 0.030224
vt 0.877226 0.059593
vt 0.794676 0.025399
vt 0.542976 0.335753
vt 0.525399 0.205324
vt 0.520999 0.250000
vt 0.837635 0.038431
vt 0.911928 0.088072
vt 0.538431 0.337635
vt 0.626746 0.274517
vt 0.626760 0.274514
vt 0.624331 0.250000
vt 0.632281 0.171343
vt 0.867719 0.171343
vt 0.874493 0.063683
vt 0.750000 0.391580
vt 0.000000 0.516502
vt 0.000000 0.723297
vt 0.031250 0.744864
vt 1.000000 0.723297
vt 1.000000 0.516502
vt 0.968750 0.516502
vt 0.968750 0.702676
vt 0.125000 0.516502
vt 0.093750 0.516502
vt 0.125000 0.784601
vt 0.937500 0.681135
vt 0.906250 0.516502
vt 0.906250 0.657383
vt 0.875000 0.636672
vt 0.875000 0.516502
vt 0.843750 0.516502
vt 0.843750 0.619092
vt 0.812500 0.516502
vt 0.750000 0.516502
vt 0.750000 0.576308
vt 0.781250 0.593328
vt 0.718750 0.516502
vt 0.718750 0.563738
vt 0.687500 0.516502
vt 0.687500 0.556102
vt 0.656250 0.516502
vt 0.656250 0.553693
vt 0.625000 0.516502
vt 0.593750 0.516502
vt 0.593750 0.553207
vt 0.625000 0.549909
vt 0.562500 0.516502
vt 0.531250 0.516502
vt 0.531250 0.580553
vt 0.562500 0.565094
vt 0.500000 0.516502
vt 0.500000 0.601789
vt 0.468750 0.516502
vt 0.468750 0.628160
vt 0.437500 0.516502
vt 0.437500 0.655988
vt 0.406250 0.516502
vt 0.406250 0.685327
vt 0.375000 0.516502
vt 0.375000 0.710446
vt 0.343750 0.516502
vt 0.343750 0.733201
vt 0.312500 0.516502
vt 0.312500 0.754682
vt 0.281250 0.516502
vt 0.281250 0.774062
vt 0.250000 0.516502
vt 0.250000 0.790598
vt 0.218750 0.795829
vt 0.218750 0.516502
vt 0.187500 0.516502
vt 0.187500 0.795492
vt 0.156250 0.516502
vt 0.156250 0.791701
vt 0.062500 0.516502
vt 0.062500 0.761685
vt 0.093750 0.774466
vt 0.031250 0.516502
vt 0.125000 0.784602
vt 0.937500 0.681136
vt 0.937500 0.516502
vt 0.812500 0.604544
vt 0.781250 0.593329
vt 0.781250 0.516502
vt 0.718750 0.563739
vt 0.625000 0.549910
vt 0.531250 0.580554
vt 0.398910 0.692728
vt 0.281250 0.774063
vt 0.961569 0.337635
vt 0.911928 0.411928
vt 0.835752 0.457024
vt 0.622774 0.440407
vt 0.559593 0.377226
vt 0.837635 0.461569
vt 0.961569 0.162365
vt 0.974600 0.205324
vt 0.862459 0.227631
vt 0.862459 0.272369
vt 0.851390 0.291997
vt 0.864662 0.250000
vt 0.857634 0.228590
vt 0.845338 0.313703
vt 0.588101 0.750000
vt 0.587119 0.758318
vt 0.562500 0.764186
vt 0.562500 0.750000
vt 0.750000 0.135338
vt 0.728590 0.142366
vt 0.813703 0.154662
vt 0.791997 0.148611
vt 0.728590 0.357635
vt 0.658752 0.310970
vt 0.642366 0.271410
vt 0.658752 0.189030
vt 0.708003 0.148611
vt 0.841248 0.310970
vt 0.810970 0.158752
vt 0.648611 0.208003
vt 0.648611 0.291997
vt 0.706121 0.355934
vt 0.686297 0.345338
s 1
f 19/1/1 6/2/2 4/3/3 18/4/4
f 37/5/5 38/6/6 36/7/7
f 16/8/8 4/9/3 17/10/9
f 12/11/10 11/12/11 10/13/12
f 15/14/13 13/6/14 12/15/10 10/13/12 8/16/15 6/17/2 19/1/1 20/18/16 21/19/17 22/20/18 23/21/19 1/22/20 2/23/21 3/24/22 24/25/23 18/4/4 4/3/3 16/8/8
f 25/1/24 44/26/25 30/27/26 31/2/27 32/17/28
f 36/28/7 34/29/29 35/30/30
f 40/31/31 38/32/6 39/33/32
f 10/34/12 9/35/33 8/16/15
f 15/36/13 14/32/34 13/6/14
f 27/37/35 48/38/36 47/39/37
f 47/40/37 46/20/38 26/19/39 45/41/40 25/1/24 32/17/28 33/16/41 34/42/29 36/28/7 38/6/6 40/31/31 42/8/42 30/27/26 44/26/25 43/43/43 48/24/36 27/23/35
f 17/44/9 50/45/44 88/46/45
f 50/47/44 17/48/9 4/49/3 65/50/46
f 15/51/13 16/52/8 61/53/47
f 65/54/46 4/55/3 73/56/48
f 76/57/49 73/56/48 4/55/3 5/58/50
f 76/57/49 5/59/50 72/60/51
f 72/60/51 5/59/50 6/61/2
f 6/62/2 86/63/52 72/64/51
f 6/62/2 7/65/53 82/66/54 86/63/52
f 82/66/54 7/65/53 8/67/15
f 82/68/54 8/69/15 85/70/55
f 8/69/15 9/71/33 85/70/55
f 9/72/33 68/73/56 85/74/55
f 9/72/33 10/75/12 68/73/56
f 10/76/12 52/77/57 68/78/56
f 11/79/11 55/80/58 52/77/57 10/76/12
f 55/80/58 11/81/11 60/82/59
f 60/82/59 11/81/11 12/83/10 67/84/60
f 67/84/60 12/85/10 74/86/61
f 74/86/61 12/85/10 13/87/14
f 74/88/61 13/89/14 77/90/62
f 77/90/62 13/91/14 79/92/63
f 79/92/63 13/91/14 14/93/34 80/94/64
f 80/94/64 14/95/34 84/96/65
f 84/97/65 14/98/34 15/99/13 64/100/66
f 64/100/66 15/101/13 61/102/47
f 16/103/8 88/104/45 61/105/47
f 16/103/8 17/106/9 88/104/45
f 57/45/67 28/44/68 42/106/42 54/46/69
f 56/50/70 28/48/68 57/47/67
f 69/105/71 41/51/72 81/107/73
f 56/108/70 29/109/74 28/49/68
f 63/56/75 30/55/26 29/109/74 56/108/70
f 71/57/76 30/55/26 63/56/75
f 75/60/77 31/59/27 30/58/26 71/57/76
f 83/110/78 31/59/27 75/60/77
f 83/111/78 32/112/28 31/61/27
f 87/63/79 32/112/28 83/111/78
f 33/67/41 32/65/28 87/113/79
f 89/114/80 34/71/29 33/69/41
f 35/75/30 34/72/29 89/73/80
f 51/80/81 36/79/7 35/76/30 90/115/82
f 59/82/83 36/79/7 51/80/81
f 49/84/84 37/83/5 36/81/7 59/82/83
f 53/86/85 37/83/5 49/84/84
f 58/88/86 37/85/5 53/116/85
f 62/90/87 38/89/6 37/87/5 58/88/86
f 66/92/88 38/89/6 62/90/87
f 70/117/89 38/91/6 66/92/88
f 78/96/90 39/95/32 38/93/6 70/117/89
f 78/97/90 40/98/31 39/95/32
f 81/100/73 40/98/31 78/97/90
f 81/107/73 41/51/72 40/101/31
f 69/104/71 42/103/42 41/52/72
f 54/46/69 42/103/42 69/104/71
f 6/118/2 5/119/50 4/120/3
f 41/121/72 42/8/42 40/122/31
f 28/9/68 29/123/74 30/27/26 42/10/42
f 6/17/2 8/124/15 7/125/53
f 97/126/91 96/127/92 95/128/93
f 101/129/94 105/130/95 104/131/96
f 118/132/97 119/133/98 116/133/99 113/132/100 110/133/101 112/133/102
f 115/134/103 117/134/104 111/134/105 109/134/106 114/135/107
f 102/136/108 106/137/109 105/138/95
f 110/133/110 109/134/110 111/134/110 112/133/110
f 116/133/111 119/133/111 117/134/111 115/134/111
f 98/139/112 97/130/91 95/128/93 94/140/113 93/141/114 92/142/115 91/143/116 99/144/117
f 103/140/118 104/145/96 105/146/95 106/137/109 107/147/119 108/148/120
f 117/134/121 119/133/122 118/132/123 112/133/124 111/134/125
f 93/141/114 94/149/113 100/150/126
