# Blender 4.2.2 LTS
# www.blender.org
o teal
v 0.155300 3.102962 0.320800
v 0.152310 3.117933 0.321547
v 0.155937 3.132860 0.320938
v 0.217762 3.180542 0.326669
v 0.241011 3.166795 0.326221
v 0.258667 3.130900 0.324194
v 0.261468 3.103618 0.323762
v 0.249703 3.078899 0.321840
v 0.230420 3.059694 0.320882
v 0.205225 3.049300 0.320364
v 0.177691 3.047865 0.320983
v 0.152008 3.058461 0.321511
v 0.133477 3.078899 0.321840
v 0.121698 3.117573 0.323768
v 0.134725 3.155454 0.325418
v 0.152760 3.175452 0.326653
v 0.177955 3.185847 0.327171
v 0.198124 3.151891 0.315531
v 0.220688 3.138499 0.315102
v 0.226585 3.119135 0.314136
v 0.216336 3.094489 0.312908
v 0.191590 3.084280 0.312399
v 0.171395 3.088922 0.313320
v 0.172148 3.148115 0.315581
v -0.230180 3.118151 0.320205
v -0.206358 3.082641 0.318435
v -0.153741 3.125649 0.320579
v -0.205225 3.185847 0.327171
v -0.219621 3.184231 0.331707
v -0.241011 3.166795 0.326221
v -0.259043 3.144899 0.328246
v -0.262836 3.117462 0.324452
v -0.259263 3.088911 0.326955
v -0.230420 3.059694 0.320882
v -0.219621 3.049428 0.324987
v -0.191590 3.046501 0.320915
v -0.152760 3.059694 0.320882
v -0.128405 3.091545 0.322232
v -0.121698 3.117573 0.323768
v -0.128405 3.143678 0.324831
v -0.152760 3.175452 0.326653
v -0.177955 3.185847 0.327171
v -0.198417 3.153321 0.315841
v -0.219439 3.137707 0.314824
v -0.216335 3.094489 0.312908
v -0.184763 3.084950 0.312432
v -0.162492 3.099771 0.313171
v -0.166844 3.143781 0.315365
v -0.163559 3.042824 0.365692
v 0.191590 3.179993 0.392331
v -0.191590 3.039837 0.349599
v 0.205880 3.042244 0.343472
v -0.150895 3.048177 0.374590
v -0.177300 3.177570 0.398555
v 0.191590 3.039837 0.349599
v -0.219621 3.176436 0.379751
v -0.191590 3.179993 0.392331
v -0.139795 3.056061 0.382372
v -0.177300 3.039990 0.357365
v 0.177300 3.039990 0.357365
v 0.139795 3.155723 0.409156
v -0.130685 3.066038 0.389564
v -0.232285 3.170819 0.372483
v 0.123917 3.131539 0.411154
v 0.207349 3.179220 0.385632
v -0.123916 3.077635 0.396461
v 0.163559 3.042824 0.365692
v 0.219621 3.047127 0.339168
v -0.150895 3.165275 0.406650
v -0.119748 3.090403 0.402799
v -0.243385 3.162727 0.365987
v 0.259263 3.140580 0.355431
v 0.232285 3.170819 0.372483
v 0.139795 3.056061 0.382372
v -0.252494 3.152504 0.360306
v 0.243385 3.162727 0.365987
v 0.130686 3.066038 0.389564
v -0.119748 3.117837 0.410570
v 0.123917 3.077635 0.396461
v 0.119748 3.090403 0.402799
v -0.130685 3.144332 0.410676
v 0.259263 3.087036 0.338512
v -0.263431 3.127425 0.351476
v 0.118341 3.103852 0.408333
v 0.243385 3.063661 0.335525
v 0.264839 3.113998 0.345800
v -0.264839 3.113998 0.345800
v 0.163559 3.172622 0.403256
v -0.243385 3.063661 0.335525
v -0.205880 3.042244 0.343472
v 0.155300 3.102962 0.320800
v 0.152310 3.117933 0.321547
v 0.155937 3.132860 0.320938
v 0.198124 3.151891 0.315531
v 0.220688 3.138499 0.315102
v 0.226585 3.119135 0.314136
v 0.216336 3.094489 0.312908
v 0.191590 3.084280 0.312399
v 0.171395 3.088922 0.313320
v 0.172148 3.148115 0.315581
v -0.230180 3.118151 0.320205
v -0.206358 3.082641 0.318435
v -0.198417 3.153321 0.315841
v -0.219439 3.137707 0.314824
v -0.216335 3.094489 0.312908
v -0.184763 3.084950 0.312432
v -0.162492 3.099771 0.313171
v -0.166844 3.143781 0.315365
v 0.032895 3.041054 0.403682
v 0.018271 2.983405 0.368211
v 0.031236 3.042375 0.380172
v 0.017750 2.989105 0.348105
v -0.000000 2.971552 0.361403
v -0.000000 3.040106 0.405291
v -0.032895 3.041054 0.403682
v -0.018271 2.983405 0.368211
v -0.031236 3.042375 0.380172
v -0.000000 2.988491 0.347738
v -0.017750 2.989105 0.348105
vn 0.2946 0.5372 0.7903
vn -0.9825 0.0669 0.1739
vn -0.0155 -0.2513 0.9678
vn -0.7753 0.2855 0.5633
vn -0.5604 0.8172 0.1348
vn -0.8989 0.4223 0.1168
vn -0.4416 0.0061 0.8972
vn -0.0142 -0.2951 0.9554
vn 0.0928 -0.9956 0.0138
vn -0.2414 0.4059 0.8815
vn 0.0893 0.9646 0.2482
vn -0.2381 0.0378 0.9705
vn 0.6154 -0.7784 0.1243
vn 0.0621 0.0735 0.9954
vn -0.9377 0.1690 0.3037
vn 0.2702 0.6381 0.7210
vn 0.4618 0.2183 0.8597
vn 0.8112 -0.1197 0.5724
vn 0.4012 -0.3933 0.8273
vn -0.0974 -0.6299 0.7706
vn -0.4240 -0.4554 0.7829
vn -0.7514 -0.4009 0.5241
vn -0.9350 0.0176 0.3541
vn -0.0945 -0.5531 0.8277
vn -0.4914 0.4886 0.7210
vn 0.0744 -0.2845 0.9558
vn 0.3536 -0.3254 0.8770
vn 0.2443 0.3115 0.9183
vn 0.6435 0.6976 0.3150
vn -0.3844 0.9168 -0.1081
vn -0.9410 -0.3347 0.0494
vn -0.9911 -0.0112 0.1326
vn -0.6433 0.7215 0.2561
vn 0.9919 0.0376 0.1214
vn -0.7902 -0.1602 0.5915
vn -0.4728 0.6190 0.6271
vn -0.0428 -0.8582 0.5116
vn 0.6956 -0.1005 0.7113
vn 0.6317 -0.2444 0.7357
vn -0.0273 -0.6582 0.7524
vn 0.4302 0.6649 0.6105
vn -0.1226 -0.2236 0.9669
vn -0.8293 0.1498 0.5384
vn 0.0246 -0.9867 -0.1604
vn 0.3316 -0.9297 -0.1604
vn -0.2850 -0.9412 -0.1812
vn 0.6658 -0.7150 -0.2131
vn -0.5334 -0.8343 -0.1394
vn -0.6937 -0.7104 -0.1189
vn -0.7996 -0.5942 0.0870
vn -0.8708 -0.4707 -0.1422
vn -0.9999 -0.0115 -0.0076
vn -0.9698 0.2052 0.1317
vn -0.9683 0.2481 0.0288
vn -0.7936 0.6021 0.0877
vn -0.4961 0.8596 0.1226
vn -0.1725 0.9729 0.1543
vn 0.0272 0.9872 0.1570
vn 0.2216 0.9629 0.1538
vn 0.4074 0.9020 0.1432
vn 0.6063 0.7878 0.1085
vn 0.8411 0.5343 0.0846
vn 0.9300 0.3634 0.0557
vn 0.9835 0.1786 0.0298
vn 0.9944 -0.0822 -0.0659
vn 0.9275 -0.3688 -0.0613
vn -0.0257 -0.9868 -0.1602
vn 0.0663 -0.9977 -0.0116
vn -0.2209 -0.9628 -0.1556
vn 0.3218 -0.9293 -0.1810
vn -0.4391 -0.8878 -0.1381
vn -0.6628 -0.7464 0.0598
vn -0.7376 -0.6583 -0.1500
vn 0.4874 -0.8708 -0.0640
vn 0.5310 -0.8370 -0.1319
vn 0.6914 -0.7129 -0.1175
vn 0.8222 -0.5614 -0.0945
vn 0.9500 -0.3037 -0.0728
vn 0.9931 0.1168 -0.0129
vn 0.8503 0.3989 -0.3434
vn -0.0270 0.9871 0.1581
vn 0.8189 0.5680 -0.0823
vn -0.2205 0.9635 0.1518
vn -0.4069 0.9021 0.1438
vn -0.6065 0.7862 0.1186
vn -0.7194 0.6865 0.1060
vn -0.8410 0.5343 0.0850
vn -0.9299 0.3635 0.0563
vn -0.9837 0.1777 0.0288
vn -0.9904 -0.1268 -0.0543
vn -0.4496 -0.0359 0.8925
vn -0.5200 -0.5042 0.6895
vn -0.4769 -0.6804 0.5565
vn 0.7686 0.2701 0.5799
vn 0.1544 0.7191 0.6775
vn 0.6588 -0.5674 0.4941
vn -0.0000 0.9684 0.2493
vn 0.0396 0.9682 0.2469
vn 0.0390 0.9666 0.2534
vn -0.0000 0.9706 0.2408
vn -0.0390 0.9666 0.2534
vn -0.0396 0.9684 0.2464
vn -0.0255 -0.9980 -0.0585
vn -0.0254 -0.9980 -0.0585
vn 0.0254 -0.9980 -0.0585
vn 0.0255 -0.9980 -0.0585
vn -0.0000 -0.9983 -0.0584
vn -0.1127 0.8933 0.4350
vn -0.6513 0.3068 0.6940
vn -0.9768 0.1984 0.0808
vn 0.9768 0.1984 0.0808
vn -0.6312 0.4138 0.6561
vn 0.5447 -0.6642 0.5121
vn 0.8683 0.1321 0.4781
vn 0.5763 0.2959 0.7618
vn 0.3527 0.5078 0.7860
vn -0.1666 0.4414 0.8817
vn 0.6094 -0.5999 0.5184
vn -0.4740 0.6921 0.5443
vn -0.1841 -0.8140 0.5509
vn -0.0337 -0.5292 0.8478
vn -0.0336 -0.5292 0.8478
vn -0.0000 -0.5293 0.8484
vn 0.0336 -0.5292 0.8478
vn 0.0337 -0.5292 0.8478
vn 0.8812 -0.2158 0.4206
vt 0.888859 0.277621
vt 0.957024 0.335752
vt 0.793716 0.469776
vt 0.777621 0.388859
vt 0.588072 0.088072
vt 0.542975 0.164248
vt 0.705324 0.025400
vt 0.664248 0.457025
vt 0.794676 0.474600
vt 0.705325 0.474601
vt 0.662365 0.038431
vt 0.750000 0.020999
vt 0.835752 0.042976
vt 0.563683 0.374493
vt 0.625507 0.063683
vt 0.957024 0.164248
vt 0.969776 0.293716
vt 0.888859 0.222379
vt 0.828657 0.132281
vt 0.722379 0.111141
vt 0.649888 0.149888
vt 0.611141 0.222379
vt 0.608420 0.250000
vt 0.632281 0.328658
vt 0.695820 0.380803
vt 0.828658 0.367719
vt 0.874493 0.436317
vt 0.706284 0.030224
vt 0.877226 0.059593
vt 0.794676 0.025399
vt 0.542976 0.335753
vt 0.525399 0.205324
vt 0.520999 0.250000
vt 0.837635 0.038431
vt 0.911928 0.088072
vt 0.538431 0.337635
vt 0.626746 0.274517
vt 0.626760 0.274514
vt 0.624331 0.250000
vt 0.632281 0.171343
vt 0.867719 0.171343
vt 0.874493 0.063683
vt 0.750000 0.391580
vt 0.000000 0.516502
vt 0.000000 0.723297
vt 0.031250 0.744864
vt 1.000000 0.723297
vt 1.000000 0.516502
vt 0.968750 0.516502
vt 0.968750 0.702676
vt 0.125000 0.516502
vt 0.093750 0.516502
vt 0.125000 0.784601
vt 0.937500 0.681135
vt 0.906250 0.516502
vt 0.906250 0.657383
vt 0.875000 0.636672
vt 0.875000 0.516502
vt 0.843750 0.516502
vt 0.843750 0.619092
vt 0.812500 0.516502
vt 0.750000 0.516502
vt 0.750000 0.576308
vt 0.781250 0.593328
vt 0.718750 0.516502
vt 0.718750 0.563738
vt 0.687500 0.516502
vt 0.687500 0.556102
vt 0.656250 0.516502
vt 0.656250 0.553693
vt 0.625000 0.516502
vt 0.593750 0.516502
vt 0.593750 0.553207
vt 0.625000 0.549909
vt 0.562500 0.516502
vt 0.531250 0.516502
vt 0.531250 0.580553
vt 0.562500 0.565094
vt 0.500000 0.516502
vt 0.500000 0.601789
vt 0.468750 0.516502
vt 0.468750 0.628160
vt 0.437500 0.516502
vt 0.437500 0.655988
vt 0.406250 0.516502
vt 0.406250 0.685327
vt 0.375000 0.516502
vt 0.375000 0.710446
vt 0.343750 0.516502
vt 0.343750 0.733201
vt 0.312500 0.516502
vt 0.312500 0.754682
vt 0.281250 0.516502
vt 0.281250 0.774062
vt 0.250000 0.516502
vt 0.250000 0.790598
vt 0.218750 0.795829
vt 0.218750 0.516502
vt 0.187500 0.516502
vt 0.187500 0.795492
vt 0.156250 0.516502
vt 0.156250 0.791701
vt 0.062500 0.516502
vt 0.062500 0.761685
vt 0.093750 0.774466
vt 0.031250 0.516502
vt 0.125000 0.784602
vt 0.937500 0.681136
vt 0.937500 0.516502
vt 0.812500 0.604544
vt 0.781250 0.593329
vt 0.781250 0.516502
vt 0.718750 0.563739
vt 0.625000 0.549910
vt 0.531250 0.580554
vt 0.398910 0.692728
vt 0.281250 0.774063
vt 0.961569 0.337635
vt 0.911928 0.411928
vt 0.835752 0.457024
vt 0.622774 0.440407
vt 0.559593 0.377226
vt 0.837635 0.461569
vt 0.961569 0.162365
vt 0.974600 0.205324
vt 0.862459 0.227631
vt 0.862459 0.272369
vt 0.851390 0.291997
vt 0.864662 0.250000
vt 0.857634 0.228590
vt 0.845338 0.313703
vt 0.588101 0.750000
vt 0.587119 0.758318
vt 0.562500 0.764186
vt 0.562500 0.750000
vt 0.750000 0.135338
vt 0.728590 0.142366
vt 0.813703 0.154662
vt 0.791997 0.148611
vt 0.728590 0.357635
vt 0.658752 0.310970
vt 0.642366 0.271410
vt 0.658752 0.189030
vt 0.708003 0.148611
vt 0.841248 0.310970
vt 0.810970 0.158752
vt 0.648611 0.208003
vt 0.648611 0.291997
vt 0.706121 0.355934
vt 0.686297 0.345338
s 1
f 19/1/1 6/2/2 4/3/3 18/4/4
f 37/5/5 38/6/6 36/7/7
f 16/8/8 4/9/3 17/10/9
f 12/11/10 11/12/11 10/13/12
f 15/14/13 13/6/14 12/15/10 10/13/12 8/16/15 6/17/2 19/1/1 20/18/16 21/19/17 22/20/18 23/21/19 1/22/20 2/23/21 3/24/22 24/25/23 18/4/4 4/3/3 16/8/8
f 25/1/24 44/26/25 30/27/26 31/2/27 32/17/28
f 36/28/7 34/29/29 35/30/30
f 40/31/31 38/32/6 39/33/32
f 10/34/12 9/35/33 8/16/15
f 15/36/13 14/32/34 13/6/14
f 27/37/35 48/38/36 47/39/37
f 47/40/37 46/20/38 26/19/39 45/41/40 25/1/24 32/17/28 33/16/41 34/42/29 36/28/7 38/6/6 40/31/31 42/8/42 30/27/26 44/26/25 43/43/43 48/24/36 27/23/35
f 17/44/9 50/45/44 88/46/45
f 50/47/44 17/48/9 4/49/3 65/50/46
f 15/51/13 16/52/8 61/53/47
f 65/54/46 4/55/3 73/56/48
f 76/57/49 73/56/48 4/55/3 5/58/50
f 76/57/49 5/59/50 72/60/51
f 72/60/51 5/59/50 6/61/2
f 6/62/2 86/63/52 72/64/51
f 6/62/2 7/65/53 82/66/54 86/63/52
f 82/66/54 7/65/53 8/67/15
f 82/68/54 8/69/15 85/70/55
f 8/69/15 9/71/33 85/70/55
f 9/72/33 68/73/56 85/74/55
f 9/72/33 10/75/12 68/73/56
f 10/76/12 52/77/57 68/78/56
f 11/79/11 55/80/58 52/77/57 10/76/12
f 55/80/58 11/81/11 60/82/59
f 60/82/59 11/81/11 12/83/10 67/84/60
f 67/84/60 12/85/10 74/86/61
f 74/86/61 12/85/10 13/87/14
f 74/88/61 13/89/14 77/90/62
f 77/90/62 13/91/14 79/92/63
f 79/92/63 13/91/14 14/93/34 80/94/64
f 80/94/64 14/95/34 84/96/65
f 84/97/65 14/98/34 15/99/13 64/100/66
f 64/100/66 15/101/13 61/102/47
f 16/103/8 88/104/45 61/105/47
f 16/103/8 17/106/9 88/104/45
f 57/45/67 28/44/68 42/106/42 54/46/69
f 56/50/70 28/48/68 57/47/67
f 69/105/71 41/51/72 81/107/73
f 56/108/70 29/109/74 28/49/68
f 63/56/75 30/55/26 29/109/74 56/108/70
f 71/57/76 30/55/26 63/56/75
f 75/60/77 31/59/27 30/58/26 71/57/76
f 83/110/78 31/59/27 75/60/77
f 83/111/78 32/112/28 31/61/27
f 87/63/79 32/112/28 83/111/78
f 33/67/41 32/65/28 87/113/79
f 89/114/80 34/71/29 33/69/41
f 35/75/30 34/72/29 89/73/80
f 51/80/81 36/79/7 35/76/30 90/115/82
f 59/82/83 36/79/7 51/80/81
f 49/84/84 37/83/5 36/81/7 59/82/83
f 53/86/85 37/83/5 49/84/84
f 58/88/86 37/85/5 53/116/85
f 62/90/87 38/89/6 37/87/5 58/88/86
f 66/92/88 38/89/6 62/90/87
f 70/117/89 38/91/6 66/92/88
f 78/96/90 39/95/32 38/93/6 70/117/89
f 78/97/90 40/98/31 39/95/32
f 81/100/73 40/98/31 78/97/90
f 81/107/73 41/51/72 40/101/31
f 69/104/71 42/103/42 41/52/72
f 54/46/69 42/103/42 69/104/71
f 6/118/2 5/119/50 4/120/3
f 41/121/72 42/8/42 40/122/31
f 28/9/68 29/123/74 30/27/26 42/10/42
f 6/17/2 8/124/15 7/125/53
f 97/126/91 96/127/92 95/128/93
f 101/129/94 105/130/95 104/131/96
f 118/132/97 119/133/98 116/133/99 113/132/100 110/133/101 112/133/102
f 115/134/103 117/134/104 111/134/105 109/134/106 114/135/107
f 102/136/108 106/137/109 105/138/95
f 110/133/110 109/134/110 111/134/110 112/133/110
f 116/133/111 119/133/111 117/134/111 115/134/111
f 98/139/112 97/130/91 95/128/93 94/140/113 93/141/114 92/142/115 91/143/116 99/144/117
f 103/140/118 104/145/96 105/146/95 106/137/109 107/147/119 108/148/120
f 117/134/121 119/133/122 118/132/123 112/133/124 111/134/125
f 93/141/114 94/149/113 100/150/126
