# Blender 4.2.2 LTS
# www.blender.org
mtllib Nao6_Body_Red.mtl
o Nao6_Body_Red
v 0.001715 2.258286 1.269034
v -0.016405 2.260031 1.269410
v 0.019834 2.260031 1.269410
v 0.037257 2.265198 1.270524
v 0.053315 2.273588 1.272332
v 0.067389 2.284879 1.274765
v 0.078939 2.298638 1.277730
v 0.087522 2.314334 1.281113
v 0.092807 2.331367 1.284784
v 0.094592 2.349079 1.288601
v -0.084093 2.314334 1.281113
v -0.075510 2.298638 1.277730
v -0.089378 2.331367 1.284784
v -0.091163 2.349080 1.288601
v -0.089378 2.366792 1.292418
v 0.092808 2.366792 1.292418
v 0.087522 2.383824 1.296089
v 0.078939 2.399521 1.299472
v 0.067389 2.413280 1.302437
v 0.053315 2.424571 1.304870
v -0.049885 2.424571 1.304870
v -0.063960 2.413280 1.302437
v -0.033828 2.432961 1.306678
v -0.016405 2.438128 1.307792
v 0.001715 2.439873 1.308168
v 0.019834 2.438128 1.307792
v 0.037257 2.432961 1.306678
v -0.075510 2.399521 1.299472
v -0.084093 2.383824 1.296089
v -0.063960 2.284879 1.274765
v -0.049885 2.273588 1.272332
v -0.033828 2.265198 1.270524
vn -0.0000 0.2107 -0.9776
vt 0.616663 0.050447
vt 0.580294 0.080294
vt 0.550447 0.116663
vt 0.528269 0.158156
vt 0.514611 0.203179
vt 0.510000 0.250000
vt 0.514612 0.296822
vt 0.528269 0.341844
vt 0.550447 0.383337
vt 0.580295 0.419706
vt 0.616663 0.449553
vt 0.658156 0.471731
vt 0.703179 0.485389
vt 0.750000 0.490000
vt 0.796822 0.485388
vt 0.841844 0.471731
vt 0.883337 0.449553
vt 0.919706 0.419706
vt 0.949553 0.383337
vt 0.971731 0.341844
vt 0.985388 0.296822
vt 0.990000 0.250000
vt 0.985388 0.203178
vt 0.971731 0.158156
vt 0.949553 0.116663
vt 0.919706 0.080294
vt 0.883337 0.050447
vt 0.841844 0.028269
vt 0.796822 0.014612
vt 0.750000 0.010000
vt 0.703178 0.014612
vt 0.658156 0.028269
s 1
usemtl ROJO.001
f 20/1/1 19/2/1 18/3/1 17/4/1 16/5/1 10/6/1 9/7/1 8/8/1 7/9/1 6/10/1 5/11/1 4/12/1 3/13/1 1/14/1 2/15/1 32/16/1 31/17/1 30/18/1 12/19/1 11/20/1 13/21/1 14/22/1 15/23/1 29/24/1 28/25/1 22/26/1 21/27/1 23/28/1 24/29/1 25/30/1 26/31/1 27/32/1
