# Blender 4.2.2 LTS
# www.blender.org
o Teal
v 0.174234 3.131901 0.283515
v 0.171461 3.146969 0.283830
v 0.175303 3.161757 0.282793
v 0.217752 3.179562 0.276847
v 0.240119 3.165779 0.276803
v 0.245735 3.146256 0.276395
v 0.235130 3.121699 0.275876
v 0.210239 3.111864 0.275662
v 0.190115 3.116918 0.276448
v 0.191724 3.176224 0.277005
v -0.210982 3.153348 0.282483
v -0.187677 3.117333 0.281736
v -0.178721 3.187536 0.277114
v -0.199967 3.172196 0.276548
v -0.197490 3.128811 0.275876
v -0.166059 3.118723 0.275675
v -0.143576 3.133224 0.275987
v -0.147290 3.177447 0.276914
v 0.051063 3.079846 0.368064
v 0.035561 3.019205 0.334297
v 0.049391 3.078994 0.344547
v 0.035095 3.023025 0.314055
v 0.017112 3.007033 0.327839
v 0.018160 3.079591 0.369698
v -0.014720 3.080927 0.368064
v -0.000976 3.019805 0.334297
v -0.013073 3.080021 0.344547
v 0.017338 3.022669 0.313706
v -0.000400 3.023608 0.314055
v 0.174234 3.131901 0.283515
v 0.171461 3.146969 0.283830
v 0.175303 3.161757 0.282793
v 0.237816 3.208890 0.287146
v 0.260863 3.194739 0.287094
v 0.277996 3.158416 0.286101
v 0.280403 3.131088 0.286453
v 0.268280 3.106419 0.285244
v 0.248721 3.087469 0.284840
v 0.223379 3.077456 0.284621
v 0.195828 3.076534 0.285280
v 0.170302 3.087586 0.285503
v 0.152068 3.108329 0.285244
v 0.140851 3.147320 0.286058
v 0.154425 3.185086 0.286618
v 0.172748 3.204874 0.287276
v 0.198090 3.214887 0.287495
v 0.217752 3.179562 0.276847
v 0.240119 3.165779 0.276803
v 0.245735 3.146256 0.276395
v 0.235130 3.121699 0.275876
v 0.210239 3.111864 0.275662
v 0.190115 3.116918 0.276448
v 0.191724 3.176224 0.277005
v -0.210982 3.153348 0.282483
v -0.187677 3.117333 0.281736
v -0.134443 3.159613 0.282641
v -0.185044 3.221186 0.287495
v -0.199456 3.220233 0.292071
v -0.221102 3.202662 0.287094
v -0.239445 3.181283 0.289745
v -0.243638 3.153594 0.286744
v -0.240474 3.125260 0.290065
v -0.212064 3.095043 0.284840
v -0.201409 3.084999 0.289234
v -0.173429 3.081235 0.285251
v -0.134413 3.093767 0.284840
v -0.109600 3.125297 0.285273
v -0.102516 3.151321 0.286058
v -0.108845 3.177598 0.286370
v -0.132736 3.209896 0.287276
v -0.157777 3.220737 0.287495
v -0.178721 3.187536 0.277114
v -0.199967 3.172196 0.276548
v -0.197490 3.128811 0.275876
v -0.166059 3.118723 0.275675
v -0.143576 3.133224 0.275987
v -0.147290 3.177447 0.276914
v -0.145394 3.081290 0.330074
v 0.211727 3.214913 0.352736
v -0.173486 3.077263 0.314088
v 0.223963 3.072561 0.307901
v -0.132642 3.087259 0.338807
v -0.157146 3.219138 0.359021
v 0.209648 3.070965 0.314089
v -0.199503 3.216943 0.340275
v -0.171407 3.221211 0.352736
v -0.121419 3.095676 0.346351
v -0.159185 3.077907 0.321839
v 0.195373 3.072079 0.321840
v 0.159611 3.193102 0.370235
v -0.112157 3.106163 0.353247
v -0.212256 3.210862 0.333178
v 0.143389 3.169402 0.372926
v 0.227464 3.213255 0.346068
v -0.105212 3.118275 0.359801
v 0.181685 3.075913 0.330074
v 0.237767 3.076808 0.303462
v -0.130910 3.207184 0.367458
v -0.100852 3.131549 0.365764
v -0.223481 3.202357 0.326923
v 0.278774 3.170994 0.317018
v 0.252258 3.203226 0.333178
v 0.158138 3.091081 0.346352
v -0.232744 3.191768 0.321543
v 0.263232 3.194356 0.326923
v 0.149183 3.101866 0.353247
v -0.100446 3.159670 0.372736
v 0.142592 3.114202 0.359801
v 0.138616 3.127613 0.365764
v -0.110999 3.186316 0.372081
v 0.277979 3.115946 0.301660
v -0.244053 3.166079 0.313446
v 0.137410 3.141583 0.370904
v 0.261762 3.092587 0.299349
v 0.283953 3.143458 0.308163
v -0.245662 3.152165 0.308163
v 0.183608 3.209035 0.363858
v -0.224950 3.100588 0.299349
v -0.187748 3.079329 0.307900
vn -0.4499 -0.0032 0.8931
vn -0.5268 -0.4767 0.7037
vn -0.4874 -0.6564 0.5759
vn 0.7749 0.2717 0.5707
vn 0.1676 0.7366 0.6553
vn 0.6487 -0.5647 0.5103
vn 0.0162 0.9843 0.1759
vn 0.0553 0.9830 0.1749
vn 0.0551 0.9826 0.1775
vn 0.0162 0.9849 0.1724
vn -0.0230 0.9839 0.1775
vn -0.0231 0.9844 0.1743
vn -0.0419 -0.9985 0.0349
vn -0.0418 -0.9985 0.0349
vn 0.0090 -0.9994 0.0349
vn 0.0091 -0.9994 0.0349
vn -0.0164 -0.9993 0.0350
vn -0.0994 0.9139 0.3936
vn -0.6416 0.3468 0.6842
vn -0.9747 0.2148 0.0622
vn 0.9805 0.1864 0.0621
vn -0.6232 0.4444 0.6435
vn 0.5339 -0.6579 0.5312
vn 0.8716 0.1255 0.4738
vn 0.5809 0.3091 0.7531
vn 0.3624 0.5232 0.7713
vn -0.1529 0.4733 0.8675
vn 0.5998 -0.5946 0.5355
vn -0.4635 0.7144 0.5241
vn -0.1961 -0.7949 0.5741
vn -0.0418 -0.4901 0.8707
vn -0.0417 -0.4901 0.8707
vn -0.0081 -0.4908 0.8713
vn 0.0256 -0.4911 0.8707
vn 0.0257 -0.4911 0.8707
vn 0.8765 -0.2153 0.4307
vn 0.3065 0.5582 0.7710
vn -0.9803 0.0907 0.1755
vn -0.0141 -0.1806 0.9834
vn -0.7701 0.3150 0.5547
vn -0.5439 0.8334 0.0982
vn -0.8924 0.4404 0.0986
vn -0.4416 0.0778 0.8939
vn -0.0301 -0.2350 0.9715
vn 0.0804 -0.9948 0.0632
vn -0.2182 0.4587 0.8614
vn 0.1102 0.9740 0.1981
vn -0.2370 0.1042 0.9659
vn 0.6064 -0.7794 0.1574
vn 0.0804 0.1166 0.9899
vn -0.9374 0.1990 0.2859
vn 0.2801 0.6544 0.7023
vn 0.4653 0.2363 0.8530
vn 0.8094 -0.1160 0.5756
vn 0.3939 -0.3782 0.8377
vn -0.1140 -0.6039 0.7889
vn -0.4304 -0.4263 0.7956
vn -0.7586 -0.3722 0.5347
vn -0.9337 0.0515 0.3544
vn -0.1071 -0.5257 0.8439
vn -0.4818 0.5188 0.7062
vn 0.0492 -0.2364 0.9704
vn 0.3376 -0.2971 0.8932
vn 0.2507 0.3462 0.9040
vn 0.6557 0.7034 0.2743
vn -0.3667 0.9176 -0.1538
vn -0.9475 -0.3120 0.0698
vn -0.9909 0.0116 0.1341
vn -0.6316 0.7449 0.2151
vn 0.9918 0.0329 0.1231
vn -0.7905 -0.1370 0.5969
vn -0.4624 0.6442 0.6093
vn -0.0546 -0.8427 0.5355
vn 0.6941 -0.0928 0.7139
vn 0.6254 -0.2429 0.7415
vn -0.0303 -0.6357 0.7713
vn 0.4454 0.6744 0.5888
vn -0.1267 -0.1542 0.9799
vn -0.8267 0.1775 0.5339
vn 0.0088 -0.9977 -0.0679
vn 0.3170 -0.9454 -0.0764
vn -0.3010 -0.9492 -0.0915
vn 0.6563 -0.7395 -0.1499
vn -0.5476 -0.8346 -0.0590
vn -0.7038 -0.7086 -0.0504
vn -0.7916 -0.5999 0.1164
vn -0.8783 -0.4673 -0.1012
vn -1.0000 -0.0006 -0.0033
vn -0.9698 0.2102 0.1241
vn -0.9661 0.2582 0.0016
vn -0.7876 0.6154 0.0302
vn -0.4848 0.8735 0.0435
vn -0.1573 0.9853 0.0662
vn 0.0438 0.9968 0.0672
vn 0.2403 0.9685 0.0655
vn 0.4253 0.9030 0.0608
vn 0.6234 0.7809 0.0407
vn 0.8523 0.5218 0.0356
vn 0.9373 0.3478 0.0233
vn 0.9868 0.1614 0.0124
vn 0.9927 -0.1062 -0.0567
vn 0.9206 -0.3895 -0.0262
vn -0.0418 -0.9968 -0.0679
vn 0.0467 -0.9980 0.0433
vn -0.2370 -0.9693 -0.0660
vn 0.3064 -0.9473 -0.0940
vn -0.4525 -0.8896 -0.0624
vn -0.6585 -0.7463 0.0971
vn -0.7470 -0.6575 -0.0981
vn 0.4706 -0.8823 -0.0104
vn 0.5200 -0.8524 -0.0557
vn 0.6805 -0.7311 -0.0497
vn 0.8131 -0.5808 -0.0401
vn 0.9451 -0.3228 -0.0503
vn 0.9952 0.0966 -0.0166
vn 0.8506 0.3593 -0.3838
vn -0.0111 0.9977 0.0676
vn 0.8266 0.5452 -0.1396
vn -0.2083 0.9759 0.0650
vn -0.3961 0.9161 0.0615
vn -0.5985 0.7998 0.0460
vn -0.7135 0.6992 0.0451
vn -0.8363 0.5471 0.0361
vn -0.9266 0.3753 0.0237
vn -0.9818 0.1895 0.0120
vn -0.9914 -0.1244 -0.0419
vt 0.862459 0.227631
vt 0.862459 0.272369
vt 0.851390 0.291997
vt 0.864662 0.250000
vt 0.857634 0.228590
vt 0.845338 0.313703
vt 0.588101 0.750000
vt 0.587119 0.758318
vt 0.562500 0.764186
vt 0.562500 0.750000
vt 0.750000 0.135338
vt 0.728590 0.142366
vt 0.813703 0.154662
vt 0.791997 0.148611
vt 0.728590 0.357635
vt 0.658752 0.310970
vt 0.642366 0.271410
vt 0.658752 0.189030
vt 0.708003 0.148611
vt 0.841248 0.310970
vt 0.810970 0.158752
vt 0.648611 0.208003
vt 0.648611 0.291997
vt 0.706121 0.355934
vt 0.686297 0.345338
vt 0.888859 0.277621
vt 0.957024 0.335752
vt 0.793716 0.469776
vt 0.777621 0.388859
vt 0.588072 0.088072
vt 0.542975 0.164248
vt 0.705324 0.025400
vt 0.664248 0.457025
vt 0.794676 0.474600
vt 0.705325 0.474601
vt 0.662365 0.038431
vt 0.750000 0.020999
vt 0.835752 0.042976
vt 0.563683 0.374493
vt 0.625507 0.063683
vt 0.957024 0.164248
vt 0.969776 0.293716
vt 0.888859 0.222379
vt 0.828657 0.132281
vt 0.722379 0.111141
vt 0.649888 0.149888
vt 0.611141 0.222379
vt 0.608420 0.250000
vt 0.632281 0.328658
vt 0.695820 0.380803
vt 0.828658 0.367719
vt 0.874493 0.436317
vt 0.706284 0.030224
vt 0.877226 0.059593
vt 0.794676 0.025399
vt 0.542976 0.335753
vt 0.525399 0.205324
vt 0.520999 0.250000
vt 0.837635 0.038431
vt 0.911928 0.088072
vt 0.538431 0.337635
vt 0.626746 0.274517
vt 0.626760 0.274514
vt 0.624331 0.250000
vt 0.632281 0.171343
vt 0.867719 0.171343
vt 0.874493 0.063683
vt 0.750000 0.391580
vt 0.000000 0.516502
vt 0.000000 0.723297
vt 0.031250 0.744864
vt 1.000000 0.723297
vt 1.000000 0.516502
vt 0.968750 0.516502
vt 0.968750 0.702676
vt 0.125000 0.516502
vt 0.093750 0.516502
vt 0.125000 0.784601
vt 0.937500 0.681135
vt 0.906250 0.516502
vt 0.906250 0.657383
vt 0.875000 0.636672
vt 0.875000 0.516502
vt 0.843750 0.516502
vt 0.843750 0.619092
vt 0.812500 0.516502
vt 0.750000 0.516502
vt 0.750000 0.576308
vt 0.781250 0.593328
vt 0.718750 0.516502
vt 0.718750 0.563738
vt 0.687500 0.516502
vt 0.687500 0.556102
vt 0.656250 0.516502
vt 0.656250 0.553693
vt 0.625000 0.516502
vt 0.593750 0.516502
vt 0.593750 0.553207
vt 0.625000 0.549909
vt 0.562500 0.516502
vt 0.531250 0.516502
vt 0.531250 0.580553
vt 0.562500 0.565094
vt 0.500000 0.516502
vt 0.500000 0.601789
vt 0.468750 0.516502
vt 0.468750 0.628160
vt 0.437500 0.516502
vt 0.437500 0.655988
vt 0.406250 0.516502
vt 0.406250 0.685327
vt 0.375000 0.516502
vt 0.375000 0.710446
vt 0.343750 0.516502
vt 0.343750 0.733201
vt 0.312500 0.516502
vt 0.312500 0.754682
vt 0.281250 0.516502
vt 0.281250 0.774062
vt 0.250000 0.516502
vt 0.250000 0.790598
vt 0.218750 0.795829
vt 0.218750 0.516502
vt 0.187500 0.516502
vt 0.187500 0.795492
vt 0.156250 0.516502
vt 0.156250 0.791701
vt 0.062500 0.516502
vt 0.062500 0.761685
vt 0.093750 0.774466
vt 0.031250 0.516502
vt 0.125000 0.784602
vt 0.937500 0.681136
vt 0.937500 0.516502
vt 0.812500 0.604544
vt 0.781250 0.593329
vt 0.781250 0.516502
vt 0.718750 0.563739
vt 0.625000 0.549910
vt 0.531250 0.580554
vt 0.398910 0.692728
vt 0.281250 0.774063
vt 0.961569 0.337635
vt 0.911928 0.411928
vt 0.835752 0.457024
vt 0.622774 0.440407
vt 0.559593 0.377226
vt 0.837635 0.461569
vt 0.961569 0.162365
vt 0.974600 0.205324
s 1
f 7/1/1 6/2/2 5/3/3
f 11/4/4 15/5/5 14/6/6
f 28/7/7 29/8/8 26/8/9 23/7/10 20/8/11 22/8/12
f 25/9/13 27/9/14 21/9/15 19/9/16 24/10/17
f 12/11/18 16/12/19 15/13/5
f 20/8/20 19/9/20 21/9/20 22/8/20
f 26/8/21 29/8/21 27/9/21 25/9/21
f 8/14/22 7/5/1 5/3/3 4/15/23 3/16/24 2/17/25 1/18/26 9/19/27
f 13/15/28 14/20/6 15/21/5 16/12/19 17/22/29 18/23/30
f 27/9/31 29/8/32 28/7/33 22/8/34 21/9/35
f 3/16/24 4/24/23 10/25/36
f 48/26/37 35/27/38 33/28/39 47/29/40
f 66/30/41 67/31/42 65/32/43
f 45/33/44 33/34/39 46/35/45
f 41/36/46 40/37/47 39/38/48
f 44/39/49 42/31/50 41/40/46 39/38/48 37/41/51 35/42/38 48/26/37 49/43/52 50/44/53 51/45/54 52/46/55 30/47/56 31/48/57 32/49/58 53/50/59 47/29/40 33/28/39 45/33/44
f 54/26/60 73/51/61 59/52/62 60/27/63 61/42/64
f 65/53/43 63/54/65 64/55/66
f 69/56/67 67/57/42 68/58/68
f 39/59/48 38/60/69 37/41/51
f 44/61/49 43/57/70 42/31/50
f 56/62/71 77/63/72 76/64/73
f 76/65/73 75/45/74 55/44/75 74/66/76 54/26/60 61/42/64 62/41/77 63/67/65 65/53/43 67/31/42 69/56/67 71/33/78 59/52/62 73/51/61 72/68/79 77/49/72 56/48/71
f 46/69/45 79/70/80 117/71/81
f 79/72/80 46/73/45 33/74/39 94/75/82
f 44/76/49 45/77/44 90/78/83
f 94/79/82 33/80/39 102/81/84
f 105/82/85 102/81/84 33/80/39 34/83/86
f 105/82/85 34/84/86 101/85/87
f 101/85/87 34/84/86 35/86/38
f 35/87/38 115/88/88 101/89/87
f 35/87/38 36/90/89 111/91/90 115/88/88
f 111/91/90 36/90/89 37/92/51
f 111/93/90 37/94/51 114/95/91
f 37/94/51 38/96/69 114/95/91
f 38/97/69 97/98/92 114/99/91
f 38/97/69 39/100/48 97/98/92
f 39/101/48 81/102/93 97/103/92
f 40/104/47 84/105/94 81/102/93 39/101/48
f 84/105/94 40/106/47 89/107/95
f 89/107/95 40/106/47 41/108/46 96/109/96
f 96/109/96 41/110/46 103/111/97
f 103/111/97 41/110/46 42/112/50
f 103/113/97 42/114/50 106/115/98
f 106/115/98 42/116/50 108/117/99
f 108/117/99 42/116/50 43/118/70 109/119/100
f 109/119/100 43/120/70 113/121/101
f 113/122/101 43/123/70 44/124/49 93/125/102
f 93/125/102 44/126/49 90/127/83
f 45/128/44 117/129/81 90/130/83
f 45/128/44 46/131/45 117/129/81
f 86/70/103 57/69/104 71/131/78 83/71/105
f 85/75/106 57/73/104 86/72/103
f 98/130/107 70/76/108 110/132/109
f 85/133/106 58/134/110 57/74/104
f 92/81/111 59/80/62 58/134/110 85/133/106
f 100/82/112 59/80/62 92/81/111
f 104/85/113 60/84/63 59/83/62 100/82/112
f 112/135/114 60/84/63 104/85/113
f 112/136/114 61/137/64 60/86/63
f 116/88/115 61/137/64 112/136/114
f 62/92/77 61/90/64 116/138/115
f 118/139/116 63/96/65 62/94/77
f 64/100/66 63/97/65 118/98/116
f 80/105/117 65/104/43 64/101/66 119/140/118
f 88/107/119 65/104/43 80/105/117
f 78/109/120 66/108/41 65/106/43 88/107/119
f 82/111/121 66/108/41 78/109/120
f 87/113/122 66/110/41 82/141/121
f 91/115/123 67/114/42 66/112/41 87/113/122
f 95/117/124 67/114/42 91/115/123
f 99/142/125 67/116/42 95/117/124
f 107/121/126 68/120/68 67/118/42 99/142/125
f 107/122/126 69/123/67 68/120/68
f 110/125/109 69/123/67 107/122/126
f 110/132/109 70/76/108 69/126/67
f 98/129/107 71/128/78 70/77/108
f 83/71/105 71/128/78 98/129/107
f 35/143/38 34/144/86 33/145/39
f 70/146/108 71/33/78 69/147/67
f 57/34/104 58/148/110 59/52/62 71/35/78
f 35/42/38 37/149/51 36/150/89
