# Blender 4.2.2 LTS
# www.blender.org
o Teal
v 0.335270 3.095395 0.283516
v 0.334392 3.110722 0.283831
v 0.340035 3.124838 0.282795
v 0.384321 3.136487 0.276849
v 0.404780 3.119665 0.276805
v 0.407923 3.099520 0.276397
v 0.394363 3.076679 0.275878
v 0.368470 3.070448 0.275663
v 0.349150 3.078300 0.276450
v 0.358108 3.136856 0.277007
v -0.043890 3.171084 0.282482
v -0.025262 3.132093 0.281735
v -0.007669 3.200412 0.277113
v -0.030633 3.188210 0.276547
v -0.033563 3.144856 0.275875
v -0.003662 3.130416 0.275674
v 0.020423 3.141613 0.275986
v 0.022232 3.185971 0.276912
v 0.206719 3.061203 0.368064
v 0.183827 3.003286 0.334297
v 0.204957 3.060595 0.344548
v 0.183839 3.007138 0.314055
v 0.164029 2.993829 0.327839
v 0.174075 3.065599 0.369698
v 0.141651 3.071570 0.368063
v 0.147685 3.009044 0.334297
v 0.143170 3.070439 0.344547
v 0.166194 3.009295 0.313706
v 0.148729 3.012732 0.314055
v 0.335270 3.095395 0.283516
v 0.334392 3.110722 0.283831
v 0.340035 3.124838 0.282795
v 0.407849 3.162722 0.287148
v 0.428936 3.145439 0.287096
v 0.441409 3.107015 0.286103
v 0.440402 3.079587 0.286456
v 0.425324 3.056849 0.285246
v 0.403585 3.040829 0.284842
v 0.377222 3.034485 0.284623
v 0.349800 3.037464 0.285281
v 0.325870 3.052026 0.285504
v 0.310373 3.075163 0.285245
v 0.304095 3.115396 0.286059
v 0.322238 3.150911 0.286619
v 0.342856 3.167936 0.287278
v 0.369218 3.174279 0.287497
v 0.384321 3.136487 0.276849
v 0.404780 3.119665 0.276805
v 0.407923 3.099520 0.276397
v 0.394363 3.076679 0.275878
v 0.368470 3.070448 0.275663
v 0.349150 3.078300 0.276450
v 0.358108 3.136856 0.277007
v -0.043890 3.171084 0.282482
v -0.025262 3.132093 0.281735
v 0.032752 3.166479 0.282640
v -0.009759 3.234659 0.287493
v -0.024162 3.235751 0.292070
v -0.047799 3.221393 0.287092
v -0.068634 3.202795 0.289744
v -0.076228 3.175942 0.286743
v -0.076610 3.147410 0.290063
v -0.052201 3.113446 0.284838
v -0.042887 3.101985 0.289233
v -0.015620 3.094300 0.285250
v 0.024607 3.101209 0.284839
v 0.053116 3.128955 0.285272
v 0.063368 3.153749 0.286057
v 0.060358 3.180688 0.286369
v 0.040687 3.216078 0.287275
v 0.017212 3.230362 0.287494
v -0.007669 3.200412 0.277113
v -0.030633 3.188210 0.276547
v -0.033563 3.144856 0.275875
v -0.003662 3.130416 0.275674
v 0.020423 3.141613 0.275986
v 0.022232 3.185971 0.276912
v 0.012173 3.090393 0.330073
v 0.382736 3.172378 0.352738
v -0.016171 3.090372 0.314087
v 0.377193 3.029551 0.307902
v 0.025554 3.094507 0.338806
v 0.017638 3.228687 0.359019
v 0.362806 3.029992 0.314090
v -0.024619 3.232497 0.340273
v 0.003759 3.232757 0.352734
v 0.037723 3.101265 0.346350
v -0.001916 3.088989 0.321838
v 0.348795 3.033113 0.321841
v 0.328371 3.158124 0.370237
v 0.048205 3.110351 0.353246
v -0.038014 3.228272 0.333176
v 0.309350 3.136924 0.372927
v 0.398129 3.168511 0.346070
v 0.056592 3.121375 0.359800
v 0.335704 3.038848 0.330075
v 0.391403 3.031811 0.303464
v 0.042158 3.213132 0.367457
v 0.062562 3.133916 0.365763
v -0.050196 3.221428 0.326921
v 0.443741 3.119372 0.317020
v 0.421460 3.155067 0.333180
v 0.314246 3.057209 0.346353
v -0.060691 3.212240 0.321541
v 0.431236 3.144725 0.326925
v 0.306709 3.069165 0.353249
v 0.066455 3.161732 0.372735
v 0.301707 3.082323 0.359802
v 0.299431 3.096178 0.365765
v 0.059303 3.189634 0.372080
v 0.436119 3.064921 0.301662
v -0.075090 3.188376 0.313444
v 0.299971 3.110196 0.370905
v 0.417145 3.044060 0.299351
v 0.445456 3.091347 0.308166
v -0.078412 3.174811 0.308161
v 0.354135 3.170525 0.363859
v -0.064286 3.120762 0.299347
v -0.030051 3.094434 0.307899
vn -0.4463 0.0597 0.8929
vn -0.5834 -0.4058 0.7035
vn -0.5683 -0.5876 0.5760
vn 0.8034 0.1710 0.5703
vn 0.2607 0.7086 0.6557
vn 0.5682 -0.6452 0.5107
vn 0.1549 0.9723 0.1752
vn 0.1931 0.9656 0.1742
vn 0.1920 0.9652 0.1773
vn 0.1549 0.9730 0.1713
vn 0.1150 0.9775 0.1766
vn 0.1157 0.9780 0.1737
vn -0.1824 -0.9826 0.0348
vn -0.1823 -0.9826 0.0349
vn -0.1321 -0.9906 0.0349
vn -0.1320 -0.9906 0.0349
vn -0.1572 -0.9869 0.0350
vn 0.0251 0.9193 0.3928
vn -0.5865 0.4335 0.6841
vn -0.9400 0.3354 0.0624
vn 0.9961 0.0629 0.0620
vn -0.5550 0.5278 0.6429
vn 0.4393 -0.7239 0.5320
vn 0.8808 0.0096 0.4734
vn 0.6146 0.2339 0.7534
vn 0.4251 0.4731 0.7717
vn -0.0889 0.4906 0.8669
vn 0.5117 -0.6719 0.5355
vn -0.3690 0.7676 0.5240
vn -0.2954 -0.7637 0.5740
vn -0.1105 -0.4802 0.8702
vn -0.1104 -0.4801 0.8702
vn -0.0773 -0.4853 0.8709
vn -0.0439 -0.4902 0.8705
vn -0.0437 -0.4901 0.8706
vn 0.8379 -0.3360 0.4301
vn 0.3754 0.5120 0.7727
vn -0.9606 0.2152 0.1757
vn -0.0428 -0.1732 0.9840
vn -0.7185 0.4188 0.5553
vn -0.4272 0.8988 0.0980
vn -0.8261 0.5547 0.0997
vn -0.4260 0.1389 0.8940
vn -0.0592 -0.2289 0.9716
vn -0.0596 -0.9962 0.0632
vn -0.1561 0.4847 0.8606
vn 0.2458 0.9490 0.1976
vn -0.2196 0.1365 0.9660
vn 0.5026 -0.8502 0.1565
vn 0.0936 0.1064 0.9899
vn -0.9033 0.3177 0.2885
vn 0.3602 0.6142 0.7022
vn 0.4922 0.1739 0.8529
vn 0.7853 -0.2279 0.5756
vn 0.3381 -0.4294 0.8375
vn -0.1913 -0.5835 0.7892
vn -0.4801 -0.3693 0.7957
vn -0.8002 -0.2722 0.5345
vn -0.9176 0.1781 0.3553
vn -0.1747 -0.5072 0.8439
vn -0.4088 0.5790 0.7054
vn 0.0174 -0.2415 0.9702
vn 0.2971 -0.3394 0.8925
vn 0.2994 0.3212 0.8984
vn 0.7432 0.6112 0.2724
vn -0.2380 0.9587 -0.1557
vn -0.9793 -0.1902 0.0690
vn -0.9817 0.1351 0.1339
vn -0.5244 0.8235 0.2163
vn 0.9881 -0.0917 0.1233
vn -0.8017 -0.0346 0.5967
vn -0.3698 0.7007 0.6101
vn -0.1676 -0.8281 0.5350
vn 0.6746 -0.1879 0.7138
vn 0.5847 -0.3282 0.7418
vn -0.1127 -0.6273 0.7706
vn 0.5263 0.6128 0.5895
vn -0.1461 -0.1338 0.9802
vn -0.7947 0.2889 0.5339
vn -0.1318 -0.9889 -0.0680
vn 0.1829 -0.9802 -0.0764
vn -0.4306 -0.8979 -0.0919
vn 0.5517 -0.8205 -0.1497
vn -0.6566 -0.7519 -0.0596
vn -0.7915 -0.6090 -0.0511
vn -0.8637 -0.4904 0.1159
vn -0.9304 -0.3521 -0.1017
vn -0.9923 0.1241 -0.0033
vn -0.9360 0.3292 0.1245
vn -0.9252 0.3795 0.0028
vn -0.6978 0.7156 0.0321
vn -0.3584 0.9325 0.0447
vn -0.0170 0.9976 0.0664
vn 0.1836 0.9807 0.0670
vn 0.3723 0.9259 0.0646
vn 0.5439 0.8370 0.0599
vn 0.7202 0.6927 0.0394
vn 0.9120 0.4087 0.0350
vn 0.9735 0.2273 0.0229
vn 0.9992 0.0372 0.0123
vn 0.9716 -0.2298 -0.0565
vn 0.8630 -0.5045 -0.0259
vn -0.1819 -0.9810 -0.0679
vn -0.0946 -0.9945 0.0443
vn -0.3691 -0.9271 -0.0660
vn 0.1709 -0.9808 -0.0941
vn -0.5672 -0.8212 -0.0627
vn -0.7538 -0.6499 0.0974
vn -0.8251 -0.5564 -0.0983
vn 0.3427 -0.9394 -0.0102
vn 0.3988 -0.9153 -0.0559
vn 0.5757 -0.8162 -0.0492
vn 0.7300 -0.6823 -0.0399
vn 0.8968 -0.4396 -0.0505
vn 0.9995 -0.0283 -0.0163
vn 0.8900 0.2427 -0.3859
vn 0.1295 0.9893 0.0674
vn 0.8947 0.4237 -0.1415
vn -0.0693 0.9954 0.0658
vn -0.2651 0.9622 0.0623
vn -0.4840 0.8738 0.0469
vn -0.6142 0.7878 0.0465
vn -0.7581 0.6511 0.0371
vn -0.8714 0.4900 0.0243
vn -0.9503 0.3111 0.0123
vn -0.9991 0.0009 -0.0419
vt 0.862459 0.227631
vt 0.862459 0.272369
vt 0.851390 0.291997
vt 0.864662 0.250000
vt 0.857634 0.228590
vt 0.845338 0.313703
vt 0.588101 0.750000
vt 0.587119 0.758318
vt 0.562500 0.764186
vt 0.562500 0.750000
vt 0.750000 0.135338
vt 0.728590 0.142366
vt 0.813703 0.154662
vt 0.791997 0.148611
vt 0.728590 0.357635
vt 0.658752 0.310970
vt 0.642366 0.271410
vt 0.658752 0.189030
vt 0.708003 0.148611
vt 0.841248 0.310970
vt 0.810970 0.158752
vt 0.648611 0.208003
vt 0.648611 0.291997
vt 0.706121 0.355934
vt 0.686297 0.345338
vt 0.888859 0.277621
vt 0.957024 0.335752
vt 0.793716 0.469776
vt 0.777621 0.388859
vt 0.588072 0.088072
vt 0.542975 0.164248
vt 0.705324 0.025400
vt 0.664248 0.457025
vt 0.794676 0.474600
vt 0.705325 0.474601
vt 0.662365 0.038431
vt 0.750000 0.020999
vt 0.835752 0.042976
vt 0.563683 0.374493
vt 0.625507 0.063683
vt 0.957024 0.164248
vt 0.969776 0.293716
vt 0.888859 0.222379
vt 0.828657 0.132281
vt 0.722379 0.111141
vt 0.649888 0.149888
vt 0.611141 0.222379
vt 0.608420 0.250000
vt 0.632281 0.328658
vt 0.695820 0.380803
vt 0.828658 0.367719
vt 0.874493 0.436317
vt 0.706284 0.030224
vt 0.877226 0.059593
vt 0.794676 0.025399
vt 0.542976 0.335753
vt 0.525399 0.205324
vt 0.520999 0.250000
vt 0.837635 0.038431
vt 0.911928 0.088072
vt 0.538431 0.337635
vt 0.626746 0.274517
vt 0.626760 0.274514
vt 0.624331 0.250000
vt 0.632281 0.171343
vt 0.867719 0.171343
vt 0.874493 0.063683
vt 0.750000 0.391580
vt 0.000000 0.516502
vt 0.000000 0.723297
vt 0.031250 0.744864
vt 1.000000 0.723297
vt 1.000000 0.516502
vt 0.968750 0.516502
vt 0.968750 0.702676
vt 0.125000 0.516502
vt 0.093750 0.516502
vt 0.125000 0.784601
vt 0.937500 0.681135
vt 0.906250 0.516502
vt 0.906250 0.657383
vt 0.875000 0.636672
vt 0.875000 0.516502
vt 0.843750 0.516502
vt 0.843750 0.619092
vt 0.812500 0.516502
vt 0.750000 0.516502
vt 0.750000 0.576308
vt 0.781250 0.593328
vt 0.718750 0.516502
vt 0.718750 0.563738
vt 0.687500 0.516502
vt 0.687500 0.556102
vt 0.656250 0.516502
vt 0.656250 0.553693
vt 0.625000 0.516502
vt 0.593750 0.516502
vt 0.593750 0.553207
vt 0.625000 0.549909
vt 0.562500 0.516502
vt 0.531250 0.516502
vt 0.531250 0.580553
vt 0.562500 0.565094
vt 0.500000 0.516502
vt 0.500000 0.601789
vt 0.468750 0.516502
vt 0.468750 0.628160
vt 0.437500 0.516502
vt 0.437500 0.655988
vt 0.406250 0.516502
vt 0.406250 0.685327
vt 0.375000 0.516502
vt 0.375000 0.710446
vt 0.343750 0.516502
vt 0.343750 0.733201
vt 0.312500 0.516502
vt 0.312500 0.754682
vt 0.281250 0.516502
vt 0.281250 0.774062
vt 0.250000 0.516502
vt 0.250000 0.790598
vt 0.218750 0.795829
vt 0.218750 0.516502
vt 0.187500 0.516502
vt 0.187500 0.795492
vt 0.156250 0.516502
vt 0.156250 0.791701
vt 0.062500 0.516502
vt 0.062500 0.761685
vt 0.093750 0.774466
vt 0.031250 0.516502
vt 0.125000 0.784602
vt 0.937500 0.681136
vt 0.937500 0.516502
vt 0.812500 0.604544
vt 0.781250 0.593329
vt 0.781250 0.516502
vt 0.718750 0.563739
vt 0.625000 0.549910
vt 0.531250 0.580554
vt 0.398910 0.692728
vt 0.281250 0.774063
vt 0.961569 0.337635
vt 0.911928 0.411928
vt 0.835752 0.457024
vt 0.622774 0.440407
vt 0.559593 0.377226
vt 0.837635 0.461569
vt 0.961569 0.162365
vt 0.974600 0.205324
s 1
f 7/1/1 6/2/2 5/3/3
f 11/4/4 15/5/5 14/6/6
f 28/7/7 29/8/8 26/8/9 23/7/10 20/8/11 22/8/12
f 25/9/13 27/9/14 21/9/15 19/9/16 24/10/17
f 12/11/18 16/12/19 15/13/5
f 20/8/20 19/9/20 21/9/20 22/8/20
f 26/8/21 29/8/21 27/9/21 25/9/21
f 8/14/22 7/5/1 5/3/3 4/15/23 3/16/24 2/17/25 1/18/26 9/19/27
f 13/15/28 14/20/6 15/21/5 16/12/19 17/22/29 18/23/30
f 27/9/31 29/8/32 28/7/33 22/8/34 21/9/35
f 3/16/24 4/24/23 10/25/36
f 48/26/37 35/27/38 33/28/39 47/29/40
f 66/30/41 67/31/42 65/32/43
f 45/33/44 33/34/39 46/35/45
f 41/36/46 40/37/47 39/38/48
f 44/39/49 42/31/50 41/40/46 39/38/48 37/41/51 35/42/38 48/26/37 49/43/52 50/44/53 51/45/54 52/46/55 30/47/56 31/48/57 32/49/58 53/50/59 47/29/40 33/28/39 45/33/44
f 54/26/60 73/51/61 59/52/62 60/27/63 61/42/64
f 65/53/43 63/54/65 64/55/66
f 69/56/67 67/57/42 68/58/68
f 39/59/48 38/60/69 37/41/51
f 44/61/49 43/57/70 42/31/50
f 56/62/71 77/63/72 76/64/73
f 76/65/73 75/45/74 55/44/75 74/66/76 54/26/60 61/42/64 62/41/77 63/67/65 65/53/43 67/31/42 69/56/67 71/33/78 59/52/62 73/51/61 72/68/79 77/49/72 56/48/71
f 46/69/45 79/70/80 117/71/81
f 79/72/80 46/73/45 33/74/39 94/75/82
f 44/76/49 45/77/44 90/78/83
f 94/79/82 33/80/39 102/81/84
f 105/82/85 102/81/84 33/80/39 34/83/86
f 105/82/85 34/84/86 101/85/87
f 101/85/87 34/84/86 35/86/38
f 35/87/38 115/88/88 101/89/87
f 35/87/38 36/90/89 111/91/90 115/88/88
f 111/91/90 36/90/89 37/92/51
f 111/93/90 37/94/51 114/95/91
f 37/94/51 38/96/69 114/95/91
f 38/97/69 97/98/92 114/99/91
f 38/97/69 39/100/48 97/98/92
f 39/101/48 81/102/93 97/103/92
f 40/104/47 84/105/94 81/102/93 39/101/48
f 84/105/94 40/106/47 89/107/95
f 89/107/95 40/106/47 41/108/46 96/109/96
f 96/109/96 41/110/46 103/111/97
f 103/111/97 41/110/46 42/112/50
f 103/113/97 42/114/50 106/115/98
f 106/115/98 42/116/50 108/117/99
f 108/117/99 42/116/50 43/118/70 109/119/100
f 109/119/100 43/120/70 113/121/101
f 113/122/101 43/123/70 44/124/49 93/125/102
f 93/125/102 44/126/49 90/127/83
f 45/128/44 117/129/81 90/130/83
f 45/128/44 46/131/45 117/129/81
f 86/70/103 57/69/104 71/131/78 83/71/105
f 85/75/106 57/73/104 86/72/103
f 98/130/107 70/76/108 110/132/109
f 85/133/106 58/134/110 57/74/104
f 92/81/111 59/80/62 58/134/110 85/133/106
f 100/82/112 59/80/62 92/81/111
f 104/85/113 60/84/63 59/83/62 100/82/112
f 112/135/114 60/84/63 104/85/113
f 112/136/114 61/137/64 60/86/63
f 116/88/115 61/137/64 112/136/114
f 62/92/77 61/90/64 116/138/115
f 118/139/116 63/96/65 62/94/77
f 64/100/66 63/97/65 118/98/116
f 80/105/117 65/104/43 64/101/66 119/140/118
f 88/107/119 65/104/43 80/105/117
f 78/109/120 66/108/41 65/106/43 88/107/119
f 82/111/121 66/108/41 78/109/120
f 87/113/122 66/110/41 82/141/121
f 91/115/123 67/114/42 66/112/41 87/113/122
f 95/117/124 67/114/42 91/115/123
f 99/142/125 67/116/42 95/117/124
f 107/121/126 68/120/68 67/118/42 99/142/125
f 107/122/126 69/123/67 68/120/68
f 110/125/109 69/123/67 107/122/126
f 110/132/109 70/76/108 69/126/67
f 98/129/107 71/128/78 70/77/108
f 83/71/105 71/128/78 98/129/107
f 35/143/38 34/144/86 33/145/39
f 70/146/108 71/33/78 69/147/67
f 57/34/104 58/148/110 59/52/62 71/35/78
f 35/42/38 37/149/51 36/150/89
