# Blender 4.2.2 LTS
# www.blender.org
o Teal
v 0.187216 3.129833 0.283515
v 0.184593 3.144931 0.283830
v 0.188580 3.159675 0.282793
v 0.231203 3.177000 0.276847
v 0.253433 3.162965 0.276803
v 0.258855 3.143379 0.276395
v 0.248007 3.118944 0.275877
v 0.223020 3.109391 0.275662
v 0.202947 3.114671 0.276448
v 0.205145 3.173955 0.277005
v -0.197766 3.155627 0.282483
v -0.174820 3.119352 0.281736
v -0.165168 3.189449 0.277114
v -0.186565 3.174350 0.276548
v -0.184518 3.130939 0.275876
v -0.153190 3.120497 0.275675
v -0.130564 3.134744 0.275987
v -0.133839 3.179006 0.276913
v 0.063535 3.079171 0.368064
v 0.047432 3.018708 0.334297
v 0.061855 3.078338 0.344547
v 0.047005 3.022533 0.314054
v 0.028864 3.006746 0.327839
v 0.030631 3.079287 0.369698
v -0.002233 3.080995 0.368064
v 0.010903 3.019721 0.334297
v -0.000596 3.080070 0.344547
v 0.029245 3.022378 0.313706
v 0.011517 3.023517 0.314054
v 0.187216 3.129833 0.283515
v 0.184593 3.144931 0.283830
v 0.188580 3.159675 0.282793
v 0.251557 3.206100 0.287146
v 0.274463 3.191689 0.287094
v 0.291235 3.155175 0.286101
v 0.293371 3.127821 0.286454
v 0.281004 3.103290 0.285244
v 0.261258 3.084562 0.284840
v 0.235817 3.074836 0.284621
v 0.208259 3.074224 0.285280
v 0.182844 3.085564 0.285503
v 0.164817 3.106512 0.285244
v 0.153987 3.145628 0.286058
v 0.167935 3.183239 0.286618
v 0.186453 3.202819 0.287276
v 0.211894 3.212545 0.287495
v 0.231203 3.177000 0.276847
v 0.253433 3.162965 0.276803
v 0.258855 3.143379 0.276395
v 0.248007 3.118944 0.275877
v 0.223020 3.109391 0.275662
v 0.202947 3.114671 0.276448
v 0.205145 3.173955 0.277005
v -0.197766 3.155627 0.282483
v -0.174820 3.119352 0.281736
v -0.121170 3.161028 0.282641
v -0.171157 3.223169 0.287495
v -0.185577 3.222379 0.292071
v -0.207396 3.205053 0.287094
v -0.225950 3.183882 0.289745
v -0.230418 3.156242 0.286744
v -0.227535 3.127874 0.290065
v -0.199426 3.097338 0.284840
v -0.188871 3.087175 0.289234
v -0.160930 3.083095 0.285251
v -0.121793 3.095185 0.284840
v -0.096668 3.126434 0.285272
v -0.089327 3.152376 0.286058
v -0.095394 3.178723 0.286370
v -0.118964 3.211289 0.287276
v -0.143896 3.222413 0.287495
v -0.165168 3.189449 0.277114
v -0.186565 3.174350 0.276548
v -0.184518 3.130939 0.275876
v -0.153190 3.120497 0.275675
v -0.130564 3.134744 0.275987
v -0.133839 3.179006 0.276913
v -0.132896 3.082833 0.330074
v 0.225530 3.212416 0.352736
v -0.161027 3.079124 0.314088
v 0.236353 3.069934 0.307901
v -0.120086 3.088657 0.338806
v -0.143280 3.220806 0.359020
v 0.222023 3.068501 0.314089
v -0.185657 3.219089 0.340274
v -0.157521 3.223040 0.352736
v -0.108781 3.096948 0.346351
v -0.146721 3.079606 0.321839
v 0.207760 3.069775 0.321840
v 0.173200 3.191195 0.370235
v -0.099415 3.107329 0.353247
v -0.198470 3.213153 0.333178
v 0.156744 3.167679 0.372926
v 0.241250 3.210581 0.346068
v -0.092350 3.119363 0.359801
v 0.194111 3.073764 0.330074
v 0.250199 3.074026 0.303462
v -0.117165 3.208557 0.367458
v -0.087858 3.132587 0.365764
v -0.209778 3.204775 0.326923
v 0.292137 3.167743 0.317018
v 0.265943 3.200273 0.333178
v 0.170715 3.089197 0.346352
v -0.219146 3.194291 0.321543
v 0.276828 3.191280 0.326924
v 0.161868 3.100083 0.353247
v -0.087173 3.160702 0.372736
v 0.155399 3.112492 0.359801
v 0.151557 3.125947 0.365764
v -0.097462 3.187465 0.372081
v 0.290796 3.112707 0.301660
v -0.230709 3.168731 0.313446
v 0.150490 3.139930 0.370904
v 0.274348 3.089533 0.299349
v 0.297043 3.140151 0.308164
v -0.232456 3.154835 0.308163
v 0.197354 3.206856 0.363858
v -0.212257 3.103028 0.299349
v -0.175268 3.081350 0.307900
vn -0.4500 0.0018 0.8930
vn -0.5316 -0.4714 0.7037
vn -0.4942 -0.6512 0.5759
vn 0.7777 0.2638 0.5706
vn 0.1751 0.7348 0.6553
vn 0.6427 -0.5714 0.5103
vn 0.0273 0.9840 0.1759
vn 0.0664 0.9824 0.1749
vn 0.0661 0.9819 0.1775
vn 0.0273 0.9846 0.1724
vn -0.0120 0.9841 0.1775
vn -0.0120 0.9846 0.1744
vn -0.0532 -0.9980 0.0349
vn -0.0531 -0.9980 0.0349
vn -0.0023 -0.9994 0.0349
vn -0.0022 -0.9994 0.0349
vn -0.0277 -0.9990 0.0350
vn -0.0895 0.9149 0.3935
vn -0.6376 0.3540 0.6842
vn -0.9725 0.2245 0.0622
vn 0.9823 0.1766 0.0621
vn -0.6182 0.4514 0.6435
vn 0.5267 -0.6636 0.5313
vn 0.8729 0.1163 0.4738
vn 0.5839 0.3032 0.7531
vn 0.3677 0.5195 0.7713
vn -0.1479 0.4750 0.8675
vn 0.5931 -0.6012 0.5355
vn -0.4563 0.7191 0.5241
vn -0.2042 -0.7929 0.5741
vn -0.0473 -0.4896 0.8706
vn -0.0472 -0.4896 0.8707
vn -0.0136 -0.4907 0.8712
vn 0.0201 -0.4914 0.8707
vn 0.0202 -0.4914 0.8707
vn 0.8740 -0.2251 0.4306
vn 0.3123 0.5548 0.7711
vn -0.9793 0.1007 0.1755
vn -0.0166 -0.1802 0.9835
vn -0.7665 0.3236 0.5547
vn -0.5350 0.8391 0.0981
vn -0.8877 0.4498 0.0987
vn -0.4406 0.0827 0.8939
vn -0.0324 -0.2347 0.9715
vn 0.0693 -0.9956 0.0632
vn -0.2134 0.4611 0.8613
vn 0.1212 0.9727 0.1981
vn -0.2358 0.1068 0.9659
vn 0.5985 -0.7855 0.1574
vn 0.0815 0.1159 0.9899
vn -0.9352 0.2086 0.2861
vn 0.2867 0.6516 0.7023
vn 0.4677 0.2315 0.8530
vn 0.8081 -0.1250 0.5756
vn 0.3897 -0.3825 0.8377
vn -0.1203 -0.6026 0.7889
vn -0.4346 -0.4220 0.7956
vn -0.7624 -0.3645 0.5347
vn -0.9330 0.0615 0.3545
vn -0.1126 -0.5246 0.8439
vn -0.4763 0.5239 0.7061
vn 0.0468 -0.2370 0.9704
vn 0.3346 -0.3006 0.8931
vn 0.2547 0.3445 0.9036
vn 0.6631 0.6965 0.2742
vn -0.3566 0.9215 -0.1539
vn -0.9506 -0.3025 0.0697
vn -0.9907 0.0215 0.1341
vn -0.6235 0.7516 0.2152
vn 0.9921 0.0229 0.1232
vn -0.7919 -0.1288 0.5969
vn -0.4552 0.6492 0.6093
vn -0.0636 -0.8421 0.5355
vn 0.6930 -0.1005 0.7139
vn 0.6226 -0.2499 0.7416
vn -0.0369 -0.6354 0.7713
vn 0.4522 0.6699 0.5889
vn -0.1284 -0.1527 0.9799
vn -0.8248 0.1865 0.5339
vn -0.0025 -0.9977 -0.0679
vn 0.3065 -0.9488 -0.0764
vn -0.3116 -0.9458 -0.0915
vn 0.6484 -0.7464 -0.1499
vn -0.5568 -0.8285 -0.0591
vn -0.7114 -0.7010 -0.0505
vn -0.7979 -0.5915 0.1164
vn -0.8830 -0.4583 -0.1012
vn -1.0000 0.0094 -0.0034
vn -0.9676 0.2198 0.1241
vn -0.9634 0.2680 0.0017
vn -0.7810 0.6237 0.0303
vn -0.4751 0.8789 0.0436
vn -0.1462 0.9870 0.0663
vn 0.0551 0.9962 0.0672
vn 0.2511 0.9658 0.0654
vn 0.4352 0.8983 0.0607
vn 0.6316 0.7743 0.0406
vn 0.8577 0.5130 0.0356
vn 0.9407 0.3384 0.0233
vn 0.9884 0.1516 0.0124
vn 0.9916 -0.1161 -0.0567
vn 0.9166 -0.3989 -0.0261
vn -0.0531 -0.9963 -0.0679
vn 0.0354 -0.9984 0.0434
vn -0.2477 -0.9666 -0.0660
vn 0.2958 -0.9506 -0.0940
vn -0.4620 -0.8847 -0.0624
vn -0.6667 -0.7390 0.0971
vn -0.7538 -0.6498 -0.0981
vn 0.4607 -0.8875 -0.0103
vn 0.5107 -0.8579 -0.0557
vn 0.6726 -0.7383 -0.0496
vn 0.8070 -0.5892 -0.0401
vn 0.9418 -0.3323 -0.0503
vn 0.9961 0.0867 -0.0165
vn 0.8544 0.3501 -0.3840
vn 0.0002 0.9977 0.0676
vn 0.8327 0.5358 -0.1398
vn -0.1974 0.9782 0.0651
vn -0.3860 0.9204 0.0616
vn -0.5898 0.8062 0.0460
vn -0.7061 0.7067 0.0452
vn -0.8306 0.5557 0.0362
vn -0.9228 0.3846 0.0238
vn -0.9799 0.1993 0.0121
vn -0.9925 -0.1144 -0.0419
vt 0.862459 0.227631
vt 0.862459 0.272369
vt 0.851390 0.291997
vt 0.864662 0.250000
vt 0.857634 0.228590
vt 0.845338 0.313703
vt 0.588101 0.750000
vt 0.587119 0.758318
vt 0.562500 0.764186
vt 0.562500 0.750000
vt 0.750000 0.135338
vt 0.728590 0.142366
vt 0.813703 0.154662
vt 0.791997 0.148611
vt 0.728590 0.357635
vt 0.658752 0.310970
vt 0.642366 0.271410
vt 0.658752 0.189030
vt 0.708003 0.148611
vt 0.841248 0.310970
vt 0.810970 0.158752
vt 0.648611 0.208003
vt 0.648611 0.291997
vt 0.706121 0.355934
vt 0.686297 0.345338
vt 0.888859 0.277621
vt 0.957024 0.335752
vt 0.793716 0.469776
vt 0.777621 0.388859
vt 0.588072 0.088072
vt 0.542975 0.164248
vt 0.705324 0.025400
vt 0.664248 0.457025
vt 0.794676 0.474600
vt 0.705325 0.474601
vt 0.662365 0.038431
vt 0.750000 0.020999
vt 0.835752 0.042976
vt 0.563683 0.374493
vt 0.625507 0.063683
vt 0.957024 0.164248
vt 0.969776 0.293716
vt 0.888859 0.222379
vt 0.828657 0.132281
vt 0.722379 0.111141
vt 0.649888 0.149888
vt 0.611141 0.222379
vt 0.608420 0.250000
vt 0.632281 0.328658
vt 0.695820 0.380803
vt 0.828658 0.367719
vt 0.874493 0.436317
vt 0.706284 0.030224
vt 0.877226 0.059593
vt 0.794676 0.025399
vt 0.542976 0.335753
vt 0.525399 0.205324
vt 0.520999 0.250000
vt 0.837635 0.038431
vt 0.911928 0.088072
vt 0.538431 0.337635
vt 0.626746 0.274517
vt 0.626760 0.274514
vt 0.624331 0.250000
vt 0.632281 0.171343
vt 0.867719 0.171343
vt 0.874493 0.063683
vt 0.750000 0.391580
vt 0.000000 0.516502
vt 0.000000 0.723297
vt 0.031250 0.744864
vt 1.000000 0.723297
vt 1.000000 0.516502
vt 0.968750 0.516502
vt 0.968750 0.702676
vt 0.125000 0.516502
vt 0.093750 0.516502
vt 0.125000 0.784601
vt 0.937500 0.681135
vt 0.906250 0.516502
vt 0.906250 0.657383
vt 0.875000 0.636672
vt 0.875000 0.516502
vt 0.843750 0.516502
vt 0.843750 0.619092
vt 0.812500 0.516502
vt 0.750000 0.516502
vt 0.750000 0.576308
vt 0.781250 0.593328
vt 0.718750 0.516502
vt 0.718750 0.563738
vt 0.687500 0.516502
vt 0.687500 0.556102
vt 0.656250 0.516502
vt 0.656250 0.553693
vt 0.625000 0.516502
vt 0.593750 0.516502
vt 0.593750 0.553207
vt 0.625000 0.549909
vt 0.562500 0.516502
vt 0.531250 0.516502
vt 0.531250 0.580553
vt 0.562500 0.565094
vt 0.500000 0.516502
vt 0.500000 0.601789
vt 0.468750 0.516502
vt 0.468750 0.628160
vt 0.437500 0.516502
vt 0.437500 0.655988
vt 0.406250 0.516502
vt 0.406250 0.685327
vt 0.375000 0.516502
vt 0.375000 0.710446
vt 0.343750 0.516502
vt 0.343750 0.733201
vt 0.312500 0.516502
vt 0.312500 0.754682
vt 0.281250 0.516502
vt 0.281250 0.774062
vt 0.250000 0.516502
vt 0.250000 0.790598
vt 0.218750 0.795829
vt 0.218750 0.516502
vt 0.187500 0.516502
vt 0.187500 0.795492
vt 0.156250 0.516502
vt 0.156250 0.791701
vt 0.062500 0.516502
vt 0.062500 0.761685
vt 0.093750 0.774466
vt 0.031250 0.516502
vt 0.125000 0.784602
vt 0.937500 0.681136
vt 0.937500 0.516502
vt 0.812500 0.604544
vt 0.781250 0.593329
vt 0.781250 0.516502
vt 0.718750 0.563739
vt 0.625000 0.549910
vt 0.531250 0.580554
vt 0.398910 0.692728
vt 0.281250 0.774063
vt 0.961569 0.337635
vt 0.911928 0.411928
vt 0.835752 0.457024
vt 0.622774 0.440407
vt 0.559593 0.377226
vt 0.837635 0.461569
vt 0.961569 0.162365
vt 0.974600 0.205324
s 1
f 7/1/1 6/2/2 5/3/3
f 11/4/4 15/5/5 14/6/6
f 28/7/7 29/8/8 26/8/9 23/7/10 20/8/11 22/8/12
f 25/9/13 27/9/14 21/9/15 19/9/16 24/10/17
f 12/11/18 16/12/19 15/13/5
f 20/8/20 19/9/20 21/9/20 22/8/20
f 26/8/21 29/8/21 27/9/21 25/9/21
f 8/14/22 7/5/1 5/3/3 4/15/23 3/16/24 2/17/25 1/18/26 9/19/27
f 13/15/28 14/20/6 15/21/5 16/12/19 17/22/29 18/23/30
f 27/9/31 29/8/32 28/7/33 22/8/34 21/9/35
f 3/16/24 4/24/23 10/25/36
f 48/26/37 35/27/38 33/28/39 47/29/40
f 66/30/41 67/31/42 65/32/43
f 45/33/44 33/34/39 46/35/45
f 41/36/46 40/37/47 39/38/48
f 44/39/49 42/31/50 41/40/46 39/38/48 37/41/51 35/42/38 48/26/37 49/43/52 50/44/53 51/45/54 52/46/55 30/47/56 31/48/57 32/49/58 53/50/59 47/29/40 33/28/39 45/33/44
f 54/26/60 73/51/61 59/52/62 60/27/63 61/42/64
f 65/53/43 63/54/65 64/55/66
f 69/56/67 67/57/42 68/58/68
f 39/59/48 38/60/69 37/41/51
f 44/61/49 43/57/70 42/31/50
f 56/62/71 77/63/72 76/64/73
f 76/65/73 75/45/74 55/44/75 74/66/76 54/26/60 61/42/64 62/41/77 63/67/65 65/53/43 67/31/42 69/56/67 71/33/78 59/52/62 73/51/61 72/68/79 77/49/72 56/48/71
f 46/69/45 79/70/80 117/71/81
f 79/72/80 46/73/45 33/74/39 94/75/82
f 44/76/49 45/77/44 90/78/83
f 94/79/82 33/80/39 102/81/84
f 105/82/85 102/81/84 33/80/39 34/83/86
f 105/82/85 34/84/86 101/85/87
f 101/85/87 34/84/86 35/86/38
f 35/87/38 115/88/88 101/89/87
f 35/87/38 36/90/89 111/91/90 115/88/88
f 111/91/90 36/90/89 37/92/51
f 111/93/90 37/94/51 114/95/91
f 37/94/51 38/96/69 114/95/91
f 38/97/69 97/98/92 114/99/91
f 38/97/69 39/100/48 97/98/92
f 39/101/48 81/102/93 97/103/92
f 40/104/47 84/105/94 81/102/93 39/101/48
f 84/105/94 40/106/47 89/107/95
f 89/107/95 40/106/47 41/108/46 96/109/96
f 96/109/96 41/110/46 103/111/97
f 103/111/97 41/110/46 42/112/50
f 103/113/97 42/114/50 106/115/98
f 106/115/98 42/116/50 108/117/99
f 108/117/99 42/116/50 43/118/70 109/119/100
f 109/119/100 43/120/70 113/121/101
f 113/122/101 43/123/70 44/124/49 93/125/102
f 93/125/102 44/126/49 90/127/83
f 45/128/44 117/129/81 90/130/83
f 45/128/44 46/131/45 117/129/81
f 86/70/103 57/69/104 71/131/78 83/71/105
f 85/75/106 57/73/104 86/72/103
f 98/130/107 70/76/108 110/132/109
f 85/133/106 58/134/110 57/74/104
f 92/81/111 59/80/62 58/134/110 85/133/106
f 100/82/112 59/80/62 92/81/111
f 104/85/113 60/84/63 59/83/62 100/82/112
f 112/135/114 60/84/63 104/85/113
f 112/136/114 61/137/64 60/86/63
f 116/88/115 61/137/64 112/136/114
f 62/92/77 61/90/64 116/138/115
f 118/139/116 63/96/65 62/94/77
f 64/100/66 63/97/65 118/98/116
f 80/105/117 65/104/43 64/101/66 119/140/118
f 88/107/119 65/104/43 80/105/117
f 78/109/120 66/108/41 65/106/43 88/107/119
f 82/111/121 66/108/41 78/109/120
f 87/113/122 66/110/41 82/141/121
f 91/115/123 67/114/42 66/112/41 87/113/122
f 95/117/124 67/114/42 91/115/123
f 99/142/125 67/116/42 95/117/124
f 107/121/126 68/120/68 67/118/42 99/142/125
f 107/122/126 69/123/67 68/120/68
f 110/125/109 69/123/67 107/122/126
f 110/132/109 70/76/108 69/126/67
f 98/129/107 71/128/78 70/77/108
f 83/71/105 71/128/78 98/129/107
f 35/143/38 34/144/86 33/145/39
f 70/146/108 71/33/78 69/147/67
f 57/34/104 58/148/110 59/52/62 71/35/78
f 35/42/38 37/149/51 36/150/89
