# Blender 4.2.2 LTS
# www.blender.org
o Teal
v 0.265112 3.114238 0.283515
v 0.263398 3.129484 0.283830
v 0.268260 3.143926 0.282794
v 0.311834 3.158312 0.276848
v 0.333178 3.142790 0.276804
v 0.337416 3.122875 0.276396
v 0.325127 3.099229 0.275877
v 0.299619 3.091398 0.275662
v 0.279903 3.098035 0.276449
v 0.285646 3.157048 0.277006
v -0.117539 3.166212 0.282482
v -0.096812 3.128447 0.281735
v -0.082983 3.197744 0.277113
v -0.105241 3.184133 0.276547
v -0.105796 3.140672 0.275875
v -0.075157 3.128116 0.275675
v -0.051725 3.140793 0.275987
v -0.052343 3.185187 0.276913
v 0.138650 3.072108 0.368064
v 0.118961 3.012865 0.334297
v 0.136924 3.071391 0.344547
v 0.118763 3.016711 0.314055
v 0.099714 3.002192 0.327839
v 0.105820 3.074465 0.369698
v 0.073125 3.078409 0.368063
v 0.082566 3.016365 0.334297
v 0.074704 3.077375 0.344547
v 0.101030 3.017766 0.313706
v 0.083406 3.020112 0.314054
v 0.265112 3.114238 0.283515
v 0.263398 3.129484 0.283830
v 0.268260 3.143926 0.282794
v 0.333888 3.185965 0.287147
v 0.355884 3.170023 0.287095
v 0.370436 3.132440 0.286102
v 0.370930 3.104997 0.286454
v 0.357120 3.081359 0.285245
v 0.336293 3.064014 0.284841
v 0.310322 3.056041 0.284622
v 0.282783 3.057309 0.285281
v 0.258099 3.070358 0.285504
v 0.241363 3.092491 0.285245
v 0.232897 3.132265 0.286059
v 0.249068 3.168849 0.286618
v 0.268720 3.187127 0.287277
v 0.294691 3.195100 0.287496
v 0.311834 3.158312 0.276848
v 0.333178 3.142790 0.276804
v 0.337416 3.122875 0.276396
v 0.325127 3.099229 0.275877
v 0.299619 3.091398 0.275662
v 0.279903 3.098035 0.276449
v 0.285646 3.157048 0.277006
v -0.117539 3.166212 0.282482
v -0.096812 3.128447 0.281735
v -0.040776 3.166383 0.282641
v -0.086941 3.231802 0.287494
v -0.101379 3.231997 0.292070
v -0.124191 3.216193 0.287093
v -0.143975 3.196330 0.289744
v -0.150088 3.169050 0.286743
v -0.148909 3.140544 0.290064
v -0.122686 3.108155 0.284839
v -0.112761 3.097293 0.289233
v -0.085121 3.091318 0.285250
v -0.045340 3.100717 0.284839
v -0.018396 3.130189 0.285272
v -0.009516 3.155578 0.286057
v -0.013994 3.182285 0.286369
v -0.035566 3.216391 0.287275
v -0.059781 3.229190 0.287494
v -0.082983 3.197744 0.277113
v -0.105241 3.184133 0.276547
v -0.105796 3.140672 0.275875
v -0.075157 3.128116 0.275675
v -0.051725 3.140793 0.275987
v -0.052343 3.185187 0.276913
v -0.057161 3.089146 0.330073
v 0.308291 3.194042 0.352737
v -0.085456 3.087362 0.314087
v 0.310563 3.051113 0.307901
v -0.044028 3.094086 0.338806
v -0.059264 3.227545 0.359020
v 0.296176 3.050659 0.314089
v -0.101657 3.228719 0.340274
v -0.073341 3.230745 0.352735
v -0.032249 3.101589 0.346351
v -0.071150 3.086868 0.321838
v 0.282018 3.052903 0.321840
v 0.254798 3.176430 0.370236
v -0.022281 3.111311 0.353247
v -0.114799 3.223668 0.333177
v 0.236967 3.154084 0.372926
v 0.323869 3.191139 0.346069
v -0.014511 3.122839 0.359801
v 0.268636 3.057813 0.330075
v 0.324625 3.054253 0.303463
v -0.033935 3.213542 0.367458
v -0.009237 3.135730 0.365764
v -0.126585 3.216078 0.326922
v 0.372089 3.144921 0.317019
v 0.347895 3.179170 0.333179
v 0.246212 3.074809 0.346352
v -0.136561 3.206254 0.321542
v 0.358219 3.169453 0.326924
v 0.238034 3.086276 0.353248
v -0.006870 3.163740 0.372735
v 0.232322 3.099101 0.359802
v 0.229292 3.112790 0.365765
v -0.015535 3.191150 0.372080
v 0.367456 3.090089 0.301661
v -0.149631 3.181535 0.313445
v 0.229065 3.126817 0.370905
v 0.349654 3.068083 0.299350
v 0.375332 3.117051 0.308164
v -0.152206 3.167786 0.308162
v 0.279840 3.190413 0.363859
v -0.135150 3.114708 0.299348
v -0.099534 3.090553 0.307899
vn -0.4490 0.0320 0.8930
vn -0.5596 -0.4379 0.7036
vn -0.5340 -0.6190 0.5760
vn 0.7925 0.2158 0.5704
vn 0.2204 0.7223 0.6555
vn 0.6050 -0.6110 0.5105
vn 0.0943 0.9799 0.1756
vn 0.1330 0.9756 0.1746
vn 0.1322 0.9752 0.1775
vn 0.0942 0.9806 0.1720
vn 0.0546 0.9827 0.1771
vn 0.0549 0.9832 0.1741
vn -0.1210 -0.9920 0.0349
vn -0.1209 -0.9920 0.0349
vn -0.0704 -0.9969 0.0349
vn -0.0703 -0.9969 0.0349
vn -0.0957 -0.9948 0.0350
vn -0.0295 0.9190 0.3932
vn -0.6122 0.3964 0.6842
vn -0.9571 0.2829 0.0623
vn 0.9912 0.1173 0.0621
vn -0.5863 0.4924 0.6432
vn 0.4818 -0.6966 0.5316
vn 0.8787 0.0609 0.4736
vn 0.6009 0.2675 0.7532
vn 0.3984 0.4961 0.7715
vn -0.1172 0.4841 0.8671
vn 0.5516 -0.6395 0.5355
vn -0.4114 0.7457 0.5241
vn -0.2523 -0.7790 0.5741
vn -0.0805 -0.4856 0.8705
vn -0.0804 -0.4856 0.8705
vn -0.0470 -0.4888 0.8711
vn -0.0134 -0.4917 0.8707
vn -0.0133 -0.4917 0.8707
vn 0.8570 -0.2836 0.4303
vn 0.3460 0.5333 0.7719
vn -0.9712 0.1610 0.1756
vn -0.0307 -0.1768 0.9838
vn -0.7430 0.3741 0.5550
vn -0.4798 0.8719 0.0980
vn -0.8572 0.5054 0.0992
vn -0.4338 0.1124 0.8940
vn -0.0464 -0.2320 0.9716
vn 0.0020 -0.9980 0.0632
vn -0.1837 0.4744 0.8610
vn 0.1868 0.9623 0.1978
vn -0.2279 0.1227 0.9659
vn 0.5494 -0.8207 0.1569
vn 0.0879 0.1111 0.9899
vn -0.9202 0.2659 0.2873
vn 0.3257 0.6331 0.7022
vn 0.4813 0.2018 0.8530
vn 0.7979 -0.1791 0.5756
vn 0.3634 -0.4079 0.8376
vn -0.1578 -0.5937 0.7891
vn -0.4591 -0.3951 0.7957
vn -0.7835 -0.3169 0.5346
vn -0.9268 0.1225 0.3549
vn -0.1453 -0.5164 0.8439
vn -0.4420 0.5537 0.7058
vn 0.0316 -0.2398 0.9703
vn 0.3156 -0.3213 0.8928
vn 0.2783 0.3331 0.9009
vn 0.7064 0.6529 0.2733
vn -0.2949 0.9429 -0.1548
vn -0.9673 -0.2441 0.0693
vn -0.9877 0.0811 0.1340
vn -0.5730 0.7906 0.2158
vn 0.9917 -0.0371 0.1232
vn -0.7985 -0.0796 0.5968
vn -0.4113 0.6776 0.6097
vn -0.1181 -0.8364 0.5353
vn 0.6848 -0.1464 0.7139
vn 0.6041 -0.2915 0.7417
vn -0.0768 -0.6323 0.7709
vn 0.4918 0.6411 0.5892
vn -0.1381 -0.1431 0.9800
vn -0.8107 0.2404 0.5339
vn -0.0702 -0.9952 -0.0680
vn 0.2426 -0.9671 -0.0764
vn -0.3747 -0.9226 -0.0917
vn 0.5992 -0.7865 -0.1498
vn -0.6103 -0.7899 -0.0593
vn -0.7548 -0.6539 -0.0508
vn -0.8340 -0.5395 0.1161
vn -0.9094 -0.4034 -0.1015
vn -0.9976 0.0695 -0.0034
vn -0.9527 0.2774 0.1243
vn -0.9451 0.3267 0.0023
vn -0.7391 0.6729 0.0313
vn -0.4150 0.9087 0.0443
vn -0.0788 0.9947 0.0664
vn 0.1226 0.9902 0.0671
vn 0.3152 0.9468 0.0650
vn 0.4932 0.8678 0.0603
vn 0.6793 0.7328 0.0399
vn 0.8877 0.4591 0.0353
vn 0.9595 0.2807 0.0231
vn 0.9957 0.0919 0.0123
vn 0.9828 -0.1758 -0.0566
vn 0.8902 -0.4547 -0.0260
vn -0.1207 -0.9904 -0.0679
vn -0.0326 -0.9985 0.0439
vn -0.3120 -0.9478 -0.0660
vn 0.2311 -0.9684 -0.0940
vn -0.5182 -0.8530 -0.0625
vn -0.7138 -0.6936 0.0973
vn -0.7925 -0.6019 -0.0982
vn 0.3999 -0.9165 -0.0103
vn 0.4533 -0.8896 -0.0558
vn 0.6233 -0.7804 -0.0494
vn 0.7683 -0.6389 -0.0399
vn 0.9199 -0.3889 -0.0504
vn 0.9995 0.0267 -0.0165
vn 0.8747 0.2943 -0.3850
vn 0.0680 0.9954 0.0675
vn 0.8670 0.4781 -0.1406
vn -0.1308 0.9892 0.0655
vn -0.3236 0.9442 0.0620
vn -0.5357 0.8431 0.0465
vn -0.6594 0.7504 0.0459
vn -0.7942 0.6065 0.0366
vn -0.8975 0.4403 0.0240
vn -0.9661 0.2580 0.0122
vn -0.9977 -0.0542 -0.0419
vt 0.862459 0.227631
vt 0.862459 0.272369
vt 0.851390 0.291997
vt 0.864662 0.250000
vt 0.857634 0.228590
vt 0.845338 0.313703
vt 0.588101 0.750000
vt 0.587119 0.758318
vt 0.562500 0.764186
vt 0.562500 0.750000
vt 0.750000 0.135338
vt 0.728590 0.142366
vt 0.813703 0.154662
vt 0.791997 0.148611
vt 0.728590 0.357635
vt 0.658752 0.310970
vt 0.642366 0.271410
vt 0.658752 0.189030
vt 0.708003 0.148611
vt 0.841248 0.310970
vt 0.810970 0.158752
vt 0.648611 0.208003
vt 0.648611 0.291997
vt 0.706121 0.355934
vt 0.686297 0.345338
vt 0.888859 0.277621
vt 0.957024 0.335752
vt 0.793716 0.469776
vt 0.777621 0.388859
vt 0.588072 0.088072
vt 0.542975 0.164248
vt 0.705324 0.025400
vt 0.664248 0.457025
vt 0.794676 0.474600
vt 0.705325 0.474601
vt 0.662365 0.038431
vt 0.750000 0.020999
vt 0.835752 0.042976
vt 0.563683 0.374493
vt 0.625507 0.063683
vt 0.957024 0.164248
vt 0.969776 0.293716
vt 0.888859 0.222379
vt 0.828657 0.132281
vt 0.722379 0.111141
vt 0.649888 0.149888
vt 0.611141 0.222379
vt 0.608420 0.250000
vt 0.632281 0.328658
vt 0.695820 0.380803
vt 0.828658 0.367719
vt 0.874493 0.436317
vt 0.706284 0.030224
vt 0.877226 0.059593
vt 0.794676 0.025399
vt 0.542976 0.335753
vt 0.525399 0.205324
vt 0.520999 0.250000
vt 0.837635 0.038431
vt 0.911928 0.088072
vt 0.538431 0.337635
vt 0.626746 0.274517
vt 0.626760 0.274514
vt 0.624331 0.250000
vt 0.632281 0.171343
vt 0.867719 0.171343
vt 0.874493 0.063683
vt 0.750000 0.391580
vt 0.000000 0.516502
vt 0.000000 0.723297
vt 0.031250 0.744864
vt 1.000000 0.723297
vt 1.000000 0.516502
vt 0.968750 0.516502
vt 0.968750 0.702676
vt 0.125000 0.516502
vt 0.093750 0.516502
vt 0.125000 0.784601
vt 0.937500 0.681135
vt 0.906250 0.516502
vt 0.906250 0.657383
vt 0.875000 0.636672
vt 0.875000 0.516502
vt 0.843750 0.516502
vt 0.843750 0.619092
vt 0.812500 0.516502
vt 0.750000 0.516502
vt 0.750000 0.576308
vt 0.781250 0.593328
vt 0.718750 0.516502
vt 0.718750 0.563738
vt 0.687500 0.516502
vt 0.687500 0.556102
vt 0.656250 0.516502
vt 0.656250 0.553693
vt 0.625000 0.516502
vt 0.593750 0.516502
vt 0.593750 0.553207
vt 0.625000 0.549909
vt 0.562500 0.516502
vt 0.531250 0.516502
vt 0.531250 0.580553
vt 0.562500 0.565094
vt 0.500000 0.516502
vt 0.500000 0.601789
vt 0.468750 0.516502
vt 0.468750 0.628160
vt 0.437500 0.516502
vt 0.437500 0.655988
vt 0.406250 0.516502
vt 0.406250 0.685327
vt 0.375000 0.516502
vt 0.375000 0.710446
vt 0.343750 0.516502
vt 0.343750 0.733201
vt 0.312500 0.516502
vt 0.312500 0.754682
vt 0.281250 0.516502
vt 0.281250 0.774062
vt 0.250000 0.516502
vt 0.250000 0.790598
vt 0.218750 0.795829
vt 0.218750 0.516502
vt 0.187500 0.516502
vt 0.187500 0.795492
vt 0.156250 0.516502
vt 0.156250 0.791701
vt 0.062500 0.516502
vt 0.062500 0.761685
vt 0.093750 0.774466
vt 0.031250 0.516502
vt 0.125000 0.784602
vt 0.937500 0.681136
vt 0.937500 0.516502
vt 0.812500 0.604544
vt 0.781250 0.593329
vt 0.781250 0.516502
vt 0.718750 0.563739
vt 0.625000 0.549910
vt 0.531250 0.580554
vt 0.398910 0.692728
vt 0.281250 0.774063
vt 0.961569 0.337635
vt 0.911928 0.411928
vt 0.835752 0.457024
vt 0.622774 0.440407
vt 0.559593 0.377226
vt 0.837635 0.461569
vt 0.961569 0.162365
vt 0.974600 0.205324
s 1
f 7/1/1 6/2/2 5/3/3
f 11/4/4 15/5/5 14/6/6
f 28/7/7 29/8/8 26/8/9 23/7/10 20/8/11 22/8/12
f 25/9/13 27/9/14 21/9/15 19/9/16 24/10/17
f 12/11/18 16/12/19 15/13/5
f 20/8/20 19/9/20 21/9/20 22/8/20
f 26/8/21 29/8/21 27/9/21 25/9/21
f 8/14/22 7/5/1 5/3/3 4/15/23 3/16/24 2/17/25 1/18/26 9/19/27
f 13/15/28 14/20/6 15/21/5 16/12/19 17/22/29 18/23/30
f 27/9/31 29/8/32 28/7/33 22/8/34 21/9/35
f 3/16/24 4/24/23 10/25/36
f 48/26/37 35/27/38 33/28/39 47/29/40
f 66/30/41 67/31/42 65/32/43
f 45/33/44 33/34/39 46/35/45
f 41/36/46 40/37/47 39/38/48
f 44/39/49 42/31/50 41/40/46 39/38/48 37/41/51 35/42/38 48/26/37 49/43/52 50/44/53 51/45/54 52/46/55 30/47/56 31/48/57 32/49/58 53/50/59 47/29/40 33/28/39 45/33/44
f 54/26/60 73/51/61 59/52/62 60/27/63 61/42/64
f 65/53/43 63/54/65 64/55/66
f 69/56/67 67/57/42 68/58/68
f 39/59/48 38/60/69 37/41/51
f 44/61/49 43/57/70 42/31/50
f 56/62/71 77/63/72 76/64/73
f 76/65/73 75/45/74 55/44/75 74/66/76 54/26/60 61/42/64 62/41/77 63/67/65 65/53/43 67/31/42 69/56/67 71/33/78 59/52/62 73/51/61 72/68/79 77/49/72 56/48/71
f 46/69/45 79/70/80 117/71/81
f 79/72/80 46/73/45 33/74/39 94/75/82
f 44/76/49 45/77/44 90/78/83
f 94/79/82 33/80/39 102/81/84
f 105/82/85 102/81/84 33/80/39 34/83/86
f 105/82/85 34/84/86 101/85/87
f 101/85/87 34/84/86 35/86/38
f 35/87/38 115/88/88 101/89/87
f 35/87/38 36/90/89 111/91/90 115/88/88
f 111/91/90 36/90/89 37/92/51
f 111/93/90 37/94/51 114/95/91
f 37/94/51 38/96/69 114/95/91
f 38/97/69 97/98/92 114/99/91
f 38/97/69 39/100/48 97/98/92
f 39/101/48 81/102/93 97/103/92
f 40/104/47 84/105/94 81/102/93 39/101/48
f 84/105/94 40/106/47 89/107/95
f 89/107/95 40/106/47 41/108/46 96/109/96
f 96/109/96 41/110/46 103/111/97
f 103/111/97 41/110/46 42/112/50
f 103/113/97 42/114/50 106/115/98
f 106/115/98 42/116/50 108/117/99
f 108/117/99 42/116/50 43/118/70 109/119/100
f 109/119/100 43/120/70 113/121/101
f 113/122/101 43/123/70 44/124/49 93/125/102
f 93/125/102 44/126/49 90/127/83
f 45/128/44 117/129/81 90/130/83
f 45/128/44 46/131/45 117/129/81
f 86/70/103 57/69/104 71/131/78 83/71/105
f 85/75/106 57/73/104 86/72/103
f 98/130/107 70/76/108 110/132/109
f 85/133/106 58/134/110 57/74/104
f 92/81/111 59/80/62 58/134/110 85/133/106
f 100/82/112 59/80/62 92/81/111
f 104/85/113 60/84/63 59/83/62 100/82/112
f 112/135/114 60/84/63 104/85/113
f 112/136/114 61/137/64 60/86/63
f 116/88/115 61/137/64 112/136/114
f 62/92/77 61/90/64 116/138/115
f 118/139/116 63/96/65 62/94/77
f 64/100/66 63/97/65 118/98/116
f 80/105/117 65/104/43 64/101/66 119/140/118
f 88/107/119 65/104/43 80/105/117
f 78/109/120 66/108/41 65/106/43 88/107/119
f 82/111/121 66/108/41 78/109/120
f 87/113/122 66/110/41 82/141/121
f 91/115/123 67/114/42 66/112/41 87/113/122
f 95/117/124 67/114/42 91/115/123
f 99/142/125 67/116/42 95/117/124
f 107/121/126 68/120/68 67/118/42 99/142/125
f 107/122/126 69/123/67 68/120/68
f 110/125/109 69/123/67 107/122/126
f 110/132/109 70/76/108 69/126/67
f 98/129/107 71/128/78 70/77/108
f 83/71/105 71/128/78 98/129/107
f 35/143/38 34/144/86 33/145/39
f 70/146/108 71/33/78 69/147/67
f 57/34/104 58/148/110 59/52/62 71/35/78
f 35/42/38 37/149/51 36/150/89
