# Blender 4.2.2 LTS
# www.blender.org
o teal
v 0.155300 3.137053 0.280468
v 0.152310 3.152076 0.280749
v 0.155937 3.166917 0.279678
v 0.217762 3.215104 0.283918
v 0.241011 3.201334 0.283899
v 0.258667 3.165289 0.282989
v 0.261468 3.138007 0.283405
v 0.249703 3.113132 0.282253
v 0.230420 3.093860 0.281894
v 0.205225 3.083430 0.281699
v 0.177691 3.082060 0.282361
v 0.152008 3.092693 0.282559
v 0.133477 3.113132 0.282253
v 0.121698 3.151940 0.282977
v 0.134725 3.189929 0.283449
v 0.152760 3.210021 0.284061
v 0.177955 3.220451 0.284255
v 0.198124 3.185373 0.273688
v 0.220688 3.171958 0.273675
v 0.226585 3.152527 0.273313
v 0.216336 3.127795 0.272851
v 0.191590 3.117551 0.272660
v 0.171395 3.122279 0.273436
v 0.172148 3.181607 0.273855
v -0.230180 3.152157 0.279402
v -0.206358 3.116525 0.278738
v -0.153741 3.159681 0.279543
v -0.205225 3.220451 0.284255
v -0.219621 3.219296 0.288834
v -0.241011 3.201334 0.283899
v -0.259043 3.179676 0.286601
v -0.262836 3.151899 0.283664
v -0.259263 3.123646 0.287050
v -0.230420 3.093860 0.281894
v -0.219621 3.084026 0.286311
v -0.191590 3.080692 0.282336
v -0.152760 3.093860 0.281894
v -0.128405 3.125798 0.282253
v -0.121698 3.151940 0.282977
v -0.128405 3.178112 0.283228
v -0.152760 3.210021 0.284061
v -0.177955 3.220451 0.284255
v -0.198417 3.186831 0.273953
v -0.219439 3.171139 0.273423
v -0.216335 3.127795 0.272851
v -0.184763 3.118223 0.272673
v -0.162492 3.133095 0.272950
v -0.166844 3.177258 0.273774
v -0.163559 3.081546 0.327157
v 0.191590 3.221192 0.349495
v -0.191590 3.076938 0.311182
v 0.205880 3.078721 0.304990
v -0.150895 3.087789 0.335875
v -0.177300 3.219401 0.355784
v 0.191590 3.076938 0.311182
v -0.219621 3.216369 0.337045
v -0.191590 3.221192 0.349495
v -0.139795 3.096447 0.343400
v -0.177300 3.077875 0.318931
v 0.177300 3.077875 0.318931
v 0.139795 3.198660 0.367047
v -0.130685 3.107136 0.350271
v -0.232285 3.210026 0.329963
v 0.123917 3.174716 0.369793
v 0.207349 3.219743 0.342830
v -0.123916 3.119412 0.356797
v 0.163559 3.081546 0.327157
v 0.219621 3.083162 0.300541
v -0.150895 3.207944 0.364248
v -0.119748 3.132800 0.362729
v -0.243385 3.201290 0.323729
v 0.259263 3.178111 0.313877
v 0.232285 3.210026 0.329963
v 0.139795 3.096447 0.343400
v -0.252494 3.190510 0.318373
v 0.243385 3.201290 0.323729
v 0.130686 3.107136 0.350271
v -0.119748 3.160977 0.369635
v 0.123917 3.119412 0.356797
v 0.119748 3.132800 0.362729
v -0.130685 3.187441 0.368919
v 0.259263 3.122941 0.298647
v -0.263431 3.164577 0.310336
v 0.118341 3.146788 0.367836
v 0.243385 3.099302 0.296391
v 0.264839 3.150598 0.305086
v -0.264839 3.150598 0.305086
v 0.163559 3.214937 0.360632
v -0.243385 3.099302 0.296391
v -0.205880 3.078721 0.304990
v 0.155300 3.137053 0.280468
v 0.152310 3.152076 0.280749
v 0.155937 3.166917 0.279678
v 0.198124 3.185373 0.273688
v 0.220688 3.171958 0.273675
v 0.226585 3.152527 0.273313
v 0.216336 3.127795 0.272851
v 0.191590 3.117551 0.272660
v 0.171395 3.122279 0.273436
v 0.172148 3.181607 0.273855
v -0.230180 3.152157 0.279402
v -0.206358 3.116525 0.278738
v -0.198417 3.186831 0.273953
v -0.219439 3.171139 0.273423
v -0.216335 3.127795 0.272851
v -0.184763 3.118223 0.272673
v -0.162492 3.133095 0.272950
v -0.166844 3.177258 0.273774
v 0.032895 3.083618 0.365142
v 0.018271 3.022475 0.331517
v 0.031236 3.082561 0.341628
v 0.017750 3.026134 0.311266
v -0.000000 3.009953 0.325088
v -0.000000 3.082834 0.366778
v -0.032895 3.083618 0.365142
v -0.018271 3.022475 0.331517
v -0.031236 3.082561 0.341628
v -0.000000 3.025484 0.310918
v -0.017750 3.026134 0.311266
vn 0.2983 0.5651 0.7692
vn -0.9815 0.0767 0.1756
vn -0.0101 -0.1756 0.9844
vn -0.7751 0.3039 0.5539
vn -0.5564 0.8254 0.0952
vn -0.8990 0.4271 0.0970
vn -0.4429 0.0758 0.8933
vn -0.0278 -0.2306 0.9726
vn 0.0968 -0.9930 0.0672
vn -0.2240 0.4591 0.8597
vn 0.0947 0.9764 0.1940
vn -0.2387 0.1053 0.9654
vn 0.6180 -0.7697 0.1601
vn 0.0802 0.1213 0.9894
vn -0.9405 0.1864 0.2841
vn 0.2705 0.6601 0.7008
vn 0.4617 0.2453 0.8525
vn 0.8112 -0.1016 0.5759
vn 0.3999 -0.3699 0.8386
vn -0.1053 -0.6036 0.7903
vn -0.4242 -0.4306 0.7966
vn -0.7532 -0.3819 0.5356
vn -0.9343 0.0384 0.3543
vn -0.0995 -0.5252 0.8451
vn -0.4895 0.5131 0.7051
vn 0.0511 -0.2316 0.9715
vn 0.3410 -0.2892 0.8945
vn 0.2450 0.3516 0.9035
vn 0.6447 0.7147 0.2712
vn -0.3812 0.9110 -0.1573
vn -0.9429 -0.3252 0.0715
vn -0.9910 -0.0021 0.1342
vn -0.6432 0.7359 0.2116
vn 0.9912 0.0482 0.1232
vn -0.7882 -0.1479 0.5974
vn -0.4726 0.6382 0.6077
vn -0.0414 -0.8422 0.5375
vn 0.6955 -0.0802 0.7140
vn 0.6291 -0.2318 0.7420
vn -0.0200 -0.6341 0.7730
vn 0.4360 0.6822 0.5869
vn -0.1243 -0.1508 0.9807
vn -0.8294 0.1656 0.5335
vn 0.0251 -0.9979 -0.0604
vn 0.3320 -0.9407 -0.0695
vn -0.2854 -0.9547 -0.0842
vn 0.6676 -0.7303 -0.1447
vn -0.5342 -0.8437 -0.0525
vn -0.6926 -0.7200 -0.0448
vn -0.7807 -0.6134 0.1190
vn -0.8713 -0.4810 -0.0978
vn -0.9999 -0.0154 -0.0030
vn -0.9729 0.1953 0.1235
vn -0.9699 0.2435 -0.0007
vn -0.7973 0.6030 0.0252
vn -0.4990 0.8658 0.0368
vn -0.1734 0.9831 0.0589
vn 0.0275 0.9978 0.0598
vn 0.2247 0.9727 0.0584
vn 0.4111 0.9100 0.0542
vn 0.6116 0.7904 0.0353
vn 0.8447 0.5344 0.0318
vn 0.9322 0.3613 0.0208
vn 0.9844 0.1754 0.0111
vn 0.9941 -0.0925 -0.0560
vn 0.9262 -0.3764 -0.0233
vn -0.0254 -0.9979 -0.0603
vn 0.0628 -0.9969 0.0476
vn -0.2212 -0.9735 -0.0587
vn 0.3216 -0.9429 -0.0869
vn -0.4383 -0.8970 -0.0562
vn -0.6451 -0.7575 0.1001
vn -0.7370 -0.6694 -0.0938
vn 0.4846 -0.8747 -0.0061
vn 0.5334 -0.8444 -0.0495
vn 0.6917 -0.7208 -0.0442
vn 0.8216 -0.5689 -0.0357
vn 0.9497 -0.3094 -0.0484
vn 0.9937 0.1106 -0.0168
vn 0.8445 0.3703 -0.3868
vn -0.0274 0.9978 0.0601
vn 0.8175 0.5576 -0.1441
vn -0.2244 0.9728 0.0578
vn -0.4110 0.9100 0.0547
vn -0.6112 0.7904 0.0399
vn -0.7244 0.6882 0.0400
vn -0.8446 0.5344 0.0320
vn -0.9322 0.3614 0.0210
vn -0.9845 0.1750 0.0107
vn -0.9893 -0.1398 -0.0408
vn -0.4498 -0.0084 0.8931
vn -0.5197 -0.4828 0.7049
vn -0.4774 -0.6623 0.5774
vn 0.7710 0.2841 0.5700
vn 0.1566 0.7406 0.6534
vn 0.6571 -0.5537 0.5115
vn -0.0000 0.9855 0.1697
vn 0.0392 0.9849 0.1688
vn 0.0390 0.9845 0.1711
vn -0.0000 0.9860 0.1667
vn -0.0390 0.9845 0.1712
vn -0.0392 0.9850 0.1683
vn -0.0255 -0.9988 0.0424
vn -0.0254 -0.9988 0.0424
vn 0.0254 -0.9988 0.0424
vn 0.0255 -0.9988 0.0424
vn -0.0000 -0.9991 0.0425
vn -0.1139 0.9137 0.3901
vn -0.6468 0.3387 0.6834
vn -0.9778 0.2008 0.0606
vn 0.9778 0.2008 0.0606
vn -0.6303 0.4357 0.6425
vn 0.5443 -0.6481 0.5326
vn 0.8697 0.1392 0.4735
vn 0.5764 0.3192 0.7523
vn 0.3549 0.5302 0.7700
vn -0.1598 0.4731 0.8664
vn 0.6093 -0.5836 0.5369
vn -0.4740 0.7087 0.5225
vn -0.1843 -0.7964 0.5760
vn -0.0338 -0.4876 0.8724
vn -0.0337 -0.4876 0.8724
vn -0.0000 -0.4878 0.8730
vn 0.0337 -0.4876 0.8724
vn 0.0338 -0.4876 0.8724
vn 0.8797 -0.1998 0.4316
vt 0.888859 0.277621
vt 0.957024 0.335752
vt 0.793716 0.469776
vt 0.777621 0.388859
vt 0.588072 0.088072
vt 0.542975 0.164248
vt 0.705324 0.025400
vt 0.664248 0.457025
vt 0.794676 0.474600
vt 0.705325 0.474601
vt 0.662365 0.038431
vt 0.750000 0.020999
vt 0.835752 0.042976
vt 0.563683 0.374493
vt 0.625507 0.063683
vt 0.957024 0.164248
vt 0.969776 0.293716
vt 0.888859 0.222379
vt 0.828657 0.132281
vt 0.722379 0.111141
vt 0.649888 0.149888
vt 0.611141 0.222379
vt 0.608420 0.250000
vt 0.632281 0.328658
vt 0.695820 0.380803
vt 0.828658 0.367719
vt 0.874493 0.436317
vt 0.706284 0.030224
vt 0.877226 0.059593
vt 0.794676 0.025399
vt 0.542976 0.335753
vt 0.525399 0.205324
vt 0.520999 0.250000
vt 0.837635 0.038431
vt 0.911928 0.088072
vt 0.538431 0.337635
vt 0.626746 0.274517
vt 0.626760 0.274514
vt 0.624331 0.250000
vt 0.632281 0.171343
vt 0.867719 0.171343
vt 0.874493 0.063683
vt 0.750000 0.391580
vt 0.000000 0.516502
vt 0.000000 0.723297
vt 0.031250 0.744864
vt 1.000000 0.723297
vt 1.000000 0.516502
vt 0.968750 0.516502
vt 0.968750 0.702676
vt 0.125000 0.516502
vt 0.093750 0.516502
vt 0.125000 0.784601
vt 0.937500 0.681135
vt 0.906250 0.516502
vt 0.906250 0.657383
vt 0.875000 0.636672
vt 0.875000 0.516502
vt 0.843750 0.516502
vt 0.843750 0.619092
vt 0.812500 0.516502
vt 0.750000 0.516502
vt 0.750000 0.576308
vt 0.781250 0.593328
vt 0.718750 0.516502
vt 0.718750 0.563738
vt 0.687500 0.516502
vt 0.687500 0.556102
vt 0.656250 0.516502
vt 0.656250 0.553693
vt 0.625000 0.516502
vt 0.593750 0.516502
vt 0.593750 0.553207
vt 0.625000 0.549909
vt 0.562500 0.516502
vt 0.531250 0.516502
vt 0.531250 0.580553
vt 0.562500 0.565094
vt 0.500000 0.516502
vt 0.500000 0.601789
vt 0.468750 0.516502
vt 0.468750 0.628160
vt 0.437500 0.516502
vt 0.437500 0.655988
vt 0.406250 0.516502
vt 0.406250 0.685327
vt 0.375000 0.516502
vt 0.375000 0.710446
vt 0.343750 0.516502
vt 0.343750 0.733201
vt 0.312500 0.516502
vt 0.312500 0.754682
vt 0.281250 0.516502
vt 0.281250 0.774062
vt 0.250000 0.516502
vt 0.250000 0.790598
vt 0.218750 0.795829
vt 0.218750 0.516502
vt 0.187500 0.516502
vt 0.187500 0.795492
vt 0.156250 0.516502
vt 0.156250 0.791701
vt 0.062500 0.516502
vt 0.062500 0.761685
vt 0.093750 0.774466
vt 0.031250 0.516502
vt 0.125000 0.784602
vt 0.937500 0.681136
vt 0.937500 0.516502
vt 0.812500 0.604544
vt 0.781250 0.593329
vt 0.781250 0.516502
vt 0.718750 0.563739
vt 0.625000 0.549910
vt 0.531250 0.580554
vt 0.398910 0.692728
vt 0.281250 0.774063
vt 0.961569 0.337635
vt 0.911928 0.411928
vt 0.835752 0.457024
vt 0.622774 0.440407
vt 0.559593 0.377226
vt 0.837635 0.461569
vt 0.961569 0.162365
vt 0.974600 0.205324
vt 0.862459 0.227631
vt 0.862459 0.272369
vt 0.851390 0.291997
vt 0.864662 0.250000
vt 0.857634 0.228590
vt 0.845338 0.313703
vt 0.588101 0.750000
vt 0.587119 0.758318
vt 0.562500 0.764186
vt 0.562500 0.750000
vt 0.750000 0.135338
vt 0.728590 0.142366
vt 0.813703 0.154662
vt 0.791997 0.148611
vt 0.728590 0.357635
vt 0.658752 0.310970
vt 0.642366 0.271410
vt 0.658752 0.189030
vt 0.708003 0.148611
vt 0.841248 0.310970
vt 0.810970 0.158752
vt 0.648611 0.208003
vt 0.648611 0.291997
vt 0.706121 0.355934
vt 0.686297 0.345338
s 1
f 19/1/1 6/2/2 4/3/3 18/4/4
f 37/5/5 38/6/6 36/7/7
f 16/8/8 4/9/3 17/10/9
f 12/11/10 11/12/11 10/13/12
f 15/14/13 13/6/14 12/15/10 10/13/12 8/16/15 6/17/2 19/1/1 20/18/16 21/19/17 22/20/18 23/21/19 1/22/20 2/23/21 3/24/22 24/25/23 18/4/4 4/3/3 16/8/8
f 25/1/24 44/26/25 30/27/26 31/2/27 32/17/28
f 36/28/7 34/29/29 35/30/30
f 40/31/31 38/32/6 39/33/32
f 10/34/12 9/35/33 8/16/15
f 15/36/13 14/32/34 13/6/14
f 27/37/35 48/38/36 47/39/37
f 47/40/37 46/20/38 26/19/39 45/41/40 25/1/24 32/17/28 33/16/41 34/42/29 36/28/7 38/6/6 40/31/31 42/8/42 30/27/26 44/26/25 43/43/43 48/24/36 27/23/35
f 17/44/9 50/45/44 88/46/45
f 50/47/44 17/48/9 4/49/3 65/50/46
f 15/51/13 16/52/8 61/53/47
f 65/54/46 4/55/3 73/56/48
f 76/57/49 73/56/48 4/55/3 5/58/50
f 76/57/49 5/59/50 72/60/51
f 72/60/51 5/59/50 6/61/2
f 6/62/2 86/63/52 72/64/51
f 6/62/2 7/65/53 82/66/54 86/63/52
f 82/66/54 7/65/53 8/67/15
f 82/68/54 8/69/15 85/70/55
f 8/69/15 9/71/33 85/70/55
f 9/72/33 68/73/56 85/74/55
f 9/72/33 10/75/12 68/73/56
f 10/76/12 52/77/57 68/78/56
f 11/79/11 55/80/58 52/77/57 10/76/12
f 55/80/58 11/81/11 60/82/59
f 60/82/59 11/81/11 12/83/10 67/84/60
f 67/84/60 12/85/10 74/86/61
f 74/86/61 12/85/10 13/87/14
f 74/88/61 13/89/14 77/90/62
f 77/90/62 13/91/14 79/92/63
f 79/92/63 13/91/14 14/93/34 80/94/64
f 80/94/64 14/95/34 84/96/65
f 84/97/65 14/98/34 15/99/13 64/100/66
f 64/100/66 15/101/13 61/102/47
f 16/103/8 88/104/45 61/105/47
f 16/103/8 17/106/9 88/104/45
f 57/45/67 28/44/68 42/106/42 54/46/69
f 56/50/70 28/48/68 57/47/67
f 69/105/71 41/51/72 81/107/73
f 56/108/70 29/109/74 28/49/68
f 63/56/75 30/55/26 29/109/74 56/108/70
f 71/57/76 30/55/26 63/56/75
f 75/60/77 31/59/27 30/58/26 71/57/76
f 83/110/78 31/59/27 75/60/77
f 83/111/78 32/112/28 31/61/27
f 87/63/79 32/112/28 83/111/78
f 33/67/41 32/65/28 87/113/79
f 89/114/80 34/71/29 33/69/41
f 35/75/30 34/72/29 89/73/80
f 51/80/81 36/79/7 35/76/30 90/115/82
f 59/82/83 36/79/7 51/80/81
f 49/84/84 37/83/5 36/81/7 59/82/83
f 53/86/85 37/83/5 49/84/84
f 58/88/86 37/85/5 53/116/85
f 62/90/87 38/89/6 37/87/5 58/88/86
f 66/92/88 38/89/6 62/90/87
f 70/117/89 38/91/6 66/92/88
f 78/96/90 39/95/32 38/93/6 70/117/89
f 78/97/90 40/98/31 39/95/32
f 81/100/73 40/98/31 78/97/90
f 81/107/73 41/51/72 40/101/31
f 69/104/71 42/103/42 41/52/72
f 54/46/69 42/103/42 69/104/71
f 6/118/2 5/119/50 4/120/3
f 41/121/72 42/8/42 40/122/31
f 28/9/68 29/123/74 30/27/26 42/10/42
f 6/17/2 8/124/15 7/125/53
f 97/126/91 96/127/92 95/128/93
f 101/129/94 105/130/95 104/131/96
f 118/132/97 119/133/98 116/133/99 113/132/100 110/133/101 112/133/102
f 115/134/103 117/134/104 111/134/105 109/134/106 114/135/107
f 102/136/108 106/137/109 105/138/95
f 110/133/110 109/134/110 111/134/110 112/133/110
f 116/133/111 119/133/111 117/134/111 115/134/111
f 98/139/112 97/130/91 95/128/93 94/140/113 93/141/114 92/142/115 91/143/116 99/144/117
f 103/140/118 104/145/96 105/146/95 106/137/109 107/147/119 108/148/120
f 117/134/121 119/133/122 118/132/123 112/133/124 111/134/125
f 93/141/114 94/149/113 100/150/126
