# Blender 4.2.2 LTS
# www.blender.org
o teal
v 0.155300 3.123118 0.297672
v 0.152310 3.138125 0.298150
v 0.155937 3.153008 0.297275
v 0.217762 3.201000 0.302148
v 0.241011 3.187234 0.301947
v 0.258667 3.151239 0.300564
v 0.261468 3.123946 0.300620
v 0.249703 3.099128 0.299142
v 0.230420 3.079877 0.298529
v 0.205225 3.069458 0.298198
v 0.177691 3.068061 0.298841
v 0.152008 3.078682 0.299179
v 0.133477 3.099128 0.299142
v 0.121698 3.137895 0.300376
v 0.134725 3.175853 0.301347
v 0.152760 3.195912 0.302223
v 0.177955 3.206331 0.302555
v 0.198124 3.171715 0.291530
v 0.220688 3.158305 0.291340
v 0.226585 3.138895 0.290722
v 0.216336 3.114189 0.289936
v 0.191590 3.103957 0.289610
v 0.171395 3.108650 0.290447
v 0.172148 3.167944 0.291647
v -0.230180 3.138265 0.296805
v -0.206358 3.102670 0.295672
v -0.153741 3.145780 0.297044
v -0.205225 3.206331 0.302555
v -0.219621 3.204981 0.307118
v -0.241011 3.187234 0.301947
v -0.259043 3.165468 0.304363
v -0.262836 3.137824 0.301062
v -0.259263 3.109433 0.304076
v -0.230420 3.079877 0.298529
v -0.219621 3.069856 0.302816
v -0.191590 3.066694 0.298798
v -0.152760 3.079877 0.298529
v -0.128405 3.111790 0.299308
v -0.121698 3.137895 0.300376
v -0.128405 3.164048 0.300972
v -0.152760 3.195912 0.302223
v -0.177955 3.206331 0.302555
v -0.198417 3.173161 0.291813
v -0.219439 3.157497 0.291077
v -0.216335 3.114189 0.289936
v -0.184763 3.104628 0.289631
v -0.162492 3.119484 0.290104
v -0.166844 3.163599 0.291509
v -0.163559 3.065629 0.343618
v 0.191590 3.204279 0.367786
v -0.191590 3.061705 0.327587
v 0.205880 3.063754 0.321419
v -0.150895 3.071497 0.352416
v -0.177300 3.202220 0.374050
v 0.191590 3.061705 0.327587
v -0.219621 3.199991 0.355276
v -0.191590 3.204279 0.367786
v -0.139795 3.079831 0.360052
v -0.177300 3.062311 0.335346
v 0.177300 3.062311 0.335346
v 0.139795 3.181003 0.385037
v -0.130685 3.090223 0.367062
v -0.232285 3.193953 0.348113
v 0.123917 3.156948 0.387467
v 0.207349 3.203116 0.361104
v -0.123916 3.102215 0.373747
v 0.163559 3.065629 0.343618
v 0.219621 3.068384 0.317030
v -0.150895 3.190404 0.382361
v -0.119748 3.115346 0.379853
v -0.243385 3.185486 0.341765
v 0.259263 3.162735 0.331611
v 0.232285 3.193953 0.348113
v 0.139795 3.079831 0.360052
v -0.252494 3.174938 0.336270
v 0.243385 3.185486 0.341765
v 0.130686 3.090223 0.367062
v -0.119748 3.143219 0.387128
v 0.123917 3.102215 0.373747
v 0.119748 3.115346 0.379853
v -0.130685 3.169706 0.386760
v 0.259263 3.108233 0.315660
v -0.263431 3.149357 0.327894
v 0.118341 3.129111 0.385144
v 0.243385 3.084697 0.313093
v 0.264839 3.135606 0.322461
v -0.264839 3.135606 0.322461
v 0.163559 3.197549 0.378837
v -0.243385 3.084697 0.313093
v -0.205880 3.063754 0.321419
v 0.155300 3.123118 0.297672
v 0.152310 3.138125 0.298150
v 0.155937 3.153008 0.297275
v 0.198124 3.171715 0.291530
v 0.220688 3.158305 0.291340
v 0.226585 3.138895 0.290722
v 0.216336 3.114189 0.289936
v 0.191590 3.103957 0.289610
v 0.171395 3.108650 0.290447
v 0.172148 3.167944 0.291647
v -0.230180 3.138265 0.296805
v -0.206358 3.102670 0.295672
v -0.198417 3.173161 0.291813
v -0.219439 3.157497 0.291077
v -0.216335 3.114189 0.289936
v -0.184763 3.104628 0.289631
v -0.162492 3.119484 0.290104
v -0.166844 3.163599 0.291509
v 0.032895 3.066074 0.381619
v 0.018271 3.006387 0.347200
v 0.031236 3.066024 0.358098
v 0.017750 3.010912 0.327002
v -0.000000 2.994144 0.340608
v -0.000000 3.065220 0.383245
v -0.032895 3.066074 0.381619
v -0.018271 3.006387 0.347200
v -0.031236 3.066024 0.358098
v -0.000000 3.010277 0.326646
v -0.017750 3.010912 0.327002
vn 0.2969 0.5534 0.7782
vn -0.9819 0.0726 0.1750
vn -0.0126 -0.2078 0.9781
vn -0.7752 0.2962 0.5580
vn -0.5583 0.8221 0.1121
vn -0.8990 0.4250 0.1055
vn -0.4423 0.0462 0.8957
vn -0.0219 -0.2581 0.9659
vn 0.0952 -0.9945 0.0446
vn -0.2313 0.4367 0.8694
vn 0.0924 0.9718 0.2171
vn -0.2385 0.0766 0.9681
vn 0.6169 -0.7735 0.1451
vn 0.0725 0.1010 0.9922
vn -0.9393 0.1791 0.2925
vn 0.2704 0.6508 0.7094
vn 0.4617 0.2339 0.8556
vn 0.8112 -0.1092 0.5745
vn 0.4004 -0.3799 0.8339
vn -0.1021 -0.6148 0.7821
vn -0.4241 -0.4412 0.7909
vn -0.7524 -0.3901 0.5308
vn -0.9347 0.0294 0.3543
vn -0.0974 -0.5371 0.8379
vn -0.4904 0.5028 0.7119
vn 0.0610 -0.2541 0.9653
vn 0.3463 -0.3045 0.8873
vn 0.2447 0.3347 0.9100
vn 0.6443 0.7077 0.2900
vn -0.3823 0.9139 -0.1363
vn -0.9422 -0.3293 0.0623
vn -0.9910 -0.0059 0.1337
vn -0.6434 0.7300 0.2306
vn 0.9915 0.0436 0.1227
vn -0.7890 -0.1530 0.5950
vn -0.4727 0.6302 0.6160
vn -0.0419 -0.8491 0.5266
vn 0.6956 -0.0887 0.7129
vn 0.6302 -0.2371 0.7393
vn -0.0232 -0.6444 0.7643
vn 0.4336 0.6749 0.5970
vn -0.1237 -0.1819 0.9755
vn -0.8294 0.1589 0.5356
vn 0.0249 -0.9944 -0.1029
vn 0.3321 -0.9370 -0.1082
vn -0.2854 -0.9502 -0.1255
vn 0.6671 -0.7244 -0.1739
vn -0.5341 -0.8407 -0.0894
vn -0.6933 -0.7166 -0.0763
vn -0.7889 -0.6054 0.1051
vn -0.8712 -0.4769 -0.1166
vn -0.9999 -0.0137 -0.0050
vn -0.9716 0.1998 0.1269
vn -0.9693 0.2456 0.0118
vn -0.7959 0.6031 0.0519
vn -0.4980 0.8641 0.0736
vn -0.1731 0.9798 0.0998
vn 0.0274 0.9945 0.1014
vn 0.2236 0.9696 0.0991
vn 0.4098 0.9075 0.0921
vn 0.6097 0.7899 0.0664
vn 0.8433 0.5347 0.0542
vn 0.9313 0.3624 0.0355
vn 0.9840 0.1769 0.0190
vn 0.9943 -0.0881 -0.0603
vn 0.9269 -0.3733 -0.0396
vn -0.0255 -0.9944 -0.1028
vn 0.0643 -0.9977 0.0226
vn -0.2213 -0.9701 -0.0999
vn 0.3219 -0.9382 -0.1270
vn -0.4390 -0.8939 -0.0911
vn -0.6530 -0.7528 0.0829
vn -0.7374 -0.6651 -0.1178
vn 0.4859 -0.8735 -0.0306
vn 0.5327 -0.8421 -0.0845
vn 0.6919 -0.7181 -0.0753
vn 0.8221 -0.5661 -0.0607
vn 0.9499 -0.3071 -0.0588
vn 0.9935 0.1132 -0.0153
vn 0.8472 0.3827 -0.3684
vn -0.0273 0.9944 0.1020
vn 0.8181 0.5628 -0.1180
vn -0.2230 0.9699 0.0980
vn -0.4095 0.9076 0.0928
vn -0.6095 0.7893 0.0734
vn -0.7226 0.6880 0.0680
vn -0.8433 0.5347 0.0545
vn -0.9313 0.3625 0.0359
vn -0.9842 0.1762 0.0183
vn -0.9898 -0.1343 -0.0468
vn -0.4497 -0.0201 0.8929
vn -0.5198 -0.4920 0.6984
vn -0.4773 -0.6700 0.5686
vn 0.7699 0.2783 0.5743
vn 0.1557 0.7316 0.6637
vn 0.6578 -0.5595 0.5042
vn -0.0000 0.9789 0.2042
vn 0.0394 0.9785 0.2027
vn 0.0391 0.9776 0.2067
vn -0.0000 0.9800 0.1989
vn -0.0390 0.9776 0.2068
vn -0.0394 0.9786 0.2022
vn -0.0255 -0.9997 -0.0004
vn -0.0254 -0.9997 -0.0003
vn 0.0254 -0.9997 -0.0003
vn 0.0255 -0.9997 -0.0004
vn -0.0000 -1.0000 -0.0003
vn -0.1134 0.9052 0.4096
vn -0.6487 0.3252 0.6880
vn -0.9774 0.1998 0.0692
vn 0.9774 0.1998 0.0692
vn -0.6307 0.4265 0.6483
vn 0.5444 -0.6550 0.5240
vn 0.8691 0.1363 0.4755
vn 0.5763 0.3094 0.7564
vn 0.3540 0.5208 0.7769
vn -0.1626 0.4598 0.8730
vn 0.6093 -0.5905 0.5292
vn -0.4740 0.7018 0.5318
vn -0.1843 -0.8040 0.5654
vn -0.0337 -0.5051 0.8624
vn -0.0336 -0.5051 0.8624
vn -0.0000 -0.5052 0.8630
vn 0.0336 -0.5051 0.8624
vn 0.0337 -0.5051 0.8624
vn 0.8804 -0.2067 0.4269
vt 0.888859 0.277621
vt 0.957024 0.335752
vt 0.793716 0.469776
vt 0.777621 0.388859
vt 0.588072 0.088072
vt 0.542975 0.164248
vt 0.705324 0.025400
vt 0.664248 0.457025
vt 0.794676 0.474600
vt 0.705325 0.474601
vt 0.662365 0.038431
vt 0.750000 0.020999
vt 0.835752 0.042976
vt 0.563683 0.374493
vt 0.625507 0.063683
vt 0.957024 0.164248
vt 0.969776 0.293716
vt 0.888859 0.222379
vt 0.828657 0.132281
vt 0.722379 0.111141
vt 0.649888 0.149888
vt 0.611141 0.222379
vt 0.608420 0.250000
vt 0.632281 0.328658
vt 0.695820 0.380803
vt 0.828658 0.367719
vt 0.874493 0.436317
vt 0.706284 0.030224
vt 0.877226 0.059593
vt 0.794676 0.025399
vt 0.542976 0.335753
vt 0.525399 0.205324
vt 0.520999 0.250000
vt 0.837635 0.038431
vt 0.911928 0.088072
vt 0.538431 0.337635
vt 0.626746 0.274517
vt 0.626760 0.274514
vt 0.624331 0.250000
vt 0.632281 0.171343
vt 0.867719 0.171343
vt 0.874493 0.063683
vt 0.750000 0.391580
vt 0.000000 0.516502
vt 0.000000 0.723297
vt 0.031250 0.744864
vt 1.000000 0.723297
vt 1.000000 0.516502
vt 0.968750 0.516502
vt 0.968750 0.702676
vt 0.125000 0.516502
vt 0.093750 0.516502
vt 0.125000 0.784601
vt 0.937500 0.681135
vt 0.906250 0.516502
vt 0.906250 0.657383
vt 0.875000 0.636672
vt 0.875000 0.516502
vt 0.843750 0.516502
vt 0.843750 0.619092
vt 0.812500 0.516502
vt 0.750000 0.516502
vt 0.750000 0.576308
vt 0.781250 0.593328
vt 0.718750 0.516502
vt 0.718750 0.563738
vt 0.687500 0.516502
vt 0.687500 0.556102
vt 0.656250 0.516502
vt 0.656250 0.553693
vt 0.625000 0.516502
vt 0.593750 0.516502
vt 0.593750 0.553207
vt 0.625000 0.549909
vt 0.562500 0.516502
vt 0.531250 0.516502
vt 0.531250 0.580553
vt 0.562500 0.565094
vt 0.500000 0.516502
vt 0.500000 0.601789
vt 0.468750 0.516502
vt 0.468750 0.628160
vt 0.437500 0.516502
vt 0.437500 0.655988
vt 0.406250 0.516502
vt 0.406250 0.685327
vt 0.375000 0.516502
vt 0.375000 0.710446
vt 0.343750 0.516502
vt 0.343750 0.733201
vt 0.312500 0.516502
vt 0.312500 0.754682
vt 0.281250 0.516502
vt 0.281250 0.774062
vt 0.250000 0.516502
vt 0.250000 0.790598
vt 0.218750 0.795829
vt 0.218750 0.516502
vt 0.187500 0.516502
vt 0.187500 0.795492
vt 0.156250 0.516502
vt 0.156250 0.791701
vt 0.062500 0.516502
vt 0.062500 0.761685
vt 0.093750 0.774466
vt 0.031250 0.516502
vt 0.125000 0.784602
vt 0.937500 0.681136
vt 0.937500 0.516502
vt 0.812500 0.604544
vt 0.781250 0.593329
vt 0.781250 0.516502
vt 0.718750 0.563739
vt 0.625000 0.549910
vt 0.531250 0.580554
vt 0.398910 0.692728
vt 0.281250 0.774063
vt 0.961569 0.337635
vt 0.911928 0.411928
vt 0.835752 0.457024
vt 0.622774 0.440407
vt 0.559593 0.377226
vt 0.837635 0.461569
vt 0.961569 0.162365
vt 0.974600 0.205324
vt 0.862459 0.227631
vt 0.862459 0.272369
vt 0.851390 0.291997
vt 0.864662 0.250000
vt 0.857634 0.228590
vt 0.845338 0.313703
vt 0.588101 0.750000
vt 0.587119 0.758318
vt 0.562500 0.764186
vt 0.562500 0.750000
vt 0.750000 0.135338
vt 0.728590 0.142366
vt 0.813703 0.154662
vt 0.791997 0.148611
vt 0.728590 0.357635
vt 0.658752 0.310970
vt 0.642366 0.271410
vt 0.658752 0.189030
vt 0.708003 0.148611
vt 0.841248 0.310970
vt 0.810970 0.158752
vt 0.648611 0.208003
vt 0.648611 0.291997
vt 0.706121 0.355934
vt 0.686297 0.345338
s 1
f 19/1/1 6/2/2 4/3/3 18/4/4
f 37/5/5 38/6/6 36/7/7
f 16/8/8 4/9/3 17/10/9
f 12/11/10 11/12/11 10/13/12
f 15/14/13 13/6/14 12/15/10 10/13/12 8/16/15 6/17/2 19/1/1 20/18/16 21/19/17 22/20/18 23/21/19 1/22/20 2/23/21 3/24/22 24/25/23 18/4/4 4/3/3 16/8/8
f 25/1/24 44/26/25 30/27/26 31/2/27 32/17/28
f 36/28/7 34/29/29 35/30/30
f 40/31/31 38/32/6 39/33/32
f 10/34/12 9/35/33 8/16/15
f 15/36/13 14/32/34 13/6/14
f 27/37/35 48/38/36 47/39/37
f 47/40/37 46/20/38 26/19/39 45/41/40 25/1/24 32/17/28 33/16/41 34/42/29 36/28/7 38/6/6 40/31/31 42/8/42 30/27/26 44/26/25 43/43/43 48/24/36 27/23/35
f 17/44/9 50/45/44 88/46/45
f 50/47/44 17/48/9 4/49/3 65/50/46
f 15/51/13 16/52/8 61/53/47
f 65/54/46 4/55/3 73/56/48
f 76/57/49 73/56/48 4/55/3 5/58/50
f 76/57/49 5/59/50 72/60/51
f 72/60/51 5/59/50 6/61/2
f 6/62/2 86/63/52 72/64/51
f 6/62/2 7/65/53 82/66/54 86/63/52
f 82/66/54 7/65/53 8/67/15
f 82/68/54 8/69/15 85/70/55
f 8/69/15 9/71/33 85/70/55
f 9/72/33 68/73/56 85/74/55
f 9/72/33 10/75/12 68/73/56
f 10/76/12 52/77/57 68/78/56
f 11/79/11 55/80/58 52/77/57 10/76/12
f 55/80/58 11/81/11 60/82/59
f 60/82/59 11/81/11 12/83/10 67/84/60
f 67/84/60 12/85/10 74/86/61
f 74/86/61 12/85/10 13/87/14
f 74/88/61 13/89/14 77/90/62
f 77/90/62 13/91/14 79/92/63
f 79/92/63 13/91/14 14/93/34 80/94/64
f 80/94/64 14/95/34 84/96/65
f 84/97/65 14/98/34 15/99/13 64/100/66
f 64/100/66 15/101/13 61/102/47
f 16/103/8 88/104/45 61/105/47
f 16/103/8 17/106/9 88/104/45
f 57/45/67 28/44/68 42/106/42 54/46/69
f 56/50/70 28/48/68 57/47/67
f 69/105/71 41/51/72 81/107/73
f 56/108/70 29/109/74 28/49/68
f 63/56/75 30/55/26 29/109/74 56/108/70
f 71/57/76 30/55/26 63/56/75
f 75/60/77 31/59/27 30/58/26 71/57/76
f 83/110/78 31/59/27 75/60/77
f 83/111/78 32/112/28 31/61/27
f 87/63/79 32/112/28 83/111/78
f 33/67/41 32/65/28 87/113/79
f 89/114/80 34/71/29 33/69/41
f 35/75/30 34/72/29 89/73/80
f 51/80/81 36/79/7 35/76/30 90/115/82
f 59/82/83 36/79/7 51/80/81
f 49/84/84 37/83/5 36/81/7 59/82/83
f 53/86/85 37/83/5 49/84/84
f 58/88/86 37/85/5 53/116/85
f 62/90/87 38/89/6 37/87/5 58/88/86
f 66/92/88 38/89/6 62/90/87
f 70/117/89 38/91/6 66/92/88
f 78/96/90 39/95/32 38/93/6 70/117/89
f 78/97/90 40/98/31 39/95/32
f 81/100/73 40/98/31 78/97/90
f 81/107/73 41/51/72 40/101/31
f 69/104/71 42/103/42 41/52/72
f 54/46/69 42/103/42 69/104/71
f 6/118/2 5/119/50 4/120/3
f 41/121/72 42/8/42 40/122/31
f 28/9/68 29/123/74 30/27/26 42/10/42
f 6/17/2 8/124/15 7/125/53
f 97/126/91 96/127/92 95/128/93
f 101/129/94 105/130/95 104/131/96
f 118/132/97 119/133/98 116/133/99 113/132/100 110/133/101 112/133/102
f 115/134/103 117/134/104 111/134/105 109/134/106 114/135/107
f 102/136/108 106/137/109 105/138/95
f 110/133/110 109/134/110 111/134/110 112/133/110
f 116/133/111 119/133/111 117/134/111 115/134/111
f 98/139/112 97/130/91 95/128/93 94/140/113 93/141/114 92/142/115 91/143/116 99/144/117
f 103/140/118 104/145/96 105/146/95 106/137/109 107/147/119 108/148/120
f 117/134/121 119/133/122 118/132/123 112/133/124 111/134/125
f 93/141/114 94/149/113 100/150/126
