# Blender 4.2.2 LTS
# www.blender.org
o teal
v 0.155300 3.110016 0.312922
v 0.152310 3.125001 0.313576
v 0.155937 3.139914 0.312876
v 0.217762 3.187708 0.318314
v 0.241011 3.173953 0.317951
v 0.258667 3.138019 0.316144
v 0.261468 3.110730 0.315879
v 0.249703 3.085975 0.314109
v 0.230420 3.066751 0.313269
v 0.205225 3.056347 0.312815
v 0.177691 3.054925 0.313442
v 0.152008 3.065532 0.313905
v 0.133477 3.085975 0.314109
v 0.121698 3.124685 0.315799
v 0.134725 3.162597 0.317217
v 0.152760 3.182618 0.318329
v 0.177955 3.193022 0.318784
v 0.198124 3.158837 0.307353
v 0.220688 3.145437 0.307006
v 0.226585 3.126055 0.306159
v 0.216336 3.101385 0.305082
v 0.191590 3.091167 0.304636
v 0.171395 3.095827 0.305528
v 0.172148 3.155062 0.307426
v -0.230180 3.125191 0.312233
v -0.206358 3.089649 0.310681
v -0.153741 3.132696 0.312561
v -0.205225 3.193022 0.318784
v -0.219621 3.191497 0.323329
v -0.241011 3.173953 0.317951
v -0.259043 3.152098 0.320110
v -0.262836 3.124588 0.316484
v -0.259263 3.096088 0.319163
v -0.230420 3.066751 0.313269
v -0.219621 3.056568 0.317437
v -0.191590 3.053560 0.313382
v -0.152760 3.066751 0.313269
v -0.128405 3.098628 0.314424
v -0.121698 3.124685 0.315799
v -0.128405 3.150810 0.316702
v -0.152760 3.182618 0.318329
v -0.177955 3.193022 0.318784
v -0.198417 3.160272 0.307653
v -0.219439 3.144639 0.306733
v -0.216335 3.101385 0.305082
v -0.184763 3.091838 0.304665
v -0.162492 3.106672 0.305313
v -0.166844 3.150723 0.307236
v -0.163559 3.050777 0.358180
v 0.191590 3.188470 0.383976
v -0.191590 3.047470 0.342106
v 0.205880 3.049754 0.335964
v -0.150895 3.056307 0.367045
v -0.177300 3.186171 0.390214
v 0.191590 3.047470 0.342106
v -0.219621 3.184662 0.371418
v -0.191590 3.188470 0.383976
v -0.139795 3.064346 0.374778
v -0.177300 3.047777 0.349870
v 0.177300 3.047777 0.349870
v 0.139795 3.164537 0.400948
v -0.130685 3.074467 0.381908
v -0.232285 3.178900 0.364185
v 0.123917 3.140395 0.403095
v 0.207349 3.187563 0.377282
v -0.123916 3.086200 0.388733
v 0.163559 3.050777 0.358180
v 0.219621 3.054551 0.331631
v -0.150895 3.174039 0.398384
v -0.119748 3.099094 0.394993
v -0.243385 3.170679 0.357739
v 0.259263 3.148323 0.347320
v 0.232285 3.178900 0.364185
v 0.139795 3.064346 0.374778
v -0.252494 3.160343 0.352121
v 0.243385 3.170679 0.357739
v 0.130686 3.074467 0.381908
v -0.119748 3.126682 0.402594
v 0.123917 3.086200 0.388733
v 0.119748 3.099094 0.394993
v -0.130685 3.153177 0.402539
v 0.259263 3.094444 0.330730
v -0.263431 3.135089 0.343446
v 0.118341 3.112653 0.400444
v 0.243385 3.071011 0.327887
v 0.264839 3.121550 0.337852
v -0.264839 3.121550 0.337852
v 0.163559 3.181318 0.394945
v -0.243385 3.071011 0.327887
v -0.205880 3.049754 0.335964
v 0.155300 3.110016 0.312922
v 0.152310 3.125001 0.313576
v 0.155937 3.139914 0.312876
v 0.198124 3.158837 0.307353
v 0.220688 3.145437 0.307006
v 0.226585 3.126055 0.306159
v 0.216336 3.101385 0.305082
v 0.191590 3.091167 0.304636
v 0.171395 3.095827 0.305528
v 0.172148 3.155062 0.307426
v -0.230180 3.125191 0.312233
v -0.206358 3.089649 0.310681
v -0.198417 3.160272 0.307653
v -0.219439 3.144639 0.306733
v -0.216335 3.101385 0.305082
v -0.184763 3.091838 0.304665
v -0.162492 3.106672 0.305313
v -0.166844 3.150723 0.307236
v 0.032895 3.049766 0.396178
v 0.018271 2.991412 0.361063
v 0.031236 3.050618 0.372661
v 0.017750 2.996710 0.340923
v -0.000000 2.979424 0.354328
v -0.000000 3.048850 0.397793
v -0.032895 3.049766 0.396178
v -0.018271 2.991412 0.361063
v -0.031236 3.050618 0.372661
v -0.000000 2.996089 0.340560
v -0.017750 2.996710 0.340923
vn 0.2954 0.5428 0.7862
vn -0.9823 0.0689 0.1743
vn -0.0145 -0.2365 0.9715
vn -0.7753 0.2892 0.5615
vn -0.5597 0.8189 0.1271
vn -0.8990 0.4232 0.1130
vn -0.4418 0.0198 0.8969
vn -0.0168 -0.2825 0.9591
vn 0.0936 -0.9953 0.0243
vn -0.2380 0.4165 0.8775
vn 0.0904 0.9671 0.2376
vn -0.2382 0.0510 0.9699
vn 0.6159 -0.7768 0.1315
vn 0.0657 0.0829 0.9944
vn -0.9382 0.1725 0.2999
vn 0.2703 0.6425 0.7170
vn 0.4618 0.2237 0.8583
vn 0.8112 -0.1161 0.5732
vn 0.4010 -0.3887 0.8295
vn -0.0990 -0.6247 0.7746
vn -0.4240 -0.4505 0.7856
vn -0.7517 -0.3972 0.5265
vn -0.9349 0.0216 0.3542
vn -0.0956 -0.5476 0.8312
vn -0.4911 0.4934 0.7179
vn 0.0698 -0.2741 0.9592
vn 0.3511 -0.3183 0.8806
vn 0.2444 0.3195 0.9155
vn 0.6438 0.7012 0.3064
vn -0.3836 0.9160 -0.1177
vn -0.9414 -0.3329 0.0538
vn -0.9911 -0.0094 0.1330
vn -0.6434 0.7245 0.2474
vn 0.9917 0.0396 0.1220
vn -0.7898 -0.1577 0.5928
vn -0.4727 0.6229 0.6233
vn -0.0425 -0.8551 0.5167
vn 0.6956 -0.0964 0.7119
vn 0.6312 -0.2419 0.7370
vn -0.0259 -0.6535 0.7565
vn 0.4314 0.6684 0.6059
vn -0.1230 -0.2094 0.9701
vn -0.8293 0.1529 0.5375
vn 0.0247 -0.9897 -0.1408
vn 0.3319 -0.9325 -0.1426
vn -0.2851 -0.9447 -0.1622
vn 0.6664 -0.7184 -0.1998
vn -0.5337 -0.8368 -0.1224
vn -0.6937 -0.7127 -0.1043
vn -0.7960 -0.5981 0.0931
vn -0.8710 -0.4729 -0.1334
vn -0.9999 -0.0122 -0.0067
vn -0.9704 0.2034 0.1300
vn -0.9687 0.2473 0.0230
vn -0.7945 0.6026 0.0755
vn -0.4968 0.8614 0.1059
vn -0.1727 0.9756 0.1358
vn 0.0273 0.9900 0.1381
vn 0.2224 0.9655 0.1352
vn 0.4083 0.9041 0.1258
vn 0.6076 0.7887 0.0941
vn 0.8419 0.5345 0.0742
vn 0.9305 0.3631 0.0488
vn 0.9837 0.1781 0.0261
vn 0.9944 -0.0842 -0.0640
vn 0.9273 -0.3704 -0.0539
vn -0.0256 -0.9897 -0.1406
vn 0.0656 -0.9978 0.0001
vn -0.2211 -0.9656 -0.1366
vn 0.3219 -0.9327 -0.1626
vn -0.4392 -0.8901 -0.1221
vn -0.6596 -0.7486 0.0676
vn -0.7376 -0.6607 -0.1390
vn 0.4869 -0.8719 -0.0526
vn 0.5317 -0.8390 -0.1157
vn 0.6916 -0.7148 -0.1031
vn 0.8222 -0.5631 -0.0830
vn 0.9500 -0.3049 -0.0680
vn 0.9932 0.1156 -0.0138
vn 0.8493 0.3934 -0.3520
vn -0.0271 0.9899 0.1390
vn 0.8186 0.5665 -0.0945
vn -0.2214 0.9660 0.1335
vn -0.4079 0.9042 0.1264
vn -0.6076 0.7875 0.1032
vn -0.7206 0.6871 0.0930
vn -0.8419 0.5345 0.0745
vn -0.9304 0.3632 0.0493
vn -0.9839 0.1772 0.0252
vn -0.9902 -0.1294 -0.0518
vn -0.4496 -0.0305 0.8927
vn -0.5199 -0.5001 0.6926
vn -0.4771 -0.6768 0.5607
vn 0.7690 0.2730 0.5780
vn 0.1549 0.7234 0.6728
vn 0.6585 -0.5647 0.4976
vn -0.0000 0.9722 0.2341
vn 0.0395 0.9719 0.2320
vn 0.0391 0.9706 0.2376
vn -0.0000 0.9740 0.2267
vn -0.0390 0.9706 0.2377
vn -0.0395 0.9720 0.2315
vn -0.0255 -0.9989 -0.0387
vn -0.0254 -0.9989 -0.0386
vn 0.0254 -0.9989 -0.0386
vn 0.0255 -0.9989 -0.0387
vn -0.0000 -0.9993 -0.0386
vn -0.1129 0.8974 0.4265
vn -0.6505 0.3131 0.6920
vn -0.9770 0.1989 0.0768
vn 0.9770 0.1989 0.0768
vn -0.6310 0.4182 0.6534
vn 0.5445 -0.6611 0.5162
vn 0.8686 0.1336 0.4772
vn 0.5763 0.3005 0.7600
vn 0.3531 0.5123 0.7829
vn -0.1652 0.4477 0.8788
vn 0.6093 -0.5967 0.5221
vn -0.4740 0.6955 0.5400
vn -0.1842 -0.8106 0.5559
vn -0.0337 -0.5209 0.8529
vn -0.0336 -0.5209 0.8530
vn -0.0000 -0.5210 0.8536
vn 0.0336 -0.5209 0.8530
vn 0.0337 -0.5209 0.8529
vn 0.8809 -0.2127 0.4228
vt 0.888859 0.277621
vt 0.957024 0.335752
vt 0.793716 0.469776
vt 0.777621 0.388859
vt 0.588072 0.088072
vt 0.542975 0.164248
vt 0.705324 0.025400
vt 0.664248 0.457025
vt 0.794676 0.474600
vt 0.705325 0.474601
vt 0.662365 0.038431
vt 0.750000 0.020999
vt 0.835752 0.042976
vt 0.563683 0.374493
vt 0.625507 0.063683
vt 0.957024 0.164248
vt 0.969776 0.293716
vt 0.888859 0.222379
vt 0.828657 0.132281
vt 0.722379 0.111141
vt 0.649888 0.149888
vt 0.611141 0.222379
vt 0.608420 0.250000
vt 0.632281 0.328658
vt 0.695820 0.380803
vt 0.828658 0.367719
vt 0.874493 0.436317
vt 0.706284 0.030224
vt 0.877226 0.059593
vt 0.794676 0.025399
vt 0.542976 0.335753
vt 0.525399 0.205324
vt 0.520999 0.250000
vt 0.837635 0.038431
vt 0.911928 0.088072
vt 0.538431 0.337635
vt 0.626746 0.274517
vt 0.626760 0.274514
vt 0.624331 0.250000
vt 0.632281 0.171343
vt 0.867719 0.171343
vt 0.874493 0.063683
vt 0.750000 0.391580
vt 0.000000 0.516502
vt 0.000000 0.723297
vt 0.031250 0.744864
vt 1.000000 0.723297
vt 1.000000 0.516502
vt 0.968750 0.516502
vt 0.968750 0.702676
vt 0.125000 0.516502
vt 0.093750 0.516502
vt 0.125000 0.784601
vt 0.937500 0.681135
vt 0.906250 0.516502
vt 0.906250 0.657383
vt 0.875000 0.636672
vt 0.875000 0.516502
vt 0.843750 0.516502
vt 0.843750 0.619092
vt 0.812500 0.516502
vt 0.750000 0.516502
vt 0.750000 0.576308
vt 0.781250 0.593328
vt 0.718750 0.516502
vt 0.718750 0.563738
vt 0.687500 0.516502
vt 0.687500 0.556102
vt 0.656250 0.516502
vt 0.656250 0.553693
vt 0.625000 0.516502
vt 0.593750 0.516502
vt 0.593750 0.553207
vt 0.625000 0.549909
vt 0.562500 0.516502
vt 0.531250 0.516502
vt 0.531250 0.580553
vt 0.562500 0.565094
vt 0.500000 0.516502
vt 0.500000 0.601789
vt 0.468750 0.516502
vt 0.468750 0.628160
vt 0.437500 0.516502
vt 0.437500 0.655988
vt 0.406250 0.516502
vt 0.406250 0.685327
vt 0.375000 0.516502
vt 0.375000 0.710446
vt 0.343750 0.516502
vt 0.343750 0.733201
vt 0.312500 0.516502
vt 0.312500 0.754682
vt 0.281250 0.516502
vt 0.281250 0.774062
vt 0.250000 0.516502
vt 0.250000 0.790598
vt 0.218750 0.795829
vt 0.218750 0.516502
vt 0.187500 0.516502
vt 0.187500 0.795492
vt 0.156250 0.516502
vt 0.156250 0.791701
vt 0.062500 0.516502
vt 0.062500 0.761685
vt 0.093750 0.774466
vt 0.031250 0.516502
vt 0.125000 0.784602
vt 0.937500 0.681136
vt 0.937500 0.516502
vt 0.812500 0.604544
vt 0.781250 0.593329
vt 0.781250 0.516502
vt 0.718750 0.563739
vt 0.625000 0.549910
vt 0.531250 0.580554
vt 0.398910 0.692728
vt 0.281250 0.774063
vt 0.961569 0.337635
vt 0.911928 0.411928
vt 0.835752 0.457024
vt 0.622774 0.440407
vt 0.559593 0.377226
vt 0.837635 0.461569
vt 0.961569 0.162365
vt 0.974600 0.205324
vt 0.862459 0.227631
vt 0.862459 0.272369
vt 0.851390 0.291997
vt 0.864662 0.250000
vt 0.857634 0.228590
vt 0.845338 0.313703
vt 0.588101 0.750000
vt 0.587119 0.758318
vt 0.562500 0.764186
vt 0.562500 0.750000
vt 0.750000 0.135338
vt 0.728590 0.142366
vt 0.813703 0.154662
vt 0.791997 0.148611
vt 0.728590 0.357635
vt 0.658752 0.310970
vt 0.642366 0.271410
vt 0.658752 0.189030
vt 0.708003 0.148611
vt 0.841248 0.310970
vt 0.810970 0.158752
vt 0.648611 0.208003
vt 0.648611 0.291997
vt 0.706121 0.355934
vt 0.686297 0.345338
s 1
f 19/1/1 6/2/2 4/3/3 18/4/4
f 37/5/5 38/6/6 36/7/7
f 16/8/8 4/9/3 17/10/9
f 12/11/10 11/12/11 10/13/12
f 15/14/13 13/6/14 12/15/10 10/13/12 8/16/15 6/17/2 19/1/1 20/18/16 21/19/17 22/20/18 23/21/19 1/22/20 2/23/21 3/24/22 24/25/23 18/4/4 4/3/3 16/8/8
f 25/1/24 44/26/25 30/27/26 31/2/27 32/17/28
f 36/28/7 34/29/29 35/30/30
f 40/31/31 38/32/6 39/33/32
f 10/34/12 9/35/33 8/16/15
f 15/36/13 14/32/34 13/6/14
f 27/37/35 48/38/36 47/39/37
f 47/40/37 46/20/38 26/19/39 45/41/40 25/1/24 32/17/28 33/16/41 34/42/29 36/28/7 38/6/6 40/31/31 42/8/42 30/27/26 44/26/25 43/43/43 48/24/36 27/23/35
f 17/44/9 50/45/44 88/46/45
f 50/47/44 17/48/9 4/49/3 65/50/46
f 15/51/13 16/52/8 61/53/47
f 65/54/46 4/55/3 73/56/48
f 76/57/49 73/56/48 4/55/3 5/58/50
f 76/57/49 5/59/50 72/60/51
f 72/60/51 5/59/50 6/61/2
f 6/62/2 86/63/52 72/64/51
f 6/62/2 7/65/53 82/66/54 86/63/52
f 82/66/54 7/65/53 8/67/15
f 82/68/54 8/69/15 85/70/55
f 8/69/15 9/71/33 85/70/55
f 9/72/33 68/73/56 85/74/55
f 9/72/33 10/75/12 68/73/56
f 10/76/12 52/77/57 68/78/56
f 11/79/11 55/80/58 52/77/57 10/76/12
f 55/80/58 11/81/11 60/82/59
f 60/82/59 11/81/11 12/83/10 67/84/60
f 67/84/60 12/85/10 74/86/61
f 74/86/61 12/85/10 13/87/14
f 74/88/61 13/89/14 77/90/62
f 77/90/62 13/91/14 79/92/63
f 79/92/63 13/91/14 14/93/34 80/94/64
f 80/94/64 14/95/34 84/96/65
f 84/97/65 14/98/34 15/99/13 64/100/66
f 64/100/66 15/101/13 61/102/47
f 16/103/8 88/104/45 61/105/47
f 16/103/8 17/106/9 88/104/45
f 57/45/67 28/44/68 42/106/42 54/46/69
f 56/50/70 28/48/68 57/47/67
f 69/105/71 41/51/72 81/107/73
f 56/108/70 29/109/74 28/49/68
f 63/56/75 30/55/26 29/109/74 56/108/70
f 71/57/76 30/55/26 63/56/75
f 75/60/77 31/59/27 30/58/26 71/57/76
f 83/110/78 31/59/27 75/60/77
f 83/111/78 32/112/28 31/61/27
f 87/63/79 32/112/28 83/111/78
f 33/67/41 32/65/28 87/113/79
f 89/114/80 34/71/29 33/69/41
f 35/75/30 34/72/29 89/73/80
f 51/80/81 36/79/7 35/76/30 90/115/82
f 59/82/83 36/79/7 51/80/81
f 49/84/84 37/83/5 36/81/7 59/82/83
f 53/86/85 37/83/5 49/84/84
f 58/88/86 37/85/5 53/116/85
f 62/90/87 38/89/6 37/87/5 58/88/86
f 66/92/88 38/89/6 62/90/87
f 70/117/89 38/91/6 66/92/88
f 78/96/90 39/95/32 38/93/6 70/117/89
f 78/97/90 40/98/31 39/95/32
f 81/100/73 40/98/31 78/97/90
f 81/107/73 41/51/72 40/101/31
f 69/104/71 42/103/42 41/52/72
f 54/46/69 42/103/42 69/104/71
f 6/118/2 5/119/50 4/120/3
f 41/121/72 42/8/42 40/122/31
f 28/9/68 29/123/74 30/27/26 42/10/42
f 6/17/2 8/124/15 7/125/53
f 97/126/91 96/127/92 95/128/93
f 101/129/94 105/130/95 104/131/96
f 118/132/97 119/133/98 116/133/99 113/132/100 110/133/101 112/133/102
f 115/134/103 117/134/104 111/134/105 109/134/106 114/135/107
f 102/136/108 106/137/109 105/138/95
f 110/133/110 109/134/110 111/134/110 112/133/110
f 116/133/111 119/133/111 117/134/111 115/134/111
f 98/139/112 97/130/91 95/128/93 94/140/113 93/141/114 92/142/115 91/143/116 99/144/117
f 103/140/118 104/145/96 105/146/95 106/137/109 107/147/119 108/148/120
f 117/134/121 119/133/122 118/132/123 112/133/124 111/134/125
f 93/141/114 94/149/113 100/150/126
