# Blender 4.2.2 LTS
# www.blender.org
o teal
v 0.155300 3.127110 0.292854
v 0.152310 3.142122 0.293277
v 0.155937 3.156995 0.292346
v 0.217762 3.205044 0.297042
v 0.241011 3.191276 0.296892
v 0.258667 3.155265 0.295642
v 0.261468 3.127973 0.295799
v 0.249703 3.103138 0.294413
v 0.230420 3.083880 0.293871
v 0.205225 3.073457 0.293578
v 0.177691 3.072067 0.294227
v 0.152008 3.082693 0.294526
v 0.133477 3.103138 0.294413
v 0.121698 3.141918 0.295504
v 0.134725 3.179887 0.296334
v 0.152760 3.199957 0.297136
v 0.177955 3.210379 0.297429
v 0.198124 3.175632 0.286532
v 0.220688 3.162220 0.286392
v 0.226585 3.142802 0.285846
v 0.216336 3.118088 0.285151
v 0.191590 3.107852 0.284863
v 0.171395 3.112555 0.285683
v 0.172148 3.171862 0.286664
v -0.230180 3.142245 0.291931
v -0.206358 3.106638 0.290930
v -0.153741 3.149764 0.292143
v -0.205225 3.210379 0.297429
v -0.219621 3.209084 0.301997
v -0.241011 3.191276 0.296892
v -0.259043 3.169539 0.299389
v -0.262836 3.141855 0.296190
v -0.259263 3.113502 0.299308
v -0.230420 3.083880 0.293871
v -0.219621 3.073911 0.298195
v -0.191590 3.070700 0.294188
v -0.152760 3.083880 0.293871
v -0.128405 3.115802 0.294532
v -0.121698 3.141918 0.295504
v -0.128405 3.168079 0.296002
v -0.152760 3.199957 0.297136
v -0.177955 3.210379 0.297429
v -0.198417 3.177082 0.286810
v -0.219439 3.161408 0.286132
v -0.216335 3.118088 0.285151
v -0.184763 3.108524 0.284882
v -0.162492 3.123384 0.285300
v -0.166844 3.167516 0.286541
v -0.163559 3.070174 0.339011
v 0.191590 3.209113 0.362667
v -0.191590 3.066058 0.322995
v 0.205880 3.068032 0.316821
v -0.150895 3.076149 0.347787
v -0.177300 3.207129 0.368938
v 0.191590 3.066058 0.322995
v -0.219621 3.204674 0.350173
v -0.191590 3.209113 0.362667
v -0.139795 3.084574 0.355393
v -0.177300 3.066757 0.330752
v 0.177300 3.066757 0.330752
v 0.139795 3.186044 0.380003
v -0.130685 3.095050 0.362364
v -0.232285 3.198550 0.343032
v 0.123917 3.162019 0.382522
v 0.207349 3.207869 0.355989
v -0.123916 3.107122 0.369005
v 0.163559 3.070174 0.339011
v 0.219621 3.072609 0.312415
v -0.150895 3.195413 0.377293
v -0.119748 3.120327 0.375062
v -0.243385 3.190007 0.336716
v 0.259263 3.167135 0.326646
v 0.232285 3.198550 0.343032
v 0.139795 3.084574 0.355393
v -0.252494 3.179393 0.331259
v 0.243385 3.190007 0.336716
v 0.130686 3.095050 0.362364
v -0.119748 3.148287 0.382234
v 0.123917 3.107122 0.369005
v 0.119748 3.120327 0.375062
v -0.130685 3.174769 0.381768
v 0.259263 3.112441 0.310897
v -0.263431 3.153712 0.322978
v 0.118341 3.134155 0.380302
v 0.243385 3.088874 0.308417
v 0.264839 3.139896 0.317596
v -0.264839 3.139896 0.317596
v 0.163559 3.202516 0.373743
v -0.243385 3.088874 0.308417
v -0.205880 3.068033 0.316821
v 0.155300 3.127110 0.292854
v 0.152310 3.142122 0.293277
v 0.155937 3.156995 0.292346
v 0.198124 3.175632 0.286532
v 0.220688 3.162220 0.286392
v 0.226585 3.142802 0.285846
v 0.216336 3.118088 0.285151
v 0.191590 3.107852 0.284863
v 0.171395 3.112555 0.285683
v 0.172148 3.171862 0.286664
v -0.230180 3.142245 0.291931
v -0.206358 3.106638 0.290930
v -0.198417 3.177082 0.286810
v -0.219439 3.161408 0.286132
v -0.216335 3.118088 0.285151
v -0.184763 3.108524 0.284882
v -0.162492 3.123384 0.285300
v -0.166844 3.167516 0.286541
v 0.032895 3.071077 0.377010
v 0.018271 3.010978 0.342812
v 0.031236 3.070744 0.353490
v 0.017750 3.015259 0.322599
v -0.000000 2.998656 0.336266
v -0.000000 3.070243 0.378639
v -0.032895 3.071077 0.377010
v -0.018271 3.010978 0.342812
v -0.031236 3.070744 0.353490
v -0.000000 3.014620 0.322245
v -0.017750 3.015259 0.322599
vn 0.2973 0.5567 0.7757
vn -0.9818 0.0738 0.1752
vn -0.0119 -0.1987 0.9800
vn -0.7752 0.2984 0.5568
vn -0.5578 0.8230 0.1074
vn -0.8990 0.4256 0.1031
vn -0.4425 0.0545 0.8951
vn -0.0235 -0.2504 0.9679
vn 0.0956 -0.9941 0.0509
vn -0.2292 0.4430 0.8667
vn 0.0931 0.9731 0.2107
vn -0.2385 0.0846 0.9674
vn 0.6173 -0.7725 0.1494
vn 0.0747 0.1067 0.9915
vn -0.9397 0.1811 0.2902
vn 0.2704 0.6534 0.7070
vn 0.4617 0.2371 0.8548
vn 0.8112 -0.1071 0.5749
vn 0.4003 -0.3771 0.8352
vn -0.1030 -0.6116 0.7844
vn -0.4241 -0.4382 0.7925
vn -0.7526 -0.3878 0.5322
vn -0.9346 0.0319 0.3543
vn -0.0980 -0.5338 0.8399
vn -0.4902 0.5057 0.7100
vn 0.0582 -0.2478 0.9671
vn 0.3448 -0.3002 0.8894
vn 0.2448 0.3395 0.9082
vn 0.6444 0.7097 0.2847
vn -0.3819 0.9132 -0.1422
vn -0.9424 -0.3281 0.0649
vn -0.9910 -0.0049 0.1339
vn -0.6433 0.7317 0.2252
vn 0.9914 0.0449 0.1229
vn -0.7888 -0.1515 0.5957
vn -0.4726 0.6325 0.6136
vn -0.0418 -0.8472 0.5297
vn 0.6956 -0.0863 0.7133
vn 0.6299 -0.2356 0.7401
vn -0.0223 -0.6416 0.7667
vn 0.4343 0.6770 0.5942
vn -0.1239 -0.1732 0.9771
vn -0.8294 0.1607 0.5350
vn 0.0250 -0.9955 -0.0910
vn 0.3321 -0.9382 -0.0974
vn -0.2854 -0.9516 -0.1139
vn 0.6673 -0.7261 -0.1658
vn -0.5342 -0.8417 -0.0790
vn -0.6932 -0.7176 -0.0675
vn -0.7867 -0.6077 0.1090
vn -0.8712 -0.4781 -0.1113
vn -0.9999 -0.0142 -0.0044
vn -0.9720 0.1986 0.1259
vn -0.9695 0.2450 0.0083
vn -0.7964 0.6032 0.0445
vn -0.4983 0.8647 0.0633
vn -0.1732 0.9809 0.0884
vn 0.0274 0.9956 0.0898
vn 0.2240 0.9706 0.0877
vn 0.4102 0.9083 0.0815
vn 0.6103 0.7901 0.0577
vn 0.8437 0.5346 0.0479
vn 0.9316 0.3621 0.0314
vn 0.9842 0.1765 0.0167
vn 0.9942 -0.0894 -0.0591
vn 0.9267 -0.3742 -0.0350
vn -0.0255 -0.9955 -0.0909
vn 0.0639 -0.9975 0.0296
vn -0.2213 -0.9712 -0.0883
vn 0.3219 -0.9397 -0.1157
vn -0.4388 -0.8949 -0.0813
vn -0.6508 -0.7541 0.0877
vn -0.7373 -0.6663 -0.1110
vn 0.4855 -0.8739 -0.0237
vn 0.5330 -0.8428 -0.0747
vn 0.6919 -0.7189 -0.0666
vn 0.8220 -0.5670 -0.0537
vn 0.9498 -0.3077 -0.0559
vn 0.9935 0.1125 -0.0158
vn 0.8465 0.3793 -0.3736
vn -0.0273 0.9955 0.0903
vn 0.8179 0.5615 -0.1254
vn -0.2234 0.9709 0.0868
vn -0.4100 0.9084 0.0821
vn -0.6101 0.7898 0.0640
vn -0.7231 0.6881 0.0601
vn -0.8437 0.5347 0.0482
vn -0.9316 0.3622 0.0317
vn -0.9843 0.1758 0.0161
vn -0.9897 -0.1359 -0.0452
vn -0.4497 -0.0168 0.8930
vn -0.5197 -0.4894 0.7003
vn -0.4773 -0.6678 0.5711
vn 0.7702 0.2799 0.5731
vn 0.1560 0.7341 0.6608
vn 0.6576 -0.5579 0.5063
vn -0.0000 0.9809 0.1946
vn 0.0393 0.9804 0.1933
vn 0.0391 0.9797 0.1968
vn -0.0000 0.9818 0.1899
vn -0.0390 0.9796 0.1969
vn -0.0393 0.9805 0.1928
vn -0.0255 -0.9996 0.0117
vn -0.0254 -0.9996 0.0117
vn 0.0254 -0.9996 0.0117
vn 0.0255 -0.9996 0.0117
vn -0.0000 -0.9999 0.0118
vn -0.1135 0.9076 0.4042
vn -0.6482 0.3290 0.6867
vn -0.9775 0.2001 0.0668
vn 0.9775 0.2001 0.0668
vn -0.6306 0.4291 0.6467
vn 0.5444 -0.6531 0.5264
vn 0.8693 0.1371 0.4749
vn 0.5763 0.3122 0.7553
vn 0.3542 0.5234 0.7750
vn -0.1618 0.4636 0.8712
vn 0.6093 -0.5886 0.5313
vn -0.4740 0.7038 0.5292
vn -0.1843 -0.8018 0.5684
vn -0.0337 -0.5002 0.8653
vn -0.0336 -0.5001 0.8653
vn -0.0000 -0.5003 0.8659
vn 0.0336 -0.5001 0.8653
vn 0.0337 -0.5002 0.8653
vn 0.8802 -0.2048 0.4282
vt 0.888859 0.277621
vt 0.957024 0.335752
vt 0.793716 0.469776
vt 0.777621 0.388859
vt 0.588072 0.088072
vt 0.542975 0.164248
vt 0.705324 0.025400
vt 0.664248 0.457025
vt 0.794676 0.474600
vt 0.705325 0.474601
vt 0.662365 0.038431
vt 0.750000 0.020999
vt 0.835752 0.042976
vt 0.563683 0.374493
vt 0.625507 0.063683
vt 0.957024 0.164248
vt 0.969776 0.293716
vt 0.888859 0.222379
vt 0.828657 0.132281
vt 0.722379 0.111141
vt 0.649888 0.149888
vt 0.611141 0.222379
vt 0.608420 0.250000
vt 0.632281 0.328658
vt 0.695820 0.380803
vt 0.828658 0.367719
vt 0.874493 0.436317
vt 0.706284 0.030224
vt 0.877226 0.059593
vt 0.794676 0.025399
vt 0.542976 0.335753
vt 0.525399 0.205324
vt 0.520999 0.250000
vt 0.837635 0.038431
vt 0.911928 0.088072
vt 0.538431 0.337635
vt 0.626746 0.274517
vt 0.626760 0.274514
vt 0.624331 0.250000
vt 0.632281 0.171343
vt 0.867719 0.171343
vt 0.874493 0.063683
vt 0.750000 0.391580
vt 0.000000 0.516502
vt 0.000000 0.723297
vt 0.031250 0.744864
vt 1.000000 0.723297
vt 1.000000 0.516502
vt 0.968750 0.516502
vt 0.968750 0.702676
vt 0.125000 0.516502
vt 0.093750 0.516502
vt 0.125000 0.784601
vt 0.937500 0.681135
vt 0.906250 0.516502
vt 0.906250 0.657383
vt 0.875000 0.636672
vt 0.875000 0.516502
vt 0.843750 0.516502
vt 0.843750 0.619092
vt 0.812500 0.516502
vt 0.750000 0.516502
vt 0.750000 0.576308
vt 0.781250 0.593328
vt 0.718750 0.516502
vt 0.718750 0.563738
vt 0.687500 0.516502
vt 0.687500 0.556102
vt 0.656250 0.516502
vt 0.656250 0.553693
vt 0.625000 0.516502
vt 0.593750 0.516502
vt 0.593750 0.553207
vt 0.625000 0.549909
vt 0.562500 0.516502
vt 0.531250 0.516502
vt 0.531250 0.580553
vt 0.562500 0.565094
vt 0.500000 0.516502
vt 0.500000 0.601789
vt 0.468750 0.516502
vt 0.468750 0.628160
vt 0.437500 0.516502
vt 0.437500 0.655988
vt 0.406250 0.516502
vt 0.406250 0.685327
vt 0.375000 0.516502
vt 0.375000 0.710446
vt 0.343750 0.516502
vt 0.343750 0.733201
vt 0.312500 0.516502
vt 0.312500 0.754682
vt 0.281250 0.516502
vt 0.281250 0.774062
vt 0.250000 0.516502
vt 0.250000 0.790598
vt 0.218750 0.795829
vt 0.218750 0.516502
vt 0.187500 0.516502
vt 0.187500 0.795492
vt 0.156250 0.516502
vt 0.156250 0.791701
vt 0.062500 0.516502
vt 0.062500 0.761685
vt 0.093750 0.774466
vt 0.031250 0.516502
vt 0.125000 0.784602
vt 0.937500 0.681136
vt 0.937500 0.516502
vt 0.812500 0.604544
vt 0.781250 0.593329
vt 0.781250 0.516502
vt 0.718750 0.563739
vt 0.625000 0.549910
vt 0.531250 0.580554
vt 0.398910 0.692728
vt 0.281250 0.774063
vt 0.961569 0.337635
vt 0.911928 0.411928
vt 0.835752 0.457024
vt 0.622774 0.440407
vt 0.559593 0.377226
vt 0.837635 0.461569
vt 0.961569 0.162365
vt 0.974600 0.205324
vt 0.862459 0.227631
vt 0.862459 0.272369
vt 0.851390 0.291997
vt 0.864662 0.250000
vt 0.857634 0.228590
vt 0.845338 0.313703
vt 0.588101 0.750000
vt 0.587119 0.758318
vt 0.562500 0.764186
vt 0.562500 0.750000
vt 0.750000 0.135338
vt 0.728590 0.142366
vt 0.813703 0.154662
vt 0.791997 0.148611
vt 0.728590 0.357635
vt 0.658752 0.310970
vt 0.642366 0.271410
vt 0.658752 0.189030
vt 0.708003 0.148611
vt 0.841248 0.310970
vt 0.810970 0.158752
vt 0.648611 0.208003
vt 0.648611 0.291997
vt 0.706121 0.355934
vt 0.686297 0.345338
s 1
f 19/1/1 6/2/2 4/3/3 18/4/4
f 37/5/5 38/6/6 36/7/7
f 16/8/8 4/9/3 17/10/9
f 12/11/10 11/12/11 10/13/12
f 15/14/13 13/6/14 12/15/10 10/13/12 8/16/15 6/17/2 19/1/1 20/18/16 21/19/17 22/20/18 23/21/19 1/22/20 2/23/21 3/24/22 24/25/23 18/4/4 4/3/3 16/8/8
f 25/1/24 44/26/25 30/27/26 31/2/27 32/17/28
f 36/28/7 34/29/29 35/30/30
f 40/31/31 38/32/6 39/33/32
f 10/34/12 9/35/33 8/16/15
f 15/36/13 14/32/34 13/6/14
f 27/37/35 48/38/36 47/39/37
f 47/40/37 46/20/38 26/19/39 45/41/40 25/1/24 32/17/28 33/16/41 34/42/29 36/28/7 38/6/6 40/31/31 42/8/42 30/27/26 44/26/25 43/43/43 48/24/36 27/23/35
f 17/44/9 50/45/44 88/46/45
f 50/47/44 17/48/9 4/49/3 65/50/46
f 15/51/13 16/52/8 61/53/47
f 65/54/46 4/55/3 73/56/48
f 76/57/49 73/56/48 4/55/3 5/58/50
f 76/57/49 5/59/50 72/60/51
f 72/60/51 5/59/50 6/61/2
f 6/62/2 86/63/52 72/64/51
f 6/62/2 7/65/53 82/66/54 86/63/52
f 82/66/54 7/65/53 8/67/15
f 82/68/54 8/69/15 85/70/55
f 8/69/15 9/71/33 85/70/55
f 9/72/33 68/73/56 85/74/55
f 9/72/33 10/75/12 68/73/56
f 10/76/12 52/77/57 68/78/56
f 11/79/11 55/80/58 52/77/57 10/76/12
f 55/80/58 11/81/11 60/82/59
f 60/82/59 11/81/11 12/83/10 67/84/60
f 67/84/60 12/85/10 74/86/61
f 74/86/61 12/85/10 13/87/14
f 74/88/61 13/89/14 77/90/62
f 77/90/62 13/91/14 79/92/63
f 79/92/63 13/91/14 14/93/34 80/94/64
f 80/94/64 14/95/34 84/96/65
f 84/97/65 14/98/34 15/99/13 64/100/66
f 64/100/66 15/101/13 61/102/47
f 16/103/8 88/104/45 61/105/47
f 16/103/8 17/106/9 88/104/45
f 57/45/67 28/44/68 42/106/42 54/46/69
f 56/50/70 28/48/68 57/47/67
f 69/105/71 41/51/72 81/107/73
f 56/108/70 29/109/74 28/49/68
f 63/56/75 30/55/26 29/109/74 56/108/70
f 71/57/76 30/55/26 63/56/75
f 75/60/77 31/59/27 30/58/26 71/57/76
f 83/110/78 31/59/27 75/60/77
f 83/111/78 32/112/28 31/61/27
f 87/63/79 32/112/28 83/111/78
f 33/67/41 32/65/28 87/113/79
f 89/114/80 34/71/29 33/69/41
f 35/75/30 34/72/29 89/73/80
f 51/80/81 36/79/7 35/76/30 90/115/82
f 59/82/83 36/79/7 51/80/81
f 49/84/84 37/83/5 36/81/7 59/82/83
f 53/86/85 37/83/5 49/84/84
f 58/88/86 37/85/5 53/116/85
f 62/90/87 38/89/6 37/87/5 58/88/86
f 66/92/88 38/89/6 62/90/87
f 70/117/89 38/91/6 66/92/88
f 78/96/90 39/95/32 38/93/6 70/117/89
f 78/97/90 40/98/31 39/95/32
f 81/100/73 40/98/31 78/97/90
f 81/107/73 41/51/72 40/101/31
f 69/104/71 42/103/42 41/52/72
f 54/46/69 42/103/42 69/104/71
f 6/118/2 5/119/50 4/120/3
f 41/121/72 42/8/42 40/122/31
f 28/9/68 29/123/74 30/27/26 42/10/42
f 6/17/2 8/124/15 7/125/53
f 97/126/91 96/127/92 95/128/93
f 101/129/94 105/130/95 104/131/96
f 118/132/97 119/133/98 116/133/99 113/132/100 110/133/101 112/133/102
f 115/134/103 117/134/104 111/134/105 109/134/106 114/135/107
f 102/136/108 106/137/109 105/138/95
f 110/133/110 109/134/110 111/134/110 112/133/110
f 116/133/111 119/133/111 117/134/111 115/134/111
f 98/139/112 97/130/91 95/128/93 94/140/113 93/141/114 92/142/115 91/143/116 99/144/117
f 103/140/118 104/145/96 105/146/95 106/137/109 107/147/119 108/148/120
f 117/134/121 119/133/122 118/132/123 112/133/124 111/134/125
f 93/141/114 94/149/113 100/150/126
