# Blender 4.2.2 LTS
# www.blender.org
o teal
v 0.155300 3.102481 0.321329
v 0.152310 3.117452 0.322081
v 0.155937 3.132379 0.321479
v 0.217762 3.180054 0.327229
v 0.241011 3.166307 0.326776
v 0.258667 3.130414 0.324734
v 0.261468 3.103133 0.324291
v 0.249703 3.078417 0.322359
v 0.230420 3.059213 0.321393
v 0.205225 3.048820 0.320871
v 0.177691 3.047384 0.321488
v 0.152008 3.057980 0.322021
v 0.133477 3.078417 0.322359
v 0.121698 3.117088 0.324302
v 0.134725 3.154968 0.325968
v 0.152760 3.174964 0.327211
v 0.177955 3.185357 0.327734
v 0.198124 3.151418 0.316080
v 0.220688 3.138026 0.315645
v 0.226585 3.118664 0.314672
v 0.216336 3.094019 0.313433
v 0.191590 3.083811 0.312920
v 0.171395 3.088451 0.313843
v 0.172148 3.147642 0.316128
v -0.230180 3.117671 0.320740
v -0.206358 3.082164 0.318955
v -0.153741 3.125168 0.321117
v -0.205225 3.185357 0.327734
v -0.219621 3.183736 0.332269
v -0.241011 3.166307 0.326776
v -0.259043 3.144408 0.328792
v -0.262836 3.116976 0.324987
v -0.259263 3.088422 0.327478
v -0.230420 3.059213 0.321393
v -0.219621 3.048942 0.325494
v -0.191590 3.046021 0.321420
v -0.152760 3.059213 0.321393
v -0.128405 3.091062 0.322756
v -0.121698 3.117088 0.324302
v -0.128405 3.143192 0.325377
v -0.152760 3.174964 0.327211
v -0.177955 3.185357 0.327734
v -0.198417 3.152847 0.316390
v -0.219439 3.137234 0.315367
v -0.216335 3.094019 0.313433
v -0.184763 3.084481 0.312954
v -0.162492 3.099300 0.313699
v -0.166844 3.143308 0.315911
v -0.163559 3.042283 0.366196
v 0.191590 3.179416 0.392892
v -0.191590 3.039318 0.350102
v 0.205880 3.041733 0.343975
v -0.150895 3.047623 0.375096
v -0.177300 3.176985 0.399114
v 0.191590 3.039318 0.350102
v -0.219621 3.175876 0.380310
v -0.191590 3.179416 0.392892
v -0.139795 3.055497 0.382881
v -0.177300 3.039460 0.357867
v 0.177300 3.039460 0.357867
v 0.139795 3.155123 0.409706
v -0.130685 3.065465 0.390078
v -0.232285 3.170269 0.373040
v 0.123917 3.130937 0.411695
v 0.207349 3.178652 0.386192
v -0.123916 3.077052 0.396979
v 0.163559 3.042283 0.366196
v 0.219621 3.046622 0.339674
v -0.150895 3.164679 0.407205
v -0.119748 3.089812 0.403323
v -0.243385 3.162186 0.366541
v 0.259263 3.140053 0.355975
v 0.232285 3.170269 0.373040
v 0.139795 3.055497 0.382881
v -0.252494 3.151970 0.360855
v 0.243385 3.162186 0.366541
v 0.130686 3.065465 0.390078
v -0.119748 3.117236 0.411105
v 0.123917 3.077052 0.396979
v 0.119748 3.089812 0.403323
v -0.130685 3.143730 0.411222
v 0.259263 3.086531 0.339034
v -0.263431 3.126903 0.352015
v 0.118341 3.103254 0.408862
v 0.243385 3.063161 0.336038
v 0.264839 3.113484 0.346333
v -0.264839 3.113484 0.346333
v 0.163559 3.172031 0.403814
v -0.243385 3.063161 0.336038
v -0.205880 3.041733 0.343975
v 0.155300 3.102481 0.321329
v 0.152310 3.117452 0.322081
v 0.155937 3.132379 0.321479
v 0.198124 3.151418 0.316080
v 0.220688 3.138026 0.315645
v 0.226585 3.118664 0.314672
v 0.216336 3.094019 0.313433
v 0.191590 3.083811 0.312920
v 0.171395 3.088451 0.313843
v 0.172148 3.147642 0.316128
v -0.230180 3.117671 0.320740
v -0.206358 3.082164 0.318955
v -0.198417 3.152847 0.316390
v -0.219439 3.137234 0.315367
v -0.216335 3.094019 0.313433
v -0.184763 3.084481 0.312954
v -0.162492 3.099300 0.313699
v -0.166844 3.143308 0.315911
v 0.032895 3.040462 0.404185
v 0.018271 2.982861 0.368690
v 0.031236 3.041815 0.380675
v 0.017750 2.988588 0.348587
v -0.000000 2.971017 0.361878
v -0.000000 3.039511 0.405794
v -0.032895 3.040462 0.404185
v -0.018271 2.982861 0.368690
v -0.031236 3.041815 0.380675
v -0.000000 2.987974 0.348220
v -0.017750 2.988588 0.348587
vn 0.2946 0.5368 0.7906
vn -0.9825 0.0667 0.1739
vn -0.0155 -0.2523 0.9675
vn -0.7753 0.2853 0.5634
vn -0.5604 0.8171 0.1354
vn -0.8989 0.4222 0.1170
vn -0.4416 0.0052 0.8972
vn -0.0140 -0.2959 0.9551
vn 0.0927 -0.9956 0.0131
vn -0.2417 0.4052 0.8817
vn 0.0892 0.9644 0.2489
vn -0.2381 0.0369 0.9705
vn 0.6153 -0.7785 0.1239
vn 0.0619 0.0729 0.9954
vn -0.9376 0.1688 0.3039
vn 0.2702 0.6378 0.7212
vn 0.4618 0.2179 0.8598
vn 0.8112 -0.1199 0.5724
vn 0.4012 -0.3936 0.8271
vn -0.0973 -0.6302 0.7703
vn -0.4240 -0.4557 0.7827
vn -0.7513 -0.4012 0.5240
vn -0.9350 0.0174 0.3541
vn -0.0945 -0.5535 0.8275
vn -0.4914 0.4883 0.7212
vn 0.0747 -0.2851 0.9556
vn 0.3538 -0.3259 0.8767
vn 0.2443 0.3110 0.9185
vn 0.6435 0.6974 0.3155
vn -0.3845 0.9169 -0.1075
vn -0.9410 -0.3348 0.0491
vn -0.9911 -0.0113 0.1326
vn -0.6433 0.7213 0.2566
vn 0.9919 0.0374 0.1214
vn -0.7902 -0.1603 0.5914
vn -0.4728 0.6188 0.6273
vn -0.0428 -0.8584 0.5112
vn 0.6956 -0.1008 0.7113
vn 0.6317 -0.2445 0.7356
vn -0.0274 -0.6585 0.7521
vn 0.4302 0.6647 0.6108
vn -0.1226 -0.2246 0.9667
vn -0.8293 0.1496 0.5384
vn 0.0246 -0.9865 -0.1617
vn 0.3316 -0.9295 -0.1616
vn -0.2850 -0.9410 -0.1825
vn 0.6658 -0.7148 -0.2140
vn -0.5333 -0.8342 -0.1406
vn -0.6937 -0.7102 -0.1198
vn -0.7999 -0.5939 0.0866
vn -0.8708 -0.4705 -0.1427
vn -0.9999 -0.0114 -0.0077
vn -0.9698 0.2053 0.1318
vn -0.9683 0.2481 0.0292
vn -0.7935 0.6021 0.0885
vn -0.4961 0.8594 0.1237
vn -0.1725 0.9727 0.1555
vn 0.0272 0.9870 0.1583
vn 0.2216 0.9627 0.1550
vn 0.4073 0.9018 0.1444
vn 0.6063 0.7877 0.1095
vn 0.8410 0.5342 0.0853
vn 0.9299 0.3635 0.0562
vn 0.9834 0.1787 0.0301
vn 0.9944 -0.0821 -0.0660
vn 0.9275 -0.3687 -0.0618
vn -0.0257 -0.9865 -0.1615
vn 0.0664 -0.9977 -0.0124
vn -0.2209 -0.9626 -0.1568
vn 0.3218 -0.9291 -0.1822
vn -0.4391 -0.8876 -0.1391
vn -0.6630 -0.7463 0.0593
vn -0.7376 -0.6582 -0.1507
vn 0.4874 -0.8708 -0.0648
vn 0.5309 -0.8369 -0.1330
vn 0.6913 -0.7127 -0.1185
vn 0.8221 -0.5612 -0.0953
vn 0.9500 -0.3036 -0.0732
vn 0.9931 0.1169 -0.0129
vn 0.8503 0.3993 -0.3428
vn -0.0270 0.9869 0.1593
vn 0.8190 0.5681 -0.0814
vn -0.2204 0.9633 0.1531
vn -0.4068 0.9019 0.1450
vn -0.6064 0.7861 0.1196
vn -0.7193 0.6864 0.1068
vn -0.8410 0.5342 0.0856
vn -0.9299 0.3635 0.0567
vn -0.9837 0.1777 0.0290
vn -0.9905 -0.1266 -0.0545
vn -0.4496 -0.0362 0.8925
vn -0.5200 -0.5045 0.6893
vn -0.4769 -0.6806 0.5562
vn 0.7686 0.2700 0.5800
vn 0.1543 0.7188 0.6778
vn 0.6588 -0.5676 0.4939
vn -0.0000 0.9682 0.2503
vn 0.0396 0.9680 0.2479
vn 0.0390 0.9663 0.2544
vn -0.0000 0.9703 0.2417
vn -0.0390 0.9663 0.2545
vn -0.0396 0.9681 0.2474
vn -0.0255 -0.9979 -0.0599
vn -0.0254 -0.9979 -0.0598
vn 0.0254 -0.9979 -0.0598
vn 0.0255 -0.9979 -0.0599
vn -0.0000 -0.9982 -0.0598
vn -0.1127 0.8931 0.4356
vn -0.6514 0.3064 0.6941
vn -0.9768 0.1983 0.0810
vn 0.9768 0.1983 0.0810
vn -0.6312 0.4135 0.6562
vn 0.5447 -0.6644 0.5118
vn 0.8683 0.1320 0.4782
vn 0.5763 0.2956 0.7619
vn 0.3526 0.5075 0.7862
vn -0.1667 0.4410 0.8819
vn 0.6094 -0.6001 0.5182
vn -0.4740 0.6919 0.5446
vn -0.1841 -0.8143 0.5505
vn -0.0337 -0.5298 0.8475
vn -0.0336 -0.5298 0.8475
vn -0.0000 -0.5299 0.8481
vn 0.0336 -0.5298 0.8475
vn 0.0337 -0.5298 0.8475
vn 0.8812 -0.2160 0.4205
vt 0.888859 0.277621
vt 0.957024 0.335752
vt 0.793716 0.469776
vt 0.777621 0.388859
vt 0.588072 0.088072
vt 0.542975 0.164248
vt 0.705324 0.025400
vt 0.664248 0.457025
vt 0.794676 0.474600
vt 0.705325 0.474601
vt 0.662365 0.038431
vt 0.750000 0.020999
vt 0.835752 0.042976
vt 0.563683 0.374493
vt 0.625507 0.063683
vt 0.957024 0.164248
vt 0.969776 0.293716
vt 0.888859 0.222379
vt 0.828657 0.132281
vt 0.722379 0.111141
vt 0.649888 0.149888
vt 0.611141 0.222379
vt 0.608420 0.250000
vt 0.632281 0.328658
vt 0.695820 0.380803
vt 0.828658 0.367719
vt 0.874493 0.436317
vt 0.706284 0.030224
vt 0.877226 0.059593
vt 0.794676 0.025399
vt 0.542976 0.335753
vt 0.525399 0.205324
vt 0.520999 0.250000
vt 0.837635 0.038431
vt 0.911928 0.088072
vt 0.538431 0.337635
vt 0.626746 0.274517
vt 0.626760 0.274514
vt 0.624331 0.250000
vt 0.632281 0.171343
vt 0.867719 0.171343
vt 0.874493 0.063683
vt 0.750000 0.391580
vt 0.000000 0.516502
vt 0.000000 0.723297
vt 0.031250 0.744864
vt 1.000000 0.723297
vt 1.000000 0.516502
vt 0.968750 0.516502
vt 0.968750 0.702676
vt 0.125000 0.516502
vt 0.093750 0.516502
vt 0.125000 0.784601
vt 0.937500 0.681135
vt 0.906250 0.516502
vt 0.906250 0.657383
vt 0.875000 0.636672
vt 0.875000 0.516502
vt 0.843750 0.516502
vt 0.843750 0.619092
vt 0.812500 0.516502
vt 0.750000 0.516502
vt 0.750000 0.576308
vt 0.781250 0.593328
vt 0.718750 0.516502
vt 0.718750 0.563738
vt 0.687500 0.516502
vt 0.687500 0.556102
vt 0.656250 0.516502
vt 0.656250 0.553693
vt 0.625000 0.516502
vt 0.593750 0.516502
vt 0.593750 0.553207
vt 0.625000 0.549909
vt 0.562500 0.516502
vt 0.531250 0.516502
vt 0.531250 0.580553
vt 0.562500 0.565094
vt 0.500000 0.516502
vt 0.500000 0.601789
vt 0.468750 0.516502
vt 0.468750 0.628160
vt 0.437500 0.516502
vt 0.437500 0.655988
vt 0.406250 0.516502
vt 0.406250 0.685327
vt 0.375000 0.516502
vt 0.375000 0.710446
vt 0.343750 0.516502
vt 0.343750 0.733201
vt 0.312500 0.516502
vt 0.312500 0.754682
vt 0.281250 0.516502
vt 0.281250 0.774062
vt 0.250000 0.516502
vt 0.250000 0.790598
vt 0.218750 0.795829
vt 0.218750 0.516502
vt 0.187500 0.516502
vt 0.187500 0.795492
vt 0.156250 0.516502
vt 0.156250 0.791701
vt 0.062500 0.516502
vt 0.062500 0.761685
vt 0.093750 0.774466
vt 0.031250 0.516502
vt 0.125000 0.784602
vt 0.937500 0.681136
vt 0.937500 0.516502
vt 0.812500 0.604544
vt 0.781250 0.593329
vt 0.781250 0.516502
vt 0.718750 0.563739
vt 0.625000 0.549910
vt 0.531250 0.580554
vt 0.398910 0.692728
vt 0.281250 0.774063
vt 0.961569 0.337635
vt 0.911928 0.411928
vt 0.835752 0.457024
vt 0.622774 0.440407
vt 0.559593 0.377226
vt 0.837635 0.461569
vt 0.961569 0.162365
vt 0.974600 0.205324
vt 0.862459 0.227631
vt 0.862459 0.272369
vt 0.851390 0.291997
vt 0.864662 0.250000
vt 0.857634 0.228590
vt 0.845338 0.313703
vt 0.588101 0.750000
vt 0.587119 0.758318
vt 0.562500 0.764186
vt 0.562500 0.750000
vt 0.750000 0.135338
vt 0.728590 0.142366
vt 0.813703 0.154662
vt 0.791997 0.148611
vt 0.728590 0.357635
vt 0.658752 0.310970
vt 0.642366 0.271410
vt 0.658752 0.189030
vt 0.708003 0.148611
vt 0.841248 0.310970
vt 0.810970 0.158752
vt 0.648611 0.208003
vt 0.648611 0.291997
vt 0.706121 0.355934
vt 0.686297 0.345338
s 1
f 19/1/1 6/2/2 4/3/3 18/4/4
f 37/5/5 38/6/6 36/7/7
f 16/8/8 4/9/3 17/10/9
f 12/11/10 11/12/11 10/13/12
f 15/14/13 13/6/14 12/15/10 10/13/12 8/16/15 6/17/2 19/1/1 20/18/16 21/19/17 22/20/18 23/21/19 1/22/20 2/23/21 3/24/22 24/25/23 18/4/4 4/3/3 16/8/8
f 25/1/24 44/26/25 30/27/26 31/2/27 32/17/28
f 36/28/7 34/29/29 35/30/30
f 40/31/31 38/32/6 39/33/32
f 10/34/12 9/35/33 8/16/15
f 15/36/13 14/32/34 13/6/14
f 27/37/35 48/38/36 47/39/37
f 47/40/37 46/20/38 26/19/39 45/41/40 25/1/24 32/17/28 33/16/41 34/42/29 36/28/7 38/6/6 40/31/31 42/8/42 30/27/26 44/26/25 43/43/43 48/24/36 27/23/35
f 17/44/9 50/45/44 88/46/45
f 50/47/44 17/48/9 4/49/3 65/50/46
f 15/51/13 16/52/8 61/53/47
f 65/54/46 4/55/3 73/56/48
f 76/57/49 73/56/48 4/55/3 5/58/50
f 76/57/49 5/59/50 72/60/51
f 72/60/51 5/59/50 6/61/2
f 6/62/2 86/63/52 72/64/51
f 6/62/2 7/65/53 82/66/54 86/63/52
f 82/66/54 7/65/53 8/67/15
f 82/68/54 8/69/15 85/70/55
f 8/69/15 9/71/33 85/70/55
f 9/72/33 68/73/56 85/74/55
f 9/72/33 10/75/12 68/73/56
f 10/76/12 52/77/57 68/78/56
f 11/79/11 55/80/58 52/77/57 10/76/12
f 55/80/58 11/81/11 60/82/59
f 60/82/59 11/81/11 12/83/10 67/84/60
f 67/84/60 12/85/10 74/86/61
f 74/86/61 12/85/10 13/87/14
f 74/88/61 13/89/14 77/90/62
f 77/90/62 13/91/14 79/92/63
f 79/92/63 13/91/14 14/93/34 80/94/64
f 80/94/64 14/95/34 84/96/65
f 84/97/65 14/98/34 15/99/13 64/100/66
f 64/100/66 15/101/13 61/102/47
f 16/103/8 88/104/45 61/105/47
f 16/103/8 17/106/9 88/104/45
f 57/45/67 28/44/68 42/106/42 54/46/69
f 56/50/70 28/48/68 57/47/67
f 69/105/71 41/51/72 81/107/73
f 56/108/70 29/109/74 28/49/68
f 63/56/75 30/55/26 29/109/74 56/108/70
f 71/57/76 30/55/26 63/56/75
f 75/60/77 31/59/27 30/58/26 71/57/76
f 83/110/78 31/59/27 75/60/77
f 83/111/78 32/112/28 31/61/27
f 87/63/79 32/112/28 83/111/78
f 33/67/41 32/65/28 87/113/79
f 89/114/80 34/71/29 33/69/41
f 35/75/30 34/72/29 89/73/80
f 51/80/81 36/79/7 35/76/30 90/115/82
f 59/82/83 36/79/7 51/80/81
f 49/84/84 37/83/5 36/81/7 59/82/83
f 53/86/85 37/83/5 49/84/84
f 58/88/86 37/85/5 53/116/85
f 62/90/87 38/89/6 37/87/5 58/88/86
f 66/92/88 38/89/6 62/90/87
f 70/117/89 38/91/6 66/92/88
f 78/96/90 39/95/32 38/93/6 70/117/89
f 78/97/90 40/98/31 39/95/32
f 81/100/73 40/98/31 78/97/90
f 81/107/73 41/51/72 40/101/31
f 69/104/71 42/103/42 41/52/72
f 54/46/69 42/103/42 69/104/71
f 6/118/2 5/119/50 4/120/3
f 41/121/72 42/8/42 40/122/31
f 28/9/68 29/123/74 30/27/26 42/10/42
f 6/17/2 8/124/15 7/125/53
f 97/126/91 96/127/92 95/128/93
f 101/129/94 105/130/95 104/131/96
f 118/132/97 119/133/98 116/133/99 113/132/100 110/133/101 112/133/102
f 115/134/103 117/134/104 111/134/105 109/134/106 114/135/107
f 102/136/108 106/137/109 105/138/95
f 110/133/110 109/134/110 111/134/110 112/133/110
f 116/133/111 119/133/111 117/134/111 115/134/111
f 98/139/112 97/130/91 95/128/93 94/140/113 93/141/114 92/142/115 91/143/116 99/144/117
f 103/140/118 104/145/96 105/146/95 106/137/109 107/147/119 108/148/120
f 117/134/121 119/133/122 118/132/123 112/133/124 111/134/125
f 93/141/114 94/149/113 100/150/126
