# Blender 4.2.2 LTS
# www.blender.org
o teal
v 0.155300 3.114965 0.307259
v 0.152310 3.129959 0.307847
v 0.155937 3.144862 0.307082
v 0.217762 3.192732 0.312310
v 0.241011 3.178972 0.312007
v 0.258667 3.143014 0.310358
v 0.261468 3.115722 0.310213
v 0.249703 3.090942 0.308551
v 0.230420 3.071707 0.307796
v 0.205225 3.061297 0.307388
v 0.177691 3.059884 0.308021
v 0.152008 3.070496 0.308437
v 0.133477 3.090942 0.308551
v 0.121698 3.129675 0.310072
v 0.134725 3.167606 0.311323
v 0.152760 3.187643 0.312348
v 0.177955 3.198053 0.312756
v 0.198124 3.163705 0.301476
v 0.220688 3.150301 0.301187
v 0.226585 3.130907 0.300426
v 0.216336 3.106223 0.299457
v 0.191590 3.095999 0.299056
v 0.171395 3.100672 0.299928
v 0.172148 3.159932 0.301565
v -0.230180 3.130131 0.306504
v -0.206358 3.094567 0.305108
v -0.153741 3.137640 0.306799
v -0.205225 3.198053 0.312756
v -0.219621 3.196593 0.317309
v -0.241011 3.178973 0.312007
v -0.259043 3.157149 0.314262
v -0.262836 3.129587 0.310757
v -0.259263 3.101127 0.313561
v -0.230420 3.071707 0.307796
v -0.219621 3.061584 0.312008
v -0.191590 3.058518 0.307967
v -0.152760 3.071707 0.307796
v -0.128405 3.103599 0.308811
v -0.121698 3.129675 0.310072
v -0.128405 3.155812 0.310860
v -0.152760 3.187643 0.312348
v -0.177955 3.198053 0.312756
v -0.198417 3.165145 0.301770
v -0.219439 3.149499 0.300918
v -0.216335 3.106223 0.299457
v -0.184763 3.096670 0.299082
v -0.162492 3.111513 0.299665
v -0.166844 3.155591 0.301395
v -0.163559 3.056375 0.352775
v 0.191590 3.194432 0.377966
v -0.191590 3.052838 0.336717
v 0.205880 3.055034 0.330565
v -0.150895 3.062032 0.361616
v -0.177300 3.192222 0.384215
v 0.191590 3.052838 0.336717
v -0.219621 3.190445 0.365426
v -0.191590 3.194432 0.377966
v -0.139795 3.070181 0.369313
v -0.177300 3.053257 0.344479
v 0.177300 3.053257 0.344479
v 0.139795 3.170742 0.395043
v -0.130685 3.080403 0.376399
v -0.232285 3.184580 0.358218
v 0.123917 3.146631 0.397296
v 0.207349 3.193429 0.371276
v -0.123916 3.092234 0.383172
v 0.163559 3.056375 0.352775
v 0.219621 3.059769 0.326211
v -0.150895 3.180207 0.392438
v -0.119748 3.105216 0.389375
v -0.243385 3.176267 0.351809
v 0.259263 3.153762 0.341488
v 0.232285 3.184580 0.358218
v 0.139795 3.070181 0.369313
v -0.252494 3.165851 0.346236
v 0.243385 3.176267 0.351809
v 0.130686 3.080403 0.376399
v -0.119748 3.132912 0.396856
v 0.123917 3.092234 0.383172
v 0.119748 3.105216 0.389375
v -0.130685 3.159405 0.396684
v 0.259263 3.099648 0.325135
v -0.263431 3.140474 0.337672
v 0.118341 3.118853 0.394767
v 0.243385 3.076176 0.322395
v 0.264839 3.126855 0.332138
v -0.264839 3.126855 0.332138
v 0.163559 3.187437 0.388967
v -0.243385 3.076176 0.322395
v -0.205880 3.055035 0.330565
v 0.155300 3.114965 0.307259
v 0.152310 3.129959 0.307847
v 0.155937 3.144862 0.307082
v 0.198124 3.163705 0.301476
v 0.220688 3.150301 0.301187
v 0.226585 3.130907 0.300426
v 0.216336 3.106223 0.299457
v 0.191590 3.095999 0.299056
v 0.171395 3.100672 0.299928
v 0.172148 3.159932 0.301565
v -0.230180 3.130131 0.306504
v -0.206358 3.094567 0.305108
v -0.198417 3.165145 0.301770
v -0.219439 3.149499 0.300918
v -0.216335 3.106223 0.299457
v -0.184763 3.096670 0.299082
v -0.162492 3.111513 0.299665
v -0.166844 3.155591 0.301395
v 0.032895 3.055907 0.390777
v 0.018271 2.997053 0.355919
v 0.031236 3.056422 0.367257
v 0.017750 3.002064 0.335757
v -0.000000 2.984970 0.349237
v -0.000000 3.055013 0.392396
v -0.032895 3.055907 0.390777
v -0.018271 2.997053 0.355919
v -0.031236 3.056422 0.367257
v -0.000000 3.001437 0.335396
v -0.017750 3.002064 0.335757
vn 0.2960 0.5468 0.7832
vn -0.9821 0.0703 0.1746
vn -0.0138 -0.2258 0.9741
vn -0.7753 0.2918 0.5602
vn -0.5592 0.8201 0.1215
vn -0.8990 0.4239 0.1102
vn -0.4420 0.0296 0.8965
vn -0.0187 -0.2734 0.9617
vn 0.0942 -0.9950 0.0318
vn -0.2355 0.4240 0.8745
vn 0.0912 0.9689 0.2300
vn -0.2383 0.0605 0.9693
vn 0.6163 -0.7756 0.1366
vn 0.0682 0.0897 0.9936
vn -0.9387 0.1749 0.2972
vn 0.2704 0.6456 0.7142
vn 0.4618 0.2275 0.8573
vn 0.8112 -0.1135 0.5737
vn 0.4008 -0.3854 0.8312
vn -0.1002 -0.6210 0.7774
vn -0.4241 -0.4471 0.7876
vn -0.7519 -0.3946 0.5281
vn -0.9348 0.0245 0.3543
vn -0.0963 -0.5437 0.8337
vn -0.4908 0.4969 0.7157
vn 0.0665 -0.2667 0.9615
vn 0.3493 -0.3131 0.8831
vn 0.2445 0.3251 0.9135
vn 0.6440 0.7036 0.3003
vn -0.3831 0.9153 -0.1246
vn -0.9417 -0.3315 0.0570
vn -0.9910 -0.0081 0.1333
vn -0.6434 0.7266 0.2412
vn 0.9916 0.0411 0.1223
vn -0.7895 -0.1559 0.5936
vn -0.4727 0.6257 0.6206
vn -0.0423 -0.8529 0.5204
vn 0.6956 -0.0936 0.7123
vn 0.6308 -0.2401 0.7379
vn -0.0249 -0.6502 0.7594
vn 0.4323 0.6708 0.6026
vn -0.1233 -0.1992 0.9722
vn -0.8293 0.1551 0.5368
vn 0.0248 -0.9916 -0.1267
vn 0.3320 -0.9343 -0.1299
vn -0.2852 -0.9469 -0.1486
vn 0.6667 -0.7207 -0.1902
vn -0.5339 -0.8383 -0.1101
vn -0.6936 -0.7142 -0.0939
vn -0.7934 -0.6008 0.0975
vn -0.8711 -0.4744 -0.1272
vn -0.9999 -0.0128 -0.0061
vn -0.9708 0.2021 0.1289
vn -0.9689 0.2467 0.0188
vn -0.7950 0.6029 0.0668
vn -0.4973 0.8625 0.0939
vn -0.1729 0.9773 0.1225
vn 0.0273 0.9918 0.1245
vn 0.2229 0.9672 0.1218
vn 0.4089 0.9055 0.1133
vn 0.6084 0.7892 0.0838
vn 0.8425 0.5346 0.0667
vn 0.9308 0.3629 0.0438
vn 0.9838 0.1777 0.0234
vn 0.9943 -0.0857 -0.0627
vn 0.9272 -0.3715 -0.0486
vn -0.0256 -0.9916 -0.1266
vn 0.0651 -0.9978 0.0085
vn -0.2212 -0.9674 -0.1230
vn 0.3220 -0.9349 -0.1494
vn -0.4391 -0.8916 -0.1105
vn -0.6572 -0.7502 0.0733
vn -0.7376 -0.6624 -0.1311
vn 0.4865 -0.8725 -0.0444
vn 0.5321 -0.8403 -0.1041
vn 0.6918 -0.7161 -0.0928
vn 0.8222 -0.5643 -0.0747
vn 0.9499 -0.3057 -0.0646
vn 0.9933 0.1147 -0.0144
vn 0.8486 0.3895 -0.3581
vn -0.0272 0.9917 0.1253
vn 0.8184 0.5652 -0.1033
vn -0.2220 0.9676 0.1204
vn -0.4086 0.9056 0.1140
vn -0.6084 0.7883 0.0922
vn -0.7213 0.6875 0.0837
vn -0.8424 0.5346 0.0671
vn -0.9308 0.3630 0.0443
vn -0.9840 0.1768 0.0226
vn -0.9901 -0.1312 -0.0500
vn -0.4497 -0.0266 0.8928
vn -0.5198 -0.4971 0.6948
vn -0.4771 -0.6743 0.5636
vn 0.7693 0.2750 0.5767
vn 0.1552 0.7265 0.6694
vn 0.6582 -0.5627 0.5001
vn -0.0000 0.9748 0.2230
vn 0.0395 0.9744 0.2212
vn 0.0391 0.9733 0.2262
vn -0.0000 0.9763 0.2164
vn -0.0390 0.9733 0.2263
vn -0.0395 0.9745 0.2207
vn -0.0255 -0.9994 -0.0244
vn -0.0254 -0.9994 -0.0244
vn 0.0254 -0.9994 -0.0244
vn 0.0255 -0.9994 -0.0244
vn -0.0000 -0.9997 -0.0243
vn -0.1131 0.9003 0.4202
vn -0.6498 0.3176 0.6905
vn -0.9772 0.1993 0.0740
vn 0.9772 0.1993 0.0740
vn -0.6309 0.4213 0.6515
vn 0.5445 -0.6588 0.5191
vn 0.8688 0.1346 0.4766
vn 0.5763 0.3039 0.7587
vn 0.3534 0.5154 0.7806
vn -0.1642 0.4523 0.8766
vn 0.6093 -0.5944 0.5248
vn -0.4740 0.6978 0.5370
vn -0.1842 -0.8081 0.5594
vn -0.0337 -0.5150 0.8565
vn -0.0336 -0.5150 0.8565
vn -0.0000 -0.5151 0.8571
vn 0.0336 -0.5150 0.8565
vn 0.0337 -0.5150 0.8565
vn 0.8807 -0.2105 0.4243
vt 0.888859 0.277621
vt 0.957024 0.335752
vt 0.793716 0.469776
vt 0.777621 0.388859
vt 0.588072 0.088072
vt 0.542975 0.164248
vt 0.705324 0.025400
vt 0.664248 0.457025
vt 0.794676 0.474600
vt 0.705325 0.474601
vt 0.662365 0.038431
vt 0.750000 0.020999
vt 0.835752 0.042976
vt 0.563683 0.374493
vt 0.625507 0.063683
vt 0.957024 0.164248
vt 0.969776 0.293716
vt 0.888859 0.222379
vt 0.828657 0.132281
vt 0.722379 0.111141
vt 0.649888 0.149888
vt 0.611141 0.222379
vt 0.608420 0.250000
vt 0.632281 0.328658
vt 0.695820 0.380803
vt 0.828658 0.367719
vt 0.874493 0.436317
vt 0.706284 0.030224
vt 0.877226 0.059593
vt 0.794676 0.025399
vt 0.542976 0.335753
vt 0.525399 0.205324
vt 0.520999 0.250000
vt 0.837635 0.038431
vt 0.911928 0.088072
vt 0.538431 0.337635
vt 0.626746 0.274517
vt 0.626760 0.274514
vt 0.624331 0.250000
vt 0.632281 0.171343
vt 0.867719 0.171343
vt 0.874493 0.063683
vt 0.750000 0.391580
vt 0.000000 0.516502
vt 0.000000 0.723297
vt 0.031250 0.744864
vt 1.000000 0.723297
vt 1.000000 0.516502
vt 0.968750 0.516502
vt 0.968750 0.702676
vt 0.125000 0.516502
vt 0.093750 0.516502
vt 0.125000 0.784601
vt 0.937500 0.681135
vt 0.906250 0.516502
vt 0.906250 0.657383
vt 0.875000 0.636672
vt 0.875000 0.516502
vt 0.843750 0.516502
vt 0.843750 0.619092
vt 0.812500 0.516502
vt 0.750000 0.516502
vt 0.750000 0.576308
vt 0.781250 0.593328
vt 0.718750 0.516502
vt 0.718750 0.563738
vt 0.687500 0.516502
vt 0.687500 0.556102
vt 0.656250 0.516502
vt 0.656250 0.553693
vt 0.625000 0.516502
vt 0.593750 0.516502
vt 0.593750 0.553207
vt 0.625000 0.549909
vt 0.562500 0.516502
vt 0.531250 0.516502
vt 0.531250 0.580553
vt 0.562500 0.565094
vt 0.500000 0.516502
vt 0.500000 0.601789
vt 0.468750 0.516502
vt 0.468750 0.628160
vt 0.437500 0.516502
vt 0.437500 0.655988
vt 0.406250 0.516502
vt 0.406250 0.685327
vt 0.375000 0.516502
vt 0.375000 0.710446
vt 0.343750 0.516502
vt 0.343750 0.733201
vt 0.312500 0.516502
vt 0.312500 0.754682
vt 0.281250 0.516502
vt 0.281250 0.774062
vt 0.250000 0.516502
vt 0.250000 0.790598
vt 0.218750 0.795829
vt 0.218750 0.516502
vt 0.187500 0.516502
vt 0.187500 0.795492
vt 0.156250 0.516502
vt 0.156250 0.791701
vt 0.062500 0.516502
vt 0.062500 0.761685
vt 0.093750 0.774466
vt 0.031250 0.516502
vt 0.125000 0.784602
vt 0.937500 0.681136
vt 0.937500 0.516502
vt 0.812500 0.604544
vt 0.781250 0.593329
vt 0.781250 0.516502
vt 0.718750 0.563739
vt 0.625000 0.549910
vt 0.531250 0.580554
vt 0.398910 0.692728
vt 0.281250 0.774063
vt 0.961569 0.337635
vt 0.911928 0.411928
vt 0.835752 0.457024
vt 0.622774 0.440407
vt 0.559593 0.377226
vt 0.837635 0.461569
vt 0.961569 0.162365
vt 0.974600 0.205324
vt 0.862459 0.227631
vt 0.862459 0.272369
vt 0.851390 0.291997
vt 0.864662 0.250000
vt 0.857634 0.228590
vt 0.845338 0.313703
vt 0.588101 0.750000
vt 0.587119 0.758318
vt 0.562500 0.764186
vt 0.562500 0.750000
vt 0.750000 0.135338
vt 0.728590 0.142366
vt 0.813703 0.154662
vt 0.791997 0.148611
vt 0.728590 0.357635
vt 0.658752 0.310970
vt 0.642366 0.271410
vt 0.658752 0.189030
vt 0.708003 0.148611
vt 0.841248 0.310970
vt 0.810970 0.158752
vt 0.648611 0.208003
vt 0.648611 0.291997
vt 0.706121 0.355934
vt 0.686297 0.345338
s 1
f 19/1/1 6/2/2 4/3/3 18/4/4
f 37/5/5 38/6/6 36/7/7
f 16/8/8 4/9/3 17/10/9
f 12/11/10 11/12/11 10/13/12
f 15/14/13 13/6/14 12/15/10 10/13/12 8/16/15 6/17/2 19/1/1 20/18/16 21/19/17 22/20/18 23/21/19 1/22/20 2/23/21 3/24/22 24/25/23 18/4/4 4/3/3 16/8/8
f 25/1/24 44/26/25 30/27/26 31/2/27 32/17/28
f 36/28/7 34/29/29 35/30/30
f 40/31/31 38/32/6 39/33/32
f 10/34/12 9/35/33 8/16/15
f 15/36/13 14/32/34 13/6/14
f 27/37/35 48/38/36 47/39/37
f 47/40/37 46/20/38 26/19/39 45/41/40 25/1/24 32/17/28 33/16/41 34/42/29 36/28/7 38/6/6 40/31/31 42/8/42 30/27/26 44/26/25 43/43/43 48/24/36 27/23/35
f 17/44/9 50/45/44 88/46/45
f 50/47/44 17/48/9 4/49/3 65/50/46
f 15/51/13 16/52/8 61/53/47
f 65/54/46 4/55/3 73/56/48
f 76/57/49 73/56/48 4/55/3 5/58/50
f 76/57/49 5/59/50 72/60/51
f 72/60/51 5/59/50 6/61/2
f 6/62/2 86/63/52 72/64/51
f 6/62/2 7/65/53 82/66/54 86/63/52
f 82/66/54 7/65/53 8/67/15
f 82/68/54 8/69/15 85/70/55
f 8/69/15 9/71/33 85/70/55
f 9/72/33 68/73/56 85/74/55
f 9/72/33 10/75/12 68/73/56
f 10/76/12 52/77/57 68/78/56
f 11/79/11 55/80/58 52/77/57 10/76/12
f 55/80/58 11/81/11 60/82/59
f 60/82/59 11/81/11 12/83/10 67/84/60
f 67/84/60 12/85/10 74/86/61
f 74/86/61 12/85/10 13/87/14
f 74/88/61 13/89/14 77/90/62
f 77/90/62 13/91/14 79/92/63
f 79/92/63 13/91/14 14/93/34 80/94/64
f 80/94/64 14/95/34 84/96/65
f 84/97/65 14/98/34 15/99/13 64/100/66
f 64/100/66 15/101/13 61/102/47
f 16/103/8 88/104/45 61/105/47
f 16/103/8 17/106/9 88/104/45
f 57/45/67 28/44/68 42/106/42 54/46/69
f 56/50/70 28/48/68 57/47/67
f 69/105/71 41/51/72 81/107/73
f 56/108/70 29/109/74 28/49/68
f 63/56/75 30/55/26 29/109/74 56/108/70
f 71/57/76 30/55/26 63/56/75
f 75/60/77 31/59/27 30/58/26 71/57/76
f 83/110/78 31/59/27 75/60/77
f 83/111/78 32/112/28 31/61/27
f 87/63/79 32/112/28 83/111/78
f 33/67/41 32/65/28 87/113/79
f 89/114/80 34/71/29 33/69/41
f 35/75/30 34/72/29 89/73/80
f 51/80/81 36/79/7 35/76/30 90/115/82
f 59/82/83 36/79/7 51/80/81
f 49/84/84 37/83/5 36/81/7 59/82/83
f 53/86/85 37/83/5 49/84/84
f 58/88/86 37/85/5 53/116/85
f 62/90/87 38/89/6 37/87/5 58/88/86
f 66/92/88 38/89/6 62/90/87
f 70/117/89 38/91/6 66/92/88
f 78/96/90 39/95/32 38/93/6 70/117/89
f 78/97/90 40/98/31 39/95/32
f 81/100/73 40/98/31 78/97/90
f 81/107/73 41/51/72 40/101/31
f 69/104/71 42/103/42 41/52/72
f 54/46/69 42/103/42 69/104/71
f 6/118/2 5/119/50 4/120/3
f 41/121/72 42/8/42 40/122/31
f 28/9/68 29/123/74 30/27/26 42/10/42
f 6/17/2 8/124/15 7/125/53
f 97/126/91 96/127/92 95/128/93
f 101/129/94 105/130/95 104/131/96
f 118/132/97 119/133/98 116/133/99 113/132/100 110/133/101 112/133/102
f 115/134/103 117/134/104 111/134/105 109/134/106 114/135/107
f 102/136/108 106/137/109 105/138/95
f 110/133/110 109/134/110 111/134/110 112/133/110
f 116/133/111 119/133/111 117/134/111 115/134/111
f 98/139/112 97/130/91 95/128/93 94/140/113 93/141/114 92/142/115 91/143/116 99/144/117
f 103/140/118 104/145/96 105/146/95 106/137/109 107/147/119 108/148/120
f 117/134/121 119/133/122 118/132/123 112/133/124 111/134/125
f 93/141/114 94/149/113 100/150/126
