# Blender 4.2.2 LTS
# www.blender.org
o teal
v 0.155300 3.111114 0.311674
v 0.152310 3.126101 0.312314
v 0.155937 3.141013 0.311600
v 0.217762 3.188824 0.316991
v 0.241011 3.175068 0.316641
v 0.258667 3.139128 0.314869
v 0.261468 3.111839 0.314631
v 0.249703 3.087077 0.312884
v 0.230420 3.067851 0.312064
v 0.205225 3.057446 0.311619
v 0.177691 3.056026 0.312248
v 0.152008 3.066633 0.312701
v 0.133477 3.087077 0.312884
v 0.121698 3.125793 0.314537
v 0.134725 3.163709 0.315919
v 0.152760 3.183734 0.317011
v 0.177955 3.194139 0.317456
v 0.198124 3.159918 0.306058
v 0.220688 3.146517 0.305724
v 0.226585 3.127132 0.304896
v 0.216336 3.102459 0.303843
v 0.191590 3.092240 0.303406
v 0.171395 3.096903 0.304294
v 0.172148 3.156144 0.306135
v -0.230180 3.126288 0.310971
v -0.206358 3.090740 0.309453
v -0.153741 3.133794 0.311291
v -0.205225 3.194139 0.317456
v -0.219621 3.192629 0.322003
v -0.241011 3.175068 0.316641
v -0.259043 3.153220 0.318822
v -0.262836 3.125697 0.315222
v -0.259263 3.097207 0.317929
v -0.230420 3.067851 0.312064
v -0.219621 3.057682 0.316241
v -0.191590 3.054661 0.312189
v -0.152760 3.067851 0.312064
v -0.128405 3.099731 0.313187
v -0.121698 3.125793 0.314537
v -0.128405 3.151920 0.315415
v -0.152760 3.183734 0.317011
v -0.177955 3.194139 0.317456
v -0.198417 3.161354 0.306357
v -0.219439 3.145719 0.305452
v -0.216335 3.102459 0.303843
v -0.184763 3.092911 0.303435
v -0.162492 3.107747 0.304068
v -0.166844 3.151804 0.305949
v -0.163559 3.052019 0.356989
v 0.191590 3.189793 0.382652
v -0.191590 3.048661 0.340919
v 0.205880 3.050925 0.334775
v -0.150895 3.057576 0.365849
v -0.177300 3.187513 0.388893
v 0.191590 3.048661 0.340919
v -0.219621 3.185945 0.370098
v -0.191590 3.189793 0.382652
v -0.139795 3.065640 0.373574
v -0.177300 3.048993 0.348683
v 0.177300 3.048993 0.348683
v 0.139795 3.165913 0.399648
v -0.130685 3.075783 0.380695
v -0.232285 3.180160 0.362871
v 0.123917 3.141778 0.401818
v 0.207349 3.188864 0.375959
v -0.123916 3.087538 0.387508
v 0.163559 3.052019 0.356989
v 0.219621 3.055709 0.330437
v -0.150895 3.175407 0.397074
v -0.119748 3.100452 0.393756
v -0.243385 3.171919 0.356433
v 0.259263 3.149530 0.346035
v 0.232285 3.180160 0.362871
v 0.139795 3.065640 0.373574
v -0.252494 3.161566 0.350825
v 0.243385 3.171919 0.356433
v 0.130686 3.075783 0.380695
v -0.119748 3.128063 0.401331
v 0.123917 3.087538 0.387508
v 0.119748 3.100452 0.393756
v -0.130685 3.154558 0.401249
v 0.259263 3.095599 0.329497
v -0.263431 3.136284 0.342174
v 0.118341 3.114028 0.399194
v 0.243385 3.072157 0.326677
v 0.264839 3.122728 0.336593
v -0.264839 3.122728 0.336593
v 0.163559 3.182675 0.393629
v -0.243385 3.072157 0.326677
v -0.205880 3.050925 0.334775
v 0.155300 3.111114 0.311674
v 0.152310 3.126101 0.312314
v 0.155937 3.141013 0.311600
v 0.198124 3.159918 0.306058
v 0.220688 3.146517 0.305724
v 0.226585 3.127132 0.304896
v 0.216336 3.102459 0.303843
v 0.191590 3.092240 0.303406
v 0.171395 3.096903 0.304294
v 0.172148 3.156144 0.306135
v -0.230180 3.126288 0.310971
v -0.206358 3.090740 0.309453
v -0.198417 3.161354 0.306357
v -0.219439 3.145719 0.305452
v -0.216335 3.102459 0.303843
v -0.184763 3.092911 0.303435
v -0.162492 3.107747 0.304068
v -0.166844 3.151804 0.305949
v 0.032895 3.051127 0.394988
v 0.018271 2.992663 0.359930
v 0.031236 3.051905 0.371471
v 0.017750 2.997898 0.339785
v -0.000000 2.980654 0.353207
v -0.000000 3.050216 0.396604
v -0.032895 3.051127 0.394988
v -0.018271 2.992663 0.359930
v -0.031236 3.051905 0.371471
v -0.000000 2.997275 0.339423
v -0.017750 2.997898 0.339785
vn 0.2955 0.5437 0.7855
vn -0.9822 0.0692 0.1744
vn -0.0144 -0.2341 0.9721
vn -0.7753 0.2898 0.5612
vn -0.5596 0.8191 0.1259
vn -0.8990 0.4234 0.1124
vn -0.4419 0.0219 0.8968
vn -0.0172 -0.2805 0.9597
vn 0.0937 -0.9953 0.0260
vn -0.2374 0.4181 0.8768
vn 0.0906 0.9675 0.2359
vn -0.2383 0.0531 0.9697
vn 0.6160 -0.7765 0.1326
vn 0.0662 0.0844 0.9942
vn -0.9383 0.1730 0.2993
vn 0.2703 0.6432 0.7164
vn 0.4618 0.2245 0.8581
vn 0.8112 -0.1155 0.5733
vn 0.4009 -0.3880 0.8299
vn -0.0993 -0.6239 0.7752
vn -0.4240 -0.4498 0.7861
vn -0.7518 -0.3966 0.5268
vn -0.9349 0.0223 0.3542
vn -0.0957 -0.5468 0.8318
vn -0.4910 0.4942 0.7174
vn 0.0691 -0.2725 0.9597
vn 0.3507 -0.3171 0.8812
vn 0.2444 0.3207 0.9151
vn 0.6438 0.7017 0.3051
vn -0.3835 0.9158 -0.1192
vn -0.9415 -0.3326 0.0546
vn -0.9911 -0.0091 0.1331
vn -0.6434 0.7249 0.2460
vn 0.9917 0.0399 0.1220
vn -0.7897 -0.1573 0.5929
vn -0.4727 0.6235 0.6227
vn -0.0424 -0.8546 0.5175
vn 0.6956 -0.0958 0.7120
vn 0.6311 -0.2415 0.7372
vn -0.0257 -0.6528 0.7571
vn 0.4316 0.6689 0.6052
vn -0.1231 -0.2072 0.9705
vn -0.8293 0.1534 0.5373
vn 0.0247 -0.9902 -0.1377
vn 0.3319 -0.9329 -0.1398
vn -0.2852 -0.9452 -0.1592
vn 0.6664 -0.7189 -0.1977
vn -0.5337 -0.8371 -0.1197
vn -0.6936 -0.7130 -0.1020
vn -0.7955 -0.5987 0.0941
vn -0.8710 -0.4732 -0.1320
vn -0.9999 -0.0124 -0.0066
vn -0.9705 0.2032 0.1298
vn -0.9687 0.2472 0.0221
vn -0.7946 0.6027 0.0736
vn -0.4969 0.8616 0.1033
vn -0.1728 0.9760 0.1329
vn 0.0273 0.9904 0.1351
vn 0.2225 0.9659 0.1322
vn 0.4084 0.9045 0.1231
vn 0.6078 0.7888 0.0918
vn 0.8420 0.5345 0.0725
vn 0.9305 0.3631 0.0477
vn 0.9837 0.1780 0.0255
vn 0.9944 -0.0846 -0.0637
vn 0.9273 -0.3707 -0.0527
vn -0.0256 -0.9902 -0.1375
vn 0.0655 -0.9978 0.0020
vn -0.2211 -0.9661 -0.1336
vn 0.3219 -0.9332 -0.1597
vn -0.4392 -0.8904 -0.1195
vn -0.6590 -0.7489 0.0689
vn -0.7376 -0.6611 -0.1373
vn 0.4868 -0.8720 -0.0508
vn 0.5318 -0.8393 -0.1131
vn 0.6917 -0.7151 -0.1008
vn 0.8222 -0.5634 -0.0812
vn 0.9500 -0.3050 -0.0673
vn 0.9932 0.1154 -0.0139
vn 0.8492 0.3926 -0.3533
vn -0.0271 0.9903 0.1360
vn 0.8186 0.5662 -0.0965
vn -0.2215 0.9664 0.1306
vn -0.4081 0.9045 0.1237
vn -0.6078 0.7877 0.1008
vn -0.7207 0.6872 0.0910
vn -0.8420 0.5345 0.0729
vn -0.9305 0.3631 0.0482
vn -0.9839 0.1771 0.0246
vn -0.9902 -0.1298 -0.0514
vn -0.4496 -0.0296 0.8927
vn -0.5199 -0.4994 0.6931
vn -0.4771 -0.6763 0.5613
vn 0.7691 0.2734 0.5777
vn 0.1549 0.7241 0.6721
vn 0.6584 -0.5642 0.4981
vn -0.0000 0.9728 0.2316
vn 0.0395 0.9725 0.2296
vn 0.0391 0.9712 0.2351
vn -0.0000 0.9745 0.2244
vn -0.0390 0.9712 0.2352
vn -0.0395 0.9726 0.2291
vn -0.0255 -0.9990 -0.0355
vn -0.0254 -0.9990 -0.0355
vn 0.0254 -0.9990 -0.0355
vn 0.0255 -0.9990 -0.0355
vn -0.0000 -0.9994 -0.0354
vn -0.1130 0.8981 0.4251
vn -0.6503 0.3141 0.6917
vn -0.9770 0.1990 0.0762
vn 0.9770 0.1990 0.0762
vn -0.6310 0.4189 0.6530
vn 0.5445 -0.6606 0.5168
vn 0.8686 0.1338 0.4771
vn 0.5763 0.3013 0.7597
vn 0.3532 0.5130 0.7824
vn -0.1650 0.4487 0.8783
vn 0.6093 -0.5962 0.5227
vn -0.4740 0.6960 0.5394
vn -0.1842 -0.8101 0.5567
vn -0.0337 -0.5196 0.8537
vn -0.0336 -0.5196 0.8538
vn -0.0000 -0.5197 0.8544
vn 0.0336 -0.5196 0.8538
vn 0.0337 -0.5196 0.8537
vn 0.8809 -0.2122 0.4231
vt 0.888859 0.277621
vt 0.957024 0.335752
vt 0.793716 0.469776
vt 0.777621 0.388859
vt 0.588072 0.088072
vt 0.542975 0.164248
vt 0.705324 0.025400
vt 0.664248 0.457025
vt 0.794676 0.474600
vt 0.705325 0.474601
vt 0.662365 0.038431
vt 0.750000 0.020999
vt 0.835752 0.042976
vt 0.563683 0.374493
vt 0.625507 0.063683
vt 0.957024 0.164248
vt 0.969776 0.293716
vt 0.888859 0.222379
vt 0.828657 0.132281
vt 0.722379 0.111141
vt 0.649888 0.149888
vt 0.611141 0.222379
vt 0.608420 0.250000
vt 0.632281 0.328658
vt 0.695820 0.380803
vt 0.828658 0.367719
vt 0.874493 0.436317
vt 0.706284 0.030224
vt 0.877226 0.059593
vt 0.794676 0.025399
vt 0.542976 0.335753
vt 0.525399 0.205324
vt 0.520999 0.250000
vt 0.837635 0.038431
vt 0.911928 0.088072
vt 0.538431 0.337635
vt 0.626746 0.274517
vt 0.626760 0.274514
vt 0.624331 0.250000
vt 0.632281 0.171343
vt 0.867719 0.171343
vt 0.874493 0.063683
vt 0.750000 0.391580
vt 0.000000 0.516502
vt 0.000000 0.723297
vt 0.031250 0.744864
vt 1.000000 0.723297
vt 1.000000 0.516502
vt 0.968750 0.516502
vt 0.968750 0.702676
vt 0.125000 0.516502
vt 0.093750 0.516502
vt 0.125000 0.784601
vt 0.937500 0.681135
vt 0.906250 0.516502
vt 0.906250 0.657383
vt 0.875000 0.636672
vt 0.875000 0.516502
vt 0.843750 0.516502
vt 0.843750 0.619092
vt 0.812500 0.516502
vt 0.750000 0.516502
vt 0.750000 0.576308
vt 0.781250 0.593328
vt 0.718750 0.516502
vt 0.718750 0.563738
vt 0.687500 0.516502
vt 0.687500 0.556102
vt 0.656250 0.516502
vt 0.656250 0.553693
vt 0.625000 0.516502
vt 0.593750 0.516502
vt 0.593750 0.553207
vt 0.625000 0.549909
vt 0.562500 0.516502
vt 0.531250 0.516502
vt 0.531250 0.580553
vt 0.562500 0.565094
vt 0.500000 0.516502
vt 0.500000 0.601789
vt 0.468750 0.516502
vt 0.468750 0.628160
vt 0.437500 0.516502
vt 0.437500 0.655988
vt 0.406250 0.516502
vt 0.406250 0.685327
vt 0.375000 0.516502
vt 0.375000 0.710446
vt 0.343750 0.516502
vt 0.343750 0.733201
vt 0.312500 0.516502
vt 0.312500 0.754682
vt 0.281250 0.516502
vt 0.281250 0.774062
vt 0.250000 0.516502
vt 0.250000 0.790598
vt 0.218750 0.795829
vt 0.218750 0.516502
vt 0.187500 0.516502
vt 0.187500 0.795492
vt 0.156250 0.516502
vt 0.156250 0.791701
vt 0.062500 0.516502
vt 0.062500 0.761685
vt 0.093750 0.774466
vt 0.031250 0.516502
vt 0.125000 0.784602
vt 0.937500 0.681136
vt 0.937500 0.516502
vt 0.812500 0.604544
vt 0.781250 0.593329
vt 0.781250 0.516502
vt 0.718750 0.563739
vt 0.625000 0.549910
vt 0.531250 0.580554
vt 0.398910 0.692728
vt 0.281250 0.774063
vt 0.961569 0.337635
vt 0.911928 0.411928
vt 0.835752 0.457024
vt 0.622774 0.440407
vt 0.559593 0.377226
vt 0.837635 0.461569
vt 0.961569 0.162365
vt 0.974600 0.205324
vt 0.862459 0.227631
vt 0.862459 0.272369
vt 0.851390 0.291997
vt 0.864662 0.250000
vt 0.857634 0.228590
vt 0.845338 0.313703
vt 0.588101 0.750000
vt 0.587119 0.758318
vt 0.562500 0.764186
vt 0.562500 0.750000
vt 0.750000 0.135338
vt 0.728590 0.142366
vt 0.813703 0.154662
vt 0.791997 0.148611
vt 0.728590 0.357635
vt 0.658752 0.310970
vt 0.642366 0.271410
vt 0.658752 0.189030
vt 0.708003 0.148611
vt 0.841248 0.310970
vt 0.810970 0.158752
vt 0.648611 0.208003
vt 0.648611 0.291997
vt 0.706121 0.355934
vt 0.686297 0.345338
s 1
f 19/1/1 6/2/2 4/3/3 18/4/4
f 37/5/5 38/6/6 36/7/7
f 16/8/8 4/9/3 17/10/9
f 12/11/10 11/12/11 10/13/12
f 15/14/13 13/6/14 12/15/10 10/13/12 8/16/15 6/17/2 19/1/1 20/18/16 21/19/17 22/20/18 23/21/19 1/22/20 2/23/21 3/24/22 24/25/23 18/4/4 4/3/3 16/8/8
f 25/1/24 44/26/25 30/27/26 31/2/27 32/17/28
f 36/28/7 34/29/29 35/30/30
f 40/31/31 38/32/6 39/33/32
f 10/34/12 9/35/33 8/16/15
f 15/36/13 14/32/34 13/6/14
f 27/37/35 48/38/36 47/39/37
f 47/40/37 46/20/38 26/19/39 45/41/40 25/1/24 32/17/28 33/16/41 34/42/29 36/28/7 38/6/6 40/31/31 42/8/42 30/27/26 44/26/25 43/43/43 48/24/36 27/23/35
f 17/44/9 50/45/44 88/46/45
f 50/47/44 17/48/9 4/49/3 65/50/46
f 15/51/13 16/52/8 61/53/47
f 65/54/46 4/55/3 73/56/48
f 76/57/49 73/56/48 4/55/3 5/58/50
f 76/57/49 5/59/50 72/60/51
f 72/60/51 5/59/50 6/61/2
f 6/62/2 86/63/52 72/64/51
f 6/62/2 7/65/53 82/66/54 86/63/52
f 82/66/54 7/65/53 8/67/15
f 82/68/54 8/69/15 85/70/55
f 8/69/15 9/71/33 85/70/55
f 9/72/33 68/73/56 85/74/55
f 9/72/33 10/75/12 68/73/56
f 10/76/12 52/77/57 68/78/56
f 11/79/11 55/80/58 52/77/57 10/76/12
f 55/80/58 11/81/11 60/82/59
f 60/82/59 11/81/11 12/83/10 67/84/60
f 67/84/60 12/85/10 74/86/61
f 74/86/61 12/85/10 13/87/14
f 74/88/61 13/89/14 77/90/62
f 77/90/62 13/91/14 79/92/63
f 79/92/63 13/91/14 14/93/34 80/94/64
f 80/94/64 14/95/34 84/96/65
f 84/97/65 14/98/34 15/99/13 64/100/66
f 64/100/66 15/101/13 61/102/47
f 16/103/8 88/104/45 61/105/47
f 16/103/8 17/106/9 88/104/45
f 57/45/67 28/44/68 42/106/42 54/46/69
f 56/50/70 28/48/68 57/47/67
f 69/105/71 41/51/72 81/107/73
f 56/108/70 29/109/74 28/49/68
f 63/56/75 30/55/26 29/109/74 56/108/70
f 71/57/76 30/55/26 63/56/75
f 75/60/77 31/59/27 30/58/26 71/57/76
f 83/110/78 31/59/27 75/60/77
f 83/111/78 32/112/28 31/61/27
f 87/63/79 32/112/28 83/111/78
f 33/67/41 32/65/28 87/113/79
f 89/114/80 34/71/29 33/69/41
f 35/75/30 34/72/29 89/73/80
f 51/80/81 36/79/7 35/76/30 90/115/82
f 59/82/83 36/79/7 51/80/81
f 49/84/84 37/83/5 36/81/7 59/82/83
f 53/86/85 37/83/5 49/84/84
f 58/88/86 37/85/5 53/116/85
f 62/90/87 38/89/6 37/87/5 58/88/86
f 66/92/88 38/89/6 62/90/87
f 70/117/89 38/91/6 66/92/88
f 78/96/90 39/95/32 38/93/6 70/117/89
f 78/97/90 40/98/31 39/95/32
f 81/100/73 40/98/31 78/97/90
f 81/107/73 41/51/72 40/101/31
f 69/104/71 42/103/42 41/52/72
f 54/46/69 42/103/42 69/104/71
f 6/118/2 5/119/50 4/120/3
f 41/121/72 42/8/42 40/122/31
f 28/9/68 29/123/74 30/27/26 42/10/42
f 6/17/2 8/124/15 7/125/53
f 97/126/91 96/127/92 95/128/93
f 101/129/94 105/130/95 104/131/96
f 118/132/97 119/133/98 116/133/99 113/132/100 110/133/101 112/133/102
f 115/134/103 117/134/104 111/134/105 109/134/106 114/135/107
f 102/136/108 106/137/109 105/138/95
f 110/133/110 109/134/110 111/134/110 112/133/110
f 116/133/111 119/133/111 117/134/111 115/134/111
f 98/139/112 97/130/91 95/128/93 94/140/113 93/141/114 92/142/115 91/143/116 99/144/117
f 103/140/118 104/145/96 105/146/95 106/137/109 107/147/119 108/148/120
f 117/134/121 119/133/122 118/132/123 112/133/124 111/134/125
f 93/141/114 94/149/113 100/150/126
